<?xml version="1.0" encoding="UTF-8" standalone="no"?>
<!-- Created with Inkscape (http://www.inkscape.org/) -->

<svg
   width="1080mm"
   height="1080.4099mm"
   viewBox="0 0 1080 1080.4099"
   version="1.1"
   id="svg1"
   inkscape:version="1.3.2 (091e20e, 2023-11-25, custom)"
   xml:space="preserve"
   xmlns:inkscape="http://www.inkscape.org/namespaces/inkscape"
   xmlns:sodipodi="http://sodipodi.sourceforge.net/DTD/sodipodi-0.dtd"
   xmlns="http://www.w3.org/2000/svg"
   xmlns:svg="http://www.w3.org/2000/svg"><sodipodi:namedview
     id="namedview1"
     pagecolor="#ffffff"
     bordercolor="#000000"
     borderopacity="0.25"
     inkscape:showpageshadow="2"
     inkscape:pageopacity="0.0"
     inkscape:pagecheckerboard="0"
     inkscape:deskcolor="#d1d1d1"
     inkscape:document-units="mm" /><defs
     id="defs1" /><g
     inkscape:label="Layer 1"
     inkscape:groupmode="layer"
     id="layer1"
     transform="translate(-1179.7452)"><path
       style="fill:#000000;stroke-width:1.01546"
       d="m 1687.6063,1079.5447 c -128.8729,-7.0147 -249.3782,-60.2641 -343.5099,-151.79165 -90.7121,-88.20261 -144.3406,-194.90431 -160.9615,-320.25649 -4.5196,-34.0864 -4.5196,-100.8581 0,-134.9445 16.0047,-120.70464 66.0253,-223.58617 150.8457,-310.25694 87.263,-89.166645 194.9199,-142.733868 319.3541,-158.9020734 34.9263,-4.5381143 99.4693,-4.5214564 133.8735,0.034556 124.1467,16.4402434 231.181,69.8652664 318.2831,158.8675174 60.3901,61.70751 100.4957,127.03027 127.1085,207.03063 19.2691,57.92442 27.1454,107.45286 27.1454,170.69856 0,63.2457 -7.8763,112.77414 -27.1454,170.69856 -26.554,79.8236 -66.8518,145.45945 -127.1085,207.03063 -111.0862,113.5095 -258.2359,170.481 -417.885,161.7912 z M 1978.739,971.33409 c 53.0188,-28.6607 103.7711,-73.3299 138.3802,-121.79421 13.6313,-19.08839 41.794,-70.71185 41.6442,-76.33578 -0.071,-2.65848 -188.4775,-111.28878 -195.6653,-112.81544 -1.7022,-0.36151 -3.72,1.31258 -4.4842,3.72021 -0.7641,2.40763 -7.2135,13.3062 -14.3319,24.21905 -17.1837,26.34336 -51.9481,60.72375 -78.2632,77.39861 l -19.7203,12.49601 9.5507,17.45187 c 5.2529,9.59853 30.0312,55.25018 55.0629,101.44811 25.0317,46.19793 46.3969,84.03059 47.4781,84.07257 1.0813,0.0419 10.2382,-4.39547 20.3488,-9.861 z m -206.5079,-215.9917 c 92.9773,-23.58563 157.9666,-98.59078 168.3821,-194.33244 7.2051,-66.23008 -20.2106,-137.76987 -70.4574,-183.85461 -28.7294,-26.34969 -58.5611,-42.29989 -98.8544,-52.85473 -17.1168,-4.48375 -25.4641,-5.37956 -50.4945,-5.4189 -33.1109,-0.052 -49.2155,2.6723 -78.0897,13.21008 -59.3615,21.66424 -109.5173,71.73455 -130.8141,130.59108 -10.7022,29.57696 -13.3619,45.24625 -13.3098,78.41243 0.053,33.39159 4.6354,56.21546 17.4856,87.08316 19.4588,46.74211 65.6039,93.55937 112.7802,114.42295 16.9519,7.49697 46.3712,15.75559 64.1021,17.99489 21.9572,2.77303 56.7058,0.46994 79.2699,-5.25391 z m -69.5339,-131.85852 c -43.8375,-9.14604 -74.8761,-53.99446 -66.932,-96.7116 6.9208,-37.21467 33.504,-63.79788 70.7187,-70.71868 34.392,-6.39586 73.2494,13.47406 88.8669,45.44248 27.0946,55.46166 -8.4832,118.29728 -69.6155,122.95113 -7.423,0.56509 -17.7901,0.13159 -23.0381,-0.96333 z M 1484.9683,408.18899 c 16.8159,-32.18194 55.0838,-72.6872 88.964,-94.16519 l 19.486,-12.35295 -5.0871,-8.80635 c -2.7979,-4.8435 -27.5636,-50.2536 -55.0349,-100.91134 -27.4713,-50.65774 -50.1948,-92.444861 -50.4966,-92.860284 -1.1231,-1.545736 -23.9531,10.079654 -43.2306,22.013624 -49.079,30.38303 -95.3569,75.17585 -125.201,121.1831 -12.5406,19.33249 -33.7881,60.20628 -33.6621,64.75587 0.07,2.51097 191.1216,112.59628 195.9156,112.88775 1.1781,0.0716 4.9341,-5.21327 8.3467,-11.74423 z"
       id="path1" /></g></svg>
