<?xml version="1.0" encoding="UTF-8" standalone="no"?>
<!-- Created with Inkscape (http://www.inkscape.org/) -->

<svg
   width="1080mm"
   height="945.00006mm"
   viewBox="0 0 1080 945.00006"
   version="1.1"
   id="svg1"
   inkscape:version="1.3.2 (091e20e, 2023-11-25, custom)"
   xml:space="preserve"
   xmlns:inkscape="http://www.inkscape.org/namespaces/inkscape"
   xmlns:sodipodi="http://sodipodi.sourceforge.net/DTD/sodipodi-0.dtd"
   xmlns="http://www.w3.org/2000/svg"
   xmlns:svg="http://www.w3.org/2000/svg"><sodipodi:namedview
     id="namedview1"
     pagecolor="#ffffff"
     bordercolor="#000000"
     borderopacity="0.25"
     inkscape:showpageshadow="2"
     inkscape:pageopacity="0.0"
     inkscape:pagecheckerboard="0"
     inkscape:deskcolor="#d1d1d1"
     inkscape:document-units="mm" /><defs
     id="defs1" /><g
     inkscape:label="Layer 1"
     inkscape:groupmode="layer"
     id="layer1"
     transform="translate(-2565.2009,-67.499955)"><path
       style="fill:#000000;stroke-width:23.9173"
       d="m 2565.2009,945.00004 v -67.49991 h 45.7715 45.7716 l 11.9775,-40.07826 c 6.5878,-22.04292 64.4933,-204.29295 128.6791,-404.99996 L 2914.1018,67.499955 h 174.458 c 167.0255,0 175.6601,0.8108 202.6716,19.01308 15.5173,10.45713 34.8387,30.390795 42.9364,44.296805 11.4672,19.69233 226.658,724.58041 226.658,742.45 0,2.33194 18.9844,4.2403 42.1876,4.2403 h 42.1875 v 67.4999 67.49996 h -278.4374 -278.4376 v -67.49996 -67.49991 h 47.309 c 34.3751,0 46.2054,-2.88347 43.2721,-10.54706 -2.2195,-5.80066 -14.7247,-47.56629 -27.7878,-92.81237 l -23.7516,-82.26557 H 2994.2093 2861.051 l -28.6723,90.70312 -28.6721,90.70311 41.0596,2.55031 41.0596,2.5503 V 945.44084 1012.5 h -160.3123 -160.3126 z m 852.0284,-69.60942 c -0.096,-1.15999 -44.9088,-152.08596 -99.603,-335.3905 l -99.4439,-333.28148 -44.8689,-2.58618 -44.8689,-2.58618 5.9104,23.68006 c 3.2507,13.02394 47.3803,163.03772 98.0656,333.36376 50.6854,170.32603 92.1554,311.75947 92.1554,314.29686 0,2.53715 20.8827,4.61317 46.4063,4.61317 25.5234,0 46.3346,-0.94952 46.247,-2.10951 z M 3043.4749,413.46766 c -23.3182,-78.87408 -43.7998,-142.00434 -45.5146,-140.28971 -1.7149,1.71488 -23.3768,66.24837 -48.1379,143.40757 l -45.0204,140.28946 h 90.535 90.535 z"
       id="path3" /></g></svg>
