<?xml version="1.0" encoding="UTF-8" standalone="no"?>
<!-- Created with Inkscape (http://www.inkscape.org/) -->

<svg
   width="1080mm"
   height="1080mm"
   viewBox="0 0 1080 1080"
   version="1.1"
   id="svg1"
   inkscape:version="1.3.2 (091e20e, 2023-11-25, custom)"
   sodipodi:docname="MyBrand.svg"
   xmlns:inkscape="http://www.inkscape.org/namespaces/inkscape"
   xmlns:sodipodi="http://sodipodi.sourceforge.net/DTD/sodipodi-0.dtd"
   xmlns="http://www.w3.org/2000/svg"
   xmlns:svg="http://www.w3.org/2000/svg">
  <sodipodi:namedview
     id="namedview1"
     pagecolor="#ffffff"
     bordercolor="#000000"
     borderopacity="0.25"
     inkscape:showpageshadow="2"
     inkscape:pageopacity="0.0"
     inkscape:pagecheckerboard="0"
     inkscape:deskcolor="#d1d1d1"
     inkscape:document-units="mm"
     inkscape:zoom="0.088174197"
     inkscape:cx="1122.7775"
     inkscape:cy="2013.0606"
     inkscape:window-width="1366"
     inkscape:window-height="705"
     inkscape:window-x="-8"
     inkscape:window-y="-8"
     inkscape:window-maximized="1"
     inkscape:current-layer="layer1" />
  <defs
     id="defs1">
    <inkscape:path-effect
       effect="fillet_chamfer"
       id="path-effect10"
       is_visible="true"
       lpeversion="1"
       nodesatellites_param="F,0,0,1,0,0,0,1 @ F,0,1,1,0,70.21612,0,1 @ F,0,0,1,0,0,0,1 @ F,0,0,1,0,70.21612,0,1"
       radius="0"
       unit="px"
       method="auto"
       mode="F"
       chamfer_steps="1"
       flexible="false"
       use_knot_distance="true"
       apply_no_radius="true"
       apply_with_radius="true"
       only_selected="false"
       hide_knots="false" />
    <inkscape:path-effect
       effect="fillet_chamfer"
       id="path-effect9"
       is_visible="true"
       lpeversion="1"
       nodesatellites_param="F,0,0,1,0,0,0,1 @ F,0,0,1,0,0,0,1 @ F,0,0,1,0,0,0,1 @ F,0,0,1,0,0,0,1"
       radius="0"
       unit="px"
       method="auto"
       mode="F"
       chamfer_steps="1"
       flexible="false"
       use_knot_distance="true"
       apply_no_radius="true"
       apply_with_radius="true"
       only_selected="false"
       hide_knots="false" />
    <inkscape:path-effect
       effect="fillet_chamfer"
       id="path-effect8"
       is_visible="true"
       lpeversion="1"
       nodesatellites_param="F,0,0,1,0,0,0,1 @ F,0,0,1,0,0,0,1 @ F,0,0,1,0,0,0,1 @ F,0,0,1,0,0,0,1"
       radius="0"
       unit="px"
       method="auto"
       mode="F"
       chamfer_steps="1"
       flexible="false"
       use_knot_distance="true"
       apply_no_radius="true"
       apply_with_radius="true"
       only_selected="false"
       hide_knots="false" />
    <inkscape:path-effect
       effect="fillet_chamfer"
       id="path-effect2"
       is_visible="true"
       lpeversion="1"
       nodesatellites_param="F,0,0,1,0,0,0,1 @ F,0,0,1,0,0,0,1 @ F,0,0,1,0,0,0,1 @ F,0,0,1,0,0,0,1 @ F,0,0,1,0,0,0,1 @ F,0,0,1,0,0,0,1 @ F,0,0,1,0,0,0,1 @ F,0,0,1,0,0,0,1 @ F,0,0,1,0,0,0,1 @ F,0,0,1,0,0,0,1 @ F,0,0,1,0,0,0,1 @ F,0,0,1,0,73.421208,0,1 @ F,0,0,1,0,0,0,1 @ F,0,0,1,0,0,0,1 @ F,0,0,1,0,0,0,1 @ F,0,0,1,0,0,0,1"
       radius="0"
       unit="px"
       method="auto"
       mode="F"
       chamfer_steps="1"
       flexible="false"
       use_knot_distance="true"
       apply_no_radius="true"
       apply_with_radius="true"
       only_selected="false"
       hide_knots="false" />
  </defs>
  <g
     inkscape:label="Layer 1"
     inkscape:groupmode="layer"
     id="layer1">
    <g
       id="g10"
       transform="rotate(45,400.82783,553.33188)">
      <g
         id="text1">
        <path
           style="color:#000000;-inkscape-font-specification:'Outfit Ultra-Bold';fill:#ffffff;stroke-linecap:round;stroke-linejoin:round;-inkscape-stroke:none;paint-order:stroke fill markers"
           d="m 275.57031,227.9707 a 9.2372737,9.2372737 0 0 0 -9.23633,9.23633 v 467.27734 a 9.2372737,9.2372737 0 0 0 9.23633,9.23633 h 117.31446 a 9.2372737,9.2372737 0 0 0 9.23632,-9.23633 V 496.1875 l 71.37305,107.94141 a 9.2372737,9.2372737 0 0 0 7.70508,4.14062 h 76.45117 a 9.2372737,9.2372737 0 0 0 7.68945,-4.11914 l 72.04883,-108.29492 v 208.6289 a 9.2372737,9.2372737 0 0 0 9.23633,9.23633 h 116.6543 a 9.2372737,9.2372737 0 0 0 9.23632,-9.23633 V 237.20703 a 9.2372737,9.2372737 0 0 0 -9.23632,-9.23633 h -85.01953 a 9.2372737,9.2372737 0 0 0 -7.71094,4.15039 L 519.70312,460.89453 368.29102,232.10937 a 9.2372737,9.2372737 0 0 0 -7.70118,-4.13867 z m 9.23633,18.47266 h 70.82031 l 153.02149,231.2168 -16.70703,25.33789 a 9.2372737,9.2372737 0 0 0 7.71093,14.32031 h 40.20313 a 9.2372737,9.2372737 0 0 0 7.70312,-14.33399 L 530.78711,477.64258 683.23242,246.44336 h 70.81055 V 695.24805 H 655.86133 V 468.08984 l 16.90625,-25.41211 a 9.2372737,9.2372737 0 0 0 -5.15235,-13.99609 l -18.45312,-5.27344 a 9.2372737,9.2372737 0 0 0 -11.77344,8.88086 v 30.21875 l -84.6875,127.28906 H 486.16406 L 402.12109,462.69531 V 432.28906 A 9.2372737,9.2372737 0 0 0 390.3457,423.4082 l -18.45312,5.27344 a 9.2372737,9.2372737 0 0 0 -5.16797,13.97461 L 383.64844,468.25 v 226.99805 h -98.8418 z m 234.92578,247.9668 2.93555,4.43554 h -5.86133 z"
           id="path1" />
      </g>
      <g
         id="g7"
         transform="matrix(0,-0.61168162,0.61168162,0,183.68333,893.76119)">
        <path
           id="rect5"
           style="fill:#e8de41;fill-opacity:1;stroke:none;stroke-width:17.4481;stroke-linecap:round;stroke-linejoin:miter;stroke-dasharray:none;stroke-opacity:1;paint-order:stroke fill markers"
           d="m 40.314335,384.04736 v 94.11777 a 91.237717,91.237717 0 0 0 -80.62867,90.47923 91.237717,91.237717 0 0 0 80.62867,90.47923 v 94.11829 H 354.34168 V 384.04736 Z" />
        <rect
           style="fill:#e8de41;fill-opacity:1;stroke:none;stroke-width:17.4481;stroke-linecap:round;stroke-linejoin:miter;stroke-dasharray:none;stroke-opacity:1;paint-order:stroke fill markers"
           id="rect6"
           width="314.0275"
           height="369.19449"
           x="374.49902"
           y="384.04718" />
        <path
           id="rect7"
           style="fill:#e8de41;fill-opacity:1;stroke:none;stroke-width:17.4481;stroke-linecap:round;stroke-linejoin:miter;stroke-dasharray:none;stroke-opacity:1;paint-order:stroke fill markers"
           d="m -708.68387,384.04736 v 369.19452 h -314.02733 v -94.11829 a 91.237717,91.237717 0 0 1 -80.6287,-90.47923 91.237717,91.237717 0 0 1 80.6287,-90.59292 v -94.00408 z"
           transform="scale(-1,1)" />
      </g>
      <path
         id="rect8"
         d="m 171.03926,184.54237 h 143.41341 a 70.21612,70.21612 45 0 1 70.21612,70.21612 v 61.81419 H 241.25538 a 70.21612,70.21612 45 0 1 -70.21612,-70.21612 z"
         style="fill:#79e841;fill-opacity:1;stroke:none;stroke-width:24.17;stroke-linecap:round;stroke-linejoin:miter;stroke-dasharray:none;stroke-opacity:1;paint-order:stroke fill markers"
         inkscape:path-effect="#path-effect10"
         inkscape:original-d="M 171.03926,184.54237 H 384.66879 V 316.57268 H 171.03926 Z"
         transform="translate(73.516878,-72.016533)" />
    </g>
  </g>
</svg>
