<?xml version="1.0" encoding="UTF-8" standalone="no"?>
<!-- Created with Inkscape (http://www.inkscape.org/) -->

<svg
   width="1080mm"
   height="1080mm"
   viewBox="0 0 1080 1080"
   version="1.1"
   id="svg1"
   inkscape:version="1.3.2 (091e20e, 2023-11-25, custom)"
   xml:space="preserve"
   sodipodi:docname="Target icon.svg"
   xmlns:inkscape="http://www.inkscape.org/namespaces/inkscape"
   xmlns:sodipodi="http://sodipodi.sourceforge.net/DTD/sodipodi-0.dtd"
   xmlns="http://www.w3.org/2000/svg"
   xmlns:svg="http://www.w3.org/2000/svg"><sodipodi:namedview
     id="namedview1"
     pagecolor="#ffffff"
     bordercolor="#000000"
     borderopacity="0.25"
     inkscape:showpageshadow="2"
     inkscape:pageopacity="0.0"
     inkscape:pagecheckerboard="0"
     inkscape:deskcolor="#d1d1d1"
     inkscape:document-units="mm"
     inkscape:zoom="0.088174197"
     inkscape:cx="1587.7661"
     inkscape:cy="1763.5545"
     inkscape:window-width="1366"
     inkscape:window-height="705"
     inkscape:window-x="-8"
     inkscape:window-y="-8"
     inkscape:window-maximized="1"
     inkscape:current-layer="layer1" /><defs
     id="defs1" /><g
     inkscape:label="Layer 1"
     inkscape:groupmode="layer"
     id="layer1"><path
       style="fill:#000000;stroke-width:59.3174"
       d="M 462.58126,1076.2218 C 379.6021,1063.1376 277.1864,1020.0992 213.08798,971.37707 118.11839,899.18953 45.722652,790.17596 14.349656,672.11824 2.4713363,627.41959 1.0038221,612.78183 1.0038221,539.02949 c 0,-73.75234 1.465141,-88.39009 13.3458339,-133.08875 C 45.722652,287.88243 118.11839,178.86945 213.08798,106.68191 259.21737,71.61818 346.96921,29.394248 406.91126,13.418292 451.66923,1.4895425 466.14981,0.03330089 540.00001,0.03330089 c 73.18289,0 88.53009,1.51260431 131.33177,12.94899811 45.68569,12.206349 139.86754,51.665482 139.86754,58.599691 0,1.749875 -14.38744,17.442891 -31.97269,34.87154 l -31.97269,31.68856 -20.39689,-10.40547 C 715.63835,122.0125 686.5212,111.24698 662.15181,103.81153 622.19974,91.621201 610.19152,90.292502 540.00001,90.292502 c -70.44657,0 -82.11609,1.304983 -122.79658,13.705888 -153.76978,46.8839 -265.35062,158.46474 -312.23452,312.23451 -12.403277,40.6805 -13.705887,52.35002 -13.705887,122.79659 0,70.44658 1.304983,82.11609 13.705887,122.79599 46.8839,153.77037 158.46474,265.35121 312.23452,312.23511 40.68049,12.40328 52.35001,13.7059 122.79658,13.7059 70.44657,0 82.11609,-1.305 122.79599,-13.7059 153.77037,-46.8839 265.35121,-158.46474 312.23511,-312.23511 12.40328,-40.6799 13.70589,-52.34941 13.70589,-122.79599 0,-70.19211 -1.3287,-82.19973 -13.51903,-122.1518 -7.43544,-24.36939 -18.20156,-53.48654 -23.92509,-64.70524 l -10.40547,-20.39689 31.68855,-31.97269 c 17.42866,-17.58525 33.07364,-31.97269 34.76714,-31.97269 7.1703,0 45.9348,91.90881 58.2687,138.15148 11.9293,44.72595 13.3844,59.18932 13.3844,133.04783 0,73.75234 -1.4651,88.3901 -13.3458,133.08875 -31.373,118.05772 -103.76877,227.07129 -198.73836,299.25883 -47.16567,35.85083 -133.99689,77.41283 -193.82328,92.77243 -56.46249,14.4966 -158.15156,20.3281 -210.5075,12.0723 z M 482.19398,850.656 C 416.45781,836.50168 363.26845,807.65503 317.40303,761.2854 279.36276,722.82694 254.2608,682.32084 238.34475,633.7108 c -9.93033,-30.33019 -12.09008,-47.24219 -12.09008,-94.68131 0,-47.43971 2.15915,-64.35112 12.09008,-94.68131 15.91605,-48.61004 41.01801,-89.11614 79.05828,-127.5746 36.84917,-37.25431 72.81392,-59.99721 122.98165,-77.76812 31.44002,-11.13744 45.66849,-13.10916 97.10443,-13.45675 50.47201,-0.35591 65.93904,1.49479 95.17304,11.28395 35.82417,11.99932 63.02656,24.36583 63.02656,28.65388 0,1.32871 -14.44499,17.07986 -32.10022,34.99729 l -32.09964,32.57773 -19.05691,-7.96278 c -25.78055,-10.77145 -84.50006,-14.62115 -116.93127,-7.66618 -84.98944,18.22706 -156.9225,88.43044 -176.17397,171.93634 -31.88312,138.29859 77.97987,275.4144 220.67331,275.4144 105.362,0 199.18201,-76.74014 221.59629,-181.25451 6.87015,-32.0326 3.14382,-91.0576 -7.32867,-116.12455 l -7.62585,-18.25079 31.48096,-32.90635 c 17.31417,-18.09834 33.09379,-32.90635 35.06609,-32.90635 4.72167,0 24.63691,46.13888 33.60036,77.84465 4.21748,14.91418 7.04633,47.54351 6.96981,80.35495 -0.23727,89.70992 -27.42067,155.30313 -91.16201,219.74501 -59.11872,59.76884 -125.35672,88.73651 -210.04126,91.8566 -27.62234,1.02026 -59.2854,-0.11866 -70.36175,-2.4854 z m 17.4773,-232.52671 c -66.01912,-33.35182 -65.9088,-124.45628 0.17794,-158.52822 22.0299,-11.35513 53.80863,-13.04035 75.29281,-3.99206 5.22587,2.20067 36.61073,-25.93655 102.44477,-91.84179 l 94.91206,-95.01406 -0.91349,-36.87233 -0.9135,-36.8723 93.08152,-92.85966 93.08152,-92.8602673 V 65.737444 122.18689 h 56.44879 56.4495 l -92.86028,93.08151 -92.85966,93.08152 -36.90435,-0.91942 -36.90375,-0.91942 -94.68724,94.91263 -94.68722,94.91264 5.53431,20.29132 c 14.92367,54.69067 -29.57211,112.79745 -86.37568,112.79745 -9.87814,0 -28.0263,-5.08351 -40.32873,-11.29999 z"
       id="path1" /></g></svg>
