<?xml version="1.0" encoding="UTF-8" standalone="no"?>
<!-- Created with Inkscape (http://www.inkscape.org/) -->

<svg
   width="458.04184mm"
   height="511.91345mm"
   viewBox="0 0 458.04184 511.91345"
   version="1.1"
   id="svg1"
   inkscape:version="1.3.2 (091e20e, 2023-11-25, custom)"
   sodipodi:docname="South Keystone portfolio template.svg"
   xml:space="preserve"
   inkscape:export-filename="South Keystone portfolio template.png"
   inkscape:export-xdpi="96"
   inkscape:export-ydpi="96"
   xmlns:inkscape="http://www.inkscape.org/namespaces/inkscape"
   xmlns:sodipodi="http://sodipodi.sourceforge.net/DTD/sodipodi-0.dtd"
   xmlns="http://www.w3.org/2000/svg"
   xmlns:svg="http://www.w3.org/2000/svg"><sodipodi:namedview
     id="namedview1"
     pagecolor="#ffffff"
     bordercolor="#000000"
     borderopacity="0.25"
     inkscape:showpageshadow="2"
     inkscape:pageopacity="0.0"
     inkscape:pagecheckerboard="0"
     inkscape:deskcolor="#d1d1d1"
     inkscape:document-units="mm"
     inkscape:zoom="0.08"
     inkscape:cx="1718.75"
     inkscape:cy="5131.25"
     inkscape:window-width="1366"
     inkscape:window-height="705"
     inkscape:window-x="-8"
     inkscape:window-y="-8"
     inkscape:window-maximized="1"
     inkscape:current-layer="layer1" /><defs
     id="defs1" /><g
     inkscape:label="Layer 1"
     inkscape:groupmode="layer"
     id="layer1"
     transform="translate(-117.76028,-1509.6222)"><path
       id="text52"
       style="font-style:normal;font-variant:normal;font-weight:normal;font-stretch:normal;font-size:663.621px;line-height:1;font-family:Vicenza;-inkscape-font-specification:'Vicenza, Normal';font-variant-ligatures:normal;font-variant-caps:normal;font-variant-numeric:normal;font-variant-east-asian:normal;text-align:center;text-decoration-color:#000000;letter-spacing:0px;text-anchor:middle;opacity:0.964371;fill:#ffffff;fill-opacity:1;stroke:none;stroke-width:10.6227;stroke-linejoin:round;stroke-opacity:1;paint-order:stroke fill markers"
       d="m 117.76028,1509.6222 v 511.9135 h 458.04187 v -511.9135 z m 20.96422,20.9629 H 554.83932 V 2000.573 H 138.7245 Z m 175.00012,29.1263 v 5.1684 c 6.50149,0 11.47393,4.4982 14.91572,13.4945 3.633,8.9965 5.44986,20.0027 5.44986,33.0191 v 308.6582 c 0,12.8249 -1.81686,23.7357 -5.44986,32.732 -3.44179,8.9966 -8.41423,13.4947 -14.91572,13.4947 v 5.1684 h 92.35794 v -5.1684 c -6.31024,0 -11.28087,-4.4981 -14.9139,-13.4947 -3.63336,-8.9963 -5.44986,-19.9071 -5.44986,-32.732 v -136.69 -6.2976 -52.8473 l 32.77834,-53.0754 37.49366,-59.7479 c 8.03095,-13.208 15.87223,-24.2142 23.52071,-33.0191 7.64885,-8.9963 14.62745,-13.4945 20.93767,-13.4945 v -5.1684 h -48.47301 v 5.1684 c 6.69269,0.5742 10.03839,5.0721 10.03839,13.4945 0,8.6135 -3.92052,19.6197 -11.76057,33.0191 l -64.53519,102.791 v -102.791 c 0,-13.0164 1.8165,-24.0226 5.44986,-33.0191 3.63303,-8.9963 8.60366,-13.4945 14.9139,-13.4945 v -5.1684 z m -95.94464,0.2872 c -13.19402,0 -24.95374,5.0729 -35.27947,15.2179 -10.32576,9.9537 -15.48873,22.0126 -15.48873,36.1773 v 56.5637 c 0,12.2505 1.24277,22.2996 3.7286,30.1476 2.48582,7.6567 6.59704,16.1748 12.33358,25.5542 l 65.10954,109.9683 c 3.82436,6.1254 6.40607,11.5807 7.74458,16.3661 1.52975,4.5939 2.29472,10.432 2.29472,17.5143 v 70.9196 c 0,7.6566 -1.91246,14.2604 -5.73679,19.8113 -3.63315,5.3597 -8.79611,8.0394 -15.48874,8.0394 h -10.3258 c -12.0467,0 -21.89443,-3.924 -29.54311,-11.772 -7.64871,-8.0394 -13.28946,-17.61 -16.92259,-28.7119 -3.63313,-11.2935 -5.44986,-21.8218 -5.44986,-31.5839 h -4.87594 v 77.2362 h 4.87594 c 0,-4.7854 3.15524,-7.178 9.4654,-7.178 4.97167,0 9.56112,1.0527 13.76791,3.1584 7.26626,2.6798 13.95875,4.0196 20.0777,4.0196 h 43.02407 c 13.38522,0 24.76245,-4.9767 34.13212,-14.9304 9.36965,-10.145 14.05485,-22.3001 14.05485,-36.4647 v -54.5532 c 0,-12.442 -1.14748,-22.587 -3.44209,-30.4351 -2.2946,-7.8479 -6.40584,-16.5577 -12.3336,-26.1285 l -62.24135,-105.6612 c -5.5453,-8.9966 -9.17829,-16.9406 -10.89926,-23.8315 -1.72096,-7.0824 -2.58168,-15.8872 -2.58168,-26.415 v -60.0089 c 0,-7.848 2.39024,-14.4521 7.17067,-19.8119 4.78044,-5.3595 10.42165,-8.0393 16.92303,-8.0393 l 11.75968,-0.2868 c 11.66427,0 21.22522,4.0194 28.6827,12.0589 7.45749,7.8481 13.00295,17.4191 16.63608,28.7125 3.63314,11.2935 5.44942,21.8212 5.44942,31.5833 h 4.8764 v -77.2363 h -4.8764 c 0,4.9768 -3.44153,7.4654 -10.32536,7.4654 -4.398,0 -8.60498,-1.0527 -12.62053,-3.1582 -7.26629,-2.8712 -14.05451,-4.3072 -20.36468,-4.3072 z m 211.61597,170.5549 -33.42502,51.7243 40.23002,129.4475 c 6.31024,14.3559 9.46449,27.6585 9.46449,39.9091 0,9.7621 -3.44142,14.6439 -10.32535,14.6439 v 5.1684 h 91.21149 v -5.1684 c -5.92779,0 -11.85657,-4.1144 -17.78438,-12.3449 -5.73652,-8.2313 -10.51754,-18.1845 -14.3418,-29.8609 -0.47632,-1.5888 -65.02945,-193.519 -65.02945,-193.519 z"
       inkscape:export-filename=".\text52.svg"
       inkscape:export-xdpi="96"
       inkscape:export-ydpi="96" /></g></svg>
