<?xml version="1.0" encoding="UTF-8" standalone="no"?>
<!-- Created with Inkscape (http://www.inkscape.org/) -->

<svg
   width="517.17877mm"
   height="111.51929mm"
   viewBox="0 0 517.17877 111.51929"
   version="1.1"
   id="svg1"
   inkscape:version="1.3.2 (091e20e, 2023-11-25, custom)"
   xml:space="preserve"
   sodipodi:docname="SK wordmark(white).svg"
   xmlns:inkscape="http://www.inkscape.org/namespaces/inkscape"
   xmlns:sodipodi="http://sodipodi.sourceforge.net/DTD/sodipodi-0.dtd"
   xmlns="http://www.w3.org/2000/svg"
   xmlns:svg="http://www.w3.org/2000/svg"><sodipodi:namedview
     id="namedview1"
     pagecolor="#ffffff"
     bordercolor="#000000"
     borderopacity="0.25"
     inkscape:showpageshadow="2"
     inkscape:pageopacity="0.0"
     inkscape:pagecheckerboard="0"
     inkscape:deskcolor="#d1d1d1"
     inkscape:document-units="mm"
     inkscape:zoom="0.32"
     inkscape:cx="1060.9375"
     inkscape:cy="320.3125"
     inkscape:window-width="1366"
     inkscape:window-height="705"
     inkscape:window-x="-8"
     inkscape:window-y="-8"
     inkscape:window-maximized="1"
     inkscape:current-layer="layer1"
     showguides="true" /><defs
     id="defs1" /><g
     inkscape:label="Layer 1"
     inkscape:groupmode="layer"
     id="layer1"
     transform="translate(1332.9367,-4780.1019)"><path
       id="text6"
       style="font-style:normal;font-variant:normal;font-weight:normal;font-stretch:normal;font-size:107.701px;line-height:1;font-family:Vicenza;-inkscape-font-specification:'Vicenza, Normal';font-variant-ligatures:normal;font-variant-caps:normal;font-variant-numeric:normal;font-variant-east-asian:normal;text-align:center;text-decoration-color:#000000;letter-spacing:0px;text-anchor:middle;opacity:0.964371;fill:#ffffff;fill-opacity:1;stroke:none;stroke-width:2.92794;stroke-linejoin:round;stroke-opacity:1;paint-order:stroke fill markers"
       d="M -1120.1373 4780.1019 L -1120.1373 4781.4708 C -1118.4135 4781.4708 -1117.0951 4782.6624 -1116.1825 4785.0453 C -1115.2193 4787.4281 -1114.7376 4790.3429 -1114.7376 4793.7905 L -1114.7376 4875.5436 C -1114.7376 4878.9405 -1115.2193 4881.83 -1116.1825 4884.2129 C -1117.0951 4886.5957 -1118.4135 4887.7873 -1120.1373 4887.7873 L -1120.1373 4889.1562 L -1095.6499 4889.1562 L -1095.6499 4887.7873 C -1097.3229 4887.7873 -1098.6404 4886.5957 -1099.6037 4884.2129 C -1100.567 4881.83 -1101.049 4878.9405 -1101.049 4875.5436 L -1101.049 4839.3391 L -1101.049 4837.671 L -1101.049 4823.6734 L -1092.3581 4809.6159 L -1082.4171 4793.7905 C -1080.2878 4790.2922 -1078.2087 4787.3774 -1076.1808 4785.0453 C -1074.1528 4782.6624 -1072.3023 4781.4708 -1070.6292 4781.4708 L -1070.6292 4780.1019 L -1083.4816 4780.1019 L -1083.4816 4781.4708 C -1081.7071 4781.6229 -1080.8198 4782.8145 -1080.8198 4785.0453 C -1080.8198 4787.3267 -1081.8592 4790.2415 -1083.9379 4793.7905 L -1101.049 4821.0162 L -1101.049 4793.7905 C -1101.049 4790.3429 -1100.567 4787.4281 -1099.6037 4785.0453 C -1098.6404 4782.6624 -1097.3229 4781.4708 -1095.6499 4781.4708 L -1095.6499 4780.1019 L -1120.1373 4780.1019 z M -1319.476 4782.5384 C -1322.9743 4782.5384 -1326.0922 4783.8821 -1328.83 4786.5692 C -1331.5677 4789.2056 -1332.9367 4792.3993 -1332.9367 4796.151 L -1332.9367 4811.1326 C -1332.9367 4814.3773 -1332.6072 4817.0395 -1331.9481 4819.1181 C -1331.289 4821.1461 -1330.199 4823.4019 -1328.678 4825.8862 L -1311.4145 4855.0131 C -1310.4005 4856.6355 -1309.7163 4858.0802 -1309.3614 4859.3477 C -1308.9558 4860.5645 -1308.7532 4862.1108 -1308.7532 4863.9867 L -1308.7532 4882.7706 C -1308.7532 4884.7985 -1309.26 4886.548 -1310.274 4888.0183 C -1311.2373 4889.4379 -1312.6063 4890.1474 -1314.3807 4890.1474 L -1317.1185 4890.1474 C -1320.3126 4890.1474 -1322.9237 4889.1079 -1324.9517 4887.0292 C -1326.9796 4884.8999 -1328.4749 4882.3651 -1329.4382 4879.4245 C -1330.4015 4876.4333 -1330.8831 4873.6448 -1330.8831 4871.0591 L -1332.176 4871.0591 L -1332.176 4891.5163 L -1330.8831 4891.5163 C -1330.8831 4890.2488 -1330.0467 4889.6151 -1328.3737 4889.6151 C -1327.0555 4889.6151 -1325.8386 4889.8941 -1324.7232 4890.4518 C -1322.7967 4891.1615 -1321.0224 4891.5163 -1319.4001 4891.5163 L -1307.9925 4891.5163 C -1304.4435 4891.5163 -1301.4272 4890.1984 -1298.9429 4887.562 C -1296.4587 4884.875 -1295.2165 4881.6554 -1295.2165 4877.9037 L -1295.2165 4863.4544 C -1295.2165 4860.159 -1295.5207 4857.4716 -1296.1291 4855.3929 C -1296.7375 4853.3142 -1297.8275 4851.0079 -1299.3992 4848.4729 L -1315.9016 4820.4865 C -1317.3718 4818.1037 -1318.335 4815.9999 -1318.7913 4814.1748 C -1319.2476 4812.2989 -1319.476 4809.9667 -1319.476 4807.1783 L -1319.476 4791.2842 C -1319.476 4789.2055 -1318.8423 4787.456 -1317.5748 4786.0364 C -1316.3074 4784.6168 -1314.8116 4783.9074 -1313.0878 4783.9074 L -1309.9696 4783.8314 C -1306.877 4783.8314 -1304.3422 4784.8961 -1302.3649 4787.0255 C -1300.3877 4789.1042 -1298.9176 4791.639 -1297.9543 4794.6302 C -1296.9911 4797.6215 -1296.5089 4800.4099 -1296.5089 4802.9956 L -1295.2165 4802.9956 L -1295.2165 4782.5384 L -1296.5089 4782.5384 C -1296.5089 4783.8566 -1297.4216 4784.5156 -1299.2468 4784.5156 C -1300.4128 4784.5156 -1301.5281 4784.2366 -1302.5928 4783.6789 C -1304.5194 4782.9185 -1306.3194 4782.5384 -1307.9925 4782.5384 L -1319.476 4782.5384 z M -978.62396 4813.6451 C -981.04302 4813.6451 -983.19912 4814.5739 -985.0923 4816.432 C -986.98548 4818.255 -987.93244 4820.4641 -987.93244 4823.0585 L -987.93244 4833.418 C -987.93244 4835.6618 -987.70452 4837.5028 -987.24876 4838.9402 C -986.79299 4840.3425 -986.03916 4841.9026 -984.9874 4843.6205 L -973.04962 4863.7619 C -972.34845 4864.8838 -971.87497 4865.8827 -971.62955 4866.7591 C -971.34908 4867.6006 -971.20891 4868.67 -971.20891 4869.9672 L -971.20891 4882.9566 C -971.20891 4884.359 -971.55986 4885.5686 -972.26104 4886.5853 C -972.92716 4887.567 -973.8736 4888.0576 -975.10066 4888.0576 L -976.99357 4888.0576 C -979.20228 4888.0576 -981.00794 4887.3391 -982.41029 4885.9016 C -983.81265 4884.4292 -984.84683 4882.6759 -985.51295 4880.6425 C -986.17906 4878.5741 -986.51237 4876.6459 -986.51237 4874.8579 L -987.40637 4874.8579 L -987.40637 4889.0043 L -986.51237 4889.0043 C -986.51237 4888.1278 -985.93402 4887.6896 -984.77707 4887.6896 C -983.86554 4887.6896 -983.02397 4887.8823 -982.25268 4888.2679 C -980.92044 4888.7587 -979.69313 4889.0043 -978.57125 4889.0043 L -970.68336 4889.0043 C -968.22924 4889.0043 -966.14323 4888.0926 -964.42534 4886.2696 C -962.70746 4884.4115 -961.84824 4882.1853 -961.84824 4879.5909 L -961.84824 4869.5993 C -961.84824 4867.3205 -962.0585 4865.4624 -962.47921 4864.0249 C -962.89992 4862.5875 -963.65374 4860.9921 -964.74057 4859.2392 L -976.15228 4839.8869 C -977.16898 4838.2391 -977.83507 4836.7839 -978.1506 4835.5218 C -978.46613 4834.2246 -978.62396 4832.6121 -978.62396 4830.6838 L -978.62396 4819.6928 C -978.62396 4818.2554 -978.18578 4817.0457 -977.30931 4816.064 C -976.43284 4815.0824 -975.39866 4814.5918 -974.20666 4814.5918 L -972.05072 4814.5391 C -969.91213 4814.5391 -968.1589 4815.2753 -966.79161 4816.7477 C -965.42431 4818.1851 -964.40778 4819.9384 -963.74166 4822.0068 C -963.07555 4824.0753 -962.74224 4826.0035 -962.74224 4827.7915 L -961.84824 4827.7915 L -961.84824 4813.6451 L -962.74224 4813.6451 C -962.74224 4814.5566 -963.37355 4815.0124 -964.63567 4815.0124 C -965.44202 4815.0124 -966.21298 4814.8193 -966.94922 4814.4337 C -968.28146 4813.9078 -969.52642 4813.6451 -970.68336 4813.6451 L -978.62396 4813.6451 z M -1060.0309 4813.6978 L -1060.0309 4814.644 C -1058.8389 4814.644 -1057.9096 4815.4679 -1057.2435 4817.1157 C -1056.5773 4818.7634 -1056.2445 4820.7794 -1056.2445 4823.1634 L -1056.2445 4879.6958 C -1056.2445 4882.0448 -1056.5773 4884.0436 -1057.2435 4885.6913 C -1057.9096 4887.3391 -1058.8389 4888.163 -1060.0309 4888.163 L -1060.0309 4889.1092 L -1028.0044 4889.1092 L -1028.0044 4874.9633 L -1028.9511 4874.9633 C -1028.9511 4876.7513 -1029.3016 4878.6795 -1030.0027 4880.748 C -1030.7039 4882.7814 -1031.791 4884.5341 -1033.2635 4886.0065 C -1034.736 4887.479 -1036.6117 4888.2152 -1038.8906 4888.2152 L -1046.8312 4888.163 L -1046.8312 4842.9368 L -1042.1508 4842.9368 C -1039.7668 4842.9368 -1037.7509 4843.2696 -1036.1031 4843.9357 C -1034.4554 4844.6018 -1033.6315 4845.5312 -1033.6315 4846.7232 L -1032.6847 4846.7232 L -1032.6847 4838.2038 L -1033.6315 4838.2038 C -1033.6315 4839.3958 -1034.4554 4840.3251 -1036.1031 4840.9912 C -1037.7509 4841.6573 -1039.7668 4841.9901 -1042.1508 4841.9901 L -1046.8312 4841.9901 L -1046.8312 4814.644 L -1038.8906 4814.5918 C -1036.6117 4814.5918 -1034.736 4815.328 -1033.2635 4816.8004 C -1031.791 4818.2378 -1030.7039 4819.9906 -1030.0027 4822.059 C -1029.3016 4824.1275 -1028.9511 4826.0557 -1028.9511 4827.8437 L -1028.0044 4827.8437 L -1028.0044 4813.6978 L -1060.0309 4813.6978 z M -1024.1132 4813.6978 L -1024.1132 4814.644 C -1022.9562 4814.644 -1021.8514 4815.4855 -1020.7997 4817.1684 C -1019.7129 4818.8161 -1018.8189 4820.8144 -1018.1177 4823.1634 L -1011.5971 4844.4618 L -1011.5971 4879.6958 C -1011.5971 4882.0448 -1011.9299 4884.0436 -1012.596 4885.6913 C -1013.2622 4887.3391 -1014.1738 4888.163 -1015.3308 4888.163 L -1015.3308 4889.1092 L -998.39743 4889.1092 L -998.39743 4888.163 C -999.58943 4888.163 -1000.5182 4887.3391 -1001.1843 4885.6913 C -1001.8505 4884.0436 -1002.1838 4882.0448 -1002.1838 4879.6958 L -1002.1838 4843.6205 L -995.71542 4823.1634 C -994.97919 4820.8495 -994.08518 4818.8512 -993.03342 4817.1684 C -991.94659 4815.4855 -990.80702 4814.644 -989.61502 4814.644 L -989.61502 4813.6978 L -998.2393 4813.6978 L -998.2393 4814.644 C -997.468 4814.644 -996.9073 4815.0297 -996.55672 4815.801 C -996.17107 4816.5372 -995.97846 4817.4842 -995.97846 4818.6411 C -995.97846 4820.0084 -996.2235 4821.5156 -996.71433 4823.1634 L -1002.6571 4841.9374 L -1008.3364 4823.1112 C -1008.7921 4821.5335 -1009.02 4820.0959 -1009.02 4818.7988 C -1009.02 4817.5717 -1008.8274 4816.5723 -1008.4418 4815.801 C -1008.0561 4815.0297 -1007.4778 4814.644 -1006.7065 4814.644 L -1006.7065 4813.6978 L -1024.1132 4813.6978 z M -959.06133 4813.6978 L -959.06133 4827.8437 L -958.11462 4827.8437 C -958.11462 4826.0557 -957.76418 4824.1275 -957.063 4822.059 C -956.36182 4819.9906 -955.27469 4818.2378 -953.80222 4816.8004 C -952.32975 4815.328 -950.454 4814.5918 -948.17517 4814.5918 L -947.28117 4814.5918 L -947.28117 4879.6958 C -947.28117 4882.0448 -947.61447 4884.0436 -948.28059 4885.6913 C -948.94671 4887.3391 -949.8755 4888.163 -951.0675 4888.163 L -951.0675 4889.1092 L -934.08146 4889.1092 L -934.08146 4888.163 C -935.27346 4888.163 -936.20277 4887.3391 -936.86889 4885.6913 C -937.535 4884.0436 -937.86831 4882.0448 -937.86831 4879.6958 L -937.86831 4814.5918 L -936.97431 4814.5918 C -934.69548 4814.5918 -932.81973 4815.328 -931.34726 4816.8004 C -929.87479 4818.2378 -928.78765 4819.9906 -928.08648 4822.059 C -927.3853 4824.1275 -927.03486 4826.0557 -927.03486 4827.8437 L -926.08815 4827.8437 L -926.08815 4813.6978 L -959.06133 4813.6978 z M -911.57379 4813.6978 C -914.16815 4813.6978 -916.39433 4814.6266 -918.25245 4816.4847 C -920.07551 4818.3078 -920.98717 4820.5339 -920.98717 4823.1634 L -920.98717 4879.6958 C -920.98717 4882.2902 -920.07551 4884.5169 -918.25245 4886.375 C -916.39433 4888.1981 -914.16815 4889.1092 -911.57379 4889.1092 L -902.16041 4889.1092 C -899.53099 4889.1092 -897.30481 4888.1981 -895.48175 4886.375 C -893.62363 4884.5169 -892.69484 4882.2902 -892.69484 4879.6958 L -892.69484 4823.1634 C -892.69484 4820.5339 -893.62363 4818.3078 -895.48175 4816.4847 C -897.30481 4814.6266 -899.53099 4813.6978 -902.16041 4813.6978 L -911.57379 4813.6978 z M -887.2254 4813.6978 L -887.2254 4814.644 C -885.57764 4814.644 -884.40328 4816.3448 -883.70211 4819.7455 C -883.52681 4820.5518 -883.43907 4821.6909 -883.43907 4823.1634 L -883.43907 4879.6958 C -883.43907 4882.0448 -883.77238 4884.0436 -884.43849 4885.6913 C -885.10461 4887.3391 -886.0334 4888.163 -887.2254 4888.163 L -887.2254 4889.1092 L -878.75874 4889.1092 L -878.75874 4888.163 C -879.91568 4888.163 -880.82734 4887.3391 -881.49345 4885.6913 C -882.15957 4884.0436 -882.49236 4882.0448 -882.49236 4879.6958 L -882.49236 4822.7954 L -859.56404 4889.1092 L -855.19894 4889.1092 L -855.19894 4823.1634 C -855.19894 4820.7794 -854.86615 4818.7634 -854.20003 4817.1157 C -853.53391 4815.4679 -852.60461 4814.644 -851.4126 4814.644 L -851.4126 4813.6978 L -859.87927 4813.6978 L -859.87927 4814.644 C -858.68727 4814.644 -857.77613 4815.4679 -857.14507 4817.1157 C -856.47895 4818.7634 -856.14565 4820.7794 -856.14565 4823.1634 L -856.14565 4870.0726 L -875.60337 4813.6978 L -887.2254 4813.6978 z M -847.7844 4813.6978 L -847.7844 4814.644 C -846.5924 4814.644 -845.66309 4815.4679 -844.99697 4817.1157 C -844.33086 4818.7634 -843.99807 4820.7794 -843.99807 4823.1634 L -843.99807 4879.6958 C -843.99807 4882.0448 -844.33086 4884.0436 -844.99697 4885.6913 C -845.66309 4887.3391 -846.5924 4888.163 -847.7844 4888.163 L -847.7844 4889.1092 L -815.75793 4889.1092 L -815.75793 4874.9633 L -816.70464 4874.9633 C -816.70464 4876.7513 -817.05508 4878.6795 -817.75626 4880.748 C -818.45744 4882.7814 -819.54405 4884.5341 -821.01653 4886.0065 C -822.489 4887.479 -824.36475 4888.2152 -826.64357 4888.2152 L -834.58469 4888.163 L -834.58469 4842.9368 L -829.90436 4842.9368 C -827.52035 4842.9368 -825.50443 4843.2696 -823.85666 4843.9357 C -822.2089 4844.6018 -821.38498 4845.5312 -821.38498 4846.7232 L -820.43827 4846.7232 L -820.43827 4838.2038 L -821.38498 4838.2038 C -821.38498 4839.3958 -822.2089 4840.3251 -823.85666 4840.9912 C -825.50443 4841.6573 -827.52035 4841.9901 -829.90436 4841.9901 L -834.58469 4841.9901 L -834.58469 4814.644 L -826.64357 4814.5918 C -824.36475 4814.5918 -822.489 4815.328 -821.01653 4816.8004 C -819.54405 4818.2378 -818.45744 4819.9906 -817.75626 4822.059 C -817.05508 4824.1275 -816.70464 4826.0557 -816.70464 4827.8437 L -815.75793 4827.8437 L -815.75793 4813.6978 L -847.7844 4813.6978 z M -906.84074 4814.644 C -905.54357 4814.644 -904.4393 4815.1528 -903.52777 4816.1695 C -902.61624 4817.1511 -902.16041 4818.3431 -902.16041 4819.7455 L -902.16041 4883.0615 C -902.16041 4884.4639 -902.61624 4885.6735 -903.52777 4886.6902 C -904.4393 4887.6719 -905.54357 4888.163 -906.84074 4888.163 C -908.13792 4888.163 -909.25984 4887.6719 -910.20643 4886.6902 C -911.11796 4885.6735 -911.57379 4884.4639 -911.57379 4883.0615 L -911.57379 4819.7455 C -911.57379 4818.3431 -911.11796 4817.1511 -910.20643 4816.1695 C -909.25984 4815.1528 -908.13792 4814.644 -906.84074 4814.644 z M -1279.8247 4816.2098 C -1282.4191 4816.2098 -1284.6452 4817.1391 -1286.5034 4818.9972 C -1288.3264 4820.8203 -1289.2381 4823.0464 -1289.2381 4825.6759 L -1289.2381 4882.2083 C -1289.2381 4884.8027 -1288.3264 4887.0289 -1286.5034 4888.887 C -1284.6452 4890.7101 -1282.4191 4891.6217 -1279.8247 4891.6217 L -1270.4113 4891.6217 C -1267.7819 4891.6217 -1265.5557 4890.7101 -1263.7327 4888.887 C -1261.8745 4887.0289 -1260.9457 4884.8027 -1260.9457 4882.2083 L -1260.9457 4825.6759 C -1260.9457 4823.0464 -1261.8745 4820.8203 -1263.7327 4818.9972 C -1265.5557 4817.1391 -1267.7819 4816.2098 -1270.4113 4816.2098 L -1279.8247 4816.2098 z M -1255.6339 4816.2098 L -1255.6339 4817.1565 C -1254.4419 4817.1565 -1253.5131 4817.9804 -1252.847 4819.6282 C -1252.1809 4821.2759 -1251.8476 4823.2919 -1251.8476 4825.6759 L -1251.8476 4882.2083 C -1251.8476 4884.8027 -1250.9365 4887.0289 -1249.1134 4888.887 C -1247.2553 4890.7101 -1245.0286 4891.6217 -1242.4342 4891.6217 L -1233.0214 4891.6217 C -1230.427 4891.6217 -1228.2179 4890.7101 -1226.3949 4888.887 C -1224.5368 4887.0289 -1223.608 4884.8027 -1223.608 4882.2083 L -1223.608 4825.6759 C -1223.608 4823.2919 -1223.2747 4821.2759 -1222.6086 4819.6282 C -1221.9424 4817.9804 -1221.0136 4817.1565 -1219.8216 4817.1565 L -1219.8216 4816.2098 L -1236.8077 4816.2098 L -1236.8077 4817.1565 C -1235.6157 4817.1565 -1234.6864 4817.9804 -1234.0203 4819.6282 C -1233.3541 4821.2759 -1233.0214 4823.2919 -1233.0214 4825.6759 L -1233.0214 4885.574 C -1233.0214 4886.9764 -1233.4767 4888.186 -1234.3882 4889.2027 C -1235.2997 4890.1844 -1236.4216 4890.675 -1237.7539 4890.675 C -1239.0511 4890.675 -1240.1558 4890.1844 -1241.0674 4889.2027 C -1241.9789 4888.186 -1242.4342 4886.9764 -1242.4342 4885.574 L -1242.4342 4825.6759 C -1242.4342 4823.2919 -1242.1014 4821.2759 -1241.4353 4819.6282 C -1240.7692 4817.9804 -1239.8399 4817.1565 -1238.6479 4817.1565 L -1238.6479 4816.2098 L -1255.6339 4816.2098 z M -1217.0342 4816.2098 L -1217.0342 4830.3562 L -1216.0875 4830.3562 C -1216.0875 4828.5682 -1215.7371 4826.64 -1215.0359 4824.5715 C -1214.3347 4822.5031 -1213.2481 4820.7498 -1211.7756 4819.3124 C -1210.3031 4817.84 -1208.4274 4817.1038 -1206.1486 4817.1038 L -1205.2546 4817.1038 L -1205.2546 4882.2083 C -1205.2546 4884.5573 -1205.5874 4886.5555 -1206.2535 4888.2033 C -1206.9196 4889.8511 -1207.8489 4890.675 -1209.0409 4890.675 L -1209.0409 4891.6217 L -1192.0549 4891.6217 L -1192.0549 4890.675 C -1193.2469 4890.675 -1194.1757 4889.8511 -1194.8418 4888.2033 C -1195.5079 4886.5555 -1195.8412 4884.5573 -1195.8412 4882.2083 L -1195.8412 4817.1038 L -1194.9472 4817.1038 C -1192.6684 4817.1038 -1190.7926 4817.84 -1189.3201 4819.3124 C -1187.8477 4820.7498 -1186.7611 4822.5031 -1186.0599 4824.5715 C -1185.3587 4826.64 -1185.0077 4828.5682 -1185.0077 4830.3562 L -1184.0615 4830.3562 L -1184.0615 4816.2098 L -1217.0342 4816.2098 z M -1181.2214 4816.2098 L -1181.2214 4817.1565 C -1180.0294 4817.1565 -1179.1006 4817.9804 -1178.4345 4819.6282 C -1177.7684 4821.2759 -1177.4351 4823.2919 -1177.4351 4825.6759 L -1177.4351 4882.2083 C -1177.4351 4884.5573 -1177.7684 4886.5555 -1178.4345 4888.2033 C -1179.1006 4889.8511 -1180.0294 4890.675 -1181.2214 4890.675 L -1181.2214 4891.6217 L -1164.2354 4891.6217 L -1164.2354 4890.675 C -1165.4274 4890.675 -1166.3567 4889.8511 -1167.0228 4888.2033 C -1167.6889 4886.5555 -1168.0217 4884.5573 -1168.0217 4882.2083 L -1168.0217 4845.4488 L -1158.6083 4845.4488 L -1158.6083 4882.2083 C -1158.6083 4884.5573 -1158.9416 4886.5555 -1159.6077 4888.2033 C -1160.2739 4889.8511 -1161.2027 4890.675 -1162.3947 4890.675 L -1162.3947 4891.6217 L -1145.4086 4891.6217 L -1145.4086 4890.675 C -1146.6006 4890.675 -1147.5299 4889.8511 -1148.196 4888.2033 C -1148.8622 4886.5555 -1149.1955 4884.5573 -1149.1955 4882.2083 L -1149.1955 4825.6759 C -1149.1955 4823.2919 -1148.8622 4821.2759 -1148.196 4819.6282 C -1147.5299 4817.9804 -1146.6006 4817.1565 -1145.4086 4817.1565 L -1145.4086 4816.2098 L -1162.3947 4816.2098 L -1162.3947 4817.1565 C -1161.2027 4817.1565 -1160.2739 4817.9804 -1159.6077 4819.6282 C -1158.9416 4821.2759 -1158.6083 4823.2919 -1158.6083 4825.6759 L -1158.6083 4844.5026 L -1168.0217 4844.5026 L -1168.0217 4825.6232 C -1168.0217 4823.2742 -1167.6889 4821.2759 -1167.0228 4819.6282 C -1166.3567 4817.9804 -1165.4274 4817.1565 -1164.2354 4817.1565 L -1164.2354 4816.2098 L -1181.2214 4816.2098 z M -1275.0917 4817.1565 C -1273.7945 4817.1565 -1272.6902 4817.6647 -1271.7787 4818.6815 C -1270.8671 4819.6631 -1270.4113 4820.8551 -1270.4113 4822.2575 L -1270.4113 4885.574 C -1270.4113 4886.9764 -1270.8671 4888.186 -1271.7787 4889.2027 C -1272.6902 4890.1844 -1273.7945 4890.675 -1275.0917 4890.675 C -1276.3888 4890.675 -1277.5107 4890.1844 -1278.4573 4889.2027 C -1279.3689 4888.186 -1279.8247 4886.9764 -1279.8247 4885.574 L -1279.8247 4822.2575 C -1279.8247 4820.8551 -1279.3689 4819.6631 -1278.4573 4818.6815 C -1277.5107 4817.6647 -1276.3888 4817.1565 -1275.0917 4817.1565 z M -1089.4684 4825.3519 L -1098.3303 4839.0518 L -1087.6643 4873.3381 C -1085.9912 4877.1405 -1085.1549 4880.6637 -1085.1549 4883.9085 C -1085.1549 4886.4941 -1086.067 4887.7873 -1087.8922 4887.7873 L -1087.8922 4889.1562 L -1063.7087 4889.1562 L -1063.7087 4887.7873 C -1065.2804 4887.7873 -1066.8525 4886.6977 -1068.4242 4884.5177 C -1069.9451 4882.3376 -1071.2125 4879.7009 -1072.2265 4876.6082 C -1072.3528 4876.1874 -1089.4684 4825.3519 -1089.4684 4825.3519 z " /></g></svg>
