<?xml version="1.0" encoding="UTF-8" standalone="no"?>
<!-- Created with Inkscape (http://www.inkscape.org/) -->

<svg
   width="1080mm"
   height="1080mm"
   viewBox="0 0 1080 1080"
   version="1.1"
   id="svg1"
   inkscape:version="1.3.2 (091e20e, 2023-11-25, custom)"
   sodipodi:docname="Altra.svg"
   inkscape:export-filename="Altra.png"
   inkscape:export-xdpi="96"
   inkscape:export-ydpi="96"
   xmlns:inkscape="http://www.inkscape.org/namespaces/inkscape"
   xmlns:sodipodi="http://sodipodi.sourceforge.net/DTD/sodipodi-0.dtd"
   xmlns="http://www.w3.org/2000/svg"
   xmlns:svg="http://www.w3.org/2000/svg">
  <sodipodi:namedview
     id="namedview1"
     pagecolor="#ffffff"
     bordercolor="#000000"
     borderopacity="0.25"
     inkscape:showpageshadow="2"
     inkscape:pageopacity="0.0"
     inkscape:pagecheckerboard="0"
     inkscape:deskcolor="#d1d1d1"
     inkscape:document-units="mm"
     showguides="true"
     inkscape:zoom="0.12469715"
     inkscape:cx="2409.8387"
     inkscape:cy="2065.0032"
     inkscape:window-width="1366"
     inkscape:window-height="705"
     inkscape:window-x="-8"
     inkscape:window-y="-8"
     inkscape:window-maximized="1"
     inkscape:current-layer="layer1">
    <sodipodi:guide
       position="224.13878,682.6403"
       orientation="0,-1"
       id="guide2"
       inkscape:locked="false" />
    <sodipodi:guide
       position="898.68376,383.11645"
       orientation="0,-1"
       id="guide3"
       inkscape:locked="false" />
  </sodipodi:namedview>
  <defs
     id="defs1" />
  <g
     inkscape:label="Layer 1"
     inkscape:groupmode="layer"
     id="layer1">
    <path
       id="text1"
       style="font-weight:bold;font-size:418.914px;line-height:1;font-family:Fustat;-inkscape-font-specification:'Fustat Bold';text-decoration-color:#000000;letter-spacing:0px;fill:#00a3fb;fill-opacity:1;stroke:none;stroke-width:1.13297;stroke-linecap:square;stroke-opacity:1;paint-order:stroke fill markers"
       d="M 200.05135,397.35972 88.619914,693.53234 v 3.35122 h 49.851216 l 25.91108,-75.82379 59.12844,-20.68762 59.12843,20.68762 25.91108,75.82379 h 51.10747 v -3.35122 L 248.22619,397.35972 Z m 333.33943,0 v 81.68856 h -36.02674 v 43.14775 h 36.02674 v 96.35019 c 0,22.06279 6.14434,39.65739 18.43247,52.78335 12.28813,12.84668 28.7652,25.55399 49.43161,25.55399 h 37.70209 v -45.24272 l -2.09445,-4.6085 h -21.78368 c -10.89175,0 -19.27011,-2.79279 -25.1349,-8.3783 -5.58552,-5.58551 -8.37778,-13.96335 -8.37778,-25.13438 v -91.32363 h 57.39081 v -43.14775 h -57.39081 v -81.68856 z m -309.87988,65.01154 41.95817,112.60811 -41.95842,-20.68762 -41.95842,20.68762 z m 695.28065,10.39316 c -24.01772,0 -44.12546,5.8647 -60.32345,17.59428 -15.91872,11.72958 -26.39179,27.08964 -31.41876,46.08039 l 41.05383,10.05417 h 4.60799 c 2.2342,-8.93683 7.26101,-16.33747 15.08073,-22.20226 8.09899,-6.14407 18.29243,-9.2165 30.58056,-9.2165 14.52234,0 26.25224,4.46856 35.18907,13.40539 7.93014,7.68232 12.13434,17.34399 13.02763,28.76465 l -63.29743,5.16764 c -25.69337,1.95493 -45.38217,8.93664 -59.06668,20.94549 -13.68451,11.72958 -20.52691,27.50859 -20.52691,47.33717 0,12.84668 3.21173,24.29695 9.63507,34.35087 6.42334,10.05393 15.22064,17.87404 26.39167,23.45955 11.4503,5.58552 24.43652,8.3783 38.95886,8.3783 14.80161,0 28.20678,-2.9326 40.21563,-8.79739 12.28814,-5.86479 22.76121,-13.68439 31.41876,-23.45904 0.30237,-0.35114 0.54177,-0.72548 0.83767,-1.079 v 33.33543 h 42.72921 v -125.6745 c 0,-31.27888 -8.3784,-55.43624 -25.13493,-72.47206 -16.75655,-17.3151 -40.07602,-25.97258 -69.95852,-25.97258 z m -235.84814,6.28386 v 217.83528 h 48.17484 V 582.1009 c 0,-12.28813 2.23454,-22.90051 6.70295,-31.83733 4.46841,-8.93682 10.75205,-15.77923 18.85104,-20.52691 8.099,-5.02697 17.59437,-7.54063 28.48612,-7.54063 h 27.64844 v -43.14775 h -20.52691 c -17.59437,0 -33.23407,4.74768 -46.91858,14.24306 -6.65596,4.61841 -12.36915,10.07822 -17.17518,16.34835 v -30.59141 z m 283.97595,118.00675 c -0.12425,9.78002 -2.73325,18.90611 -7.91218,27.35595 -5.30624,8.65755 -12.42776,15.77908 -21.36459,21.36459 -8.65754,5.30624 -18.43204,7.95972 -29.32379,7.95972 -10.3332,0 -18.85138,-2.37384 -25.55399,-7.12153 -6.70262,-4.74769 -10.05365,-10.89202 -10.05365,-18.43247 0,-7.54044 2.93208,-13.54495 8.79687,-18.01337 5.86479,-4.46841 15.49998,-7.26119 28.90522,-8.3783 z"
       sodipodi:nodetypes="cccccccccccccccccscscccscscccccccccccscccccsccccsscscccccscscccsscsccssccccscsssscc" />
    <path
       id="path2"
       style="font-weight:bold;font-size:418.914px;line-height:1;font-family:Fustat;-inkscape-font-specification:'Fustat Bold';text-decoration-color:#000000;letter-spacing:0px;fill:#00a3fb;fill-opacity:1;stroke:none;stroke-width:1.13297;stroke-linecap:square;stroke-opacity:1;paint-order:stroke fill markers"
       d="m 388.56233,397.35972 v 81.68856 43.14775 l 0,102.63403 c 0,22.0628 6.14434,39.6574 18.43247,52.7834 12.28813,12.8466 28.7652,19.2701 49.43161,19.2701 h 37.70209 v -38.9589 l -2.09445,-4.6085 h -21.78368 c -10.89175,0 -19.27011,-2.7928 -25.1349,-8.3783 -5.58552,-5.5855 -8.37778,-13.9633 -8.37778,-25.1344 l 0,-97.60743 v -43.14775 -81.68856 z"
       sodipodi:nodetypes="cccscscccscscccc" />
  </g>
</svg>
