<?xml version="1.0" encoding="UTF-8" standalone="no"?>
<!-- Created with Inkscape (http://www.inkscape.org/) -->

<svg
   width="1080mm"
   height="1080mm"
   viewBox="0 0 1080 1080"
   version="1.1"
   id="svg1"
   inkscape:version="1.3.2 (091e20e, 2023-11-25, custom)"
   sodipodi:docname="Bonie Choco.svg"
   inkscape:export-filename="Bonie Choco.png"
   inkscape:export-xdpi="96"
   inkscape:export-ydpi="96"
   xmlns:inkscape="http://www.inkscape.org/namespaces/inkscape"
   xmlns:sodipodi="http://sodipodi.sourceforge.net/DTD/sodipodi-0.dtd"
   xmlns="http://www.w3.org/2000/svg"
   xmlns:svg="http://www.w3.org/2000/svg">
  <sodipodi:namedview
     id="namedview1"
     pagecolor="#ffffff"
     bordercolor="#000000"
     borderopacity="0.25"
     inkscape:showpageshadow="2"
     inkscape:pageopacity="0.0"
     inkscape:pagecheckerboard="0"
     inkscape:deskcolor="#d1d1d1"
     inkscape:document-units="mm"
     inkscape:zoom="0.12384219"
     inkscape:cx="1946.025"
     inkscape:cy="2208.4557"
     inkscape:window-width="1366"
     inkscape:window-height="705"
     inkscape:window-x="-8"
     inkscape:window-y="-8"
     inkscape:window-maximized="1"
     inkscape:current-layer="layer1"
     showgrid="false" />
  <defs
     id="defs1">
    <pattern
       patternUnits="userSpaceOnUse"
       width="220.53432"
       height="220.10634"
       patternTransform="translate(2947.1404,1712.1482)"
       preserveAspectRatio="xMidYMid"
       id="pattern8"
       style="fill:#7d4b00"
       inkscape:label="pattern8">
      <ellipse
         style="opacity:1;fill-opacity:1;stroke:none;stroke-width:37.7953;stroke-linecap:round;stroke-dasharray:none;stroke-opacity:1;paint-order:stroke fill markers"
         id="path8"
         cx="110.26716"
         cy="110.05317"
         rx="110.26716"
         ry="110.05317" />
    </pattern>
  </defs>
  <g
     inkscape:label="Layer 1"
     inkscape:groupmode="layer"
     id="layer1">
    <g
       id="g27"
       transform="translate(-716.07283)">
      <ellipse
         style="opacity:1;fill:#895200;fill-opacity:1;stroke:none;stroke-width:37.7952;stroke-linecap:round;stroke-dasharray:none;stroke-opacity:1;paint-order:stroke fill markers"
         id="ellipse19"
         cx="464.61005"
         cy="497.12753"
         rx="29.174852"
         ry="29.118235" />
      <ellipse
         style="opacity:1;fill:#895200;fill-opacity:1;stroke:none;stroke-width:37.7952;stroke-linecap:round;stroke-dasharray:none;stroke-opacity:1;paint-order:stroke fill markers"
         id="ellipse20"
         cx="556.88123"
         cy="543.63818"
         rx="29.174852"
         ry="29.118235" />
      <ellipse
         style="opacity:1;fill:#895200;fill-opacity:1;stroke:none;stroke-width:37.7952;stroke-linecap:round;stroke-dasharray:none;stroke-opacity:1;paint-order:stroke fill markers"
         id="ellipse21"
         cx="493.86676"
         cy="617.15509"
         rx="29.174852"
         ry="29.118235" />
      <ellipse
         style="opacity:1;fill:#895200;fill-opacity:1;stroke:none;stroke-width:37.7952;stroke-linecap:round;stroke-dasharray:none;stroke-opacity:1;paint-order:stroke fill markers"
         id="ellipse22"
         cx="395.59421"
         cy="584.14752"
         rx="29.174852"
         ry="29.118235" />
      <ellipse
         style="opacity:1;fill:#895200;fill-opacity:1;stroke:none;stroke-width:37.7952;stroke-linecap:round;stroke-dasharray:none;stroke-opacity:1;paint-order:stroke fill markers"
         id="ellipse23"
         cx="616.14484"
         cy="635.90942"
         rx="29.174852"
         ry="29.118235" />
      <ellipse
         style="opacity:1;fill:#895200;fill-opacity:1;stroke:none;stroke-width:37.7952;stroke-linecap:round;stroke-dasharray:none;stroke-opacity:1;paint-order:stroke fill markers"
         id="ellipse24"
         cx="556.88123"
         cy="686.92114"
         rx="29.174852"
         ry="29.118235" />
      <ellipse
         style="opacity:1;fill:#895200;fill-opacity:1;stroke:none;stroke-width:37.7952;stroke-linecap:round;stroke-dasharray:none;stroke-opacity:1;paint-order:stroke fill markers"
         id="ellipse25"
         cx="595.14001"
         cy="446.11584"
         rx="29.174852"
         ry="29.118235" />
      <ellipse
         style="opacity:1;fill:#895200;fill-opacity:1;stroke:none;stroke-width:37.7952;stroke-linecap:round;stroke-dasharray:none;stroke-opacity:1;paint-order:stroke fill markers"
         id="ellipse26"
         cx="528.37469"
         cy="374.0993"
         rx="29.174852"
         ry="29.118235" />
      <ellipse
         style="opacity:1;fill:#895200;fill-opacity:1;stroke:none;stroke-width:37.7952;stroke-linecap:round;stroke-dasharray:none;stroke-opacity:1;paint-order:stroke fill markers"
         id="ellipse27"
         cx="645.40155"
         cy="343.34225"
         rx="29.174852"
         ry="29.118235" />
    </g>
    <g
       id="g1"
       transform="translate(-66.372846)">
      <g
         id="g28"
         transform="matrix(1.1470492,0,0,1.1470492,-262.88721,-37.261039)"
         style="stroke-width:0.871802">
        <path
           id="path1"
           style="fill:#b36b00;fill-opacity:1;stroke-width:43.5901;stroke-linecap:square;paint-order:stroke fill markers"
           d="m 554.74547,331.41233 c -33.26892,-1.9969 -33.33389,125.14895 -33.33389,125.14895 0,0 -54.91468,26.53838 -78.41846,45.54761 -11.70347,9.46545 -99.22869,68.96293 -29.04681,125.6869 31.04526,25.09212 68.79764,18.59662 105.51294,-5.60379 l -6.06216,46.8328 c 0,0 83.73988,18.13298 105.49485,-8.12302 0,-0.70667 -10.70064,-118.44519 -12.01322,-132.88595 42.2409,-69.8673 64.21879,-162.3441 34.88314,-179.28104 -35.98519,-20.77606 -50.99224,104.82461 -50.99224,104.82461 0,0 -13.82561,-6.66451 -28.63907,-4.408 0,0 22.90497,-115.92096 -7.38508,-117.73907 z" />
        <path
           id="ellipse10"
           style="fill:#895200;fill-opacity:1;stroke:none;stroke-width:32.9499;stroke-linecap:round;stroke-dasharray:none;stroke-opacity:1;paint-order:stroke fill markers"
           d="m 537.15223,346.36852 c -6.61312,13.99668 -10.42449,35.73115 -12.64678,56.2374 1.27448,0.29023 2.56707,0.49464 3.86902,0.61185 16.11303,6e-5 29.17518,-13.03688 29.17496,-29.11864 -0.0168,-12.69251 -8.26922,-23.9119 -20.3972,-27.73061 z m 98.10667,0.11989 c -5.98009,-0.63432 -11.28817,2.92909 -15.98042,9.03356 4.70598,10.20179 14.87099,16.79293 26.12295,16.9385 2.98047,-0.0124 5.94144,-0.48047 8.77983,-1.38803 -1.71228,-10.60382 -5.70936,-18.46361 -12.4194,-22.33765 -2.24907,-1.29851 -4.41632,-2.02504 -6.50296,-2.24638 z m -38.30154,70.79671 c -4.16074,19.84222 -6.18774,36.27428 -6.18774,36.27428 0,0 -11.28674,-5.36996 -24.37939,-4.76405 1.37566,14.86543 13.79274,26.2844 28.74967,26.43869 16.11282,6e-5 29.1749,-13.03657 29.17496,-29.11812 -0.12149,-15.28813 -12.06888,-27.87893 -27.3575,-28.8308 z m -112.77244,58.7065 c -14.9683,8.29774 -30.9979,17.87271 -41.1918,26.11727 -1.14588,0.92675 -3.48387,2.70025 -5.86425,4.53667 4.05433,11.69961 15.07739,19.56161 27.48101,19.60035 16.11303,7e-5 29.17519,-13.03687 29.17497,-29.11863 -0.1274,-8.06849 -3.60385,-15.72242 -9.59993,-21.13566 z m 53.81255,65.72104 c -16.11282,-6e-5 -29.17489,13.03656 -29.17496,29.11811 6e-5,16.08155 13.06214,29.11818 29.17496,29.11812 16.11283,7e-5 29.17491,-13.03656 29.17497,-29.11812 -7e-5,-16.08155 -13.06215,-29.11818 -29.17497,-29.11811 z m -142.40301,13.31651 c -0.79268,0.0922 -1.58124,0.21687 -2.36368,0.37362 -8.44243,17.39486 -9.94318,37.39797 5.95726,57.63679 14.60933,-1.80999 25.57876,-14.1994 25.58086,-28.89229 -6e-5,-16.08135 -13.06182,-29.11789 -29.17444,-29.11812 z m 218.43576,52.09656 c -15.15356,1.09844 -26.92576,13.62039 -27.06036,28.78378 0.0998,15.46786 12.29966,28.15836 27.78021,28.89746 1.54089,-1.18273 2.94943,-2.46604 4.14187,-3.90519 0,-0.28598 -2.68827,-29.76043 -4.86172,-53.77605 z m -57.14897,50.67701 c -10.21733,0.12039 -19.62694,5.56695 -24.80572,14.3583 14.00266,1.99903 33.42546,3.91402 51.15037,2.36316 -4.80333,-10.189 -15.0623,-16.70057 -26.34465,-16.72146 z"
           sodipodi:nodetypes="cccccscccsscccccccsccccssssscccccccccccccc" />
        <path
           id="path5"
           style="color:#000000;fill:#ffffff;stroke-width:0.871802;stroke-linecap:round;-inkscape-stroke:none;paint-order:stroke fill markers"
           d="m 480.74998,596.26386 a 5,5 0 0 0 -3.6406,1.17926 c -26.68707,22.75029 -52.13391,26.64622 -67.88423,26.24853 1.51084,1.36889 3.03056,2.73773 4.72116,4.10414 2.32414,1.87847 4.69804,3.52026 7.09414,5.05085 17.29152,-1.76738 39.87379,-8.45674 62.55742,-27.79417 a 5,5 0 0 0 0.56017,-7.04866 5,5 0 0 0 -3.40806,-1.73995 z" />
        <circle
           style="fill:#ffffff;fill-opacity:1;stroke:none;stroke-width:8.718;stroke-linecap:round;stroke-dasharray:none;stroke-opacity:1;paint-order:stroke fill markers"
           id="path10"
           cx="555.64832"
           cy="505.78586"
           r="12.647641" />
      </g>
      <text
         xml:space="preserve"
         style="font-style:normal;font-variant:normal;font-weight:normal;font-stretch:normal;font-size:237.258px;line-height:1;font-family:Angkasa;-inkscape-font-specification:'Angkasa, Normal';font-variant-ligatures:normal;font-variant-caps:normal;font-variant-numeric:normal;font-variant-east-asian:normal;text-decoration-color:#000000;letter-spacing:0px;fill:#895200;fill-opacity:1;stroke:none;stroke-width:9.99999;stroke-linecap:round;stroke-dasharray:none;stroke-opacity:1;paint-order:stroke fill markers"
         x="606.44659"
         y="505.71622"
         id="text28"><tspan
           sodipodi:role="line"
           style="font-style:normal;font-variant:normal;font-weight:normal;font-stretch:normal;font-size:237.258px;font-family:Angkasa;-inkscape-font-specification:'Angkasa, Normal';font-variant-ligatures:normal;font-variant-caps:normal;font-variant-numeric:normal;font-variant-east-asian:normal;stroke-width:9.99999"
           x="606.44659"
           y="505.71622"
           id="tspan32">Bonie</tspan><tspan
           sodipodi:role="line"
           style="font-style:normal;font-variant:normal;font-weight:normal;font-stretch:normal;font-size:237.258px;font-family:Angkasa;-inkscape-font-specification:'Angkasa, Normal';font-variant-ligatures:normal;font-variant-caps:normal;font-variant-numeric:normal;font-variant-east-asian:normal;stroke-width:9.99999"
           x="606.44659"
           y="742.97424"
           id="tspan33">Choco</tspan></text>
    </g>
  </g>
</svg>
