<?xml version="1.0" encoding="UTF-8" standalone="no"?>
<!-- Created with Inkscape (http://www.inkscape.org/) -->

<svg
   width="500mm"
   height="500mm"
   viewBox="0 0 500 500"
   version="1.1"
   id="svg1"
   inkscape:version="1.3.2 (091e20e, 2023-11-25, custom)"
   sodipodi:docname="Burger Joint.svg"
   inkscape:export-filename="Burger Joint.png"
   inkscape:export-xdpi="96"
   inkscape:export-ydpi="96"
   xml:space="preserve"
   xmlns:inkscape="http://www.inkscape.org/namespaces/inkscape"
   xmlns:sodipodi="http://sodipodi.sourceforge.net/DTD/sodipodi-0.dtd"
   xmlns="http://www.w3.org/2000/svg"
   xmlns:svg="http://www.w3.org/2000/svg"><sodipodi:namedview
     id="namedview1"
     pagecolor="#ffffff"
     bordercolor="#000000"
     borderopacity="0.25"
     inkscape:showpageshadow="2"
     inkscape:pageopacity="0.0"
     inkscape:pagecheckerboard="0"
     inkscape:deskcolor="#d1d1d1"
     inkscape:document-units="mm"
     showgrid="false"
     inkscape:zoom="0.18372107"
     inkscape:cx="778.35384"
     inkscape:cy="917.1512"
     inkscape:window-width="1366"
     inkscape:window-height="705"
     inkscape:window-x="-8"
     inkscape:window-y="-8"
     inkscape:window-maximized="1"
     inkscape:current-layer="layer1" /><defs
     id="defs1"><inkscape:path-effect
       effect="powerstroke"
       id="path-effect2"
       is_visible="true"
       lpeversion="1.3"
       scale_width="1"
       interpolator_type="CentripetalCatmullRom"
       interpolator_beta="0.2"
       start_linecap_type="zerowidth"
       end_linecap_type="zerowidth"
       offset_points="0,3.0291089 | 0.5,2.9000051 | 0.8,2.9000051"
       linejoin_type="round"
       miter_limit="4"
       not_jump="false"
       sort_points="true"
       message="&lt;b&gt;Ctrl + click&lt;/b&gt; on existing node and move it" /></defs><g
     inkscape:label="Layer 1"
     inkscape:groupmode="layer"
     id="layer1"><g
       id="g10"
       transform="matrix(1.391072,0,0,1.391072,-57.921328,-30.694324)"
       style="fill:#000000;fill-opacity:1"><path
         style="font-size:75.3648px;line-height:1;font-family:'Festive December';-inkscape-font-specification:'Festive December';letter-spacing:0px;word-spacing:0px;fill:#000000;stroke-width:260.191;stroke-linecap:round;stroke-linejoin:round;fill-opacity:1"
         d="m 166.67171,143.56485 q -1.05511,0 -1.73339,-0.60292 -0.67828,-0.52755 -1.05511,-1.35656 -0.37682,-0.82902 -0.52755,-1.73339 -0.0754,-0.97975 -0.0754,-1.80876 0,-2.5624 0.67828,-5.65236 0.67828,-3.16532 1.65802,-6.40601 0.97975,-3.31605 2.11022,-6.406 1.13047,-3.08996 2.03485,-5.50163 -0.90438,0 -1.73339,-0.2261 -0.75365,-0.30146 -0.75365,-1.43193 0,-1.20584 0.75365,-1.65803 0.82901,-0.45218 1.88412,-0.45218 l 0.82901,0.0754 h 0.37682 q 0.15073,-0.37682 0.45219,-1.20584 0.37683,-0.90437 0.82902,-1.88412 0.45219,-1.0551 0.90437,-2.18558 0.45219,-1.13047 0.82902,-2.11021 0.37682,-0.82901 0.82901,-1.20584 0.52755,-0.37682 0.97974,-0.37682 0.45219,0 0.82901,0.22609 0.45219,0.2261 0.97975,0.52756 0.52755,0.30146 1.2812,0.52755 0.75365,0.2261 2.03485,0.2261 -0.45219,0.45218 -0.97974,1.50729 -0.52756,1.05511 -1.13048,2.26094 -0.52755,1.20584 -1.0551,2.41168 -0.45219,1.13047 -0.67829,1.73339 l 3.61751,0.22609 q 0.52756,0.0754 0.97975,0.45219 0.45219,0.30146 0.30146,0.82901 -0.15073,0.45219 -0.52756,0.67829 -0.37682,0.22609 -0.82901,0.30146 l -4.59725,0.37682 q -0.82902,2.18558 -2.26095,5.80309 -1.35656,3.54215 -2.71313,7.38575 -1.35657,3.84361 -2.33631,7.38575 -0.97974,3.46678 -1.05511,5.42627 0.75365,-0.2261 2.18558,-1.80876 1.5073,-1.65802 3.01459,-3.69287 1.5073,-2.03485 2.7885,-3.99434 1.2812,-1.95948 1.80876,-2.86386 0.60292,-0.82901 1.13047,-0.82901 0.37682,0 0.67828,0.30146 0.37683,0.30146 0.37683,0.82901 0,0.22609 -0.15073,0.67828 -0.37683,0.67829 -0.97975,1.58266 -0.52755,0.90438 -1.13047,1.88412 -0.52755,0.90438 -1.0551,1.73339 -0.45219,0.82902 -0.75365,1.28121 -2.63777,3.91896 -4.67262,6.33064 -1.95948,2.41167 -4.37116,2.41167 z m 24.04142,0 q -1.05511,0 -1.73339,-0.45219 -0.60292,-0.37682 -0.97974,-1.0551 -0.37683,-0.67829 -0.52755,-1.5073 -0.15073,-0.90438 -0.15073,-1.73339 0,-2.86386 0.82901,-5.80309 0.82901,-2.93923 1.73339,-5.65236 0.67828,-2.11021 1.35657,-4.14506 0.67828,-2.03485 0.97974,-4.2958 -0.75365,0.15073 -2.33631,1.80876 -1.58266,1.65802 -3.24069,3.69287 -1.58266,2.03485 -2.93922,3.99434 -1.35657,1.95948 -1.65803,2.71313 -0.22609,0.60292 -0.67828,2.11021 -0.37683,1.43194 -0.75365,3.08996 -0.30146,1.65803 -0.60292,3.08996 -0.22609,1.43193 -0.22609,1.95948 0.60291,-0.0754 0.75364,0.2261 0.15073,0.30146 0.15073,0.75365 0,0.60291 -0.67828,0.90437 -0.67828,0.30146 -1.13047,0.30146 -1.05511,0 -1.73339,-0.60292 -0.67829,-0.52755 -1.05511,-1.35656 -0.37682,-0.82902 -0.52755,-1.73339 -0.0754,-0.97975 -0.0754,-1.80876 0,-3.16532 1.20584,-7.76257 1.20584,-4.59726 2.86386,-9.49597 1.65803,-4.89871 3.46678,-9.4206 1.80876,-4.52189 3.01459,-7.61184 0.0754,-0.0754 0.0754,-0.2261 l 0.22609,-0.45219 q 0,-0.0754 0,-0.0754 0.0754,-0.0754 0.0754,-0.15073 0.30146,-0.60292 0.60292,-0.97974 0.37682,-0.45219 1.13047,-0.45219 0.45219,0 0.82901,0.22609 0.45219,0.2261 0.97974,0.52756 0.52756,0.30146 1.28121,0.52755 0.75364,0.2261 2.03484,0.2261 -0.22609,0.30145 -0.90437,1.73339 -0.67829,1.43193 -1.58266,3.46678 -0.82902,2.03485 -1.80876,4.37115 -0.97974,2.26095 -1.80875,4.22043 -0.75365,1.95949 -1.35657,3.39142 -0.52755,1.43193 -0.52755,1.65802 0.67828,-0.90437 1.58266,-2.03484 0.97974,-1.13048 2.03485,-2.18558 1.13047,-1.05511 2.33631,-1.73339 1.2812,-0.75365 2.48703,-0.75365 1.05511,0 1.65803,0.45219 0.67828,0.37682 1.05511,1.0551 0.37682,0.67829 0.52755,1.58266 0.15073,0.82902 0.15073,1.65803 0,2.5624 -0.75365,5.27554 -0.75365,2.71313 -1.65802,5.3509 -0.90438,2.5624 -1.65803,4.97407 -0.67828,2.33631 -0.67828,4.14507 0.75365,-0.2261 2.18558,-1.80876 1.43193,-1.58266 2.93922,-3.61751 1.5073,-2.03485 2.7885,-3.91897 1.2812,-1.95948 1.80876,-2.86386 0.60291,-0.82901 1.13047,-0.82901 0.37682,0 0.67828,0.30146 0.37683,0.30146 0.37683,0.82901 0,0.22609 -0.15073,0.67828 -0.37683,0.67829 -0.97975,1.58266 -0.52755,0.90438 -1.13047,1.88412 -0.52755,0.90438 -1.05511,1.73339 -0.45218,0.82902 -0.75364,1.28121 -2.63777,3.91896 -4.89872,6.33064 -2.18557,2.41167 -4.59725,2.41167 z m 20.34856,-3.76824 q 2.03485,0 4.14506,-1.2812 2.11022,-1.2812 3.99434,-3.16532 1.88412,-1.88412 3.39141,-4.0697 1.5073,-2.18558 2.41168,-3.91897 0.67828,-0.82901 1.20583,-0.82901 0.37683,0 0.67829,0.30146 0.37682,0.30146 0.37682,0.82901 0,0.22609 -0.15073,0.67828 -1.43193,2.56241 -3.16532,5.27554 -1.73339,2.71313 -3.91897,4.89871 -2.18558,2.18558 -4.89871,3.61751 -2.63777,1.43193 -5.95382,1.43193 -2.33631,0 -3.99434,-0.75365 -1.58266,-0.67828 -2.63776,-1.88412 -1.05511,-1.20583 -1.58267,-2.78849 -0.45218,-1.65803 -0.45218,-3.54215 0,-3.01459 1.2812,-6.40601 1.2812,-3.46678 3.46678,-6.33064 2.26094,-2.93923 5.1248,-4.82335 2.93923,-1.95948 6.10455,-1.95948 3.0146,0 4.89872,1.88412 1.95948,1.88412 1.95948,5.72772 0,1.35657 -0.22609,2.7885 -0.15073,0.82901 -0.75365,1.5073 -0.52756,0.60291 -1.95949,0.60291 l -12.43519,0.30146 q -0.60292,1.58266 -0.97974,3.31605 -0.37683,1.7334 -0.37683,3.46679 0,2.18557 0.97975,3.69287 0.97974,1.43193 3.46678,1.43193 z m -2.11022,-14.24395 q 0.52756,-0.0754 0.97975,-0.0754 0.45218,0 0.82901,-0.0754 1.35656,-0.15073 2.5624,-0.15073 1.2812,-0.0754 3.69288,-0.2261 0.45219,-2.7885 0.45219,-4.74798 0,-1.35657 -0.30146,-2.11022 -0.2261,-0.82901 -0.82902,-0.82901 -0.82901,0 -1.80875,0.67828 -0.97974,0.60292 -1.95949,1.7334 -0.97974,1.13047 -1.95948,2.63776 -0.90438,1.5073 -1.65803,3.16532 z"
         id="text1"
         aria-label="the" /><path
         style="font-size:75.3648px;line-height:1;font-family:'Festive December';-inkscape-font-specification:'Festive December';letter-spacing:0px;word-spacing:0px;fill:#000000;stroke-width:260.191;stroke-linecap:round;stroke-linejoin:round;fill-opacity:1"
         d="m 200.01114,191.32505 c 0.30146,0 0.55268,0.1005 0.75365,0.30146 0.25121,0.20098 0.37682,0.45219 0.37682,0.75365 0,0.3517 -0.12561,0.65316 -0.37682,0.90438 -0.25122,0.20097 -0.55268,0.30146 -0.90438,0.30146 -0.80389,0 -1.48218,0.30146 -2.03485,0.90438 -0.55267,0.55267 -1.02998,1.25608 -1.43193,2.11021 -0.3517,0.80389 -0.62804,1.65803 -0.82901,2.5624 -0.15073,0.90438 -0.2261,1.65803 -0.2261,2.26095 0,1.95948 0.42707,3.59238 1.2812,4.89871 0.90438,1.30632 2.03485,2.36143 3.39142,3.16532 1.40681,0.80389 2.93922,1.38169 4.59725,1.73339 1.70827,0.3517 3.39142,0.52755 5.04944,0.52755 2.05997,0 4.19531,-0.30146 6.40601,-0.90437 2.26095,-0.60292 4.32092,-1.50729 6.17992,-2.71314 1.90924,-1.20583 3.46678,-2.68801 4.67261,-4.44652 1.25608,-1.80875 1.88412,-3.91897 1.88412,-6.33064 0,-1.65802 -0.40194,-3.03971 -1.20583,-4.14507 -0.80389,-1.15558 -1.83388,-2.08509 -3.08996,-2.78849 -1.25608,-0.75364 -2.63777,-1.2812 -4.14506,-1.58266 -1.5073,-0.35171 -2.93923,-0.52756 -4.2958,-0.52756 -0.3517,0 -0.65316,-0.10049 -0.90437,-0.30145 -0.25122,-0.20098 -0.37683,-0.47731 -0.37683,-0.82902 0,-0.35169 0.15073,-0.62804 0.45219,-0.82901 0.30146,-0.20097 0.60292,-0.30146 0.90438,-0.30146 2.26094,0 4.64749,-0.27634 7.15965,-0.82901 2.51216,-0.60292 4.79823,-1.5073 6.8582,-2.71314 2.05997,-1.25608 3.76824,-2.83874 5.12481,-4.74798 1.35657,-1.95949 2.03485,-4.2958 2.03485,-7.00893 0,-2.41167 -0.62804,-4.4214 -1.88412,-6.02918 -1.20584,-1.65803 -2.73826,-2.98947 -4.59726,-3.99433 -1.80875,-1.00487 -3.81848,-1.70827 -6.02918,-2.11022 -2.2107,-0.45219 -4.29579,-0.67828 -6.25528,-0.67828 -2.11021,0 -4.24555,0.20097 -6.40601,0.60292 -2.11021,0.3517 -4.17018,0.9295 -6.17991,1.7334 -1.95949,0.80389 -3.84361,1.80875 -5.65236,3.01459 -1.75851,1.20582 -3.31605,2.63776 -4.67262,4.29579 -0.93365,1.04131 -0.9675,1.26346 -1.73339,2.41168 -0.60292,1.15558 -1.10535,2.36143 -1.50729,3.61751 -0.40195,1.20583 -0.60292,2.46191 -0.60292,3.76824 0,1.00486 0.22609,1.90924 0.67828,2.71313 0.45219,0.75365 1.25608,1.13047 2.41167,1.13047 0.90438,0 1.73339,-0.20097 2.48704,-0.60292 0.75365,-0.45219 1.40681,-1.00487 1.95949,-1.65802 0.60291,-0.65317 1.08022,-1.38169 1.43193,-2.18558 0.3517,-0.85413 0.60292,-1.68315 0.75365,-2.48704 0.20097,-0.80389 0.60292,-1.20584 1.20583,-1.20584 0.40195,0 0.67829,0.15073 0.82902,0.45219 0.20097,0.25122 0.27634,0.55268 0.22609,0.90438 -0.20097,1.35657 -0.5778,2.68801 -1.13047,3.99433 -0.55267,1.25608 -1.2812,2.38655 -2.18558,3.39142 -0.85413,0.95462 -1.88412,1.73339 -3.08996,2.33631 -1.15559,0.55267 -2.48704,0.82901 -3.99433,0.82901 -2.41167,0 -4.24555,-0.72853 -5.50163,-2.18558 -1.25608,-1.45705 -1.88412,-3.36629 -1.88412,-5.72772 0,-2.26095 0.45219,-4.37116 1.35656,-6.33065 0.58862,-1.61938 1.60042,-3.15577 2.33627,-4.0697 1.60779,-2.16045 3.51703,-3.99433 5.72773,-5.50163 2.26094,-1.50729 4.67261,-2.71313 7.23502,-3.61751 2.5624,-0.95462 5.20017,-1.6329 7.9133,-2.03485 2.76338,-0.40194 5.42627,-0.60291 7.98867,-0.60291 2.41167,0 5.04944,0.2512 7.91331,0.75364 2.9141,0.45219 5.60211,1.2812 8.06403,2.48704 2.51216,1.20584 4.59725,2.81361 6.25528,4.82335 1.70827,2.00973 2.5624,4.54701 2.5624,7.61184 0,2.21071 -0.42707,4.22044 -1.2812,6.02919 -0.85413,1.80875 -1.98461,3.41654 -3.39142,4.82335 -1.35657,1.40681 -2.93923,2.61264 -4.74798,3.61751 -1.80875,0.95462 -3.69287,1.73339 -5.65236,2.3363 2.00973,0.90438 3.61751,2.16046 4.82335,3.76824 1.25608,1.55754 1.88412,3.46678 1.88412,5.72773 0,3.21557 -0.87926,5.95382 -2.63777,8.21476 -1.70827,2.26095 -3.86872,4.11995 -6.48137,5.577 -2.56241,1.40681 -5.37603,2.43679 -8.44086,3.08995 -3.01459,0.65317 -5.82821,0.97975 -8.44086,0.97975 -1.95949,0 -4.09482,-0.20097 -6.40601,-0.60292 -2.31119,-0.35171 -4.44652,-1.00488 -6.406,-1.95949 -1.95949,-0.95462 -3.61751,-2.23582 -4.97408,-3.8436 -1.30633,-1.60778 -1.95949,-3.66776 -1.95949,-6.17991 0,-1.70827 0.37683,-3.3663 1.13048,-4.97408 -22.30129,-5.21645 -14.85728,-5.49782 9.64666,-5.87846 z m -0.37682,13.41494 c -0.30146,0 -0.5778,-0.0754 -0.82902,-0.2261 -0.25121,-0.20097 -0.37682,-0.4773 -0.37682,-0.82901 0,-0.3517 0.12561,-0.62804 0.37682,-0.82901 0.30146,-0.25122 0.62804,-0.37683 0.97975,-0.37683 0.75365,0 1.48217,-0.37682 2.18558,-1.13047 0.7034,-0.80389 1.38168,-1.80875 2.03484,-3.01459 0.65317,-1.20583 1.25609,-2.53728 1.80876,-3.99433 0.55267,-1.45705 1.05511,-2.88899 1.5073,-4.2958 0.45219,-1.40681 0.82901,-2.66289 1.13047,-3.76824 0.3517,-1.15559 0.62804,-2.03485 0.82901,-2.63777 0.55267,-1.90924 1.23096,-4.1953 2.03485,-6.85819 0.80389,-2.66289 1.80876,-5.2253 3.01459,-7.68721 1.25608,-2.46192 2.76338,-4.54701 4.52189,-6.25528 1.75851,-1.70827 3.89385,-2.5624 6.40601,-2.5624 0.30146,0 0.5778,0.10049 0.82901,0.30146 0.25122,0.15073 0.37683,0.40194 0.37683,0.75364 0,0.35171 -0.15073,0.65317 -0.45219,0.90438 -0.25122,0.20097 -0.55268,0.30146 -0.90438,0.30146 -0.70341,0 -1.40681,0.42707 -2.11022,1.2812 -0.65316,0.80389 -1.30632,1.859 -1.95948,3.16532 -0.60292,1.25608 -1.18072,2.68801 -1.73339,4.2958 -0.55267,1.55754 -1.08023,3.06484 -1.58266,4.52189 -0.45219,1.45705 -0.85413,2.78849 -1.20584,3.99433 -0.30146,1.20584 -0.52755,2.0851 -0.67828,2.63777 -0.70341,2.41167 -1.48218,4.87359 -2.33631,7.38575 -0.85413,2.46191 -1.859,4.82334 -3.01459,7.08429 -1.15559,2.2107 -2.61265,4.0697 -4.37116,5.57699 -1.70827,1.5073 -3.86872,2.26095 -6.48137,2.26095 z m 53.4336,4.22043 c 0.50243,-0.15073 1.23096,-0.75365 2.18558,-1.80876 0.95462,-1.05511 1.93436,-2.26094 2.93923,-3.61751 1.00486,-1.35657 1.93436,-2.66289 2.7885,-3.91897 0.85413,-1.30632 1.45705,-2.26094 1.80875,-2.86386 0.40195,-0.55267 0.77877,-0.82901 1.13047,-0.82901 0.25122,0 0.47732,0.10049 0.67829,0.30146 0.25121,0.20097 0.37682,0.47731 0.37682,0.82901 0,0.15073 -0.0502,0.37682 -0.15073,0.67828 -0.25121,0.45219 -0.57779,0.97975 -0.97974,1.58266 -0.35171,0.60292 -0.72853,1.23096 -1.13047,1.88412 -0.35171,0.60292 -0.70341,1.18072 -1.05511,1.73339 -0.30146,0.55268 -0.55268,0.97975 -0.75365,1.2812 -1.75851,2.61265 -3.39142,4.72286 -4.89871,6.33065 -1.45705,1.60778 -2.98947,2.41167 -4.59725,2.41167 -0.70341,0 -1.2812,-0.15073 -1.73339,-0.45219 -0.40195,-0.25121 -0.72853,-0.60291 -0.97975,-1.0551 -0.25121,-0.45219 -0.42706,-0.95463 -0.52755,-1.5073 -0.10049,-0.60292 -0.15073,-1.18072 -0.15073,-1.73339 0,-0.55267 0.0251,-1.05511 0.0754,-1.5073 0.0503,-0.50243 0.12563,-1.02998 0.22609,-1.58266 -0.50243,0.70341 -1.10535,1.5073 -1.80876,2.41168 -0.65316,0.85413 -1.40681,1.70827 -2.26094,2.5624 -0.80389,0.80389 -1.65803,1.48218 -2.5624,2.03485 -0.90438,0.55267 -1.83388,0.82901 -2.7885,0.82901 -1.45705,0 -2.4368,-0.50243 -2.93923,-1.50729 -0.50243,-1.05511 -0.75365,-2.21071 -0.75365,-3.46679 0,-1.80875 0.20097,-3.61751 0.60292,-5.42626 0.45219,-1.859 1.00487,-3.69288 1.65803,-5.50163 0.65316,-1.80875 1.35656,-3.59239 2.11021,-5.3509 0.75365,-1.75851 1.43193,-3.46678 2.03485,-5.12481 0.20097,-0.50243 0.42707,-1.00486 0.67829,-1.50729 0.25121,-0.50243 0.7034,-0.75365 1.35656,-0.75365 0.65316,0 1.23096,0.25122 1.73339,0.75365 0.50243,0.50243 1.02999,0.75364 1.58266,0.75364 0.45219,0 0.67829,0.20097 0.67829,0.60292 0,0.35171 -0.20097,1.02999 -0.60292,2.03485 -0.35171,1.00487 -0.8039,2.2107 -1.35657,3.61751 -0.50243,1.35657 -1.08023,2.83874 -1.73339,4.44653 -0.65316,1.60778 -1.25608,3.19044 -1.80875,4.74798 -0.50243,1.55754 -0.95462,3.01459 -1.35657,4.37116 -0.3517,1.30632 -0.52755,2.36143 -0.52755,3.16532 v 0.30146 c 0.65316,0 1.50729,-0.55268 2.5624,-1.65803 1.10535,-1.10535 2.18558,-2.36143 3.24069,-3.76824 1.10535,-1.45705 2.08509,-2.88898 2.93922,-4.29579 0.85413,-1.40681 1.40681,-2.41168 1.65803,-3.01459 0.65316,-1.75851 1.2812,-3.56727 1.88412,-5.42627 0.60292,-1.859 1.33145,-3.59239 2.18558,-5.20017 0.20097,-0.40195 0.40195,-0.72853 0.60292,-0.97974 0.25121,-0.30146 0.62804,-0.45219 1.13047,-0.45219 0.65316,0 1.23096,0.25122 1.73339,0.75365 0.50243,0.50243 1.02999,0.75364 1.58266,0.75364 0.45219,0 0.67828,0.20097 0.67828,0.60292 0,0.35171 -0.20097,1.02999 -0.60292,2.03485 -0.3517,1.00487 -0.80389,2.2107 -1.35656,3.61751 -0.55268,1.35657 -1.1556,2.86386 -1.80876,4.52189 -0.60292,1.60778 -1.18072,3.19044 -1.73339,4.74798 -0.55267,1.5073 -1.00486,2.93923 -1.35656,4.2958 -0.35171,1.35657 -0.52756,2.46192 -0.52756,3.31605 z m 21.47902,3.99433 c -0.70341,0 -1.2812,-0.15073 -1.73339,-0.45219 -0.40195,-0.25121 -0.72853,-0.60291 -0.97974,-1.0551 -0.25122,-0.45219 -0.42707,-0.95463 -0.52756,-1.5073 -0.10049,-0.60292 -0.15073,-1.18072 -0.15073,-1.73339 0,-1.40681 0.17585,-2.93923 0.52756,-4.59725 0.3517,-1.65803 0.77877,-3.31604 1.2812,-4.97407 0.55267,-1.65803 1.13047,-3.26581 1.73339,-4.82335 0.60292,-1.60778 1.18072,-3.08995 1.73339,-4.44652 -0.70341,0.40195 -1.43193,0.60292 -2.18558,0.60292 -1.10535,0 -1.88412,-0.37682 -2.33631,-1.13047 -0.40195,-0.80389 -0.62804,-1.68315 -0.67828,-2.63777 l -6.40601,11.53081 c -0.20097,0.40195 -0.47731,0.65316 -0.82901,0.75365 -0.35171,0.10049 -0.65317,0.10049 -0.90438,0 -0.25121,-0.10049 -0.42706,-0.30146 -0.52755,-0.60292 -0.10049,-0.3517 -0.0251,-0.72852 0.22609,-1.13047 1.15559,-1.80875 2.16046,-3.46678 3.01459,-4.97408 0.85414,-1.55754 1.65803,-3.06484 2.41168,-4.52189 0.80389,-1.45705 1.60778,-2.96434 2.41167,-4.52188 0.80389,-1.55754 1.73339,-3.29093 2.7885,-5.20018 0.20097,-0.35171 0.42707,-0.67829 0.67828,-0.97975 0.30146,-0.30145 0.65316,-0.45219 1.05511,-0.45219 0.3517,0 0.65316,0.0754 0.90438,0.2261 0.25121,0.15074 0.50243,0.32659 0.75364,0.52755 0.30146,0.20097 0.65316,0.37683 1.05511,0.52756 0.40195,0.15073 0.95462,0.22609 1.65803,0.22609 -0.75365,1.55754 -1.53242,3.1402 -2.33631,4.74798 -0.75365,1.60779 -1.30632,3.26581 -1.65803,4.97408 0.30146,-0.15073 0.62804,-0.37682 0.97975,-0.67828 0.40194,-0.35171 0.77876,-0.70341 1.13047,-1.05511 0.3517,-0.3517 0.67828,-0.65316 0.97974,-0.90438 0.3517,-0.25121 0.67828,-0.37682 0.97974,-0.37682 0.65316,0 1.23096,0.25122 1.73339,0.75365 0.50243,0.50243 1.02999,0.75364 1.58266,0.75364 0.45219,0 0.67829,0.20097 0.67829,0.60292 0,0.35171 -0.20097,1.05511 -0.60292,2.11022 -0.35171,1.00486 -0.8039,2.2107 -1.35657,3.61751 -0.55267,1.35657 -1.15559,2.83874 -1.80875,4.44652 -0.60292,1.60778 -1.18072,3.19044 -1.73339,4.74798 -0.55268,1.55754 -1.00487,3.01459 -1.35657,4.37116 -0.3517,1.30633 -0.52755,2.38656 -0.52755,3.24069 0.50243,-0.15073 1.23095,-0.75365 2.18558,-1.80876 0.95462,-1.05511 1.93436,-2.26094 2.93922,-3.61751 1.00487,-1.35657 1.93437,-2.66289 2.7885,-3.91897 0.85413,-1.30632 1.45705,-2.26094 1.80876,-2.86386 0.40194,-0.55267 0.77876,-0.82901 1.13047,-0.82901 0.25121,0 0.47731,0.10049 0.67828,0.30146 0.25121,0.20097 0.37682,0.47731 0.37682,0.82901 0,0.15073 -0.0502,0.37682 -0.15073,0.67828 -0.25121,0.45219 -0.57779,0.97975 -0.97974,1.58266 -0.3517,0.60292 -0.72852,1.23096 -1.13047,1.88412 -0.3517,0.60292 -0.7034,1.18072 -1.05511,1.73339 -0.30146,0.55268 -0.55267,0.97975 -0.75364,1.2812 -1.75851,2.61265 -3.39142,4.72286 -4.89872,6.33065 -1.45705,1.60778 -2.98947,2.41167 -4.59725,2.41167 z m 29.09076,-7.53648 c -1.25608,1.15559 -2.66289,2.03485 -4.22043,2.63777 -1.55754,0.60292 -3.16532,0.95462 -4.82335,1.05511 0.80389,0.10049 1.60779,0.30146 2.41168,0.60292 0.80389,0.25121 1.50729,0.62804 2.11021,1.13047 0.65316,0.50243 1.15559,1.10535 1.5073,1.80875 0.40195,0.70341 0.60292,1.53242 0.60292,2.48704 0,1.65803 -0.45219,3.1402 -1.35657,4.44652 -0.90438,1.30633 -2.03485,2.41168 -3.39142,3.31606 -1.35657,0.95462 -2.83874,1.65802 -4.44652,2.11021 -1.60778,0.50243 -3.1402,0.75365 -4.59725,0.75365 -0.85413,0 -1.73339,-0.0754 -2.63777,-0.2261 -0.85413,-0.15073 -1.65802,-0.42706 -2.41167,-0.82901 -0.75365,-0.40195 -1.35657,-0.95462 -1.80876,-1.65803 -0.50243,-0.65316 -0.75365,-1.48217 -0.75365,-2.48703 0,-1.25608 0.42707,-2.36143 1.2812,-3.31605 0.85414,-0.90438 1.88413,-1.68315 3.08996,-2.33631 1.20584,-0.60292 2.46192,-1.05511 3.76824,-1.35657 1.35657,-0.30146 2.53728,-0.45219 3.54215,-0.45219 0.30146,0 0.5778,0.10049 0.82901,0.30146 0.30146,0.20097 0.45219,0.47731 0.45219,0.82901 0,0.40195 -0.15073,0.67829 -0.45219,0.82902 -0.30146,0.20097 -0.62804,0.30146 -0.97974,0.30146 -0.75365,0 -1.48217,0.17585 -2.18558,0.52755 -0.65316,0.40195 -1.23096,0.87926 -1.73339,1.43193 -0.45219,0.60292 -0.82902,1.25608 -1.13047,1.95948 -0.30146,0.75365 -0.45219,1.48218 -0.45219,2.18558 0,0.60292 0.12561,1.08023 0.37682,1.43194 0.30146,0.40194 0.77877,0.60291 1.43193,0.60291 1.00487,0 1.95949,-0.32658 2.86386,-0.97974 0.95463,-0.60292 1.78364,-1.35657 2.48704,-2.26094 0.70341,-0.90438 1.25608,-1.90924 1.65803,-3.01459 0.45219,-1.05511 0.67828,-2.03486 0.67828,-2.93923 0,-1.00487 -0.25122,-1.70827 -0.75365,-2.11022 -0.50243,-0.40194 -1.13047,-0.67828 -1.88412,-0.82901 -0.75365,-0.15073 -1.55754,-0.25121 -2.41167,-0.30146 -0.85413,-0.10049 -1.65802,-0.30146 -2.41167,-0.60292 -0.75365,-0.30146 -1.38169,-0.80389 -1.88412,-1.50729 -0.50243,-0.75365 -0.75365,-1.88412 -0.75365,-3.39142 0,-0.65316 0.0754,-1.33144 0.22609,-2.03485 -0.20097,-0.65316 -0.30146,-1.40681 -0.30146,-2.26094 0,-2.16046 0.40195,-4.24555 1.20584,-6.25528 0.85413,-2.00973 2.00973,-3.79336 3.46678,-5.3509 1.45705,-1.55754 3.1402,-2.81362 5.04944,-3.76824 1.95949,-0.95462 4.04458,-1.43193 6.25528,-1.43193 0,-0.70341 0.25122,-1.20584 0.75365,-1.5073 0.3517,-0.20097 0.9295,-0.5778 1.73339,-1.13047 0.80389,-0.55267 1.63291,-1.08023 2.48704,-1.58266 0.90437,-0.55267 1.73339,-1.02998 2.48704,-1.43193 0.80389,-0.45219 1.38168,-0.67829 1.73339,-0.67829 0.45219,0 0.82901,0.15073 1.13047,0.45219 0.3517,0.30146 0.52755,0.67829 0.52755,1.13048 0,1.05511 -0.55267,1.78363 -1.65802,2.18557 l -7.00893,2.7885 c 2.00973,0.40195 3.51702,1.33145 4.52189,2.7885 1.05511,1.40681 1.58266,3.08995 1.58266,5.04944 0,1.70827 -0.30146,3.44166 -0.90438,5.20017 -0.55267,1.70827 -1.33144,3.26581 -2.33631,4.67262 1.5073,-0.50243 2.7885,-1.23096 3.84361,-2.18558 1.10535,-0.95462 2.08509,-2.11021 2.93922,-3.46678 0.40195,-0.55267 0.77877,-0.82901 1.13048,-0.82901 0.60291,0 0.95461,0.3517 1.0551,1.0551 -0.0503,0.15073 -0.10051,0.32659 -0.15073,0.52756 0,0.15073 -0.0502,0.30146 -0.15073,0.45219 -0.55267,1.00486 -1.25608,1.95948 -2.11021,2.86386 -0.80389,0.85413 -1.70827,1.58266 -2.71313,2.18558 -0.95462,0.65316 -1.98461,1.20583 -3.08996,1.65802 -1.05511,0.40195 -2.16046,0.65316 -3.31605,0.75365 z m -2.63777,-18.69047 c -1.60778,0 -3.03971,0.5778 -4.29579,1.73339 -1.20584,1.15559 -2.23583,2.5624 -3.08996,4.22043 -0.80389,1.60778 -1.43193,3.31605 -1.88412,5.12481 -0.45219,1.80875 -0.67828,3.34117 -0.67828,4.59725 0,0.40195 0.0251,0.87926 0.0754,1.43193 0.0503,0.50243 0.17588,0.97974 0.37683,1.43193 0.20097,0.45219 0.45219,0.85414 0.75364,1.20584 0.35171,0.30146 0.8039,0.45219 1.35657,0.45219 1.55754,0 2.96435,-0.5778 4.22043,-1.73339 1.25608,-1.15559 2.31119,-2.53728 3.16532,-4.14507 0.85413,-1.65803 1.5073,-3.36629 1.95949,-5.1248 0.45219,-1.80876 0.67828,-3.3663 0.67828,-4.67262 0,-0.40195 -0.0502,-0.85414 -0.15073,-1.35657 -0.0503,-0.55267 -0.17587,-1.0551 -0.37682,-1.50729 -0.15073,-0.45219 -0.40195,-0.82902 -0.75365,-1.13048 -0.35171,-0.3517 -0.8039,-0.52755 -1.35657,-0.52755 z m 20.95135,22.45871 c 1.35657,0 2.73826,-0.42707 4.14507,-1.2812 1.40681,-0.85413 2.73825,-1.90924 3.99433,-3.16532 1.25608,-1.25608 2.38655,-2.61265 3.39142,-4.0697 1.00486,-1.45705 1.80875,-2.76338 2.41167,-3.91897 0.45219,-0.55267 0.85413,-0.82901 1.20584,-0.82901 0.25121,0 0.47731,0.10049 0.67828,0.30146 0.25122,0.20097 0.37683,0.47731 0.37683,0.82901 0,0.15073 -0.0502,0.37682 -0.15073,0.67828 -0.95463,1.70827 -2.00974,3.46679 -3.16533,5.27554 -1.15559,1.80875 -2.46192,3.44166 -3.91897,4.89871 -1.45705,1.45705 -3.08995,2.66289 -4.89871,3.61751 -1.75851,0.95462 -3.74312,1.43193 -5.95382,1.43193 -1.55754,0 -2.88898,-0.25122 -3.99433,-0.75365 -1.05511,-0.45219 -1.93436,-1.08023 -2.63777,-1.88412 -0.70341,-0.80389 -1.23096,-1.73338 -1.58266,-2.78849 -0.30146,-1.10535 -0.45219,-2.28607 -0.45219,-3.54215 0,-2.00973 0.42707,-4.14506 1.2812,-6.40601 0.85413,-2.31119 2.00973,-4.4214 3.46678,-6.33064 1.5073,-1.95949 3.21557,-3.56727 5.12481,-4.82335 1.95949,-1.30632 3.99434,-1.95948 6.10455,-1.95948 2.00973,0 3.64263,0.62804 4.89871,1.88412 1.30633,1.25608 1.95949,3.16532 1.95949,5.72772 0,0.90438 -0.0754,1.83388 -0.2261,2.7885 -0.10049,0.55267 -0.3517,1.05511 -0.75365,1.5073 -0.3517,0.40194 -1.00486,0.60291 -1.95948,0.60291 l -12.43519,0.30146 c -0.40195,1.05511 -0.72853,2.16046 -0.97975,3.31605 -0.25121,1.15559 -0.37682,2.31119 -0.37682,3.46679 0,1.45705 0.32658,2.688 0.97974,3.69287 0.65316,0.95462 1.80875,1.43193 3.46678,1.43193 z m -2.11021,-14.24395 c 0.3517,-0.0503 0.67828,-0.0754 0.97974,-0.0754 0.30146,0 0.5778,-0.0251 0.82901,-0.0754 0.90438,-0.10048 1.75852,-0.15072 2.56241,-0.15072 0.85413,-0.0503 2.08509,-0.12563 3.69287,-0.2261 0.30146,-1.859 0.45219,-3.44166 0.45219,-4.74798 0,-0.90438 -0.10049,-1.60779 -0.30146,-2.11022 -0.15073,-0.55267 -0.42706,-0.82901 -0.82901,-0.82901 -0.55267,0 -1.15559,0.22609 -1.80876,0.67828 -0.65316,0.40195 -1.30632,0.97974 -1.95948,1.73339 -0.65316,0.75365 -1.30632,1.63291 -1.95949,2.63777 -0.60291,1.00487 -1.15559,2.05997 -1.65802,3.16532 z m 27.88499,18.01219 c -0.7034,0 -1.2812,-0.15073 -1.73339,-0.45219 -0.40195,-0.25121 -0.72853,-0.60291 -0.97974,-1.0551 -0.25121,-0.45219 -0.42706,-0.95463 -0.52755,-1.5073 -0.10049,-0.60292 -0.15073,-1.18072 -0.15073,-1.73339 0,-1.40681 0.17585,-2.93923 0.52755,-4.59725 0.3517,-1.65803 0.77877,-3.31605 1.2812,-4.97408 0.55268,-1.65803 1.13048,-3.26581 1.73339,-4.82335 0.60292,-1.60778 1.18072,-3.08995 1.73339,-4.44652 -0.7034,0.40195 -1.43193,0.60292 -2.18558,0.60292 -1.10535,0 -1.88411,-0.37682 -2.3363,-1.13047 -0.40195,-0.80389 -0.62804,-1.68315 -0.67829,-2.63777 l -6.40601,11.53081 c -0.20097,0.40195 -0.47731,0.65316 -0.82901,0.75365 -0.3517,0.10049 -0.65316,0.10049 -0.90438,0 -0.25121,-0.10049 -0.42706,-0.30146 -0.52755,-0.60292 -0.10049,-0.3517 -0.0251,-0.72852 0.22609,-1.13047 1.15559,-1.80875 2.16046,-3.46678 3.0146,-4.97408 0.85413,-1.55754 1.65802,-3.06484 2.41167,-4.52189 0.80389,-1.45705 1.60778,-2.96434 2.41167,-4.52188 0.80389,-1.55754 1.73339,-3.29093 2.7885,-5.20017 0.20097,-0.35171 0.42707,-0.67829 0.67828,-0.97975 0.30146,-0.30146 0.65316,-0.45219 1.05511,-0.45219 0.35171,0 0.65317,0.0754 0.90438,0.2261 0.25121,0.15073 0.50243,0.32658 0.75365,0.52755 0.30146,0.20097 0.65316,0.37683 1.0551,0.52756 0.40195,0.15073 0.95462,0.22609 1.65803,0.22609 -0.75365,1.55754 -1.53242,3.1402 -2.33631,4.74798 -0.75365,1.60779 -1.30632,3.26581 -1.65802,4.97408 0.30145,-0.15073 0.62803,-0.37682 0.97974,-0.67828 0.40195,-0.35171 0.77877,-0.70341 1.13047,-1.05511 0.3517,-0.3517 0.67828,-0.65316 0.97974,-0.90438 0.35171,-0.25121 0.67829,-0.37682 0.97974,-0.37682 0.65317,0 1.23097,0.25122 1.7334,0.75365 0.50243,0.50243 1.02998,0.75364 1.58266,0.75364 0.45219,0 0.67828,0.20097 0.67828,0.60292 0,0.35171 -0.20097,1.05511 -0.60292,2.11022 -0.3517,1.00486 -0.80389,2.2107 -1.35657,3.61751 -0.55267,1.35657 -1.15559,2.83874 -1.80875,4.44652 -0.60292,1.60778 -1.18072,3.19044 -1.73339,4.74798 -0.55267,1.55754 -1.00486,3.01459 -1.35657,4.37116 -0.3517,1.30633 -0.52755,2.38656 -0.52755,3.24069 0.50243,-0.15073 1.23096,-0.75365 2.18558,-1.80876 0.95462,-1.05511 1.93436,-2.26094 2.93923,-3.61751 1.00486,-1.35657 1.93436,-2.66289 2.78849,-3.91897 0.85413,-1.30632 1.45705,-2.26094 1.80876,-2.86386 0.40195,-0.55267 0.77877,-0.82901 1.13047,-0.82901 0.25121,0 0.47731,0.10049 0.67828,0.30146 0.25122,0.20097 0.37683,0.47731 0.37683,0.82901 0,0.15073 -0.0502,0.37682 -0.15073,0.67828 -0.25122,0.45219 -0.5778,0.97975 -0.97974,1.58266 -0.35171,0.60292 -0.72853,1.23096 -1.13048,1.88412 -0.3517,0.60292 -0.7034,1.18072 -1.0551,1.73339 -0.30146,0.55268 -0.55268,0.97975 -0.75365,1.2812 -1.75851,2.61265 -3.39142,4.72286 -4.89871,6.33065 -1.45705,1.60778 -2.98947,2.41167 -4.59726,2.41167 z"
         id="text2"
         aria-label="Burger"
         sodipodi:nodetypes="scscscccscccscccscccssssscccscccsccccccscsccccscccccssscccccscccssccccscccscscscssscscscsssccscsscscscccccccccssssccscsccccccscscscccssscscsscsssssccsccscccscsccssssccccsssscscsscccscccssccccsccsscsccccscsssscccsccssccscsccccccscsccccssccscscscccscscscccscscscssscscscscscccsccscscccsccccscccccccsccsscscssccscccsssssscscscsscscscscccscsccccsscssscccscscscssscscsscccscccssccccsccsscsccccscsssscccsccssccscsccccccs" /><path
         style="font-size:75.3648px;line-height:1;font-family:'Festive December';-inkscape-font-specification:'Festive December';letter-spacing:0px;word-spacing:0px;fill:#000000;stroke-width:260.191;stroke-linecap:round;stroke-linejoin:round;fill-opacity:1"
         d="m 230.14094,263.91517 c 0.75365,0 1.13047,0.3517 1.13047,1.05511 0,0.3517 -0.12561,0.65316 -0.37682,0.90437 -0.25122,0.20097 -0.55268,0.30146 -0.90438,0.30146 -0.85413,0 -1.58266,0.37682 -2.18558,1.13047 -0.55267,0.70341 -1.02998,1.55754 -1.43193,2.56241 -0.3517,1.00486 -0.62804,2.03484 -0.82901,3.08995 -0.15073,1.00487 -0.2261,1.83388 -0.2261,2.48704 0,0.60292 0.0502,1.25608 0.15073,1.95949 0.15073,0.7034 0.37683,1.33144 0.67828,1.88412 0.30146,0.55267 0.70341,1.02998 1.20584,1.43193 0.50243,0.3517 1.13047,0.52755 1.88412,0.52755 1.25608,0 2.4368,-0.50243 3.54215,-1.50729 1.10535,-1.00487 2.11021,-2.31119 3.01459,-3.91897 0.90438,-1.60779 1.73339,-3.39142 2.48704,-5.3509 0.75365,-1.95949 1.43193,-3.91897 2.03485,-5.87846 0.60291,-1.95949 1.13047,-3.76824 1.58266,-5.42626 0.45219,-1.70827 0.82901,-3.06484 1.13047,-4.0697 -1.40681,1.15559 -2.96435,2.03485 -4.67262,2.63776 -1.70827,0.60292 -3.46678,0.90438 -5.27553,0.90438 -1.55754,0 -3.03972,-0.22609 -4.44653,-0.67828 -1.40681,-0.45219 -2.63776,-1.10535 -3.69287,-1.95949 -1.05511,-0.85413 -1.90924,-1.90924 -2.56241,-3.16532 -0.60291,-1.30632 -0.90437,-2.78849 -0.90437,-4.44652 0,-0.80389 0.0754,-1.58266 0.22609,-2.33631 0.50243,-2.5624 1.5073,-4.82334 3.01459,-6.78283 1.5073,-2.00973 3.31606,-3.74312 5.42627,-5.20017 2.16046,-1.5073 4.52189,-2.73826 7.08429,-3.69288 2.5624,-1.00486 5.17505,-1.80875 7.83794,-2.41167 2.66289,-0.65316 5.30065,-1.10535 7.9133,-1.35657 2.61265,-0.25121 4.9992,-0.37682 7.15966,-0.37682 0.30146,0 0.5778,0.10049 0.82901,0.30146 0.30146,0.20097 0.45219,0.47731 0.45219,0.82901 0,0.50243 -0.15073,0.80389 -0.45219,0.90438 -0.25121,0.0503 -0.57779,0.12563 -0.97974,0.22609 -0.65316,0.10049 -1.35656,0.75365 -2.11021,1.95949 -0.75365,1.15559 -1.5073,2.61265 -2.26095,4.37116 -0.70341,1.70827 -1.43193,3.61751 -2.18558,5.72772 -0.70341,2.05997 -1.35657,4.0697 -1.95948,6.02918 -0.55268,1.90925 -1.05511,3.64264 -1.5073,5.20018 -0.40195,1.55753 -0.70341,2.688 -0.90438,3.39141 -0.45219,1.65803 -0.97974,3.54215 -1.58266,5.65236 -0.55267,2.05997 -1.23096,4.17019 -2.03485,6.33064 -0.80389,2.16046 -1.73338,4.27068 -2.78849,6.33065 -1.00487,2.00973 -2.2107,3.81848 -3.61751,5.42626 -1.35657,1.60779 -2.91411,2.91411 -4.67262,3.91897 -1.70827,0.95462 -3.61752,1.43193 -5.72773,1.43193 -2.76337,0 -5.02432,-0.80389 -6.78283,-2.41167 -1.70827,-1.65803 -2.5624,-3.89385 -2.5624,-6.70747 0,-0.90437 0.0754,-1.78363 0.22609,-2.63776 0.20097,-0.90438 0.50243,-1.78364 0.90438,-2.63777 1.01284,-2.83783 6.18576,-5.95382 9.72199,-5.95382 z m 24.79502,-35.19536 c -1.70827,0.15073 -3.59239,0.45218 -5.65236,0.90437 -2.05997,0.45219 -4.11995,1.05511 -6.17992,1.80876 -2.00973,0.70341 -3.96921,1.58266 -5.87845,2.63777 -1.90924,1.05511 -3.59239,2.31119 -5.04944,3.76824 -1.45705,1.40681 -2.63777,2.98947 -3.54215,4.74798 -0.85413,1.75851 -1.2812,3.718 -1.2812,5.87845 0,2.11022 0.65316,3.718 1.95949,4.82335 1.35657,1.05511 3.03971,1.58266 5.04944,1.58266 0.95462,0 1.95948,-0.15073 3.01459,-0.45219 1.05511,-0.30146 2.05997,-0.7034 3.01459,-1.20583 1.00487,-0.55268 1.90924,-1.18072 2.71313,-1.88412 0.80389,-0.75365 1.40681,-1.58267 1.80876,-2.48704 0.30146,-0.60292 0.52755,-1.25608 0.67828,-1.95949 0.20097,-0.75365 0.42707,-1.48217 0.67829,-2.18558 0.45219,-1.25608 0.97974,-2.61264 1.58266,-4.06969 0.60291,-1.5073 1.25607,-2.96435 1.95948,-4.37116 0.75365,-1.45705 1.53242,-2.83874 2.33631,-4.14507 0.85413,-1.30632 1.78363,-2.43679 2.7885,-3.39141 z m -8.06398,47.47982 c 0,-2.16046 0.45219,-4.4214 1.35657,-6.78283 0.90437,-2.41167 2.11021,-4.62237 3.61751,-6.6321 1.55753,-2.00973 3.36629,-3.66776 5.42626,-4.97408 2.05997,-1.35657 4.24555,-2.03485 6.55674,-2.03485 2.66289,0 4.57213,0.77877 5.72772,2.33631 1.15559,1.50729 1.73339,3.41653 1.73339,5.72772 0,1.60779 -0.25121,3.24069 -0.75364,4.89872 -0.45219,1.60778 -1.02999,3.11507 -1.73339,4.52188 1.20583,-0.55267 2.26094,-1.25608 3.16532,-2.11021 0.95462,-0.90438 1.78363,-1.93437 2.48704,-3.08996 0.40194,-0.55267 0.77876,-0.82901 1.13047,-0.82901 0.70341,0 1.05511,0.3517 1.05511,1.05511 0,0.25121 -0.10049,0.57779 -0.30146,0.97974 -1.00487,1.75851 -2.33631,3.26581 -3.99434,4.52189 -1.65803,1.20583 -3.46678,2.08509 -5.42626,2.63777 -1.55754,2.26094 -3.41654,4.14506 -5.577,5.65236 -2.11021,1.45705 -4.44652,2.18557 -7.00893,2.18557 -2.66289,0 -4.57213,-0.75365 -5.72772,-2.26094 -1.15559,-1.55754 -1.73339,-3.4919 -1.73339,-5.80309 z m 16.65562,-18.16292 c -1.45705,0 -2.86386,0.80389 -4.22043,2.41168 -1.30632,1.55754 -2.46191,3.44166 -3.46678,5.65236 -1.00487,2.16045 -1.80876,4.37115 -2.41167,6.6321 -0.60292,2.26095 -0.90438,4.0697 -0.90438,5.42627 0,1.15559 0.15073,2.08509 0.45219,2.78849 0.3517,0.70341 0.90437,1.05511 1.65802,1.05511 1.45705,0 2.83874,-0.77877 4.14507,-2.33631 1.35657,-1.60778 2.53728,-3.4919 3.54214,-5.65236 1.00487,-2.2107 1.80876,-4.44652 2.41168,-6.70747 0.60291,-2.26094 0.90437,-4.06969 0.90437,-5.42626 0,-1.15559 -0.17585,-2.08509 -0.52755,-2.7885 -0.30146,-0.70341 -0.82901,-1.05511 -1.58266,-1.05511 z m 16.80632,-6.33064 c 0,-1.05511 0.45219,-1.93436 1.35657,-2.63777 0.95462,-0.7034 1.93436,-1.0551 2.93922,-1.0551 0.85414,0 1.5073,0.27634 1.95949,0.82901 0.45219,0.55267 0.67828,1.23096 0.67828,2.03485 0,1.10535 -0.42707,2.05997 -1.2812,2.86386 -0.80389,0.75365 -1.73339,1.13047 -2.7885,1.13047 -0.90437,0 -1.60778,-0.30146 -2.11021,-0.90438 -0.50243,-0.65316 -0.75365,-1.40681 -0.75365,-2.26094 z m -3.39141,28.56326 c 0.50243,-0.15073 1.23095,-0.75365 2.18557,-1.80876 0.95463,-1.05511 1.93437,-2.26094 2.93923,-3.61751 1.00487,-1.35657 1.93437,-2.66289 2.7885,-3.91897 0.85413,-1.30632 1.45705,-2.26094 1.80875,-2.86386 0.40195,-0.55267 0.77877,-0.82901 1.13048,-0.82901 0.25121,0 0.47731,0.10049 0.67828,0.30146 0.25121,0.20097 0.37682,0.47731 0.37682,0.82901 0,0.15073 -0.0502,0.37683 -0.15073,0.67828 -0.25121,0.45219 -0.57779,0.97975 -0.97974,1.58267 -0.3517,0.60291 -0.72852,1.23095 -1.13047,1.88412 -0.3517,0.60291 -0.7034,1.18071 -1.05511,1.73339 -0.30146,0.55267 -0.55268,0.97974 -0.75365,1.2812 -1.75851,2.61265 -3.39141,4.72286 -4.89871,6.33064 -1.45705,1.60778 -2.98947,2.41167 -4.59725,2.41167 -0.70341,0 -1.2812,-0.15073 -1.73339,-0.45218 -0.40195,-0.25122 -0.72853,-0.60292 -0.97974,-1.05511 -0.25122,-0.45219 -0.42707,-0.95462 -0.52756,-1.5073 -0.10049,-0.60292 -0.15073,-1.18072 -0.15073,-1.73339 0,-1.859 0.20097,-3.69288 0.60292,-5.50163 0.45219,-1.859 0.97975,-3.69288 1.58266,-5.50163 0.65317,-1.859 1.35657,-3.66775 2.11022,-5.42626 0.75365,-1.75851 1.45705,-3.49191 2.11021,-5.20018 0.20097,-0.50243 0.42707,-1.00486 0.67828,-1.50729 0.25122,-0.50243 0.70341,-0.75365 1.35657,-0.75365 0.65316,0 1.23096,0.25122 1.73339,0.75365 0.50243,0.50243 1.02999,0.75365 1.58266,0.75365 0.45219,0 0.67829,0.20097 0.67829,0.60291 0,0.35171 -0.20097,1.02999 -0.60292,2.03485 -0.35171,1.00487 -0.8039,2.2107 -1.35657,3.61751 -0.55267,1.35657 -1.15559,2.86386 -1.80875,4.52189 -0.60292,1.60779 -1.18072,3.19045 -1.73339,4.74799 -0.55268,1.50729 -1.00487,2.93922 -1.35657,4.29579 -0.3517,1.35657 -0.52755,2.46192 -0.52755,3.31605 z m 23.06167,3.99433 c -0.70341,0 -1.2812,-0.15073 -1.73339,-0.45218 -0.40195,-0.25122 -0.72853,-0.60292 -0.97974,-1.05511 -0.25122,-0.45219 -0.42707,-0.95462 -0.52756,-1.5073 -0.10049,-0.60292 -0.15073,-1.18072 -0.15073,-1.73339 0,-1.90924 0.27634,-3.8436 0.82902,-5.80309 0.55267,-1.95948 1.13047,-3.8436 1.73339,-5.65236 0.50243,-1.45705 0.95462,-2.86386 1.35656,-4.22043 0.40195,-1.40681 0.72853,-2.81362 0.97975,-4.22043 -0.55268,0.10049 -1.35657,0.70341 -2.41168,1.80876 -1.05511,1.05511 -2.11021,2.28607 -3.16532,3.69288 -1.05511,1.35656 -2.03485,2.688 -2.93923,3.99433 -0.85413,1.30632 -1.40681,2.23582 -1.65802,2.7885 -0.25122,0.60291 -0.55268,1.35656 -0.90438,2.26094 -0.30146,0.90438 -0.5778,1.83388 -0.82901,2.7885 -0.25122,0.95462 -0.47731,1.88412 -0.67828,2.7885 -0.15073,0.90437 -0.2261,1.68314 -0.2261,2.33631 0.30146,-0.0503 0.52755,-3e-5 0.67828,0.15072 0.20097,0.15073 0.30146,0.35171 0.30146,0.60292 0,0.30146 -0.17585,0.60292 -0.52755,0.90438 -0.30146,0.3517 -0.75365,0.52755 -1.35657,0.52755 -1.45705,0 -2.43679,-0.52755 -2.93922,-1.58266 -0.45219,-1.10535 -0.67829,-2.26094 -0.67829,-3.46678 0,-1.75851 0.20097,-3.54215 0.60292,-5.3509 0.45219,-1.80875 0.95462,-3.54214 1.5073,-5.20017 0.65316,-1.90924 1.33144,-3.86872 2.03485,-5.87845 0.7034,-2.05997 1.50729,-3.96922 2.41167,-5.72773 0.20097,-0.40195 0.40195,-0.72853 0.60292,-0.97974 0.25121,-0.30146 0.62804,-0.45219 1.13047,-0.45219 0.65316,0 1.23096,0.25122 1.73339,0.75365 0.50243,0.50243 1.02999,0.75365 1.58266,0.75365 0.45219,0 0.67829,0.20097 0.67829,0.60291 0,0.30146 -0.0754,0.65316 -0.2261,1.05511 -0.10049,0.40195 -0.25122,0.80389 -0.45219,1.20584 -0.15073,0.3517 -0.30146,0.67828 -0.45219,0.97974 -0.10049,0.30146 -0.20097,0.5778 -0.30146,0.82901 0.45219,-0.55267 0.95463,-1.18071 1.5073,-1.88412 0.60292,-0.7034 1.25608,-1.35656 1.95948,-1.95948 0.70341,-0.60292 1.43193,-1.10535 2.18558,-1.5073 0.80389,-0.45219 1.58266,-0.67828 2.33631,-0.67828 0.70341,0 1.25608,0.15073 1.65803,0.45219 0.45219,0.25121 0.80389,0.60292 1.05511,1.05511 0.25121,0.45219 0.42706,0.97974 0.52755,1.58266 0.10049,0.55267 0.15073,1.10535 0.15073,1.65802 0,1.70827 -0.25122,3.46679 -0.75365,5.27554 -0.50243,1.80875 -1.05511,3.59239 -1.65802,5.3509 -0.60292,1.70827 -1.1556,3.36629 -1.65803,4.97408 -0.45219,1.55753 -0.67828,2.93922 -0.67828,4.14506 0.50243,-0.15073 1.23095,-0.75365 2.18558,-1.80876 0.95462,-1.05511 1.93436,-2.26094 2.93922,-3.61751 1.00487,-1.35657 1.93437,-2.66289 2.7885,-3.91897 0.85413,-1.30632 1.45705,-2.26094 1.80876,-2.86386 0.40194,-0.55267 0.77876,-0.82901 1.13047,-0.82901 0.25121,0 0.47731,0.10049 0.67828,0.30146 0.25121,0.20097 0.37682,0.47731 0.37682,0.82901 0,0.15073 -0.0502,0.37683 -0.15072,0.67828 -0.25122,0.45219 -0.5778,0.97975 -0.97975,1.58267 -0.3517,0.60291 -0.72852,1.23095 -1.13047,1.88412 -0.3517,0.60291 -0.7034,1.18071 -1.05511,1.73339 -0.30146,0.55267 -0.55267,0.97974 -0.75364,1.2812 -1.75851,2.61265 -3.39142,4.72286 -4.89872,6.33064 -1.45705,1.60778 -2.98947,2.41167 -4.59725,2.41167 z m 12.66122,0 c -0.70341,0 -1.2812,-0.20097 -1.73339,-0.60291 -0.45219,-0.35171 -0.80389,-0.8039 -1.05511,-1.35657 -0.25121,-0.55267 -0.42706,-1.13047 -0.52755,-1.73339 -0.0503,-0.65316 -0.0754,-1.25608 -0.0754,-1.80876 0,-1.70827 0.22609,-3.59239 0.67828,-5.65236 0.45219,-2.11021 1.00486,-4.24555 1.65802,-6.406 0.65317,-2.21071 1.35657,-4.34604 2.11022,-6.40601 0.75365,-2.05997 1.43193,-3.89385 2.03485,-5.50163 -0.60292,0 -1.18072,-0.0754 -1.73339,-0.2261 -0.50243,-0.20097 -0.75365,-0.67828 -0.75365,-1.43193 0,-0.80389 0.25122,-1.35656 0.75365,-1.65802 0.55267,-0.30146 1.18071,-0.45219 1.88412,-0.45219 l 0.82901,0.0754 h 0.37683 c 0.10048,-0.25121 0.25121,-0.65316 0.45218,-1.20583 0.25122,-0.60292 0.52756,-1.23096 0.82902,-1.88412 0.30146,-0.70341 0.60292,-1.43193 0.90437,-2.18558 0.30146,-0.75365 0.5778,-1.45706 0.82902,-2.11022 0.25121,-0.55267 0.52755,-0.95462 0.82901,-1.20583 0.3517,-0.25122 0.67828,-0.37683 0.97974,-0.37683 0.30146,0 0.5778,0.0754 0.82902,0.2261 0.30145,0.15073 0.62803,0.32658 0.97974,0.52755 0.3517,0.20097 0.77877,0.37682 1.2812,0.52755 0.50243,0.15073 1.18072,0.2261 2.03485,0.2261 -0.30146,0.30146 -0.62804,0.80389 -0.97974,1.50729 -0.35171,0.70341 -0.72853,1.45706 -1.13048,2.26095 l -1.0551,2.41167 c -0.30146,0.75365 -0.52756,1.33144 -0.67829,1.73339 l 3.61751,0.2261 c 0.35171,0.0503 0.67829,0.20099 0.97975,0.45218 0.30146,0.20097 0.40195,0.47731 0.30146,0.82902 -0.10049,0.30146 -0.27634,0.52755 -0.52756,0.67828 -0.25121,0.15073 -0.52755,0.25121 -0.82901,0.30146 l -4.59725,0.37682 c -0.55268,1.45705 -1.30633,3.39142 -2.26095,5.80309 -0.90437,2.36143 -1.80875,4.82335 -2.71313,7.38575 -0.90438,2.56241 -1.68315,5.02432 -2.33631,7.38575 -0.65316,2.31119 -1.00486,4.11994 -1.05511,5.42627 0.50243,-0.15073 1.23096,-0.75365 2.18558,-1.80876 1.00487,-1.10535 2.00973,-2.3363 3.0146,-3.69287 1.00486,-1.35657 1.93436,-2.68801 2.78849,-3.99434 0.85413,-1.30632 1.45705,-2.26094 1.80876,-2.86386 0.40195,-0.55267 0.77877,-0.82901 1.13047,-0.82901 0.25121,0 0.47731,0.10049 0.67828,0.30146 0.25122,0.20097 0.37683,0.47731 0.37683,0.82901 0,0.15073 -0.0502,0.37683 -0.15073,0.67828 -0.25122,0.45219 -0.5778,0.97975 -0.97974,1.58267 -0.35171,0.60291 -0.72853,1.23095 -1.13048,1.88412 -0.3517,0.60291 -0.7034,1.18071 -1.0551,1.73339 -0.30146,0.55267 -0.55268,0.97974 -0.75365,1.2812 -1.75851,2.61265 -3.31605,4.72286 -4.67262,6.33064 -1.30632,1.60778 -2.76337,2.41167 -4.37116,2.41167 z"
         id="text3"
         aria-label="Joint"
         sodipodi:nodetypes="sscscccscscsssssccsssscscccccsscscccccccccscccscsccsscscsccscsscccccccccscccscsccccssccccscssccsscsccsscsscssscscscssccscsccccccscscsccscsssssccccscscscssccccccccscccscscscccccsssscccccscscscsscccssccscsccccccsscscsccsccsccccccsccscsscsccccccscccscccsscscsccccccss" /><g
         id="g8"
         transform="translate(-30.950508,-52.829614)"
         style="fill:#000000;fill-opacity:1"><path
           id="path2"
           style="fill:#000000;fill-opacity:1;fill-rule:nonzero;stroke:none;stroke-width:5.80001;stroke-linecap:square;stroke-dasharray:none;stroke-opacity:1;paint-order:stroke fill markers"
           d="m 164.32847,187.21958 c 0.13316,-0.0874 -9.68365,1.54461 -9.68365,1.54461 0.0358,1.49719 0.67742,4.57442 1.74925,10.22521 2.03463,10.72681 4.58731,25.88604 5.92212,40.56755 1.52291,-0.96742 3.41069,-1.76337 5.80636,-2.37246 -0.90681,-15.82215 -1.15369,-23.31596 -2.50734,-39.44927 -0.48337,-5.76092 -0.8638,-9.08611 -1.28674,-10.51564 z m -1.47588,124.78101 c -0.40202,8.86945 -0.78726,16.75732 -1.5937,25.26151 -0.76801,8.09904 -1.69724,14.1243 -2.39934,17.69711 1.21295,-3.47486 3.2088,-9.17211 5.22191,-17.21135 2.00271,-7.99776 3.61075,-16.72008 4.55372,-25.29768 z"
           sodipodi:nodetypes="ccsccsccscscc" /><g
           id="g4"
           transform="rotate(-9.8865151,154.61843,259.24587)"
           style="fill:#000000;fill-opacity:1"><rect
             style="fill:#000000;fill-opacity:1;stroke:none;stroke-width:7.1876;stroke-linecap:square;stroke-dasharray:none;stroke-opacity:1;paint-order:stroke fill markers"
             id="rect2"
             width="30.332865"
             height="7.7407312"
             x="155.89473"
             y="179.47694"
             ry="3.8703656" /><path
             id="rect4"
             style="fill:#000000;stroke-width:15.1413;stroke-linecap:square;paint-order:stroke fill markers;fill-opacity:1"
             d="m 163.8709,185.01246 v -22.16293 c 0,-3.9834 3.20686,-7.19026 7.19027,-7.19026 3.9834,0 7.19026,3.20686 7.19026,7.19026 v 22.16293 z"
             sodipodi:nodetypes="cssscc" /></g><path
           style="fill:#000000;fill-opacity:1;stroke-width:0.315346"
           d="m 160.02854,317.42888 c -9.37041,-0.64674 -15.56635,-2.13528 -21.42093,-5.14626 -4.7999,-2.46856 -8.44454,-5.77684 -10.69485,-9.70782 -0.60749,-1.06119 -1.31298,-2.63614 -1.22172,-2.72739 0.0286,-0.0286 0.34585,0.0962 0.70491,0.27745 1.47483,0.74449 3.59757,1.2022 6.08897,1.31292 2.85433,0.12683 13.59901,-0.38763 22.42747,-1.07386 4.51136,-0.35066 9.56726,-0.81962 9.56726,-0.8874 0,-0.035 -0.72045,-0.49809 -1.60099,-1.02906 l -1.601,-0.96542 -1.76423,0.16069 c -9.28564,0.8457 -23.43264,1.61492 -26.96468,1.46615 -3.48973,-0.14699 -5.94909,-1.06945 -7.70198,-2.88889 -1.01739,-1.05602 -1.75106,-2.75426 -1.75106,-4.05321 0,-0.31115 -0.036,-0.3711 -0.19469,-0.32442 -0.10707,0.0315 -0.52008,0.13943 -0.91778,0.23986 -1.79002,0.45201 -4.16044,1.27138 -7.23987,2.50257 -1.83161,0.73229 -3.34962,1.33145 -3.37334,1.33145 -0.0413,0 3.04266,-5.64756 3.52348,-6.45234 1.16671,-1.95284 3.08727,-4.74923 4.62247,-6.73045 1.9272,-2.4871 4.54694,-5.46694 5.79336,-6.58971 l 0.77,-0.6936 0.59407,0.26233 c 0.32673,0.14429 0.88192,0.35292 1.23374,0.46362 0.35182,0.1107 0.63765,0.22968 0.63519,0.2644 -0.003,0.0347 -0.30785,0.28839 -0.67865,0.56373 -1.4514,1.07773 -4.44103,4.41341 -7.00358,7.81425 -1.84035,2.44238 -4.43457,6.35589 -4.30147,6.48898 0.0278,0.0278 0.39249,-0.0782 0.81042,-0.23547 1.20457,-0.45339 4.72763,-1.44099 6.68844,-1.87492 8.35193,-1.84831 16.22758,-1.94514 23.02853,-0.28313 4.65594,1.13781 11.0356,3.96193 16.893,7.47809 4.31693,2.59143 9.86884,6.69252 13.15498,9.71734 0.56597,0.52096 1.02903,0.9212 1.02903,0.88942 0,-0.0318 0.10255,-0.59848 0.22789,-1.25933 0.57122,-3.01182 1.51167,-5.83671 2.84672,-8.5509 l 0.61282,-1.24588 3.52396,-0.0575 c 6.44189,-0.1052 10.83726,-0.90588 16.0631,-2.9261 0.28845,-0.11151 0.56157,-0.16562 0.60695,-0.12024 0.0454,0.0454 0.0821,0.41846 0.0816,0.82906 -0.002,1.32349 -0.80444,2.59554 -2.48847,3.94293 -2.89253,2.31431 -6.53731,3.15039 -10.29423,2.36142 -2.98987,-0.6279 -3.538,-0.71459 -4.97395,-0.78665 l -1.49833,-0.0752 -0.39089,0.93381 c -0.65997,1.57664 -0.83386,1.39187 1.38189,1.46839 1.34403,0.0464 2.23894,0.13736 2.97822,0.30265 0.58127,0.12997 1.5074,0.33637 2.05808,0.45867 1.42225,0.31586 4.00531,0.39347 5.41283,0.16262 2.45722,-0.40302 5.19225,-1.63569 6.86385,-3.09354 0.20528,-0.17903 0.39906,-0.29968 0.43064,-0.26811 0.10929,0.1093 -0.74764,2.13056 -1.38624,3.26973 -1.04908,1.87142 -1.98599,3.09522 -3.64371,4.75946 -3.32867,3.34179 -7.18348,5.62995 -12.56627,7.45918 -3.93302,1.33656 -8.34787,2.20926 -13.745,2.71702 -1.24525,0.11715 -10.01192,0.23313 -11.23596,0.14865 z m 35.16824,-18.97134 c 0.23696,-0.071 0.43084,-0.17516 0.43084,-0.23147 0,-0.22904 -0.92676,-2.07774 -1.01442,-2.02356 -0.052,0.0322 -0.30816,0.0949 -0.56914,0.13931 l -0.47451,0.0808 -0.11546,1.08682 c -0.0635,0.59775 -0.0885,1.11484 -0.0556,1.14909 0.0841,0.0876 1.28194,-0.0463 1.79831,-0.20101 z m -42.8443,-4.04315 v -1.1681 h -1.50184 c -0.82601,0 -1.50776,0.0375 -1.51501,0.0834 -0.007,0.0459 -0.0249,0.57153 -0.0392,1.16809 l -0.026,1.08467 h 1.54105 1.54104 z m -16.0724,-1.77903 c -0.0678,-0.58076 -0.17131,-1.10078 -0.22995,-1.15559 -0.31958,-0.29878 -0.5767,-0.2295 -1.38073,0.37203 -0.44827,0.33537 -0.84161,0.63634 -0.87409,0.66883 -0.0325,0.0325 0.0621,0.19064 0.21022,0.35146 0.39272,0.42643 1.29454,0.81683 1.88982,0.81811 l 0.50806,9.4e-4 z m 8.09691,0.4595 c 0.089,-0.2319 0.47417,-0.28637 0.80635,-0.11402 0.28248,0.14654 0.34934,0.12391 1.23086,-0.41668 0.51269,-0.3144 0.93216,-0.62155 0.93216,-0.68254 0,-0.19689 -0.74375,-0.81932 -1.28048,-1.07162 -1.0824,-0.50878 -2.53603,-0.21478 -3.34045,0.67561 -0.38705,0.42841 -0.68914,0.94459 -0.59795,1.02168 0.0823,0.0696 1.93359,0.72707 2.06425,0.73312 0.0699,0.003 0.1533,-0.0623 0.18526,-0.14555 z m -13.05109,-1.93445 9.5e-4,-1.14028 h -0.3119 c -0.45347,0 -1.40372,0.50921 -1.80666,0.96814 l -0.34852,0.39694 0.97957,0.57493 c 0.83433,0.4897 1.0171,0.55757 1.23267,0.45775 0.23913,-0.11073 0.25315,-0.18015 0.25397,-1.25748 z m 44.16527,7.65555 c -1.30975,-0.39841 -2.03261,-1.48329 -2.04843,-3.07429 -0.008,-0.79393 0.0253,-0.94941 0.28708,-1.34539 0.78888,-1.19325 2.6405,-1.16812 3.57319,0.0485 0.69063,0.90086 0.82378,2.5136 0.28834,3.49224 -0.41275,0.75439 -1.29536,1.12378 -2.10018,0.87897 z m 1.08282,-1.42085 c 0.13741,-0.20975 0.19451,-0.505 0.18825,-0.97341 -0.0151,-1.13123 -0.48004,-1.72919 -1.34442,-1.72919 -0.35911,0 -0.51028,0.0582 -0.64273,0.24725 -0.22862,0.3264 -0.22476,1.33476 0.007,1.82311 0.42549,0.89666 1.39465,1.23861 1.79192,0.63224 z m -8.43183,-2.13465 c -0.15704,-0.0511 -0.49124,-0.22894 -0.74266,-0.39533 -1.44559,-0.95664 -0.77331,-2.9538 0.99431,-2.9538 0.96366,0 2.19559,1.04894 2.20137,1.87439 0.003,0.42773 -0.33033,0.99891 -0.72544,1.24311 -0.41319,0.25536 -1.29204,0.37319 -1.72758,0.23163 z m 1.21435,-1.27083 c 0.22745,-0.27407 -0.51352,-0.96583 -1.03454,-0.96583 -0.25532,0 -0.62289,0.41244 -0.54604,0.61269 0.16023,0.41757 1.3133,0.67519 1.58058,0.35314 z m 12.19835,-0.48622 c -8.01213,-0.52602 -17.25067,-2.62271 -26.14308,-5.93318 -6.15048,-2.28969 -10.67323,-4.77708 -13.48872,-7.4184 l -0.6953,-0.65228 v 0.59234 c 0,1.38337 -1.07447,2.3081 -2.64697,2.27808 -0.88443,-0.0169 -1.61405,-0.30238 -2.07408,-0.81158 -0.3583,-0.3966 -0.39631,-0.50058 -0.39631,-1.08406 0,-0.92864 0.40885,-1.54356 1.3335,-2.00561 l 0.68931,-0.34446 3.2898,0.0701 3.28981,0.0701 0.73272,0.55677 c 1.89643,1.44102 4.71986,3.13344 7.18506,4.30686 6.31772,3.00722 13.18994,4.80466 24.64124,6.44498 4.01358,0.57492 5.16942,0.67982 8.23229,0.74714 4.64902,0.10218 8.68749,-0.31603 13.06012,-1.35245 4.79916,-1.13751 8.10287,-3.41422 9.69219,-6.67924 0.74409,-1.52862 0.95713,-2.40943 1.02399,-4.23367 0.0678,-1.849 -0.12687,-2.83884 -0.85917,-4.36903 l -0.44345,-0.92665 0.68928,-0.76987 c 0.37911,-0.42343 0.72902,-0.76987 0.77758,-0.76987 0.19371,0 1.56483,1.8874 1.97929,2.72457 0.72934,1.4732 0.93135,2.40536 0.92841,4.284 -0.003,1.99908 -0.29311,3.22515 -1.19712,5.06174 -0.72508,1.47306 -1.49091,2.42642 -2.87454,3.57844 -4.55338,3.79114 -10.72714,5.95608 -18.81565,6.59807 -1.29744,0.10297 -6.53344,0.12762 -7.9102,0.0372 z m -42.10828,-12.43804 c 0.651,-0.33665 0.87502,-1.07367 0.45424,-1.49445 -0.11796,-0.11797 -0.44546,-0.24912 -0.72778,-0.29145 -0.96577,-0.14483 -1.95017,0.4578 -1.95017,1.19384 0,0.27356 0.0738,0.35769 0.4728,0.53879 0.56824,0.25794 1.3114,0.28055 1.75091,0.0533 z m 44.53975,8.18005 c -1.78925,-0.1612 -4.987,-0.58361 -5.0826,-0.67139 -0.0508,-0.0467 0.0133,-0.29216 0.14253,-0.54548 1.19001,-2.33262 1.87654,-5.08823 1.97747,-7.93723 l 0.0621,-1.75214 h 1.31919 1.31919 l 6.3e-4,0.4728 c 0.002,1.67066 0.71435,4.14885 1.62474,5.65481 0.99547,1.64669 2.74153,3.41456 4.24573,4.29878 l 0.52558,0.30896 -0.55623,0.0723 c -0.99936,0.12984 -4.53751,0.19239 -5.57833,0.0986 z m 7.91322,-0.66385 c -2.40179,-0.85545 -4.68019,-2.93865 -5.93419,-5.42577 -0.52074,-1.03281 -0.90768,-2.49499 -0.98303,-3.71468 l -0.0659,-1.06738 0.53189,-0.0729 c 0.29254,-0.0401 1.20609,-0.0729 2.03011,-0.0729 1.23782,0 1.48783,0.0271 1.4385,0.1556 -0.57269,1.4924 -0.23557,5.1098 0.63661,6.83095 0.69176,1.36513 1.2694,1.73719 2.68109,1.7269 1.21412,-0.009 4.43145,-0.59411 5.13306,-0.93375 0.9902,-0.47934 1.52424,-1.51008 1.23601,-2.38559 -0.22398,-0.68035 -2.68888,-4.30956 -3.48218,-5.12701 l -0.67302,-0.69351 0.45052,-0.0607 c 0.24779,-0.0334 0.68269,-0.0925 0.96644,-0.13129 l 0.51591,-0.0705 0.19706,0.5948 c 0.55998,1.69024 1.47782,3.21037 2.47653,4.10165 0.70171,0.62622 2.00553,1.333 2.45594,1.33132 0.71124,-0.003 2.3007,-1.07954 3.11628,-2.11132 1.25155,-1.58333 1.17908,-3.71901 -0.16088,-4.74104 -0.55827,-0.42582 -0.3964,-0.45174 0.26802,-0.0429 0.63974,0.39363 1.14351,0.97785 1.45984,1.69296 0.29911,0.6762 0.55854,2.26585 0.55654,3.4102 l -0.002,0.95884 -0.54855,0.74352 c -1.67282,2.26737 -4.90224,3.8535 -9.57158,4.70111 -1.00919,0.18319 -3.96541,0.62377 -4.09443,0.61021 -0.0425,-0.004 -0.32823,-0.0975 -0.63487,-0.20671 z m -15.46206,-0.30293 c -6.43077,-0.93171 -13.88465,-2.51188 -15.18346,-3.21878 -0.67009,-0.36471 -0.88118,-0.85859 -0.97056,-2.2708 -0.0922,-1.45713 0.44655,-3.17987 1.29766,-4.14922 0.3141,-0.35774 0.42597,-0.41191 0.85074,-0.41191 0.269,0 0.48909,0.0272 0.48909,0.0605 0,0.0333 -0.1263,0.19596 -0.28066,0.36155 -0.81026,0.86918 -0.95285,2.08126 -0.37976,3.22812 0.40469,0.80985 1.08607,1.44547 2.06743,1.92859 0.64202,0.31606 0.77631,0.34215 1.51682,0.29463 2.09846,-0.13468 3.64545,-1.74853 4.91351,-5.12591 l 0.25976,-0.69184 0.91195,-0.0325 0.91195,-0.0325 -0.63891,0.8112 c -1.06664,1.35428 -1.93978,3.53595 -1.93978,4.84684 0,0.55622 0.3179,1.4143 0.63706,1.71961 1.31925,1.26196 4.74857,1.42554 5.91793,0.28227 0.88598,-0.8662 1.37078,-2.65775 1.37791,-5.09192 0.003,-0.82601 -0.0491,-1.71459 -0.1144,-1.97463 l -0.11879,-0.4728 h 0.91944 0.91944 l 0.0708,0.53328 c 0.0895,0.67479 -0.0972,3.02891 -0.33268,4.19472 -0.0989,0.48949 -0.31893,1.3155 -0.48902,1.83558 -0.37391,1.14335 -1.30265,3.28797 -1.4825,3.42333 -0.0757,0.057 -0.5467,0.0372 -1.13092,-0.0475 z m 14.65915,-2.83847 c -0.7617,-0.79795 -1.28721,-2.74088 -1.28876,-4.7648 -6.3e-4,-0.97391 0.0498,-1.42542 0.21164,-1.89121 l 0.21262,-0.61186 1.00608,-0.0966 c 0.9899,-0.0951 1.01698,-0.0911 1.68318,0.24517 0.3724,0.18799 0.93257,0.5819 1.24483,0.87536 0.75186,0.7066 3.3526,4.5265 3.3526,4.92422 0,0.40533 -0.49912,0.85363 -1.11248,0.99923 -1.37187,0.32566 -2.94327,0.58261 -3.89365,0.63669 l -1.05684,0.0601 z m -50.12391,0.009 c -0.46913,-0.24758 -0.85639,-0.79271 -0.85702,-1.20641 -9.4e-4,-0.51941 0.43909,-1.21843 0.95818,-1.52264 0.9574,-0.56108 2.44094,-0.29418 2.85769,0.51411 0.39006,0.75653 0.10576,1.64857 -0.70024,2.19713 -0.49292,0.33548 -1.63955,0.34452 -2.25861,0.0178 z m 1.81249,-1.10247 c 0.42773,-0.42772 0.20321,-0.77873 -0.4981,-0.77873 -0.52133,0 -0.94811,0.25073 -0.94811,0.55701 0,0.46148 1.04608,0.62185 1.44621,0.22172 z m 30.11656,0.99706 c -0.58665,-0.14654 -1.03702,-0.39598 -1.24116,-0.68744 -0.42493,-0.60666 -0.034,-2.5564 0.79694,-3.97452 0.23101,-0.39427 0.77083,-1.08261 1.1996,-1.52965 l 0.77959,-0.8128 h 1.18208 c 1.41118,0 1.30794,-0.14118 1.39777,1.91148 0.10593,2.42069 -0.40746,4.52003 -1.209,4.94388 -0.43172,0.22829 -2.22114,0.32007 -2.90582,0.14905 z m -15.26506,-1.37434 c -4.10102,-1.5547 -7.5804,-3.31625 -10.26581,-5.19738 l -0.61767,-0.43269 4.94112,-0.001 c 2.71763,-6.3e-4 5.78123,-0.0328 6.80802,-0.0714 l 1.86688,-0.07 -0.38392,0.76665 c -0.53146,1.06125 -0.73186,1.719 -0.82365,2.70336 -0.0789,0.84575 -0.0152,2.02256 0.14051,2.59662 0.0456,0.16826 0.04,0.30383 -0.0125,0.30126 -0.0525,-0.003 -0.79636,-0.27035 -1.65296,-0.5951 z m -25.41918,-1.01784 c -0.73769,-0.33094 -1.22287,-0.98564 -1.38268,-1.86579 -0.20492,-1.12856 0.79195,-2.05258 1.94193,-1.8 1.09417,0.24032 1.86059,1.88602 1.39607,2.99776 -0.29263,0.70036 -1.19559,1.00885 -1.95532,0.66803 z m 0.82939,-1.11966 c 0.18014,-0.18014 0.16787,-0.33577 -0.0766,-0.97183 -0.2399,-0.62416 -0.97607,-0.5842 -0.97607,0.053 0,0.23942 0.11264,0.45358 0.37824,0.71919 0.4361,0.4361 0.43756,0.43653 0.67444,0.19965 z m 31.95969,1.02545 c -1.17588,-0.43192 -2.10706,-1.71799 -1.92944,-2.66479 0.10901,-0.58106 0.66865,-1.14607 1.55968,-1.57464 l 0.81051,-0.38984 h 2.18197 c 2.02967,0 2.17724,0.0136 2.11431,0.19469 -0.28282,0.81392 -1.4199,2.95632 -1.78809,3.36897 -0.83678,0.93784 -2.07685,1.38594 -2.94894,1.06561 z m 35.56094,-0.94047 c -0.92712,-0.60313 -1.62315,-1.39986 -2.16629,-2.47971 -0.42818,-0.85128 -0.9234,-2.09906 -0.83308,-2.09906 0.20007,0 2.44604,-0.50977 3.21445,-0.72957 l 0.98324,-0.28127 0.51859,0.30208 c 0.62077,0.36159 1.5791,1.05694 1.76441,1.28022 0.0732,0.0882 0.19288,0.38395 0.26597,0.65723 0.2805,1.04874 -0.37159,2.22394 -1.82958,3.29724 -0.39398,0.29004 -0.77277,0.48019 -0.95654,0.48019 -0.16734,0 -0.59987,-0.19231 -0.96117,-0.42735 z m 7.18939,-2.05965 c -0.006,-0.54281 -0.34015,-1.65519 -0.70251,-2.33715 -0.44039,-0.82879 -1.10768,-1.51586 -1.91439,-1.97115 l -0.63355,-0.35755 0.70574,-0.37324 c 0.38816,-0.20528 0.96824,-0.57229 1.28906,-0.81558 l 0.58332,-0.44234 0.26618,0.52617 c 0.6976,1.37897 0.99418,3.32808 0.74692,4.90877 -0.14344,0.91694 -0.33503,1.40162 -0.34077,0.86207 z m -63.92894,-3.97922 c -13.38778,-0.39497 -19.51465,-2.78908 -21.03205,-8.21841 -0.2804,-1.00331 -0.27719,-4.47589 0.006,-6.00735 0.49552,-2.68385 1.12353,-4.5919 2.28846,-6.95294 1.41799,-2.87392 3.0843,-5.13224 5.58387,-7.56774 5.75481,-5.60727 14.25727,-9.30642 24.51544,-10.6659 5.54754,-0.73519 13.07171,-0.82497 18.68952,-0.22299 9.74174,1.04388 17.44918,3.78518 23.5844,8.38825 6.86961,5.15408 10.98294,12.72556 10.99974,20.24749 0.003,1.38644 -0.0434,2.02612 -0.1902,2.61431 -0.59949,2.40273 -2.23685,4.30946 -4.8022,5.59223 -2.97975,1.49 -6.84943,2.24985 -13.79465,2.70873 -2.09828,0.13864 -41.54756,0.21119 -45.84788,0.0843 z m 28.8827,-7.55288 c 3.39252,-0.13904 10.36356,-0.5209 12.29281,-0.67337 4.66592,-0.36875 7.23931,-1.24126 10.73535,-3.63979 1.52244,-1.0445 4.22739,-3.21825 4.22739,-3.3972 0,-0.0818 -0.63327,-0.87746 -1.28105,-1.60961 -0.10125,-0.11445 -0.34269,0.036 -1.17533,0.73221 -3.13483,2.62131 -5.72141,4.18349 -8.0369,4.85392 -1.83378,0.53095 -3.60652,0.72107 -9.92057,1.06396 -11.06519,0.60091 -18.15809,0.615 -24.69687,0.0491 -6.43189,-0.55666 -12.43438,-1.78078 -17.61125,-3.59153 -1.40758,-0.49234 -1.59936,-0.53508 -1.6583,-0.36958 -0.0367,0.10293 -0.209,0.55139 -0.38298,0.99658 -0.17398,0.44519 -0.31633,0.85298 -0.31633,0.90621 0,0.14921 2.35366,0.95538 5.06174,1.73375 5.58031,1.60391 11.67757,2.56761 18.57828,2.93639 2.46697,0.13184 11.05375,0.13727 14.18401,0.009 z m -28.42027,-14.04491 c 0.30976,-0.30977 0.52174,-0.648 0.61004,-0.97341 0.16441,-0.60586 0.0832,-1.73463 -0.17939,-2.49218 l -0.18966,-0.54727 -1.08731,1.11499 c -1.69229,1.73538 -1.89952,2.26545 -1.17063,2.99434 0.33376,0.33376 0.44668,0.37824 0.96024,0.37824 0.53674,0 0.61891,-0.0369 1.05671,-0.47471 z m 37.40023,-2.25316 c 0.33393,-0.33393 0.38141,-0.44309 0.32196,-0.74032 -0.0384,-0.19175 -0.13201,-0.42457 -0.20813,-0.51739 -0.20258,-0.24702 -1.60305,-0.86472 -2.28538,-1.008 -0.63535,-0.13341 -1.91353,-0.16882 -1.91353,-0.053 0,0.0389 0.36294,0.52035 0.80654,1.06982 1.33541,1.65412 2.44909,2.07836 3.27854,1.2489 z m -23.16302,-1.92966 c 0.50572,-0.22974 1.12107,-0.87879 1.34793,-1.42176 0.0841,-0.20134 0.15296,-0.59295 0.15296,-0.87025 0,-0.49756 -0.005,-0.50419 -0.37195,-0.50419 -0.72547,0 -2.46671,0.74843 -2.95806,1.27146 -0.3582,0.38128 -0.40115,0.8472 -0.11199,1.21482 0.43291,0.55035 1.15728,0.66601 1.94111,0.30992 z m 33.76256,-2.00167 c 0.58326,-0.42808 0.62925,-0.96229 0.1069,-1.24185 -0.28608,-0.1531 -2.78116,-0.37158 -2.8989,-0.25384 -0.15164,0.15164 0.29943,0.98924 0.69401,1.28869 0.71178,0.54021 1.53353,0.62128 2.09799,0.207 z m -22.23394,-0.89595 c 0.21155,-0.1713 0.26263,-0.31902 0.26263,-0.75958 0,-1.08207 -1.01376,-1.86455 -2.41566,-1.86455 -0.55433,0 -0.79565,0.0487 -0.93584,0.1889 -0.17771,0.1777 -0.13673,0.24288 0.69132,1.09955 0.97996,1.01385 1.65017,1.54835 1.94144,1.54835 0.10641,0 0.31166,-0.0957 0.45611,-0.21267 z m -29.39083,-0.48452 c 0.14961,-0.0757 0.36395,-0.29505 0.47629,-0.48741 0.21745,-0.37233 0.80781,-2.80309 0.70561,-2.90529 -0.0703,-0.0703 -1.44974,0.82122 -2.16308,1.39789 -0.46809,0.3784 -0.89638,1.08919 -0.90149,1.49609 -0.001,0.10708 0.0977,0.29481 0.22005,0.41718 0.26076,0.26075 1.21594,0.3076 1.66262,0.0815 z m 11.98573,-1.75707 c 0.44533,-0.1679 1.02854,-0.75231 1.26991,-1.27252 0.14439,-0.31119 0.2072,-0.70565 0.20891,-1.31185 l 0.003,-0.86685 -0.52843,0.30302 c -0.95784,0.54927 -2.47779,1.62132 -2.70097,1.90505 -0.31367,0.39876 -0.27472,0.73854 0.12301,1.07321 0.376,0.31638 1.0498,0.38684 1.62512,0.16994 z m 30.32209,-1.90145 c 0.67902,-0.80246 -0.44147,-1.87413 -1.95948,-1.87413 -0.64936,0 -2.40697,0.23886 -2.40697,0.32711 0,0.11355 2.78406,1.63895 3.2288,1.76907 0.49636,0.14522 0.89226,0.0679 1.13765,-0.22205 z"
           id="path1"
           sodipodi:nodetypes="ssssssssscssssssssssscsscssssssssssscssscssscsssssssssssssssscsssccsscccccsssssccssssssssssccsscssccsssssssssssssssscssssssssscssssscccsssssssscsssssssssssssscscscccssscscccsscsscssssscsscsscssssccsssccssssssssssscccsssscscccsssssscscsssssscsscssssssssssssscsssscsccscssscccssssssssssssscsssssssscssssssssscsscssssssssssscssssssssssssssssssssssssscsssssssssssssssssssssssssssssssssscsscsccsssccsssss" /></g></g><g
       id="g7"
       transform="translate(-191.9552)"><path
         style="fill:#ffffff;fill-opacity:1;fill-rule:nonzero;stroke:none;stroke-width:5.80001;stroke-linecap:square;stroke-dasharray:none;stroke-opacity:1;paint-order:stroke fill markers"
         d="m 154.64459,184.61946 c 0.0358,1.49719 0.6776,4.5746 1.74943,10.2254 2.34938,12.38624 5.39591,30.68371 6.45216,47.32968 1.19909,18.89705 1.05901,37.31423 0.46003,54.47578 -0.13288,3.80729 -0.2877,7.54543 -0.45359,11.20558 -0.40202,8.86945 -0.78707,16.7575 -1.59351,25.2617 -0.76801,8.09905 -1.69754,14.12424 -2.39964,17.69706 1.21295,-3.47487 3.20876,-9.1721 5.22187,-17.21135 2.00271,-7.99777 3.61082,-16.71975 4.5538,-25.29736 0.40756,-3.70726 0.71568,-7.4988 0.93775,-11.36578 1.00042,-17.41993 0.24506,-36.10152 -0.9381,-55.12921 -1.43071,-23.00867 -1.4263,-29.22878 -3.01975,-48.22014 -0.48337,-5.76092 -0.8637,-9.08618 -1.28664,-10.51571 0.13316,-0.0874 -9.68381,1.54435 -9.68381,1.54435 z"
         id="path5"
         sodipodi:nodetypes="cssssscssssscc"
         transform="translate(0,4.1444832)" /><g
         id="g6"
         transform="rotate(-9.8865151,154.61843,259.24587)"><rect
           style="fill:#ffffff;fill-opacity:1;stroke:none;stroke-width:7.1876;stroke-linecap:square;stroke-dasharray:none;stroke-opacity:1;paint-order:stroke fill markers"
           id="rect5"
           width="30.332865"
           height="7.7407312"
           x="155.89473"
           y="179.47694"
           ry="3.8703656" /><path
           id="path6"
           style="fill:#ffffff;stroke-width:15.1413;stroke-linecap:square;paint-order:stroke fill markers"
           d="m 163.8709,185.01246 v -22.16293 c 0,-3.9834 3.20686,-7.19026 7.19027,-7.19026 3.9834,0 7.19026,3.20686 7.19026,7.19026 v 22.16293 z"
           sodipodi:nodetypes="cssscc" /></g></g><text
       xml:space="preserve"
       style="font-style:normal;font-variant:normal;font-weight:normal;font-stretch:normal;font-size:75.3648px;line-height:1;font-family:'Festive December';-inkscape-font-specification:'Festive December';letter-spacing:0px;word-spacing:0px;opacity:1;fill:#ffffff;fill-opacity:1;stroke:none;stroke-width:260.19;stroke-linecap:round;stroke-linejoin:round;stroke-dasharray:none;stroke-opacity:1"
       x="561.59564"
       y="198.61668"
       id="text8"><tspan
         sodipodi:role="line"
         id="tspan8"
         style="fill:#ffffff;fill-opacity:1;stroke-width:260.191"
         x="561.59564"
         y="198.61668">the</tspan></text><text
       xml:space="preserve"
       style="font-style:normal;font-variant:normal;font-weight:normal;font-stretch:normal;font-size:75.3648px;line-height:1;font-family:'Festive December';-inkscape-font-specification:'Festive December';letter-spacing:0px;word-spacing:0px;opacity:1;fill:#ffffff;fill-opacity:1;stroke:none;stroke-width:260.19;stroke-linecap:round;stroke-linejoin:round;stroke-dasharray:none;stroke-opacity:1"
       x="560.28168"
       y="259.03146"
       id="text9"><tspan
         sodipodi:role="line"
         id="tspan9"
         style="fill:#ffffff;fill-opacity:1;stroke-width:260.191"
         x="560.28168"
         y="259.03146">Burger</tspan></text><text
       xml:space="preserve"
       style="font-style:normal;font-variant:normal;font-weight:normal;font-stretch:normal;font-size:75.3648px;line-height:1;font-family:'Festive December';-inkscape-font-specification:'Festive December';letter-spacing:0px;word-spacing:0px;opacity:1;fill:#ffffff;fill-opacity:1;stroke:none;stroke-width:260.19;stroke-linecap:round;stroke-linejoin:round;stroke-dasharray:none;stroke-opacity:1"
       x="598.25159"
       y="320.04636"
       id="text10"><tspan
         sodipodi:role="line"
         id="tspan10"
         style="fill:#ffffff;fill-opacity:1;stroke-width:260.191"
         x="598.25159"
         y="320.04636">Joint</tspan></text></g></svg>
