<?xml version="1.0" encoding="UTF-8" standalone="no"?>
<!-- Created with Inkscape (http://www.inkscape.org/) -->

<svg
   width="1080mm"
   height="1080mm"
   viewBox="0 0 1080 1080"
   version="1.1"
   id="svg1"
   inkscape:version="1.3.2 (091e20e, 2023-11-25, custom)"
   sodipodi:docname="CONTROL.svg"
   inkscape:export-filename="CONTROL.png"
   inkscape:export-xdpi="96"
   inkscape:export-ydpi="96"
   xmlns:inkscape="http://www.inkscape.org/namespaces/inkscape"
   xmlns:sodipodi="http://sodipodi.sourceforge.net/DTD/sodipodi-0.dtd"
   xmlns="http://www.w3.org/2000/svg"
   xmlns:svg="http://www.w3.org/2000/svg">
  <sodipodi:namedview
     id="namedview1"
     pagecolor="#ffffff"
     bordercolor="#000000"
     borderopacity="0.25"
     inkscape:showpageshadow="2"
     inkscape:pageopacity="0.0"
     inkscape:pagecheckerboard="0"
     inkscape:deskcolor="#d1d1d1"
     inkscape:document-units="mm"
     showgrid="false"
     inkscape:zoom="0.12469715"
     inkscape:cx="1908.6242"
     inkscape:cy="1960.7505"
     inkscape:window-width="1366"
     inkscape:window-height="705"
     inkscape:window-x="-8"
     inkscape:window-y="-8"
     inkscape:window-maximized="1"
     inkscape:current-layer="layer1" />
  <defs
     id="defs1" />
  <g
     inkscape:label="Layer 1"
     inkscape:groupmode="layer"
     id="layer1">
    <g
       id="g3"
       transform="matrix(1.3244939,0,0,1.3244939,-229.01199,-127.0347)"
       style="stroke-width:0.755005">
      <g
         id="g2"
         transform="translate(400.24328)"
         style="stroke-width:0.755005">
        <ellipse
           style="opacity:1;fill:#dddddd;fill-opacity:1;stroke:none;stroke-width:37.7502;stroke-linecap:butt;stroke-dasharray:none;stroke-opacity:1;paint-order:stroke fill markers"
           id="ellipse2"
           cx="367.64166"
           cy="503.61478"
           rx="172.35834"
           ry="174.66766" />
        <ellipse
           style="opacity:1;fill:#b51616;fill-opacity:1;stroke:none;stroke-width:37.7502;stroke-linecap:butt;stroke-dasharray:none;stroke-opacity:1;paint-order:stroke fill markers"
           id="path1"
           cx="367.64166"
           cy="503.61475"
           rx="97.035301"
           ry="98.335419" />
      </g>
      <path
         id="text1"
         style="font-weight:bold;font-size:142.144px;line-height:1;font-family:Outfit;-inkscape-font-specification:'Outfit Bold';text-decoration-color:#000000;letter-spacing:0px;fill:#0a0a0a;fill-opacity:1;stroke:none;stroke-width:37.7502;stroke-linecap:butt;stroke-dasharray:none;stroke-opacity:1;paint-order:stroke fill markers"
         d="m 367.66541,451.73216 c -7.581,0 -14.59362,1.32676 -21.03747,3.98012 -6.34909,2.55858 -11.89238,6.20694 -16.63051,10.94506 -4.73813,4.64337 -8.43383,10.09248 -11.08718,16.34681 -2.65335,6.25433 -3.98012,13.07704 -3.98012,20.46852 0,7.29672 1.32677,14.11994 3.98012,20.46903 2.65335,6.25433 6.3964,11.75027 11.22929,16.4884 4.83289,4.73813 10.42404,8.43383 16.77313,11.08718 6.44386,2.65335 13.45596,3.98012 21.03696,3.98012 7.39148,0 14.26206,-1.32677 20.61115,-3.98012 6.44385,-2.65335 12.03449,-6.3017 16.77262,-10.94507 4.73813,-4.73813 8.43434,-10.23407 11.08769,-16.4884 2.65336,-6.34909 3.97961,-13.17231 3.97961,-20.46903 0,-7.39148 -1.32625,-14.21419 -3.97961,-20.46852 -2.65335,-6.34909 -6.39691,-11.84555 -11.2298,-16.48892 -4.73813,-4.73812 -10.32877,-8.38648 -16.77262,-10.94506 -6.34909,-2.65336 -13.26701,-3.98012 -20.75326,-3.98012 z m 400.56212,0 c -7.58101,0 -14.59362,1.32676 -21.03748,3.98012 -6.34909,2.55858 -11.8929,6.20694 -16.63102,10.94506 -4.73813,4.64337 -8.43383,10.09248 -11.08718,16.34681 -2.65336,6.25433 -3.98012,13.07704 -3.98012,20.46852 0,7.29672 1.32676,14.11994 3.98012,20.46903 2.65335,6.25433 6.39639,11.75027 11.22929,16.4884 4.83289,4.73813 10.42404,8.43383 16.77313,11.08718 6.44386,2.65335 13.45647,3.98012 21.03748,3.98012 7.39148,0 14.26153,-1.32677 20.61063,-3.98012 6.44385,-2.65335 12.035,-6.3017 16.77313,-10.94507 4.73813,-4.73813 8.43383,-10.23407 11.08718,-16.4884 2.65335,-6.34909 3.98012,-13.17231 3.98012,-20.46903 0,-7.39148 -1.32677,-14.21419 -3.98012,-20.46852 -2.65335,-6.34909 -6.3964,-11.84555 -11.22929,-16.48892 -4.73813,-4.73812 -10.32928,-8.38648 -16.77313,-10.94506 -6.3491,-2.65336 -13.2665,-3.98012 -20.75274,-3.98012 z m -494.66128,0.14262 c -7.48625,0 -14.45151,1.32625 -20.89537,3.97961 -6.34909,2.55859 -11.89238,6.15959 -16.63051,10.80295 -4.73813,4.64337 -8.43382,10.13983 -11.08718,16.48892 -2.65335,6.25433 -3.98011,13.02969 -3.98011,20.32641 0,7.29672 1.32676,14.11994 3.98011,20.46903 2.65336,6.25433 6.34905,11.75027 11.08718,16.4884 4.83289,4.73813 10.42353,8.43383 16.77262,11.08718 6.44386,2.55859 13.40912,3.83801 20.89537,3.83801 8.14958,0 15.30424,-1.27942 21.4638,-3.83801 6.25433,-2.55859 11.79814,-6.06438 16.63103,-10.51822 l -15.0673,-15.0673 c -2.74811,2.84288 -6.01768,5.06977 -9.80818,6.68073 -3.79051,1.61096 -8.24428,2.41639 -13.36146,2.41639 -4.35908,0 -8.38673,-0.75808 -12.08247,-2.27428 -3.60098,-1.5162 -6.72799,-3.64839 -9.38134,-6.39651 -2.55859,-2.74811 -4.59609,-6.06503 -6.11229,-9.95029 -1.42144,-3.88527 -2.13217,-8.197 -2.13217,-12.93513 0,-4.64337 0.71073,-8.90775 2.13217,-12.79302 1.5162,-3.88527 3.5537,-7.20167 6.11229,-9.94978 2.65335,-2.74811 5.78036,-4.83296 9.38134,-6.2544 3.69574,-1.5162 7.72339,-2.27428 12.08247,-2.27428 4.92765,0 9.23939,0.80543 12.93513,2.41639 3.7905,1.61097 7.0122,3.83785 9.66556,6.68073 l 14.92518,-15.0673 c -4.64336,-4.45384 -10.09196,-7.96015 -16.34629,-10.51873 -6.15956,-2.55859 -13.21953,-3.8375 -21.17958,-3.8375 z m 161.04908,1.56322 v 100.35356 h 22.31647 v -60.10021 l 46.90773,60.10021 h 16.34629 V 453.438 h -22.31647 v 61.01126 L 450.25107,453.438 Z m 98.07929,0 v 19.47374 h 31.4141 v 80.87982 h 22.31647 v -80.87982 h 31.41358 V 453.438 Z m 97.65295,0 v 100.35356 h 22.31647 v -41.36388 h 2.33216 l 29.9346,41.36388 h 26.4387 l -32.17892,-42.12714 c 3.41562,-0.60769 6.581,-1.55744 9.43612,-2.93212 5.11718,-2.46383 9.09696,-5.87544 11.93984,-10.23452 2.84288,-4.45384 4.26434,-9.61835 4.26434,-15.49363 0,-5.78052 -1.42146,-10.89768 -4.26434,-15.35152 -2.84288,-4.45384 -6.77531,-7.9128 -11.79773,-10.37663 -5.02242,-2.55859 -10.85031,-3.838 -17.48369,-3.838 h -18.62108 -5.25911 z m 204.82936,0 v 100.35356 h 17.19947 5.11751 44.49083 V 534.1757 H 857.49391 V 453.438 Z m -182.51289,17.34157 h 16.06258 c 4.45384,0 7.86546,1.18473 10.23452,3.55379 2.36907,2.36907 3.55327,5.35403 3.55327,8.95501 0,3.88527 -1.23207,6.96493 -3.6959,9.23923 -2.36906,2.2743 -5.78016,3.41168 -10.234,3.41168 h -15.92047 z m -284.99863,1.27951 c 4.45384,0 8.48149,0.75808 12.08247,2.27428 3.69574,1.42144 6.8701,3.55363 9.52345,6.39651 2.65335,2.74811 4.69085,6.06451 6.11229,9.94978 1.42144,3.7905 2.13217,8.05489 2.13217,12.79302 0,6.25433 -1.23207,11.79813 -3.6959,16.63102 -2.46383,4.73813 -5.97014,8.43383 -10.51874,11.08718 -4.45384,2.65335 -9.66569,3.98012 -15.63574,3.98012 -4.45384,0 -8.52883,-0.75808 -12.22457,-2.27428 -3.69574,-1.5162 -6.8701,-3.64839 -9.52345,-6.39651 -2.55859,-2.84287 -4.54874,-6.20714 -5.97018,-10.0924 -1.42144,-3.88527 -2.13217,-8.197 -2.13217,-12.93513 0,-6.34909 1.23207,-11.84504 3.6959,-16.4884 2.46382,-4.73813 5.92278,-8.38648 10.37663,-10.94507 4.5486,-2.65335 9.8078,-3.98012 15.77784,-3.98012 z m 400.56212,0 c 4.45384,0 8.48097,0.75808 12.08195,2.27428 3.69574,1.42144 6.87061,3.55363 9.52396,6.39651 2.65336,2.74811 4.69034,6.06451 6.11177,9.94978 1.42144,3.7905 2.13217,8.05489 2.13217,12.79302 0,6.25433 -1.23155,11.79813 -3.69538,16.63102 -2.46382,4.73813 -5.97013,8.43383 -10.51874,11.08718 -4.45384,2.65335 -9.66569,3.98012 -15.63573,3.98012 -4.45384,0 -8.52884,-0.75808 -12.22458,-2.27428 -3.69574,-1.5162 -6.8701,-3.64839 -9.52345,-6.39651 -2.55859,-2.84287 -4.54874,-6.20714 -5.97018,-10.0924 -1.42144,-3.88527 -2.13217,-8.197 -2.13217,-12.93513 0,-6.34909 1.23207,-11.84504 3.6959,-16.4884 2.46383,-4.73813 5.92227,-8.38648 10.37611,-10.94507 4.54861,-2.65335 9.80832,-3.98012 15.77837,-3.98012 z" />
    </g>
  </g>
</svg>
