<?xml version="1.0" encoding="UTF-8" standalone="no"?>
<!-- Created with Inkscape (http://www.inkscape.org/) -->

<svg
   width="1080mm"
   height="1080mm"
   viewBox="0 0 1080 1080"
   version="1.1"
   id="svg1"
   inkscape:version="1.3.2 (091e20e, 2023-11-25, custom)"
   xml:space="preserve"
   inkscape:export-filename="GRANOLA.png"
   inkscape:export-xdpi="96"
   inkscape:export-ydpi="96"
   sodipodi:docname="FLINSH.svg"
   xmlns:inkscape="http://www.inkscape.org/namespaces/inkscape"
   xmlns:sodipodi="http://sodipodi.sourceforge.net/DTD/sodipodi-0.dtd"
   xmlns:xlink="http://www.w3.org/1999/xlink"
   xmlns="http://www.w3.org/2000/svg"
   xmlns:svg="http://www.w3.org/2000/svg"><sodipodi:namedview
     id="namedview1"
     pagecolor="#ffffff"
     bordercolor="#000000"
     borderopacity="0.25"
     inkscape:showpageshadow="2"
     inkscape:pageopacity="0.0"
     inkscape:pagecheckerboard="0"
     inkscape:deskcolor="#d1d1d1"
     inkscape:document-units="mm"
     showgrid="false"
     inkscape:zoom="0.088174197"
     inkscape:cx="986.68321"
     inkscape:cy="2069.7665"
     inkscape:window-width="1366"
     inkscape:window-height="705"
     inkscape:window-x="-8"
     inkscape:window-y="-8"
     inkscape:window-maximized="1"
     inkscape:current-layer="layer1" /><defs
     id="defs1"><linearGradient
       id="linearGradient1-8"
       inkscape:collect="always"><stop
         style="stop-color:#e7f700;stop-opacity:1;"
         offset="0"
         id="stop1-8" /><stop
         style="stop-color:#e59900;stop-opacity:1;"
         offset="0.27318937"
         id="stop3-8" /><stop
         style="stop-color:#cd4900;stop-opacity:1;"
         offset="0.63659465"
         id="stop4" /><stop
         style="stop-color:#c10800;stop-opacity:1;"
         offset="1"
         id="stop2-0" /></linearGradient><linearGradient
       inkscape:collect="always"
       xlink:href="#linearGradient1-8"
       id="linearGradient2-8"
       x1="234.60223"
       y1="439.51459"
       x2="235.14702"
       y2="69.239555"
       gradientUnits="userSpaceOnUse"
       gradientTransform="matrix(1.8646233,0,0,1.8646233,76.680687,-22.416086)" /></defs><g
     inkscape:label="Layer 1"
     inkscape:groupmode="layer"
     id="layer1"><g
       id="g2"
       transform="matrix(1.3041282,0,0,1.3041282,-181.40371,-132.1599)"
       style="stroke-width:0.766796"><g
         id="g18"
         transform="translate(41.875047)"
         style="stroke-width:0.766796"><g
           id="g1"
           transform="matrix(0.50678525,0,0,0.50678525,20.770989,286.35514)"
           style="stroke-width:1.51306"><path
             style="fill:url(#linearGradient2-8);fill-opacity:1;stroke-width:7.46466;stroke-linecap:square;-inkscape-stroke:none"
             d="m 421.0559,102.442 c 19.53087,23.73251 42.57225,45.74814 57.56211,72.90615 24.95281,45.20841 28.93946,99.81406 18.56517,150.15965 -2.8163,13.66737 -9.48848,24.22164 -14.07469,36.80452 -1.1542,3.16673 -0.19076,6.54646 -1.39351,9.81288 -3.22059,8.74687 -10.73498,15.7974 -16.39821,22.89728 -7.50254,9.40583 -14.93403,19.98292 -21.07397,30.35661 -14.44888,24.41206 -28.96975,49.07605 -40.14092,75.16101 -3.17497,7.41355 -12.87526,22.70475 -13.27887,30.28373 -3.21969,60.45875 -3.26405,106.77158 47.91826,145.9115 27.02456,20.66611 56.17851,30.31649 89.81538,31.8176 18.39088,0.82067 35.68898,0.72064 52.18321,-8.76611 8.3208,-4.78577 16.04314,-15.24215 21.82664,-22.72672 27.21442,-35.21887 41.95582,-68.61133 38.88655,-114.28373 -0.33015,-4.91301 -2.85326,-9.47697 -4.33301,-14.04665 -10.18317,-31.44706 -21.11774,-49.88506 -39.63916,-76.94669 -25.18147,-36.79253 -41.30464,-88.38902 -15.05283,-128.73144 11.47644,-17.63644 21.25002,-35.96696 36.12678,-51.1354 3.87136,-3.94724 8.21789,-7.30931 12.79491,-10.38939 1.87772,-1.26361 5.19805,-6.31255 5.44053,-4.06231 0.76652,7.11327 -11.11805,23.57117 -12.99967,32.33716 -5.33976,24.87632 -0.14403,54.4227 7.54679,78.19807 12.20751,37.73902 52.26922,64.5781 74.51162,97.07618 26.50281,38.72285 29.63859,117.17785 18.5868,160.87889 -5.61311,22.19558 -19.04235,41.7229 -30.03488,61.40153 -10.47045,18.74408 -20.23005,37.8708 -37.88308,50.97303 -20.37467,15.12221 -46.14767,23.33478 -70.49745,28.89567 -19.52604,4.45921 -38.74389,11.56861 -58.70619,13.96077 -12.67747,1.51914 -32.73203,-2.80405 -46.41297,-3.24678 -32.58358,-1.05441 -63.83238,-7.38386 -94.33124,-19.15548 -8.20268,-3.16596 -16.61189,-5.31696 -24.58633,-9.0907 -35.83927,-16.96008 -59.68557,-44.58017 -73.75894,-81.00501 -2.5142,-6.50731 -0.62838,-13.62554 -2.5021,-20.08158 -4.09875,-14.12284 -12.35046,-26.72943 -16.08319,-41.04861 -9.26668,-35.54829 -0.32209,-82.6489 12.29319,-116.55643 5.08905,-13.67842 15.77381,-24.58918 24.33547,-36.0383 6.75088,-9.02763 12.24341,-19.19307 19.81954,-27.59686 6.09093,-6.7563 13.61952,-12.30673 19.81962,-18.99318 5.04636,-5.44221 8.44467,-11.76182 12.82769,-17.76757 6.18095,-8.46943 13.27684,-16.27991 19.31784,-24.83723 7.6866,-10.88839 12.84849,-23.00409 19.31787,-34.57731 6.5342,-11.68918 14.97043,-22.567 21.07399,-34.41497 4.30525,-8.35721 5.90366,-18.06872 8.78078,-26.9476 14.14016,-43.6366 16.70522,-83.66785 9.21742,-128.65683 -3.30028,-19.82915 -6.94907,-40.34543 -15.38695,-58.72935 z"
             id="path1-6" /><path
             style="fill:#e59000;fill-opacity:1;stroke-width:7.46466;stroke-linecap:square;-inkscape-stroke:none"
             d="m 571.45374,598.68023 c -14.48195,35.66131 -63.34339,41.31543 -92.41927,20.48863 -29.55348,-16.044 -50.42232,-56.45507 -29.89112,-87.30577 20.5131,-35.58446 73.13807,-44.21924 104.33373,-17.62306 25.47934,18.71065 38.43616,57.33015 17.97666,84.4402 z"
             id="path3-56" /></g></g><text
         xml:space="preserve"
         style="font-style:normal;font-variant:normal;font-weight:normal;font-stretch:normal;font-size:206.007px;line-height:1;font-family:'Dream Story';-inkscape-font-specification:'Dream Story, Normal';font-variant-ligatures:normal;font-variant-caps:normal;font-variant-numeric:normal;font-variant-east-asian:normal;letter-spacing:17.1672px;word-spacing:0px;fill:#e59000;fill-opacity:1;stroke-width:9.48028;stroke-linecap:square;-inkscape-stroke:none"
         x="486.57239"
         y="484.52838"
         id="text3-18"><tspan
           sodipodi:role="line"
           id="tspan3-69"
           style="font-style:normal;font-variant:normal;font-weight:normal;font-stretch:normal;font-size:206.007px;font-family:'Dream Story';-inkscape-font-specification:'Dream Story, Normal';font-variant-ligatures:normal;font-variant-caps:normal;font-variant-numeric:normal;font-variant-east-asian:normal;fill:#e59000;fill-opacity:1;stroke-width:9.48028"
           x="486.57239"
           y="484.52838">FLINSH</tspan><tspan
           sodipodi:role="line"
           style="font-style:normal;font-variant:normal;font-weight:normal;font-stretch:normal;font-size:206.007px;font-family:'Dream Story';-inkscape-font-specification:'Dream Story, Normal';font-variant-ligatures:normal;font-variant-caps:normal;font-variant-numeric:normal;font-variant-east-asian:normal;fill:#e59000;fill-opacity:1;stroke-width:9.48028"
           x="486.57239"
           y="690.5354"
           id="tspan1">Studio</tspan></text></g></g></svg>
