<?xml version="1.0" encoding="UTF-8" standalone="no"?>
<!-- Created with Inkscape (http://www.inkscape.org/) -->

<svg
   width="1080mm"
   height="1080mm"
   viewBox="0 0 1080 1080"
   version="1.1"
   id="svg1"
   inkscape:version="1.3.2 (091e20e, 2023-11-25, custom)"
   sodipodi:docname="Lebanon Flow.svg"
   xmlns:inkscape="http://www.inkscape.org/namespaces/inkscape"
   xmlns:sodipodi="http://sodipodi.sourceforge.net/DTD/sodipodi-0.dtd"
   xmlns="http://www.w3.org/2000/svg"
   xmlns:svg="http://www.w3.org/2000/svg">
  <sodipodi:namedview
     id="namedview1"
     pagecolor="#ffffff"
     bordercolor="#000000"
     borderopacity="0.25"
     inkscape:showpageshadow="2"
     inkscape:pageopacity="0.0"
     inkscape:pagecheckerboard="0"
     inkscape:deskcolor="#c3c3c3"
     inkscape:document-units="mm"
     inkscape:zoom="0.062348573"
     inkscape:cx="1379.3419"
     inkscape:cy="3247.869"
     inkscape:window-width="1366"
     inkscape:window-height="705"
     inkscape:window-x="-8"
     inkscape:window-y="-8"
     inkscape:window-maximized="1"
     inkscape:current-layer="layer1" />
  <defs
     id="defs1">
    <clipPath
       clipPathUnits="userSpaceOnUse"
       id="clipPath15">
      <rect
         style="fill:#003e5c;fill-opacity:1;stroke:none;stroke-width:54.4081;stroke-linejoin:round;stroke-dasharray:none;stroke-opacity:1;paint-order:stroke fill markers"
         id="rect16"
         width="379.39169"
         height="207.93716"
         x="357.2774"
         y="170.72368" />
    </clipPath>
    <clipPath
       clipPathUnits="userSpaceOnUse"
       id="clipPath16">
      <rect
         style="fill:#003e5c;fill-opacity:1;stroke:none;stroke-width:54.4081;stroke-linejoin:round;stroke-dasharray:none;stroke-opacity:1;paint-order:stroke fill markers"
         id="rect17"
         width="379.39169"
         height="207.93716"
         x="357.2774"
         y="170.72368" />
    </clipPath>
    <clipPath
       clipPathUnits="userSpaceOnUse"
       id="clipPath17">
      <rect
         style="fill:#003e5c;fill-opacity:1;stroke:none;stroke-width:54.4081;stroke-linejoin:round;stroke-dasharray:none;stroke-opacity:1;paint-order:stroke fill markers"
         id="rect18"
         width="379.39169"
         height="207.93716"
         x="357.2774"
         y="170.72368" />
    </clipPath>
  </defs>
  <g
     inkscape:label="Layer 1"
     inkscape:groupmode="layer"
     id="layer1">
    <rect
       style="fill:#060606;stroke-width:3;stroke-linejoin:round;paint-order:stroke fill markers;fill-opacity:1"
       id="rect1"
       width="1080"
       height="1080"
       x="0"
       y="0" />
    <g
       id="g34"
       transform="matrix(1.3275159,0,0,1.3275159,-176.85841,-43.410024)"
       inkscape:export-filename="Lebanon Flow primary logo.png"
       inkscape:export-xdpi="96"
       inkscape:export-ydpi="96">
      <g
         id="g18"
         transform="matrix(0.73585029,0,0,0.64754805,237.98858,94.198493)">
        <path
           id="path12"
           style="color:#000000;fill:#39c0ff;fill-opacity:1;stroke-linejoin:round;-inkscape-stroke:none;paint-order:stroke fill markers"
           d="m 339.15036,203.05272 c -71.64051,0 -130.09542,58.45543 -130.09542,130.09594 v 527.97656 c 0,12.01868 1.77474,23.61465 4.85138,34.67747 h 52.91357 c -4.9359,-10.46114 -7.76542,-22.17461 -7.76542,-34.67747 V 333.14866 c 0,-44.80546 35.29044,-80.09589 80.09589,-80.09589 h 229.494 v -50.00005 z"
           clip-path="url(#clipPath17)"
           transform="translate(0,281.79431)" />
        <path
           id="path13"
           style="color:#000000;fill:#edff3f;fill-opacity:1;stroke-linejoin:round;-inkscape-stroke:none;paint-order:stroke fill markers"
           d="m 341.11923,249.88501 c -45.69595,0 -83.26365,37.56769 -83.26365,83.26365 v 562.65403 h 50.00005 V 333.14866 c 0,-18.8609 14.4027,-33.26412 33.2636,-33.26412 h 227.52513 v -49.99953 z"
           clip-path="url(#clipPath16)"
           transform="translate(0,281.79431)" />
        <path
           id="path14"
           style="color:#000000;fill:#ff4f4f;fill-opacity:1;stroke-linejoin:round;-inkscape-stroke:none;paint-order:stroke fill markers"
           d="m 344.09579,296.33178 c -19.964,0 -36.81842,16.85289 -36.81842,36.81688 v 562.65403 h 50.00005 V 346.33183 h 211.36694 v -50.00005 z"
           clip-path="url(#clipPath15)"
           transform="translate(0,281.79431)" />
      </g>
      <path
         id="rect3"
         style="color:#000000;fill:#39c0ff;fill-opacity:1;stroke-width:0.647548;stroke-linejoin:round;-inkscape-stroke:none;paint-order:stroke fill markers"
         d="m 507.81707,225.68493 c -46.39063,0 -84.24292,37.85282 -84.24292,84.24344 v 341.89024 c 0,0.48655 0.0438,0.96204 0.0527,1.44642 h 32.40577 c -0.0133,-0.48647 -0.0811,-0.95613 -0.0811,-1.44642 V 309.92837 c 0,-29.01366 22.85191,-51.86609 51.86557,-51.86609 h 148.6085 v -32.37735 z" />
      <path
         id="rect4"
         style="color:#000000;fill:#edff3f;fill-opacity:1;stroke-width:0.647548;stroke-linejoin:round;-inkscape-stroke:none;paint-order:stroke fill markers"
         d="m 509.09244,256.01125 c -29.59029,0 -53.91764,24.32682 -53.91764,53.91712 v 343.33666 h 32.37787 V 309.92837 c 0,-12.21333 9.32644,-21.54029 21.53977,-21.54029 h 147.33313 v -32.37683 z" />
      <path
         id="rect5"
         style="color:#000000;fill:#ff4f4f;fill-opacity:1;stroke-width:0.647548;stroke-linejoin:round;-inkscape-stroke:none;paint-order:stroke fill markers"
         d="m 511.01997,286.08745 c -12.92764,0 -23.84195,10.91329 -23.84195,23.84092 v 343.33666 h 32.37735 V 318.4648 h 136.8702 v -32.37735 z" />
    </g>
    <text
       xml:space="preserve"
       style="font-style:normal;font-variant:normal;font-weight:normal;font-stretch:normal;font-size:110.352px;line-height:1;font-family:'Bauhaus 93';-inkscape-font-specification:'Bauhaus 93, Normal';font-variant-ligatures:normal;font-variant-caps:normal;font-variant-numeric:normal;font-variant-east-asian:normal;text-decoration-color:#000000;letter-spacing:0px;fill:#003e5c;fill-opacity:1;stroke:none;stroke-width:49.9999;stroke-linejoin:round;stroke-dasharray:none;stroke-opacity:1;paint-order:stroke fill markers"
       x="-359.0162"
       y="542.11298"
       id="text22"><tspan
         sodipodi:role="line"
         style="font-style:normal;font-variant:normal;font-weight:normal;font-stretch:normal;font-size:110.352px;font-family:'Bauhaus 93';-inkscape-font-specification:'Bauhaus 93, Normal';font-variant-ligatures:normal;font-variant-caps:normal;font-variant-numeric:normal;font-variant-east-asian:normal;text-align:center;text-anchor:middle;fill:#ffffff;fill-opacity:1;stroke-width:50"
         x="-359.0162"
         y="542.11298"
         id="tspan23">Lebanon</tspan><tspan
         sodipodi:role="line"
         style="font-style:normal;font-variant:normal;font-weight:normal;font-stretch:normal;font-size:110.352px;font-family:'Bauhaus 93';-inkscape-font-specification:'Bauhaus 93, Normal';font-variant-ligatures:normal;font-variant-caps:normal;font-variant-numeric:normal;font-variant-east-asian:normal;text-align:center;text-anchor:middle;fill:#ffffff;fill-opacity:1;stroke-width:50"
         x="-359.0162"
         y="652.46497"
         id="tspan24">Flow</tspan></text>
    <text
       xml:space="preserve"
       style="font-style:normal;font-variant:normal;font-weight:normal;font-stretch:normal;font-size:110.352px;line-height:1;font-family:'Groundation Foundation';-inkscape-font-specification:'Groundation Foundation, Normal';font-variant-ligatures:normal;font-variant-caps:normal;font-variant-numeric:normal;font-variant-east-asian:normal;text-decoration-color:#000000;letter-spacing:0px;fill:#003e5c;fill-opacity:1;stroke:none;stroke-width:49.9999;stroke-linejoin:round;stroke-dasharray:none;stroke-opacity:1;paint-order:stroke fill markers"
       x="-337.06705"
       y="866.18738"
       id="text28"><tspan
         sodipodi:role="line"
         style="font-style:normal;font-variant:normal;font-weight:normal;font-stretch:normal;font-size:110.352px;font-family:'Groundation Foundation';-inkscape-font-specification:'Groundation Foundation, Normal';font-variant-ligatures:normal;font-variant-caps:normal;font-variant-numeric:normal;font-variant-east-asian:normal;text-align:center;text-anchor:middle;fill:#ffffff;fill-opacity:1;stroke-width:50"
         x="-337.06705"
         y="866.18738"
         id="tspan27">Lebanon</tspan><tspan
         sodipodi:role="line"
         style="font-style:normal;font-variant:normal;font-weight:normal;font-stretch:normal;font-size:110.352px;font-family:'Groundation Foundation';-inkscape-font-specification:'Groundation Foundation, Normal';font-variant-ligatures:normal;font-variant-caps:normal;font-variant-numeric:normal;font-variant-east-asian:normal;text-align:center;text-anchor:middle;fill:#ffffff;fill-opacity:1;stroke-width:50"
         x="-337.06705"
         y="976.53937"
         id="tspan28">Flow</tspan></text>
    <text
       xml:space="preserve"
       style="font-style:normal;font-variant:normal;font-weight:normal;font-stretch:normal;font-size:110.352px;line-height:1;font-family:'Vonique 92';-inkscape-font-specification:'Vonique 92, Normal';font-variant-ligatures:normal;font-variant-caps:normal;font-variant-numeric:normal;font-variant-east-asian:normal;text-decoration-color:#000000;letter-spacing:0px;fill:#003e5c;fill-opacity:1;stroke:none;stroke-width:49.9999;stroke-linejoin:round;stroke-dasharray:none;stroke-opacity:1;paint-order:stroke fill markers"
       x="-323.35242"
       y="1173.9177"
       id="text30"><tspan
         sodipodi:role="line"
         style="font-style:normal;font-variant:normal;font-weight:normal;font-stretch:normal;font-size:110.352px;font-family:'Vonique 92';-inkscape-font-specification:'Vonique 92, Normal';font-variant-ligatures:normal;font-variant-caps:normal;font-variant-numeric:normal;font-variant-east-asian:normal;text-align:center;text-anchor:middle;fill:#ffffff;fill-opacity:1;stroke-width:50"
         x="-323.35242"
         y="1173.9177"
         id="tspan29">Lebanon</tspan><tspan
         sodipodi:role="line"
         style="font-style:normal;font-variant:normal;font-weight:normal;font-stretch:normal;font-size:110.352px;font-family:'Vonique 92';-inkscape-font-specification:'Vonique 92, Normal';font-variant-ligatures:normal;font-variant-caps:normal;font-variant-numeric:normal;font-variant-east-asian:normal;text-align:center;text-anchor:middle;fill:#ffffff;fill-opacity:1;stroke-width:50"
         x="-323.35242"
         y="1284.2698"
         id="tspan30">Flow</tspan></text>
    <g
       id="g3"
       inkscape:export-filename="LF - Logo.png"
       inkscape:export-xdpi="96"
       inkscape:export-ydpi="96">
      <g
         id="g41"
         transform="translate(-60.728937,369.1945)"
         inkscape:export-filename=".\LF - Wordmark.png"
         inkscape:export-xdpi="96"
         inkscape:export-ydpi="96">
        <path
           style="font-size:110.352px;line-height:1;font-family:'Vonique 92';-inkscape-font-specification:'Vonique 92, Normal';text-align:center;letter-spacing:0px;text-anchor:middle;fill:#ffffff;stroke-width:50;stroke-linejoin:round;paint-order:stroke fill markers"
           d="m 474.04019,860.52968 v 5.6577 H 420.64232 V 772.2797 h 5.6577 v 88.24998 z m 11.63869,-43.37566 c -0.96989,3.19705 -1.45484,6.60962 -1.45484,10.23773 0,9.41153 3.32277,17.45803 9.96832,24.1395 6.68147,6.64555 14.72797,9.96832 24.1395,9.96832 9.41153,0 17.45805,-3.32277 24.13951,-9.96832 3.80772,-3.80772 6.51981,-8.06446 8.1363,-12.77022 h 5.87324 c -1.7961,6.21448 -5.1548,11.78237 -10.07609,16.70367 -7.75914,7.75913 -17.11679,11.63869 -28.07296,11.63869 -10.95617,0 -20.31381,-3.87956 -28.07294,-11.63869 -7.75913,-7.75913 -11.63869,-17.11678 -11.63869,-28.07295 0.0359,-10.95617 3.93346,-20.31382 11.69257,-28.07295 7.75913,-7.75912 17.11678,-11.63868 28.07295,-11.63868 10.95617,0 20.31383,3.87956 28.07294,11.63868 5.24459,5.2446 8.71106,11.15375 10.39939,17.72745 z m 63.09677,-5.3344 c -1.58056,-3.05336 -3.68198,-5.90915 -6.30428,-8.56737 -6.68146,-6.64555 -14.72798,-9.96832 -24.13951,-9.96832 -9.41153,0 -17.45803,3.32277 -24.1395,9.96832 -2.62229,2.65822 -4.72372,5.51401 -6.30429,8.56737 z m 56.7386,-18.53569 c -9.41153,0 -17.45803,3.32277 -24.1395,9.96832 -6.64554,6.68147 -9.96831,14.72797 -9.96831,24.1395 0,9.41153 3.32277,17.45803 9.96831,24.1395 6.68147,6.64555 14.72797,9.96832 24.1395,9.96832 9.41154,0 17.45803,-3.32277 24.1395,-9.96832 6.64555,-6.68147 9.96832,-14.72797 9.96832,-24.1395 0,-9.41153 -3.32277,-17.45803 -9.96832,-24.1395 -6.68147,-6.64555 -14.72797,-9.96832 -24.1395,-9.96832 z m -34.10781,13.63235 c 1.6524,-2.69414 3.66402,-5.22663 6.03487,-7.59748 7.75912,-7.75912 17.11677,-11.63868 28.07294,-11.63868 10.95617,0 20.31383,3.87956 28.07295,11.63868 7.75913,7.75913 11.63869,17.11678 11.63869,28.07295 -0.0359,10.95617 -3.93346,20.31382 -11.69256,28.07295 -7.75914,7.75913 -17.11679,11.63869 -28.07295,11.63869 -10.95618,0 -20.31383,-3.87956 -28.07295,-11.63869 -7.75913,-7.75913 -11.62073,-17.11678 -11.58481,-28.07295 v -55.12212 h 5.60382 z m 120.53586,54.58329 c 9.41154,0 17.45803,-3.32277 24.1395,-9.96832 6.64555,-6.68147 9.96832,-14.72797 9.96832,-24.1395 0,-9.41153 -3.32277,-17.45803 -9.96832,-24.1395 -6.68147,-6.64555 -14.72797,-9.96832 -24.1395,-9.96832 -9.41153,0 -17.45803,3.32277 -24.1395,9.96832 -6.64555,6.68147 -9.96832,14.72797 -9.96832,24.1395 0,9.41153 3.32277,17.45803 9.96832,24.1395 6.68147,6.64555 14.72797,9.96832 24.1395,9.96832 z m 34.10782,-13.63235 c -1.65241,2.69414 -3.66403,5.22663 -6.03487,7.59748 -7.75913,7.75913 -17.11678,11.63869 -28.07295,11.63869 -10.95617,0 -20.31382,-3.87956 -28.07295,-11.63869 -7.75913,-7.75913 -11.63869,-17.11678 -11.63869,-28.07295 0.0359,-10.95617 3.93346,-20.31382 11.69258,-28.07295 7.75912,-7.75912 17.11677,-11.63868 28.07294,-11.63868 10.95617,0 20.31382,3.87956 28.07295,11.63868 7.75913,7.75913 11.62073,17.11678 11.5848,28.07295 v 38.79563 h -5.6038 z m 16.43424,-20.15217 c 0.14369,-10.92025 3.64607,-20.24198 10.50715,-27.96518 6.86108,-7.72321 15.10515,-11.58481 24.73221,-11.58481 9.663,0 17.92502,3.87956 24.78611,11.63869 6.86107,7.72321 10.34549,17.06289 10.45326,28.01906 v 38.47233 h -5.44216 v -38.47233 c -0.10777,-9.26784 -3.05336,-17.17065 -8.83678,-23.70843 -5.78343,-6.53779 -12.75227,-9.80668 -20.90653,-9.80668 -8.15427,0 -15.14107,3.25093 -20.96042,9.75279 -5.78342,6.50186 -8.74697,14.36875 -8.89066,23.60068 v 38.63397 h -5.44217 z m 119.08105,33.78452 c 9.41153,0 17.45803,-3.32277 24.1395,-9.96832 6.64555,-6.68147 9.96832,-14.72797 9.96832,-24.1395 0,-9.41153 -3.32277,-17.45803 -9.96832,-24.1395 -6.68147,-6.64555 -14.72797,-9.96832 -24.1395,-9.96832 -9.41153,0 -17.45803,3.32277 -24.1395,9.96832 -6.64555,6.68147 -9.96832,14.72797 -9.96832,24.1395 0,9.41153 3.32277,17.45803 9.96832,24.1395 6.68147,6.64555 14.72797,9.96832 24.1395,9.96832 z m 0.0539,-73.81945 c 10.95617,0 20.31382,3.87956 28.07295,11.63868 7.75912,7.75913 11.62072,17.11678 11.5848,28.07295 0,10.95617 -3.87956,20.31382 -11.63869,28.07295 -7.75912,7.75913 -17.11677,11.63869 -28.07294,11.63869 -10.95617,0 -20.31382,-3.87956 -28.07295,-11.63869 -7.75913,-7.75913 -11.63869,-17.11678 -11.63869,-28.07295 0.0359,-10.95617 3.93346,-20.31382 11.69257,-28.07295 7.75913,-7.75912 17.11678,-11.63868 28.07295,-11.63868 z m 48.60228,40.03493 c 0.14369,-10.92025 3.64608,-20.24198 10.50715,-27.96518 6.86108,-7.72321 15.10515,-11.58481 24.73222,-11.58481 9.66298,0 17.92501,3.87956 24.78609,11.63869 6.86108,7.72321 10.3455,17.06289 10.45327,28.01906 v 38.47233 h -5.44217 v -38.47233 c -0.10777,-9.26784 -3.05336,-17.17065 -8.83678,-23.70843 -5.78342,-6.53779 -12.75226,-9.80668 -20.90653,-9.80668 -8.15427,0 -15.14107,3.25093 -20.96042,9.75279 -5.78342,6.50186 -8.74697,14.36875 -8.89066,23.60068 v 38.63397 h -5.44217 z"
           id="path33"
           sodipodi:nodetypes="ccccccccscscccssscsssccccscccscscscscscssscsssccccscscscscscssscssscccccsscccccsscccccscscscscssscssscsscsscccccssccccc" />
        <path
           style="font-size:110.352px;line-height:1;font-family:'Vonique 92';-inkscape-font-specification:'Vonique 92, Normal';text-align:center;letter-spacing:0px;text-anchor:middle;fill:#ffffff;stroke-width:50;stroke-linejoin:round;paint-order:stroke fill markers"
           d="m 426.30002,922.66053 h 47.79405 v 5.6577 h -47.79405 v 48.22115 h -5.6577 v -93.82563 h 53.66728 v 5.76546 h -48.00958 z m 64.44384,53.87885 h -5.65769 V 882.7294 h 5.65769 z m 48.6023,-4.6878 c 9.41153,0 17.45803,-3.32277 24.1395,-9.96832 6.64556,-6.68147 9.96833,-14.72797 9.96833,-24.1395 0,-9.41153 -3.32277,-17.45803 -9.96833,-24.1395 -6.68147,-6.64555 -14.72797,-9.96833 -24.1395,-9.96833 -9.41153,0 -17.45803,3.32278 -24.1395,9.96833 -6.64555,6.68147 -9.96832,14.72797 -9.96832,24.1395 0,9.41153 3.32277,17.45803 9.96832,24.1395 6.68147,6.64555 14.72797,9.96832 24.1395,9.96832 z m 0.0539,-73.81946 c 10.95617,0 20.31383,3.87956 28.07295,11.63869 7.75913,7.75913 11.62073,17.11678 11.58482,28.07295 0,10.95617 -3.87957,20.31381 -11.63869,28.07294 -7.75914,7.75913 -17.11679,11.63869 -28.07295,11.63869 -10.95618,0 -20.31383,-3.87956 -28.07296,-11.63869 -7.75912,-7.75913 -11.63868,-17.11677 -11.63868,-28.07294 0.0359,-10.95617 3.93346,-20.31382 11.69257,-28.07295 7.75913,-7.75913 17.11677,-11.63869 28.07294,-11.63869 z m 48.60231,50.00325 c 0.0718,8.01058 2.96356,14.8537 8.67514,20.52936 5.71157,5.67565 12.57265,8.51348 20.58323,8.51348 5.81935,0 11.15375,-1.58056 16.0032,-4.74169 4.70576,-3.08928 8.24406,-7.18437 10.61491,-12.28528 2.37085,5.10091 5.90916,9.196 10.61492,12.28528 4.84945,3.16113 10.16589,4.74169 15.94932,4.74169 8.01057,0 14.87166,-2.81987 20.58322,-8.4596 5.67566,-5.63973 8.56737,-12.44693 8.67515,-20.42159 v -48.92559 h -5.38829 v 48.87171 c -0.10777,6.50186 -2.4786,12.05179 -7.11254,16.64979 -4.66984,4.56208 -10.25569,6.84312 -16.75754,6.84312 -6.50187,0 -12.08771,-2.28104 -16.75756,-6.84312 -4.63392,-4.598 -7.00477,-10.14793 -7.11254,-16.64979 v -48.87171 h -5.44216 v 48.87171 c -0.10777,6.50186 -2.47861,12.05179 -7.11253,16.64979 -4.63392,4.56208 -10.21978,6.84312 -16.75756,6.84312 -6.50186,0 -12.06975,-2.28104 -16.70367,-6.84312 -4.66985,-4.598 -7.04068,-10.14793 -7.11253,-16.64979 v -48.87171 h -5.44217 z"
           id="path34"
           sodipodi:nodetypes="ccccccccccccccccscscscscssscssscsscsscccsccccccsccccccsccccc" />
      </g>
      <g
         id="g40"
         transform="matrix(0.47987678,0,0,0.47987678,-14.422535,1033.1632)"
         inkscape:export-filename="LF - trademark.png"
         inkscape:export-xdpi="96"
         inkscape:export-ydpi="96">
        <g
           id="g37"
           transform="matrix(0.73585029,0,0,0.64754805,237.98858,94.198493)">
          <path
             id="path35"
             style="color:#000000;fill:#39c0ff;fill-opacity:1;stroke-linejoin:round;-inkscape-stroke:none;paint-order:stroke fill markers"
             d="m 339.15036,203.05272 c -71.64051,0 -130.09542,58.45543 -130.09542,130.09594 v 527.97656 c 0,12.01868 1.77474,23.61465 4.85138,34.67747 h 52.91357 c -4.9359,-10.46114 -7.76542,-22.17461 -7.76542,-34.67747 V 333.14866 c 0,-44.80546 35.29044,-80.09589 80.09589,-80.09589 h 229.494 v -50.00005 z"
             clip-path="url(#clipPath17)"
             transform="translate(0,281.79431)" />
          <path
             id="path36"
             style="color:#000000;fill:#edff3f;fill-opacity:1;stroke-linejoin:round;-inkscape-stroke:none;paint-order:stroke fill markers"
             d="m 341.11923,249.88501 c -45.69595,0 -83.26365,37.56769 -83.26365,83.26365 v 562.65403 h 50.00005 V 333.14866 c 0,-18.8609 14.4027,-33.26412 33.2636,-33.26412 h 227.52513 v -49.99953 z"
             clip-path="url(#clipPath16)"
             transform="translate(0,281.79431)" />
          <path
             id="path37"
             style="color:#000000;fill:#ff4f4f;fill-opacity:1;stroke-linejoin:round;-inkscape-stroke:none;paint-order:stroke fill markers"
             d="m 344.09579,296.33178 c -19.964,0 -36.81842,16.85289 -36.81842,36.81688 v 562.65403 h 50.00005 V 346.33183 h 211.36694 v -50.00005 z"
             clip-path="url(#clipPath15)"
             transform="translate(0,281.79431)" />
        </g>
        <path
           id="path38"
           style="color:#000000;fill:#39c0ff;fill-opacity:1;stroke-width:0.647548;stroke-linejoin:round;-inkscape-stroke:none;paint-order:stroke fill markers"
           d="m 507.81707,225.68493 c -46.39063,0 -84.24292,37.85282 -84.24292,84.24344 v 341.89024 c 0,0.48655 0.0438,0.96204 0.0527,1.44642 h 32.40577 c -0.0133,-0.48647 -0.0811,-0.95613 -0.0811,-1.44642 V 309.92837 c 0,-29.01366 22.85191,-51.86609 51.86557,-51.86609 h 148.6085 v -32.37735 z" />
        <path
           id="path39"
           style="color:#000000;fill:#edff3f;fill-opacity:1;stroke-width:0.647548;stroke-linejoin:round;-inkscape-stroke:none;paint-order:stroke fill markers"
           d="m 509.09244,256.01125 c -29.59029,0 -53.91764,24.32682 -53.91764,53.91712 v 343.33666 h 32.37787 V 309.92837 c 0,-12.21333 9.32644,-21.54029 21.53977,-21.54029 h 147.33313 v -32.37683 z" />
        <path
           id="path40"
           style="color:#000000;fill:#ff4f4f;fill-opacity:1;stroke-width:0.647548;stroke-linejoin:round;-inkscape-stroke:none;paint-order:stroke fill markers"
           d="m 511.01997,286.08745 c -12.92764,0 -23.84195,10.91329 -23.84195,23.84092 v 343.33666 h 32.37735 V 318.4648 h 136.8702 v -32.37735 z" />
      </g>
    </g>
    <g
       id="g8"
       inkscape:export-filename="Lebanon Flow - color palette.png"
       inkscape:export-xdpi="96"
       inkscape:export-ydpi="96">
      <rect
         style="fill:#ff4f4f;stroke-width:39.2856;stroke-linejoin:round;paint-order:stroke fill markers;fill-opacity:1"
         id="rect2"
         width="233.39882"
         height="233.39882"
         x="1427.9764"
         y="59.41061" />
      <rect
         style="fill:#edff3f;stroke-width:39.2856;stroke-linejoin:round;paint-order:stroke fill markers;fill-opacity:1"
         id="rect6"
         width="233.39882"
         height="233.39882"
         x="1427.9764"
         y="352.22003" />
      <rect
         style="fill:#fafafa;stroke-width:39.2856;stroke-linejoin:round;paint-order:stroke fill markers;fill-opacity:1"
         id="rect7"
         width="233.39882"
         height="233.39882"
         x="1727.1512"
         y="352.22003" />
      <rect
         style="fill:#39c0ff;stroke-width:39.2856;stroke-linejoin:round;paint-order:stroke fill markers;fill-opacity:1"
         id="rect8"
         width="233.39882"
         height="233.39882"
         x="1727.1512"
         y="59.41061" />
    </g>
    <text
       xml:space="preserve"
       style="font-size:110.352px;line-height:1;font-family:'Vonique 92';-inkscape-font-specification:'Vonique 92, Normal';text-align:center;text-decoration-color:#000000;letter-spacing:0px;text-anchor:middle;fill:#fafafa;fill-opacity:1;stroke-width:49.9999;stroke-linejoin:round;paint-order:stroke fill markers"
       x="1522.0995"
       y="201.04616"
       id="text8"><tspan
         sodipodi:role="line"
         id="tspan8"
         style="stroke-width:50"
         x="1522.0995"
         y="201.04616" /></text>
    <g
       id="g2"
       transform="translate(-1059.6875,607.40141)">
      <path
         style="font-size:110.352px;line-height:1;font-family:'Vonique 92';-inkscape-font-specification:'Vonique 92, Normal';text-align:center;letter-spacing:0px;text-anchor:middle;fill:#ffffff;stroke-width:50;stroke-linejoin:round;paint-order:stroke fill markers"
         d="m 474.04019,860.52968 v 5.6577 H 420.64232 V 772.2797 h 5.6577 v 88.24998 z m 11.63869,-43.37566 c -0.96989,3.19705 -1.45484,6.60962 -1.45484,10.23773 0,9.41153 3.32277,17.45803 9.96832,24.1395 6.68147,6.64555 14.72797,9.96832 24.1395,9.96832 9.41153,0 17.45805,-3.32277 24.13951,-9.96832 3.80772,-3.80772 6.51981,-8.06446 8.1363,-12.77022 h 5.87324 c -1.7961,6.21448 -5.1548,11.78237 -10.07609,16.70367 -7.75914,7.75913 -17.11679,11.63869 -28.07296,11.63869 -10.95617,0 -20.31381,-3.87956 -28.07294,-11.63869 -7.75913,-7.75913 -11.63869,-17.11678 -11.63869,-28.07295 0.0359,-10.95617 3.93346,-20.31382 11.69257,-28.07295 7.75913,-7.75912 17.11678,-11.63868 28.07295,-11.63868 10.95617,0 20.31383,3.87956 28.07294,11.63868 5.24459,5.2446 8.71106,11.15375 10.39939,17.72745 z m 63.09677,-5.3344 c -1.58056,-3.05336 -3.68198,-5.90915 -6.30428,-8.56737 -6.68146,-6.64555 -14.72798,-9.96832 -24.13951,-9.96832 -9.41153,0 -17.45803,3.32277 -24.1395,9.96832 -2.62229,2.65822 -4.72372,5.51401 -6.30429,8.56737 z m 56.7386,-18.53569 c -9.41153,0 -17.45803,3.32277 -24.1395,9.96832 -6.64554,6.68147 -9.96831,14.72797 -9.96831,24.1395 0,9.41153 3.32277,17.45803 9.96831,24.1395 6.68147,6.64555 14.72797,9.96832 24.1395,9.96832 9.41154,0 17.45803,-3.32277 24.1395,-9.96832 6.64555,-6.68147 9.96832,-14.72797 9.96832,-24.1395 0,-9.41153 -3.32277,-17.45803 -9.96832,-24.1395 -6.68147,-6.64555 -14.72797,-9.96832 -24.1395,-9.96832 z m -34.10781,13.63235 c 1.6524,-2.69414 3.66402,-5.22663 6.03487,-7.59748 7.75912,-7.75912 17.11677,-11.63868 28.07294,-11.63868 10.95617,0 20.31383,3.87956 28.07295,11.63868 7.75913,7.75913 11.63869,17.11678 11.63869,28.07295 -0.0359,10.95617 -3.93346,20.31382 -11.69256,28.07295 -7.75914,7.75913 -17.11679,11.63869 -28.07295,11.63869 -10.95618,0 -20.31383,-3.87956 -28.07295,-11.63869 -7.75913,-7.75913 -11.62073,-17.11678 -11.58481,-28.07295 v -55.12212 h 5.60382 z m 120.53586,54.58329 c 9.41154,0 17.45803,-3.32277 24.1395,-9.96832 6.64555,-6.68147 9.96832,-14.72797 9.96832,-24.1395 0,-9.41153 -3.32277,-17.45803 -9.96832,-24.1395 -6.68147,-6.64555 -14.72797,-9.96832 -24.1395,-9.96832 -9.41153,0 -17.45803,3.32277 -24.1395,9.96832 -6.64555,6.68147 -9.96832,14.72797 -9.96832,24.1395 0,9.41153 3.32277,17.45803 9.96832,24.1395 6.68147,6.64555 14.72797,9.96832 24.1395,9.96832 z m 34.10782,-13.63235 c -1.65241,2.69414 -3.66403,5.22663 -6.03487,7.59748 -7.75913,7.75913 -17.11678,11.63869 -28.07295,11.63869 -10.95617,0 -20.31382,-3.87956 -28.07295,-11.63869 -7.75913,-7.75913 -11.63869,-17.11678 -11.63869,-28.07295 0.0359,-10.95617 3.93346,-20.31382 11.69258,-28.07295 7.75912,-7.75912 17.11677,-11.63868 28.07294,-11.63868 10.95617,0 20.31382,3.87956 28.07295,11.63868 7.75913,7.75913 11.62073,17.11678 11.5848,28.07295 v 38.79563 h -5.6038 z m 16.43424,-20.15217 c 0.14369,-10.92025 3.64607,-20.24198 10.50715,-27.96518 6.86108,-7.72321 15.10515,-11.58481 24.73221,-11.58481 9.663,0 17.92502,3.87956 24.78611,11.63869 6.86107,7.72321 10.34549,17.06289 10.45326,28.01906 v 38.47233 h -5.44216 v -38.47233 c -0.10777,-9.26784 -3.05336,-17.17065 -8.83678,-23.70843 -5.78343,-6.53779 -12.75227,-9.80668 -20.90653,-9.80668 -8.15427,0 -15.14107,3.25093 -20.96042,9.75279 -5.78342,6.50186 -8.74697,14.36875 -8.89066,23.60068 v 38.63397 h -5.44217 z m 119.08105,33.78452 c 9.41153,0 17.45803,-3.32277 24.1395,-9.96832 6.64555,-6.68147 9.96832,-14.72797 9.96832,-24.1395 0,-9.41153 -3.32277,-17.45803 -9.96832,-24.1395 -6.68147,-6.64555 -14.72797,-9.96832 -24.1395,-9.96832 -9.41153,0 -17.45803,3.32277 -24.1395,9.96832 -6.64555,6.68147 -9.96832,14.72797 -9.96832,24.1395 0,9.41153 3.32277,17.45803 9.96832,24.1395 6.68147,6.64555 14.72797,9.96832 24.1395,9.96832 z m 0.0539,-73.81945 c 10.95617,0 20.31382,3.87956 28.07295,11.63868 7.75912,7.75913 11.62072,17.11678 11.5848,28.07295 0,10.95617 -3.87956,20.31382 -11.63869,28.07295 -7.75912,7.75913 -17.11677,11.63869 -28.07294,11.63869 -10.95617,0 -20.31382,-3.87956 -28.07295,-11.63869 -7.75913,-7.75913 -11.63869,-17.11678 -11.63869,-28.07295 0.0359,-10.95617 3.93346,-20.31382 11.69257,-28.07295 7.75913,-7.75912 17.11678,-11.63868 28.07295,-11.63868 z m 48.60228,40.03493 c 0.14369,-10.92025 3.64608,-20.24198 10.50715,-27.96518 6.86108,-7.72321 15.10515,-11.58481 24.73222,-11.58481 9.66298,0 17.92501,3.87956 24.78609,11.63869 6.86108,7.72321 10.3455,17.06289 10.45327,28.01906 v 38.47233 h -5.44217 v -38.47233 c -0.10777,-9.26784 -3.05336,-17.17065 -8.83678,-23.70843 -5.78342,-6.53779 -12.75226,-9.80668 -20.90653,-9.80668 -8.15427,0 -15.14107,3.25093 -20.96042,9.75279 -5.78342,6.50186 -8.74697,14.36875 -8.89066,23.60068 v 38.63397 h -5.44217 z"
         id="path1"
         sodipodi:nodetypes="ccccccccscscccssscsssccccscccscscscscscssscsssccccscscscscscssscssscccccsscccccsscccccscscscscssscssscsscsscccccssccccc" />
      <path
         style="font-size:110.352px;line-height:1;font-family:'Vonique 92';-inkscape-font-specification:'Vonique 92, Normal';text-align:center;letter-spacing:0px;text-anchor:middle;fill:#ffffff;stroke-width:50;stroke-linejoin:round;paint-order:stroke fill markers"
         d="m 426.30002,922.66053 h 47.79405 v 5.6577 h -47.79405 v 48.22115 h -5.6577 v -93.82563 h 53.66728 v 5.76546 h -48.00958 z m 64.44384,53.87885 h -5.65769 V 882.7294 h 5.65769 z m 48.6023,-4.6878 c 9.41153,0 17.45803,-3.32277 24.1395,-9.96832 6.64556,-6.68147 9.96833,-14.72797 9.96833,-24.1395 0,-9.41153 -3.32277,-17.45803 -9.96833,-24.1395 -6.68147,-6.64555 -14.72797,-9.96833 -24.1395,-9.96833 -9.41153,0 -17.45803,3.32278 -24.1395,9.96833 -6.64555,6.68147 -9.96832,14.72797 -9.96832,24.1395 0,9.41153 3.32277,17.45803 9.96832,24.1395 6.68147,6.64555 14.72797,9.96832 24.1395,9.96832 z m 0.0539,-73.81946 c 10.95617,0 20.31383,3.87956 28.07295,11.63869 7.75913,7.75913 11.62073,17.11678 11.58482,28.07295 0,10.95617 -3.87957,20.31381 -11.63869,28.07294 -7.75914,7.75913 -17.11679,11.63869 -28.07295,11.63869 -10.95618,0 -20.31383,-3.87956 -28.07296,-11.63869 -7.75912,-7.75913 -11.63868,-17.11677 -11.63868,-28.07294 0.0359,-10.95617 3.93346,-20.31382 11.69257,-28.07295 7.75913,-7.75913 17.11677,-11.63869 28.07294,-11.63869 z m 48.60231,50.00325 c 0.0718,8.01058 2.96356,14.8537 8.67514,20.52936 5.71157,5.67565 12.57265,8.51348 20.58323,8.51348 5.81935,0 11.15375,-1.58056 16.0032,-4.74169 4.70576,-3.08928 8.24406,-7.18437 10.61491,-12.28528 2.37085,5.10091 5.90916,9.196 10.61492,12.28528 4.84945,3.16113 10.16589,4.74169 15.94932,4.74169 8.01057,0 14.87166,-2.81987 20.58322,-8.4596 5.67566,-5.63973 8.56737,-12.44693 8.67515,-20.42159 v -48.92559 h -5.38829 v 48.87171 c -0.10777,6.50186 -2.4786,12.05179 -7.11254,16.64979 -4.66984,4.56208 -10.25569,6.84312 -16.75754,6.84312 -6.50187,0 -12.08771,-2.28104 -16.75756,-6.84312 -4.63392,-4.598 -7.00477,-10.14793 -7.11254,-16.64979 v -48.87171 h -5.44216 v 48.87171 c -0.10777,6.50186 -2.47861,12.05179 -7.11253,16.64979 -4.63392,4.56208 -10.21978,6.84312 -16.75756,6.84312 -6.50186,0 -12.06975,-2.28104 -16.70367,-6.84312 -4.66985,-4.598 -7.04068,-10.14793 -7.11253,-16.64979 v -48.87171 h -5.44217 z"
         id="path2"
         sodipodi:nodetypes="ccccccccccccccccscscscscssscssscsscsscccsccccccsccccccsccccc" />
    </g>
  </g>
</svg>
