<?xml version="1.0" encoding="UTF-8" standalone="no"?>
<!-- Created with Inkscape (http://www.inkscape.org/) -->

<svg
   width="1080mm"
   height="1080mm"
   viewBox="0 0 1080 1080"
   version="1.1"
   id="svg1"
   inkscape:version="1.3.2 (091e20e, 2023-11-25, custom)"
   sodipodi:docname="gamma.svg"
   xmlns:inkscape="http://www.inkscape.org/namespaces/inkscape"
   xmlns:sodipodi="http://sodipodi.sourceforge.net/DTD/sodipodi-0.dtd"
   xmlns="http://www.w3.org/2000/svg"
   xmlns:svg="http://www.w3.org/2000/svg">
  <sodipodi:namedview
     id="namedview1"
     pagecolor="#ffffff"
     bordercolor="#000000"
     borderopacity="0.25"
     inkscape:showpageshadow="2"
     inkscape:pageopacity="0.0"
     inkscape:pagecheckerboard="0"
     inkscape:deskcolor="#d1d1d1"
     inkscape:document-units="mm"
     showgrid="false"
     showguides="true"
     inkscape:zoom="0.17634839"
     inkscape:cx="1891.1428"
     inkscape:cy="2123.6371"
     inkscape:window-width="1366"
     inkscape:window-height="705"
     inkscape:window-x="-8"
     inkscape:window-y="-8"
     inkscape:window-maximized="1"
     inkscape:current-layer="layer1" />
  <defs
     id="defs1">
    <inkscape:path-effect
       effect="fillet_chamfer"
       id="path-effect1"
       is_visible="true"
       lpeversion="1"
       nodesatellites_param="F,0,0,1,0,0,0,1 @ F,0,0,1,0,0,0,1 @ F,0,0,1,0,0,0,1 @ F,0,0,1,0,0,0,1 @ F,0,0,1,0,0,0,1 @ F,0,0,1,0,0,0,1 @ F,0,0,1,0,0,0,1 @ F,0,0,1,0,0,0,1 @ F,0,0,1,0,0,0,1 @ F,0,0,1,0,0,0,1 @ F,0,0,1,0,0,0,1 @ F,0,0,1,0,0,0,1 @ F,0,0,1,0,0,0,1 @ F,0,0,1,0,0,0,1 @ F,0,0,1,0,0,0,1 @ F,0,0,1,0,0,0,1 @ F,0,0,1,0,0,0,1 @ F,0,0,1,0,0,0,1 @ F,0,0,1,0,0,0,1 @ F,0,0,1,0,0,0,1 @ F,0,0,1,0,0,0,1 @ F,0,0,1,0,0,0,1 @ F,0,0,1,0,0,0,1 @ F,0,0,1,0,0,0,1 @ F,0,0,1,0,0,0,1 @ F,0,0,1,0,0,0,1 @ F,0,0,1,0,0,0,1 @ F,0,0,1,0,0,0,1 @ F,0,0,1,0,0,0,1 @ F,0,0,1,0,0,0,1 @ F,0,0,1,0,0,0,1 @ F,0,0,1,0,0,0,1 @ F,0,0,1,0,0,0,1 @ F,0,0,1,0,0,0,1 @ F,0,0,1,0,0,0,1 @ F,0,0,1,0,0,0,1 @ F,0,0,1,0,0,0,1 @ F,0,0,1,0,0,0,1 @ F,0,0,1,0,0,0,1 | F,0,0,1,0,0,0,1 @ F,0,0,1,0,0,0,1 @ F,0,0,1,0,0,0,1 @ F,0,0,1,0,0,0,1 @ F,0,0,1,0,0,0,1 @ F,0,0,1,0,0,0,1 @ F,0,0,1,0,0,0,1 @ F,0,0,1,0,0,0,1"
       radius="0"
       unit="px"
       method="auto"
       mode="F"
       chamfer_steps="1"
       flexible="false"
       use_knot_distance="true"
       apply_no_radius="true"
       apply_with_radius="true"
       only_selected="false"
       hide_knots="false" />
  </defs>
  <g
     inkscape:label="Layer 1"
     inkscape:groupmode="layer"
     id="layer1">
    <g
       id="g3"
       transform="matrix(0.86373309,0,0,0.86373309,72.615155,142.59998)">
      <path
         id="text1"
         style="font-weight:bold;font-size:751.036px;line-height:1;font-family:Fustat;-inkscape-font-specification:'Fustat Bold';text-decoration-color:#000000;letter-spacing:0px;fill:#3c48b4;fill-opacity:1;stroke:none;stroke-width:1.15803;stroke-linecap:square;stroke-opacity:1;paint-order:stroke fill markers"
         d="m 125.21893,385.8553 c -17.69804,0 -33.255224,3.28276 -46.671484,9.84817 -13.416253,6.5654 -23.978263,15.55705 -31.685473,26.97514 -7.421757,11.4181 -11.132697,24.69176 -11.132697,39.82074 0,15.12897 3.71094,28.54557 11.132697,40.24911 2.84884,4.22051 6.09322,8.10465 9.72206,11.66213 -5.90652,3.81882 -10.88033,8.19722 -14.86019,13.17203 -6.565397,8.27812 -9.848167,17.84086 -9.848167,28.68806 0,9.70537 2.8546,18.41177 8.56364,26.11897 0.418087,0.54352 0.869757,1.06072 1.309277,1.58741 8.14946,8.21678 17.73917,14.9934 30.15494,18.94387 7.810343,2.28935 16.299853,3.44702 25.483793,3.44702 h 53.522504 c 9.70538,0 17.26988,1.85532 22.69348,5.5662 5.70904,3.7109 8.56363,8.99189 8.56363,15.84274 0,8.56357 -3.85386,14.98617 -11.56107,19.26797 -7.70722,4.56723 -19.2679,6.85103 -34.68233,6.85103 h -29.97257 c -15.034884,0 -39.777437,-10.25015 -39.777437,-27.89818 L 32.093696,643.0086 c 0.97633,12.76185 5.23847,27.39788 22.529957,39.14106 16.63765,11.29913 28.633823,11.99504 57.749967,11.99504 h 23.12156 c 28.25978,0 50.66801,-6.13735 67.22425,-18.4118 16.55624,-12.27445 24.83446,-28.68797 24.83446,-49.24053 0,-17.9835 -6.56552,-32.39907 -19.69634,-43.24626 -12.84534,-10.8472 -30.11522,-16.27082 -51.8096,-16.27082 h -52.23796 c -9.419924,0 -16.413634,-1.57006 -20.980864,-4.71004 -4.56724,-3.42542 -6.850743,-7.99271 -6.850743,-13.70176 0,-4.56724 1.855313,-8.84897 5.566213,-12.8453 1.04654,-1.20758 2.23203,-2.25089 3.52833,-3.16331 11.86945,4.65815 25.238604,7.0169 40.146004,7.0169 17.69803,0 33.11258,-3.28276 46.2434,-9.84817 13.41626,-6.5654 23.83535,-15.55704 31.2571,-26.97514 7.70722,-11.70354 11.56078,-25.12014 11.56078,-40.24911 0,-15.12899 -3.85356,-28.40265 -11.56078,-39.82075 -3.50608,-5.39397 -7.53054,-10.43169 -12.54922,-14.53787 -1.64675,-1.34735 -3.25769,-2.53183 -4.85882,-3.69509 z m 0,39.39237 c 12.84535,0 23.26444,3.4257 31.25711,10.27654 7.99266,6.85086 11.98914,15.84249 11.98914,26.97514 0,11.13264 -3.99648,20.26721 -11.98914,27.40352 -7.99267,6.85086 -18.41176,10.27625 -31.25711,10.27625 -13.13081,0 -23.69252,-3.42539 -31.685194,-10.27625 -7.7072,-7.13631 -11.56107,-16.27088 -11.56107,-27.40352 0,-11.13265 3.85387,-20.12428 11.56107,-26.97514 7.992674,-6.85084 18.554384,-10.27654 31.685194,-10.27654 z"
         sodipodi:nodetypes="cscscccscccsscscssccssssscsscsccsccscsccssscscscs" />
      <path
         id="text3"
         style="font-style:normal;font-variant:normal;font-weight:bold;font-stretch:normal;font-size:285.718px;line-height:1;font-family:'Avignon Pro';-inkscape-font-specification:'Avignon Pro Bold';font-variant-ligatures:normal;font-variant-caps:normal;font-variant-numeric:normal;font-variant-east-asian:normal;text-decoration-color:#000000;letter-spacing:0px;fill:#3c48b4;fill-opacity:1;stroke:none;stroke-width:0.772736;stroke-linecap:square;stroke-opacity:1;paint-order:stroke fill markers"
         d="m 312.15149,385.85552 c -10.85727,0 -20.85727,1.90481 -30.00024,5.71438 -8.95248,3.80957 -16.76231,9.14283 -23.42906,16.00005 -6.47627,6.66675 -11.52417,14.76245 -15.14326,24.28638 -3.61909,9.33344 -5.42861,19.61932 -5.42861,30.85755 0,11.4287 1.71423,21.90464 5.14284,31.42857 3.61909,9.33344 8.66699,17.42915 15.14326,24.28637 6.47627,6.66675 14.09551,11.90472 22.85752,15.71429 8.95249,3.61909 18.85719,5.42861 29.71447,5.42861 22.85741,0 37.71473,-6.76213 44.57195,-20.2861 v 20.28616 h 40.5722 V 390.99836 h -40.5722 v 15.14326 c -4.00004,-6.85723 -9.52389,-11.90513 -16.5716,-15.14326 -7.0477,-3.42862 -16,-5.14284 -26.85727,-5.14284 z m 678.294,0 c -10.85728,0 -20.85727,1.90481 -30.00024,5.71438 -8.95249,3.80957 -16.76231,9.14283 -23.42906,16.00005 -6.47627,6.66675 -11.52365,14.76245 -15.14274,24.28638 -3.6191,9.33344 -5.42861,19.61932 -5.42861,30.85755 0,11.4287 1.71422,21.90464 5.14283,31.42857 3.6191,9.33344 8.66648,17.42915 15.14275,24.28637 6.47627,6.66675 14.09551,11.90472 22.85752,15.71429 8.95249,3.61909 18.85771,5.42861 29.71498,5.42861 22.85738,0 37.71478,-6.76213 44.57198,-20.2861 v 20.28616 h 40.5717 V 390.99836 h -40.5717 v 15.14326 c -4.0001,-6.85723 -9.5239,-11.90513 -16.5716,-15.14326 -7.0477,-3.42862 -16.0005,-5.14284 -26.85781,-5.14284 z m -485.43445,0.28577 c -8.95249,0 -16.57173,1.61893 -22.85752,4.85707 -6.09532,3.04765 -11.61916,8.09555 -16.5716,15.14326 v -15.14326 h -40.57169 v 148.57342 h 43.14311 v -83.14383 c 0,-9.7144 2.0001,-17.14306 6.00015,-22.28597 4.00004,-5.14292 10.00035,-7.71426 18.00045,-7.71426 14.66684,0 22.00021,10 22.00021,30.00023 v 83.14383 h 43.14362 v -83.14383 c 0,-5.71435 0.47594,-10.28579 1.42833,-13.7144 0.9524,-3.42862 2.57133,-6.47642 4.85707,-9.14312 2.09526,-2.09526 4.66712,-3.80948 7.71478,-5.14283 3.04765,-1.33335 6.19023,-1.99988 9.42836,-1.99988 3.23813,0 6.38123,0.76182 9.42888,2.28565 3.23814,1.33335 5.61889,3.14286 7.14272,5.42861 1.90478,2.66669 3.14307,5.71449 3.7145,9.14311 0.76191,3.42861 1.14308,8.476 1.14308,15.14274 v 81.14395 h 43.14311 v -83.14383 c 0,-8.19057 -0.28536,-15.14328 -0.8568,-20.85764 -0.38096,-5.90483 -1.14329,-10.85692 -2.28616,-14.85697 -1.14288,-4.19053 -2.76181,-7.81008 -4.85707,-10.85774 -1.90479,-3.23813 -4.47613,-6.38071 -7.71426,-9.42836 -10.09536,-9.52393 -22.57192,-14.28595 -37.42924,-14.28595 -19.80976,0 -34.95295,8.57165 -45.42927,25.71471 -9.14296,-17.14306 -23.04788,-25.71471 -41.71476,-25.71471 z m 248.28872,0 c -8.95249,0 -16.57122,1.61893 -22.85701,4.85707 -6.09531,3.04765 -11.61967,8.09555 -16.57211,15.14326 v -15.14326 h -40.57169 v 148.57342 h 43.14362 v -83.14383 c 0,-9.7144 1.99959,-17.14306 5.99964,-22.28597 4.00005,-5.14292 10.00035,-7.71426 18.00045,-7.71426 14.66684,0 22.00021,10 22.00021,30.00023 v 83.14383 h 43.14362 v -83.14383 c 0,-5.71435 0.47594,-10.28579 1.42833,-13.7144 0.9524,-3.42862 2.57185,-6.47642 4.85759,-9.14312 2.09526,-2.09526 4.6666,-3.80948 7.71426,-5.14283 3.04765,-1.33335 6.19023,-1.99988 9.42836,-1.99988 3.23813,0 6.38123,0.76182 9.42888,2.28565 3.23814,1.33335 5.61889,3.14286 7.14272,5.42861 1.90478,2.66669 3.14307,5.71449 3.7145,9.14311 0.76192,3.42861 1.14308,8.476 1.14308,15.14274 v 81.14395 h 43.14311 v -83.14383 c 0,-8.19057 -0.28536,-15.14328 -0.8568,-20.85764 -0.38096,-5.90483 -1.14329,-10.85692 -2.28616,-14.85697 -1.14287,-4.19053 -2.76181,-7.81008 -4.85707,-10.85774 -1.90479,-3.23813 -4.47613,-6.38071 -7.71426,-9.42836 -10.09536,-9.52393 -22.57192,-14.28595 -37.42924,-14.28595 -19.80976,0 -34.95244,8.57165 -45.42875,25.71471 -9.14297,-17.14306 -23.04839,-25.71471 -41.71528,-25.71471 z m -436.2912,40.28643 c 5.14292,0 9.90494,0.9524 14.28595,2.85719 4.57148,1.7143 8.47639,4.19035 11.71453,7.42849 3.23813,3.23813 5.71418,7.14304 7.42848,11.71453 1.90479,4.381 2.85719,9.14303 2.85719,14.28595 0,5.33339 -0.9524,10.28549 -2.85719,14.85697 -1.7143,4.381 -4.19035,8.19063 -7.42848,11.42876 -3.04766,3.23813 -6.85728,5.80947 -11.42876,7.71426 -4.38101,1.7143 -9.14303,2.57193 -14.28595,2.57193 -5.14292,0 -9.90495,-0.85763 -14.28595,-2.57193 -4.38101,-1.90479 -8.19063,-4.47613 -11.42876,-7.71426 -3.23814,-3.42861 -5.80947,-7.33353 -7.71426,-11.71453 -1.71431,-4.57148 -2.57142,-9.52358 -2.57142,-14.85698 0,-5.14291 0.85711,-9.90494 2.57142,-14.28595 1.90479,-4.381 4.47612,-8.19062 7.71426,-11.42875 3.23813,-3.23814 7.04775,-5.71419 11.42876,-7.42849 4.381,-1.90479 9.04774,-2.85719 14.00018,-2.85719 z m 678.294,0 c 5.14294,0 9.90494,0.9524 14.28594,2.85719 4.5715,1.7143 8.4764,4.19035 11.7145,7.42849 3.2382,3.23813 5.7142,7.14304 7.4285,11.71453 1.9048,4.381 2.8572,9.14303 2.8572,14.28595 0,5.33339 -0.9524,10.28549 -2.8572,14.85697 -1.7143,4.381 -4.1903,8.19063 -7.4285,11.42876 -3.0476,3.23813 -6.8572,5.80947 -11.4287,7.71426 -4.381,1.7143 -9.1431,2.57193 -14.28597,2.57193 -5.14292,0 -9.90495,-0.85763 -14.28595,-2.57193 -4.38101,-1.90479 -8.19063,-4.47613 -11.42876,-7.71426 -3.23814,-3.42861 -5.80948,-7.33353 -7.71426,-11.71453 -1.71431,-4.57148 -2.57142,-9.52358 -2.57142,-14.85698 0,-5.14291 0.85711,-9.90494 2.57142,-14.28595 1.90478,-4.381 4.47612,-8.19062 7.71426,-11.42875 3.23813,-3.23814 7.04775,-5.71419 11.42876,-7.42849 4.381,-1.90479 9.04774,-2.85719 14.00018,-2.85719 z"
         sodipodi:nodetypes="scccscccscccccccsscccscccscccccccssccccccssssccsscsscccsccsccccscssccccccssssccsscsscccsccsccccscsscscscccscccscscsscscscccscccscscs" />
    </g>
    <path
       style="fill:#3c48b4;fill-opacity:1;stroke:none;stroke-width:0.540445;stroke-linecap:square;stroke-opacity:1;paint-order:stroke fill markers"
       d="M 180.77088,475.87595 H 287.189 c -34.19908,29.17231 -70.55379,28.16581 -106.41812,34.02452 z"
       id="path3"
       sodipodi:nodetypes="cccc" />
  </g>
</svg>
