<?xml version="1.0" encoding="UTF-8" standalone="no"?>
<!-- Created with Inkscape (http://www.inkscape.org/) -->

<svg
   width="1080mm"
   height="1080mm"
   viewBox="0 0 1080 1080"
   version="1.1"
   id="svg1"
   inkscape:version="1.3.2 (091e20e, 2023-11-25, custom)"
   sodipodi:docname="KREBON Naming Logo.svg"
   xmlns:inkscape="http://www.inkscape.org/namespaces/inkscape"
   xmlns:sodipodi="http://sodipodi.sourceforge.net/DTD/sodipodi-0.dtd"
   xmlns="http://www.w3.org/2000/svg"
   xmlns:svg="http://www.w3.org/2000/svg">
  <sodipodi:namedview
     id="namedview1"
     pagecolor="#ffffff"
     bordercolor="#000000"
     borderopacity="0.25"
     inkscape:showpageshadow="2"
     inkscape:pageopacity="0.0"
     inkscape:pagecheckerboard="0"
     inkscape:deskcolor="#d1d1d1"
     inkscape:document-units="mm"
     inkscape:zoom="0.12469715"
     inkscape:cx="2036.9352"
     inkscape:cy="2040.9449"
     inkscape:window-width="1366"
     inkscape:window-height="705"
     inkscape:window-x="-8"
     inkscape:window-y="-8"
     inkscape:window-maximized="1"
     inkscape:current-layer="g3"
     showguides="true" />
  <defs
     id="defs1">
    <rect
       x="3266.2617"
       y="3254.9205"
       width="2109.4607"
       height="22.682373"
       id="rect3" />
    <inkscape:path-effect
       effect="fillet_chamfer"
       id="path-effect1"
       is_visible="true"
       lpeversion="1"
       nodesatellites_param="F,0,0,1,0,0,0,1 @ F,0,1,1,0,177.78538,0,1 @ F,0,0,1,0,0,0,1 @ F,0,1,1,0,177.78538,0,1 @ F,0,0,1,0,0,0,1 @ F,0,1,1,0,177.78538,0,1 @ F,0,0,1,0,0,0,1 @ F,0,1,1,0,177.78538,0,1 @ F,0,0,1,0,0,0,1 @ F,0,0,1,0,177.78538,0,1 @ F,0,0,1,0,0,0,1"
       radius="0"
       unit="px"
       method="auto"
       mode="F"
       chamfer_steps="1"
       flexible="false"
       use_knot_distance="true"
       apply_no_radius="true"
       apply_with_radius="true"
       only_selected="false"
       hide_knots="false" />
  </defs>
  <g
     inkscape:label="Layer 1"
     inkscape:groupmode="layer"
     id="layer1">
    <g
       id="g3"
       style="fill:#ffa705;fill-opacity:1">
      <g
         id="g6">
        <path
           id="text1"
           style="font-style:normal;font-variant:normal;font-weight:normal;font-stretch:normal;font-size:1149.94px;font-family:Paparazzi;-inkscape-font-specification:Paparazzi;fill:#ffa705;fill-opacity:1;stroke:none;stroke-width:10;stroke-linecap:round;stroke-linejoin:round;paint-order:markers stroke fill"
           d="m 232.18998,432.59194 a 22.652549,24.490926 89.999998 0 0 -23.49521,22.88255 l 0.18529,15.60999 -15.8048,-5.47765 a 22.652546,24.490921 89.999998 0 0 -28.24789,34.72742 l 10.06981,12.52819 -16.26725,4.16092 a 22.652549,24.490926 89.999998 0 0 -0.78421,43.45247 l 16.10812,4.66081 -10.51619,12.21029 a 22.652548,24.490924 89.999998 0 0 26.97905,35.58004 l 15.9936,-4.98668 -0.74831,15.59557 a 23.65275,25.572296 89.999998 0 0 46.04027,15.19681 l 1.14669,-1.42093 h 13.6047 c 1.56674,0 2.87236,-0.52216 3.91684,-1.56663 1.04449,-1.04453 1.56677,-2.35022 1.56677,-3.91699 V 555.8413 l 1.3056,-2.35006 c 7.83369,12.88207 14.53589,25.85121 20.10652,38.90735 5.74469,12.88207 10.53199,26.46051 14.36179,40.73523 0.34817,1.04449 0.95747,2.00196 1.82788,2.87238 1.04449,0.87039 2.17597,1.30554 3.39455,1.30554 h 21.4121 c 1.9149,0 3.30764,-0.69628 4.17805,-2.08896 1.04451,-1.21857 1.39266,-2.78533 1.04448,-4.70023 -4.70021,-19.67126 -10.96724,-38.03697 -18.80094,-55.09703 -7.83369,-17.23413 -17.32115,-34.2071 -28.46241,-50.91898 l 46.74105,-71.54781 c 1.39265,-1.9149 1.56681,-3.74282 0.5223,-5.48363 -1.04448,-1.9149 -2.78539,-2.87235 -5.22253,-2.87235 h -24.54556 c -0.69632,0 -1.56676,0.26114 -2.61127,0.78338 -1.04449,0.52225 -1.7408,1.04454 -2.08895,1.56679 -5.57063,8.53001 -11.14125,16.97301 -16.71187,25.32895 -5.39654,8.18184 -10.88015,16.53783 -16.45079,25.06785 v -47.26335 c 0,-1.56673 -0.52228,-2.87234 -1.56677,-3.91684 -1.04448,-1.04449 -2.3501,-1.56678 -3.91684,-1.56678 h -11.50376 l -1.33328,-1.86602 a 22.652549,24.490926 89.999998 0 0 -21.42663,-10.14479 z" />
        <text
           xml:space="preserve"
           style="font-style:normal;font-variant:normal;font-weight:normal;font-stretch:normal;font-size:254.735px;font-family:Paparazzi;-inkscape-font-specification:Paparazzi;fill:#ffa705;fill-opacity:1;stroke:none;stroke-width:9.99998;stroke-linecap:round;stroke-linejoin:round;paint-order:markers stroke fill"
           x="359.86411"
           y="617.57941"
           id="text2"
           transform="scale(0.97936708,1.0210676)"><tspan
             sodipodi:role="line"
             id="tspan1"
             style="fill:#ffa705;fill-opacity:1;stroke-width:9.99998"
             x="359.86411"
             y="617.57941">rebon</tspan></text>
      </g>
    </g>
    <text
       xml:space="preserve"
       transform="scale(0.26458333)"
       id="text3"
       style="font-style:normal;font-variant:normal;font-weight:normal;font-stretch:normal;font-family:Paparazzi;-inkscape-font-specification:Paparazzi;white-space:pre;shape-inside:url(#rect3);display:inline;fill:#ffa705;fill-opacity:1;stroke:none;stroke-width:37.7953;stroke-linecap:round;stroke-linejoin:round;paint-order:markers stroke fill" />
  </g>
</svg>
