<?xml version="1.0" encoding="UTF-8" standalone="no"?>
<!-- Created with Inkscape (http://www.inkscape.org/) -->

<svg
   width="1080mm"
   height="1080mm"
   viewBox="0 0 1080 1080"
   version="1.1"
   id="svg1"
   inkscape:version="1.3.2 (091e20e, 2023-11-25, custom)"
   xml:space="preserve"
   inkscape:export-filename="Rome - Italy City.png"
   inkscape:export-xdpi="96"
   inkscape:export-ydpi="96"
   sodipodi:docname="Rn.svg"
   xmlns:inkscape="http://www.inkscape.org/namespaces/inkscape"
   xmlns:sodipodi="http://sodipodi.sourceforge.net/DTD/sodipodi-0.dtd"
   xmlns="http://www.w3.org/2000/svg"
   xmlns:svg="http://www.w3.org/2000/svg"><sodipodi:namedview
     id="namedview1"
     pagecolor="#ffffff"
     bordercolor="#000000"
     borderopacity="0.25"
     inkscape:showpageshadow="2"
     inkscape:pageopacity="0.0"
     inkscape:pagecheckerboard="0"
     inkscape:deskcolor="#d1d1d1"
     inkscape:document-units="mm"
     showgrid="false"
     inkscape:zoom="0.088174197"
     inkscape:cx="1621.7897"
     inkscape:cy="2069.7665"
     inkscape:window-width="1366"
     inkscape:window-height="705"
     inkscape:window-x="-8"
     inkscape:window-y="-8"
     inkscape:window-maximized="1"
     inkscape:current-layer="layer1" /><defs
     id="defs1" /><g
     inkscape:label="Layer 1"
     inkscape:groupmode="layer"
     id="layer1"><path
       id="text1-67"
       style="font-size:285.138px;line-height:1;font-family:Outfit;-inkscape-font-specification:Outfit;letter-spacing:0px;word-spacing:0px;fill:#f1f52f;fill-opacity:1;stroke-width:545.579;stroke-linecap:round;stroke-linejoin:round"
       d="m 775.49871,363.48182 c -22.17227,0 -42.08721,5.13317 -59.74297,15.39812 -13.30218,7.42448 -24.3848,16.95071 -33.25862,28.57054 V 369.64106 H 627.0672 v 292.55219 h 55.42992 v -170.6039 c 0,-14.78149 3.28547,-27.92116 9.85505,-39.41789 6.56953,-11.49675 15.60265,-20.52978 27.09936,-27.09936 11.49677,-6.56955 24.63635,-9.85502 39.41788,-9.85502 22.17227,0 40.23842,7.18647 54.19872,21.55738 13.96034,14.37089 20.94012,32.64264 20.94012,54.81489 v 170.6039 c 0,170.60326 -108.15971,152.50456 -108.15971,152.50456 H 407.13633 l 0.33709,-52.13487 -71.88621,42.0298 -61.34918,34.89387 72.34051,41.23954 60.89488,35.68415 -0.27236,-49.58321 c 8.85795,0.12723 137.38108,2.60041 316.72648,-0.0514 183.92748,-2.71942 165.51175,-204.5825 165.51175,-204.5825 V 480.50308 c 0,-20.1193 -4.92763,-39.00768 -14.78198,-56.66334 -9.85435,-18.06631 -23.40392,-32.64255 -40.64906,-43.72869 -16.83448,-11.08613 -36.33727,-16.6293 -58.50954,-16.6293 z"
       sodipodi:nodetypes="sccccccsssssssccccccccscsccs" /><path
       id="path4-5"
       style="font-size:285.138px;line-height:1;font-family:Outfit;-inkscape-font-specification:Outfit;letter-spacing:0px;word-spacing:0px;fill:#000000;fill-opacity:1;stroke-width:545.579;stroke-linecap:round;stroke-linejoin:round"
       d="m 275.91507,234.75925 v 192.77633 h 57.89451 V 285.26334 h 97.31128 c 25.04641,0 44.13925,6.77425 57.27836,20.32396 13.54968,13.54972 20.32508,30.59037 20.32508,51.12022 0,21.76163 -6.7754,39.00677 -20.32508,51.73526 -13.5497,12.72854 -32.84807,19.0928 -57.89452,19.0928 h -96.69512 v 48.65562 h 37.75025 L 522.27398,662.19325 H 595.5655 L 442.024,475.98248 c 23.33081,-0.98926 43.93174,-5.8334 61.77334,-14.57214 20.11926,-10.26492 35.51664,-24.43119 46.19216,-42.4975 11.08614,-18.06628 16.6293,-39.21236 16.6293,-63.4376 0,-23.40403 -5.54316,-44.13904 -16.6293,-62.20532 -10.67552,-18.06626 -26.0729,-32.23254 -46.19216,-42.49751 -20.11925,-10.67551 -43.72866,-16.01316 -70.82804,-16.01316 h -99.15972 z m 57.89451,241.43195 h -57.89451 v 186.00205 h 57.89451 z" /></g></svg>
