<?xml version="1.0" encoding="UTF-8" standalone="no"?>
<!-- Created with Inkscape (http://www.inkscape.org/) -->

<svg
   width="1080mm"
   height="1080mm"
   viewBox="0 0 1080 1080"
   version="1.1"
   id="svg1"
   inkscape:version="1.3.2 (091e20e, 2023-11-25, custom)"
   sodipodi:docname="RUSH.svg"
   inkscape:export-filename="RUSH.png"
   inkscape:export-xdpi="96"
   inkscape:export-ydpi="96"
   xmlns:inkscape="http://www.inkscape.org/namespaces/inkscape"
   xmlns:sodipodi="http://sodipodi.sourceforge.net/DTD/sodipodi-0.dtd"
   xmlns="http://www.w3.org/2000/svg"
   xmlns:svg="http://www.w3.org/2000/svg">
  <sodipodi:namedview
     id="namedview1"
     pagecolor="#ffffff"
     bordercolor="#000000"
     borderopacity="0.25"
     inkscape:showpageshadow="2"
     inkscape:pageopacity="0.0"
     inkscape:pagecheckerboard="0"
     inkscape:deskcolor="#d1d1d1"
     inkscape:document-units="mm"
     showgrid="false"
     inkscape:zoom="0.088174197"
     inkscape:cx="2098.1195"
     inkscape:cy="1389.2953"
     inkscape:window-width="1366"
     inkscape:window-height="705"
     inkscape:window-x="-8"
     inkscape:window-y="-8"
     inkscape:window-maximized="1"
     inkscape:current-layer="layer1" />
  <defs
     id="defs1" />
  <g
     inkscape:label="Layer 1"
     inkscape:groupmode="layer"
     id="layer1">
    <g
       id="g11"
       transform="matrix(0.86696641,0,0,0.86696641,14.284751,131.26789)"
       style="stroke-width:1.15345">
      <path
         id="text7"
         style="font-weight:bold;font-size:246.005px;line-height:1;font-family:Outfit;-inkscape-font-specification:'Outfit Bold';text-decoration-color:#000000;letter-spacing:0px;fill:#000000;fill-opacity:1;stroke:none;stroke-width:34.6035;stroke-linecap:square;stroke-dasharray:none;stroke-opacity:1;paint-order:stroke fill markers"
         d="m 977.29282,548.68847 c -11.97223,0 -22.55031,2.04994 -31.73449,6.15001 -9.18418,3.93608 -16.40019,9.75797 -21.64829,17.46612 -5.0841,7.70815 -7.62641,16.89264 -7.62641,27.55284 0,8.85617 1.4761,16.23614 4.42815,22.14025 2.95206,5.74011 6.806,10.57829 11.56209,14.51436 4.92009,3.77208 10.25012,6.9702 15.99024,9.59425 5.74011,2.46005 11.48054,4.67393 17.22065,6.64197 5.90411,1.96804 11.23415,4.01849 15.99024,6.15053 4.92009,2.13204 8.85601,4.67383 11.80806,7.62589 2.95206,2.95206 4.42816,6.80599 4.42816,11.56209 0,5.2481 -2.29587,9.34848 -6.88795,12.30054 -4.42809,2.95205 -10.74236,4.42815 -18.94252,4.42815 -9.02017,0 -16.97449,-1.72203 -23.86262,-5.16609 -6.72413,-3.60807 -12.87393,-8.6102 -18.45004,-15.00632 l -25.09253,24.84654 c 8.52817,9.51219 17.87609,16.64622 28.04429,21.40231 10.3322,4.59209 22.63283,6.88796 36.9011,6.88796 20.82841,0 37.14645,-4.67422 48.95465,-14.0224 11.8082,-9.51219 17.7126,-22.55009 17.7126,-39.11441 0,-9.02018 -1.4761,-16.56461 -4.4281,-22.63273 -2.9521,-6.23212 -6.888,-11.31622 -11.8081,-15.2523 -4.7561,-4.10008 -10.0047,-7.46215 -15.7448,-10.0862 -5.7401,-2.62405 -11.56199,-4.91992 -17.46611,-6.88796 -5.74011,-1.96803 -11.07014,-3.93599 -15.99024,-5.90403 -4.75609,-1.96804 -8.61054,-4.26442 -11.5626,-6.88847 -2.95206,-2.78805 -4.42764,-6.39606 -4.42764,-10.82414 0,-4.75609 1.96796,-8.3641 5.90404,-10.82415 3.93607,-2.62405 9.26611,-3.93619 15.99024,-3.93619 6.72413,0 12.71049,1.31214 17.95859,3.93619 5.4121,2.62405 10.74212,6.64194 15.99022,12.05405 l 25.0925,-24.84655 c -6.5601,-7.38014 -14.9243,-13.20203 -25.0925,-17.46612 -10.0042,-4.26408 -21.07464,-6.39599 -33.21088,-6.39599 z m -387.21202,0.0535 v 178.98436 h 38.62297 v -74.24014 h 4.03593 l 51.80717,74.24014 h 45.7569 l -55.69118,-75.56097 c 5.91124,-1.05171 11.38906,-2.69604 16.33027,-5.07514 8.85617,-4.26408 15.74428,-10.16795 20.66437,-17.7121 4.9201,-7.70815 7.38043,-16.6467 7.38043,-26.8149 0,-10.00419 -2.46033,-18.86025 -7.38043,-26.5684 -4.92009,-7.70815 -11.72622,-16.34626 -20.41839,-20.61034 -8.69217,-4.42809 -18.77839,-6.64249 -30.25862,-6.64249 h -32.22645 -9.10229 z m 153.75341,0 v 107.94247 c 0,13.77627 3.03417,26.07639 9.10228,36.90059 6.23212,10.66021 14.76028,19.02441 25.58449,25.09253 10.98821,6.06812 23.61623,9.10229 37.88451,9.10229 14.26827,0 26.81483,-3.03417 37.63904,-9.10229 10.82421,-6.06812 19.27039,-14.43232 25.33851,-25.09253 6.06812,-10.6602 9.10177,-22.87834 9.10177,-36.65461 V 548.74197 h -38.86843 v 110.40279 c 0,6.88813 -1.4761,12.87398 -4.42815,17.95808 -2.78806,4.92009 -6.64199,8.77403 -11.56209,11.56208 -4.92009,2.62405 -10.66053,3.9362 -17.22065,3.9362 -6.23212,0 -11.97204,-1.31215 -17.22014,-3.9362 -5.0841,-2.78805 -9.1025,-6.72397 -12.05456,-11.80806 -2.95206,-5.0841 -4.42815,-11.06995 -4.42815,-17.95808 V 548.74197 Z m 316.85459,0 v 178.98436 h 38.6224 v -75.22406 h 68.8816 v 75.22406 h 38.869 V 548.74197 h -38.869 v 70.30395 h -68.8816 v -70.30395 z m -431.98503,32.6649 h 27.79882 c 7.70815,0 13.61201,2.04993 17.71209,6.15001 4.10008,4.10008 6.15002,9.26616 6.15002,15.49828 0,6.72413 -2.13191,12.05468 -6.396,15.99076 -4.10008,3.93607 -10.00394,5.90403 -17.71209,5.90403 h -27.55284 z"
         sodipodi:nodetypes="sccscccccsscsccccscsccscccscsccccsccccccccscsscsccccsccssssccsccscssccccccccccccccccssscscc" />
      <g
         id="g10"
         style="stroke-width:1.15345">
        <path
           id="path7"
           style="fill:#000000;fill-opacity:1;stroke:none;stroke-width:34.6035;stroke-linecap:square;stroke-dasharray:none;stroke-opacity:1;paint-order:stroke fill markers"
           inkscape:transform-center-x="-1.2225725e-05"
           inkscape:transform-center-y="-85.434051"
           d="M 5.70779,215.12196 V 727.72633 H 467.16073 L 236.43427,471.42415 Z"
           sodipodi:nodetypes="ccccc" />
        <path
           id="path9"
           style="fill:#000000;fill-opacity:1;stroke:none;stroke-width:34.6035;stroke-linecap:square;stroke-dasharray:none;stroke-opacity:1;paint-order:stroke fill markers"
           inkscape:transform-center-x="-1.0076329e-05"
           inkscape:transform-center-y="-66.919922"
           d="m 236.43426,326.20676 v 401.51957 h 361.453 L 417.16078,526.96655 Z"
           sodipodi:nodetypes="ccccc" />
        <path
           id="path10"
           style="fill:#000000;fill-opacity:1;stroke:none;stroke-width:34.6035;stroke-linecap:square;stroke-dasharray:none;stroke-opacity:1;paint-order:stroke fill markers"
           inkscape:transform-center-x="-7.2886003e-06"
           inkscape:transform-center-y="-48.405778"
           d="m 445.97232,437.29162 v 290.43471 h 151.91494 l -2.04298,-123.94965 -19.14545,-21.2677 z"
           sodipodi:nodetypes="cccccc" />
      </g>
    </g>
  </g>
</svg>
