<?xml version="1.0" encoding="UTF-8" standalone="no"?>
<!-- Created with Inkscape (http://www.inkscape.org/) -->

<svg
   width="1080mm"
   height="1080mm"
   viewBox="0 0 1080 1080"
   version="1.1"
   id="svg1"
   inkscape:version="1.3.2 (091e20e, 2023-11-25, custom)"
   xml:space="preserve"
   inkscape:export-filename="TONE.png"
   inkscape:export-xdpi="96"
   inkscape:export-ydpi="96"
   sodipodi:docname="TONE.svg"
   xmlns:inkscape="http://www.inkscape.org/namespaces/inkscape"
   xmlns:sodipodi="http://sodipodi.sourceforge.net/DTD/sodipodi-0.dtd"
   xmlns="http://www.w3.org/2000/svg"
   xmlns:svg="http://www.w3.org/2000/svg"><sodipodi:namedview
     id="namedview1"
     pagecolor="#ffffff"
     bordercolor="#000000"
     borderopacity="0.25"
     inkscape:showpageshadow="2"
     inkscape:pageopacity="0.0"
     inkscape:pagecheckerboard="0"
     inkscape:deskcolor="#d1d1d1"
     inkscape:document-units="mm"
     inkscape:zoom="0.088174197"
     inkscape:cx="1746.5427"
     inkscape:cy="2183.1784"
     inkscape:window-width="1366"
     inkscape:window-height="705"
     inkscape:window-x="-8"
     inkscape:window-y="-8"
     inkscape:window-maximized="1"
     inkscape:current-layer="layer1" /><defs
     id="defs1" /><g
     inkscape:label="Layer 1"
     inkscape:groupmode="layer"
     id="layer1"><path
       id="text1"
       style="font-style:normal;font-variant:normal;font-weight:bold;font-stretch:normal;font-size:152.208px;line-height:1;font-family:Geoplace;-inkscape-font-specification:'Geoplace Bold';font-variant-ligatures:normal;font-variant-caps:normal;font-variant-numeric:normal;font-variant-east-asian:normal;letter-spacing:0px;word-spacing:0px;fill:#5b59c8;fill-opacity:1;stroke:none;stroke-width:5.54064;stroke-linecap:square;stroke-dasharray:none;stroke-opacity:1;paint-order:stroke fill markers"
       d="m 121.57744,472.49281 v 15.35076 h 92.62424 v 119.66362 h 17.27246 V 487.84357 h 92.62423 v -15.35076 z m 238.77318,0 c -9.11055,0 -15.75319,2.03461 -19.92888,6.10354 -4.04913,3.94562 -6.07426,10.35723 -6.07426,19.23487 v 10.28854 c 17.5905,11.50913 35.52521,25.55165 49.26591,42.16623 13.63048,16.48129 23.08597,35.74319 23.5662,57.2212 h 40.35393 c 1.51014,-7.39295 5.14576,-14.41774 10.09135,-20.61716 7.55084,-9.46519 18.1068,-17.1953 29.29061,-21.93647 7.33938,-3.11138 14.98135,-4.96629 22.26915,-4.99096 1.04111,-0.004 2.07508,0.0308 3.09979,0.10369 2.73261,0.19426 5.39928,0.66628 7.96546,1.44716 2.16939,0.66014 4.22209,1.61553 6.17922,2.75756 v -66.43979 c 0,-8.87764 -2.08752,-15.28925 -6.2632,-19.23487 -4.04914,-4.06893 -10.62938,-6.10354 -19.73996,-6.10354 h -3.90257 c -5.01734,5.47854 -9.74818,12.26021 -14.60904,18.84366 -6.35277,8.60407 -12.92808,16.96781 -21.75071,21.28 -8.82265,4.3122 -19.77082,3.731 -32.24537,-4.51006 l -0.0388,-0.0267 -0.0356,-0.0267 c -12.34208,-8.6131 -22.87611,-19.1747 -34.08693,-27.52538 -4.06498,-3.02792 -8.19896,-5.75153 -12.52703,-8.03478 z m 34.42916,0 c 1.08863,0.76006 2.17911,1.51828 3.24165,2.30974 11.77168,8.76847 22.23748,19.24029 33.86109,27.36062 11.10828,7.32953 18.44116,7.31561 25.14567,4.0387 6.7107,-3.27994 12.91334,-10.66698 19.14265,-19.10383 3.53133,-4.78279 7.08372,-9.85374 10.9291,-14.60523 z m 162.2077,0 c -3.92261,0 -6.76963,0.86341 -8.54113,2.58963 -1.64495,1.60291 -2.46748,4.31551 -2.46748,8.13784 v 124.28691 h 17.27245 V 486.73418 l 160.95329,120.77301 h 13.85588 c 3.92261,0 6.70598,-0.80097 8.35093,-2.40389 1.7715,-1.7262 2.6577,-4.50063 2.6577,-8.32293 V 472.49281 H 731.79665 V 593.26646 L 570.84337,472.49281 Z m 238.96339,0 c -9.11055,0 -15.75384,2.03461 -19.92952,6.10354 -4.04914,3.94562 -6.07364,10.35723 -6.07364,19.23487 v 84.33756 c 0,8.87764 2.0245,15.35106 6.07364,19.41998 4.17568,3.94562 10.81897,5.91843 19.92952,5.91843 H 958.42256 V 592.15643 H 797.08952 c -3.543,0 -6.07363,-0.7398 -7.59204,-2.21941 -1.51844,-1.4796 -2.27794,-3.9456 -2.27794,-7.39803 V 546.47375 H 906.98558 V 531.12236 H 787.21954 v -33.66135 c 0,-3.45243 0.7595,-5.91843 2.27794,-7.39803 1.51841,-1.47961 4.04904,-2.21941 7.59204,-2.21941 H 956.5244 v -15.35076 z m -461.60339,44.26032 v 65.41565 c 0,8.87764 2.02513,15.35106 6.07426,19.41998 4.17569,3.94562 10.81833,5.91843 19.92888,5.91843 h 39.74836 c -0.40748,-19.57198 -9.05392,-37.03527 -21.98672,-52.67297 -12.06092,-14.58347 -27.84854,-27.31826 -43.76478,-38.08109 z m 174.83906,50.38549 c -6.11724,0.0407 -12.86515,1.58226 -19.48487,4.38856 -10.08721,4.27629 -19.79944,11.42038 -26.49679,19.81566 -4.05728,5.08591 -6.96346,10.5712 -8.36811,16.16435 h 45.58917 c 9.11058,0 15.69082,-1.97281 19.73996,-5.91843 4.17568,-4.06892 6.2632,-10.54234 6.2632,-19.41998 v -9.31592 c -2.39559,-2.10466 -5.16854,-3.56905 -8.25678,-4.5088 -1.99895,-0.60827 -4.14861,-0.98069 -6.40442,-1.13037 -0.84593,-0.0561 -1.70746,-0.0809 -2.58136,-0.0751 z" /><text
       xml:space="preserve"
       style="font-style:normal;font-variant:normal;font-weight:bold;font-stretch:normal;font-size:152.208px;line-height:1;font-family:Geoplace;-inkscape-font-specification:'Geoplace Bold';font-variant-ligatures:normal;font-variant-caps:normal;font-variant-numeric:normal;font-variant-east-asian:normal;letter-spacing:0px;word-spacing:0px;fill:#89c859;fill-opacity:1;stroke:none;stroke-width:4.50107;stroke-linecap:square;stroke-dasharray:none;stroke-opacity:1;paint-order:stroke fill markers"
       x="-762.49274"
       y="318.86478"
       id="text4-1"
       transform="scale(1.0130331,0.98713457)"
       inkscape:export-filename=".\TONE.png"
       inkscape:export-xdpi="96"
       inkscape:export-ydpi="96"><tspan
         sodipodi:role="line"
         id="tspan4-8"
         style="font-style:normal;font-variant:normal;font-weight:bold;font-stretch:normal;font-size:152.208px;font-family:Geoplace;-inkscape-font-specification:'Geoplace Bold';font-variant-ligatures:normal;font-variant-caps:normal;font-variant-numeric:normal;font-variant-east-asian:normal;fill:#89c859;fill-opacity:1;stroke:none;stroke-width:4.50107;stroke-dasharray:none;stroke-opacity:1"
         x="-762.49274"
         y="318.86478">TONE</tspan></text></g></svg>
