<?xml version="1.0" encoding="UTF-8" standalone="no"?>
<!-- Created with Inkscape (http://www.inkscape.org/) -->

<svg
   width="540mm"
   height="360mm"
   viewBox="0 0 540 360"
   version="1.1"
   id="svg1"
   inkscape:version="1.3.2 (091e20e, 2023-11-25, custom)"
   xml:space="preserve"
   sodipodi:docname="Under Construction.svg"
   inkscape:export-filename="Under Construction.png"
   inkscape:export-xdpi="96"
   inkscape:export-ydpi="96"
   xmlns:inkscape="http://www.inkscape.org/namespaces/inkscape"
   xmlns:sodipodi="http://sodipodi.sourceforge.net/DTD/sodipodi-0.dtd"
   xmlns:xlink="http://www.w3.org/1999/xlink"
   xmlns="http://www.w3.org/2000/svg"
   xmlns:svg="http://www.w3.org/2000/svg"><sodipodi:namedview
     id="namedview1"
     pagecolor="#ffffff"
     bordercolor="#000000"
     borderopacity="0.25"
     inkscape:showpageshadow="2"
     inkscape:pageopacity="0.0"
     inkscape:pagecheckerboard="0"
     inkscape:deskcolor="#d1d1d1"
     inkscape:document-units="mm"
     inkscape:zoom="0.24939429"
     inkscape:cx="976.36558"
     inkscape:cy="811.96727"
     inkscape:window-width="1366"
     inkscape:window-height="705"
     inkscape:window-x="-8"
     inkscape:window-y="-8"
     inkscape:window-maximized="1"
     inkscape:current-layer="layer1" /><defs
     id="defs1"><pattern
       inkscape:collect="always"
       xlink:href="#Wave"
       preserveAspectRatio="xMidYMid"
       id="pattern9"
       patternTransform="rotate(60)"
       x="0"
       y="0" /><pattern
       patternUnits="userSpaceOnUse"
       width="24"
       height="10"
       preserveAspectRatio="xMidYMid"
       id="Wave"
       style="fill:#000000"
       x="0"
       y="0"
       inkscape:collect="always"
       inkscape:isstock="true"
       inkscape:label="Wave"><g
         id="wave_g"
         style="display:inline"><path
           d="M 12,-2 C 9.1666695,-2 7.1679672,-0.56445187 5.4179687,0.68554687 3.6679703,1.9355456 2.1666645,3 0,3 V 5 C 2.8333305,5 4.8320328,3.5644519 6.5820312,2.3144531 8.3320297,1.0644544 9.8333355,0 12,0 14.166665,0 15.667971,1.0644544 17.417969,2.3144531 19.167967,3.5644519 21.166669,5 24,5 V 3 C 21.833335,3 20.332029,1.9355456 18.582031,0.68554687 16.832033,-0.56445189 14.833331,-2 12,-2 Z"
           id="path8" /><path
           d="M 12,3 C 9.1666695,3 7.1679672,4.4355481 5.4179687,5.6855469 3.6679703,6.9355456 2.1666645,8 0,8 v 2 C 2.8333305,10 4.8320328,8.5644519 6.5820312,7.3144531 8.3320297,6.0644544 9.8333355,5 12,5 14.166665,5 15.667971,6.0644544 17.417969,7.3144531 19.167967,8.5644519 21.166669,10 24,10 V 8 C 21.833335,8 20.332029,6.9355456 18.582031,5.6855469 16.832033,4.4355481 14.833331,3 12,3 Z"
           id="path4" /><path
           d="M 12,8 C 9.1666695,8 7.1679672,9.4355481 5.4179687,10.685547 3.6679703,11.935546 2.1666645,13 0,13 v 2 C 2.8333305,15 4.8320328,13.564452 6.5820312,12.314453 8.3320297,11.064454 9.8333355,10 12,10 c 2.166665,0 3.667971,1.064454 5.417969,2.314453 C 19.167967,13.564452 21.166669,15 24,15 V 13 C 21.833335,13 20.332029,11.935546 18.582031,10.685547 16.832033,9.4355481 14.833331,8 12,8 Z"
           id="path5" /></g></pattern><linearGradient
       id="swatch3"
       inkscape:swatch="solid"><stop
         style="stop-color:#000000;stop-opacity:1;"
         offset="0"
         id="stop3" /></linearGradient><inkscape:path-effect
       effect="fillet_chamfer"
       id="path-effect3"
       is_visible="true"
       lpeversion="1"
       nodesatellites_param="F,0,0,1,0,9.94798,0,1 @ F,0,0,1,0,0,0,1 @ F,0,0,1,0,0,0,1 @ F,0,0,1,0,0,0,1 @ F,0,0,1,0,0,0,1 @ F,0,0,1,0,0,0,1"
       radius="0"
       unit="px"
       method="auto"
       mode="F"
       chamfer_steps="1"
       flexible="false"
       use_knot_distance="true"
       apply_no_radius="true"
       apply_with_radius="true"
       only_selected="false"
       hide_knots="false" /><inkscape:path-effect
       effect="fillet_chamfer"
       id="path-effect2"
       is_visible="true"
       lpeversion="1"
       nodesatellites_param="F,0,0,1,0,6.8892629,0,1 @ F,0,0,1,0,0,0,1 @ F,0,1,1,0,6.8892629,0,1 @ F,0,0,1,0,0,0,1 @ F,0,1,1,0,6.8892629,0,1 @ F,0,0,1,0,0,0,1"
       radius="0"
       unit="px"
       method="auto"
       mode="F"
       chamfer_steps="1"
       flexible="false"
       use_knot_distance="true"
       apply_no_radius="true"
       apply_with_radius="true"
       only_selected="false"
       hide_knots="false" /><inkscape:path-effect
       effect="fillet_chamfer"
       id="path-effect1"
       is_visible="true"
       lpeversion="1"
       nodesatellites_param="F,0,0,1,0,0,0,1 @ F,0,0,1,0,0,0,1 @ F,0,0,1,0,0,0,1 @ F,0,0,1,0,0,0,1 @ F,0,0,1,0,0,0,1 @ F,0,0,1,0,0,0,1"
       radius="0"
       unit="px"
       method="auto"
       mode="F"
       chamfer_steps="1"
       flexible="false"
       use_knot_distance="true"
       apply_no_radius="true"
       apply_with_radius="true"
       only_selected="false"
       hide_knots="false" /></defs><g
     inkscape:label="Layer 1"
     inkscape:groupmode="layer"
     id="layer1"><text
       xml:space="preserve"
       style="font-style:normal;font-variant:normal;font-weight:normal;font-stretch:normal;font-size:56.6388px;font-family:'Dream Story';-inkscape-font-specification:'Dream Story, Normal';font-variant-ligatures:normal;font-variant-caps:normal;font-variant-numeric:normal;font-variant-east-asian:normal;text-align:center;letter-spacing:0px;text-anchor:middle;fill:#000000;stroke-width:24.17;stroke-linecap:round;paint-order:stroke fill markers"
       x="270"
       y="269.31183"
       id="text1"><tspan
         sodipodi:role="line"
         id="tspan1"
         style="font-style:normal;font-variant:normal;font-weight:normal;font-stretch:normal;font-size:56.6388px;font-family:'Dream Story';-inkscape-font-specification:'Dream Story, Normal';font-variant-ligatures:normal;font-variant-caps:normal;font-variant-numeric:normal;font-variant-east-asian:normal;stroke-width:24.17"
         x="270"
         y="269.31183">Under Construction</tspan></text><path
       style="stroke:#000000;stroke-opacity:1;stroke-width:2.3;stroke-dasharray:none;fill-opacity:1;fill-rule:nonzero;fill:url(#pattern9)"
       d="m 227.41278,195.16282 c -1.23128,-0.14367 -2.27518,-0.465 -3.37392,-1.03857 -0.77312,-0.40358 -1.54659,-1.08109 -4.5107,-3.9511 -1.96766,-1.90519 -3.85094,-3.82513 -4.18505,-4.26652 -1.7297,-2.28509 -2.19861,-5.09634 -1.31403,-7.87806 0.68441,-2.15226 -0.72145,-0.82117 24.22149,-22.93326 12.5612,-11.13558 22.95191,-20.33938 23.09046,-20.45288 0.26888,-0.22025 0.51089,0.0421 -9.87988,-10.70939 l -1.91786,-1.98444 -1.55475,0.48236 c -2.99904,0.93046 -5.35508,1.28067 -8.64091,1.28441 -4.85286,0.006 -9.0599,-0.96858 -13.24258,-3.06619 -2.78186,-1.3951 -4.9164,-2.92438 -7.24335,-5.18944 -5.85091,-5.69531 -9.00454,-13.5188 -8.7193,-21.630718 0.0779,-2.214885 0.22101,-2.661556 1.07409,-3.352017 0.36929,-0.298891 0.66556,-0.410562 1.20874,-0.455606 1.40734,-0.116708 1.12561,-0.351583 9.0145,7.515315 l 7.26531,7.245056 7.38662,-2.0293 7.38661,-2.0293 1.80038,-7.107399 1.80038,-7.107401 -7.28072,-7.289344 c -4.0044,-4.009139 -7.34385,-7.458212 -7.42101,-7.664606 -0.43827,-1.172279 0.0366,-2.561544 1.07969,-3.158706 0.54911,-0.314364 0.70765,-0.334248 3.01307,-0.377876 7.59885,-0.143801 14.31966,2.349782 20.16143,7.480379 3.99493,3.508598 7.25117,8.890791 8.58786,14.19476 0.7214,2.862514 0.80383,3.610853 0.80383,7.297706 0,4.093967 -0.24457,5.757937 -1.35303,9.205607 l -0.34533,1.07412 0.77668,0.72548 c 0.42717,0.39901 3.61694,3.40987 7.08838,6.69079 3.47144,3.28093 6.3668,5.96532 6.43413,5.96532 0.0673,0 5.44312,-5.50376 11.9462,-12.23057 6.50308,-6.72681 12.57632,-12.992853 13.49609,-13.924537 1.58182,-1.602317 1.66043,-1.707093 1.45281,-1.936512 -0.51252,-0.566318 -0.92201,-1.753959 -0.92145,-2.67244 7e-4,-1.151712 0.34534,-2.073935 1.31336,-3.514366 1.39967,-2.082745 1.72313,-3.213796 1.60654,-5.617746 -0.20198,-4.164494 -2.82379,-8.04274 -7.55653,-11.177814 -3.4479,-2.283958 -7.73814,-3.907276 -13.35823,-5.054407 -2.92652,-0.59734 -3.56654,-0.78209 -3.75736,-1.084613 -0.20358,-0.322731 -0.0242,-0.577876 0.6189,-0.880151 2.41183,-1.133696 5.94056,-1.72221 9.49227,-1.583103 9.42654,0.3692 19.88711,5.564971 31.30405,15.548734 2.30262,2.013573 5.32474,4.93338 6.20967,5.999446 2.39209,2.881721 4.93672,6.648235 6.08124,9.001331 1.08626,2.233305 1.28899,2.950208 1.31935,4.665612 0.0243,1.371419 0.0546,1.522422 0.46768,2.332806 0.49574,0.972432 1.35746,2.33914 2.15871,3.42375 l 0.53535,0.72468 1.02811,-0.98225 c 1.40167,-1.33915 2.03077,-1.63372 3.48395,-1.63132 0.96944,0.002 1.23171,0.0536 1.81604,0.36027 0.87341,0.45835 1.70702,1.40608 1.99233,2.26506 0.2999,0.90292 0.209,2.35176 -0.19899,3.17149 -0.20761,0.41711 -1.88922,2.18594 -5.51983,5.80611 -5.9426,5.92551 -5.84404,5.85047 -7.68738,5.85276 -0.97323,0.001 -1.22943,-0.0491 -1.81604,-0.35699 -0.84963,-0.44587 -1.69698,-1.39142 -1.97309,-2.20176 -0.11548,-0.33892 -0.20938,-1.01044 -0.20866,-1.49226 0.002,-1.15835 0.41494,-2.03818 1.4764,-3.14358 l 0.81423,-0.84794 -1.83457,-1.36673 c -2.49764,-1.86072 -4.52817,-3.19229 -6.04906,-3.96683 -2.38547,-1.21485 -3.05142,-1.29758 -4.93926,-0.61364 -0.88834,0.32184 -1.13349,0.35503 -2.1995,0.29779 -1.42964,-0.0768 -2.43236,-0.44303 -3.85448,-1.40793 l -0.9504,-0.64483 -13.29434,13.74027 c -7.31189,7.55714 -13.28107,13.80025 -13.26483,13.87357 0.0162,0.0733 10.529,10.06499 23.36171,22.20372 24.13465,22.82947 23.98636,22.68331 25.42276,25.05884 0.62287,1.03012 1.24436,2.51736 1.60292,3.83583 0.37752,1.38818 0.40583,4.19866 0.056,5.55547 -0.84514,3.27743 -3.43388,6.35115 -6.6821,7.93391 -1.52272,0.74197 -2.48099,1.01529 -4.15443,1.18491 -3.38689,0.34329 -6.79627,-0.69621 -9.90906,-3.02122 -1.18442,-0.88467 0.81548,1.16244 -23.36398,-23.91542 l -19.493,-20.21727 -0.5512,0.55505 c -0.30316,0.30528 -9.44585,10.5128 -20.3171,22.68338 -10.87125,12.17059 -20.04109,22.32947 -20.37741,22.57531 -1.48741,1.08722 -3.81316,1.60625 -6.03558,1.34695 z m 100.17566,-8.17983 c 0.9246,-0.44417 1.97627,-1.45705 2.41806,-2.32888 1.34163,-2.64758 0.28861,-5.70362 -2.42792,-7.0462 -0.94888,-0.46896 -1.09516,-0.50196 -2.22238,-0.50134 -1.07675,5.9e-4 -1.3025,0.046 -2.09706,0.42184 -1.67439,0.79201 -2.72407,2.14381 -3.05366,3.93255 -0.45668,2.47848 1.16211,5.01136 3.74412,5.85833 0.18329,0.0601 0.90313,0.0926 1.59964,0.0721 1.06447,-0.0312 1.3896,-0.0964 2.0392,-0.40844 z"
       id="path3" /></g></svg>
