<?xml version="1.0" encoding="UTF-8" standalone="no"?>
<!-- Created with Inkscape (http://www.inkscape.org/) -->

<svg
   width="1080mm"
   height="1080mm"
   viewBox="0 0 1080 1080"
   version="1.1"
   id="svg1"
   inkscape:version="1.3.2 (091e20e, 2023-11-25, custom)"
   sodipodi:docname="VERA.svg"
   inkscape:export-filename="VERA.png"
   inkscape:export-xdpi="96"
   inkscape:export-ydpi="96"
   xmlns:inkscape="http://www.inkscape.org/namespaces/inkscape"
   xmlns:sodipodi="http://sodipodi.sourceforge.net/DTD/sodipodi-0.dtd"
   xmlns="http://www.w3.org/2000/svg"
   xmlns:svg="http://www.w3.org/2000/svg">
  <sodipodi:namedview
     id="namedview1"
     pagecolor="#ffffff"
     bordercolor="#000000"
     borderopacity="0.25"
     inkscape:showpageshadow="2"
     inkscape:pageopacity="0.0"
     inkscape:pagecheckerboard="0"
     inkscape:deskcolor="#d1d1d1"
     inkscape:document-units="mm"
     showgrid="false"
     inkscape:zoom="0.12469715"
     inkscape:cx="1587.847"
     inkscape:cy="2313.6054"
     inkscape:window-width="1366"
     inkscape:window-height="705"
     inkscape:window-x="-8"
     inkscape:window-y="-8"
     inkscape:window-maximized="1"
     inkscape:current-layer="layer1" />
  <defs
     id="defs1" />
  <g
     inkscape:label="Layer 1"
     inkscape:groupmode="layer"
     id="layer1">
    <path
       id="text1"
       style="font-style:normal;font-variant:normal;font-weight:normal;font-stretch:normal;font-size:360.792px;line-height:1;font-family:Vogue;-inkscape-font-specification:Vogue;text-decoration-color:#000000;letter-spacing:0px;fill:#000000;fill-opacity:1;stroke-width:50.0001;paint-order:stroke fill markers"
       d="m 836.39081,413.1815 -31.74949,105.35119 c -10.58322,34.87652 -21.0466,69.87344 -31.38929,104.99049 -1.92423,5.77267 -3.60769,10.58323 -5.05086,14.43168 -1.44316,3.60791 -3.24732,6.37398 -5.41207,8.2982 -2.16475,1.92422 -4.93081,3.24717 -8.2982,3.96875 -3.36739,0.72158 -7.69675,1.08262 -12.98836,1.08262 v 6.13348 h 63.86019 v -6.13348 h -4.32945 -0.36071 -0.3607 -0.36121 -0.36071 -0.7214 -1.80402 c -3.36739,0 -6.61467,-0.24086 -9.74153,-0.72192 -3.12686,-0.72158 -5.89292,-1.80366 -8.2982,-3.24683 -2.16475,-1.44317 -3.24683,-3.60784 -3.24683,-6.49418 0,-1.68369 0.60139,-4.81079 1.80402,-9.38082 1.20264,-4.57003 2.52559,-9.62094 3.96875,-15.15308 l 5.05086,-16.5964 c 1.68369,-5.53214 3.12681,-10.10236 4.32945,-13.71028 l 88.39409,65.30351 h -24.1732 v 6.13348 h 86.22936 v -6.13348 h -15.875 L 848.65776,413.1815 Z m -697.7724,3.60805 v 6.13347 h 19.12235 l 79.01326,243.89519 70.71507,-215.75324 c 2.16475,-6.73477 3.9689,-12.02655 5.41207,-15.875 1.44317,-3.84844 3.12663,-6.6145 5.05085,-8.2982 1.92423,-1.92422 4.44994,-3.00682 7.5768,-3.24734 3.12686,-0.48106 7.57691,-0.72141 13.34958,-0.72141 h 2.52542 0.3607 17.67903 v 228.38141 h -18.03973 v 6.13348 h 181.11763 v -71.07628 h -6.13348 c 0,16.11535 -2.0445,28.50255 -6.13347,37.16155 -4.08897,8.659 -9.6211,15.03338 -16.5964,19.12235 -6.97531,3.84844 -15.2735,6.13329 -24.89461,6.85488 -9.38058,0.48105 -19.6031,0.7214 -30.66738,0.7214 H 403.07927 V 539.09784 h 21.28708 c 5.29161,0 9.98148,0.48122 14.07045,1.44333 4.08898,0.72158 7.57712,2.52574 10.46345,5.41207 2.88633,2.6458 5.05101,6.73481 6.49418,12.26695 1.68369,5.29161 2.6456,12.5072 2.88612,21.64726 h 5.77278 v -90.91952 h -5.77278 c -0.24052,10.10217 -1.3226,18.03984 -3.24683,23.8125 -1.92422,5.53214 -4.81097,9.62115 -8.65942,12.26695 -3.84844,2.64581 -8.65901,4.2091 -14.43167,4.69016 -5.53214,0.48105 -12.02617,0.7214 -19.48253,0.7214 h -9.38083 v -106.4333 h 31.75 c 10.3427,0 19.96383,0.24035 28.86336,0.72141 9.14005,0.24052 17.19738,2.04416 24.17268,5.41155 7.21583,3.12686 13.22917,8.29847 18.03973,15.5143 5.05108,6.97531 8.5387,17.07765 10.46292,30.30668 h 6.13348 l -0.3607,-59.17003 h -180.39623 -0.3607 -66.02491 v 6.13347 h 5.77278 0.7214 0.7214 0.72192 1.08211 c 2.88633,0 5.65239,0.36104 8.2982,1.08262 2.88633,0.72159 5.1717,1.92384 6.85539,3.60754 1.92423,1.44316 2.88613,3.72853 2.88613,6.85539 0,1.20264 -0.12017,2.76593 -0.3607,4.69015 -0.24053,1.6837 -0.84191,4.44976 -1.80402,8.29821 -0.96211,3.84844 -2.52541,9.14022 -4.69016,15.875 -1.92422,6.49424 -4.69028,15.27313 -8.2982,26.33741 -3.60791,11.06427 -8.05796,24.65424 -13.34957,40.7696 -5.29161,16.11536 -11.78564,35.59849 -19.48253,58.44863 L 204.28262,422.92302 h 23.0911 v -6.13347 z m 404.08748,0 v 6.13347 h 19.84375 v 228.38141 h -19.84375 v 6.13348 h 81.53921 v -6.13348 H 602.23663 V 535.12909 c 7.21583,0 14.19159,0.36104 20.92637,1.08262 6.73477,0.48106 12.74759,2.16453 18.03921,5.05086 5.53213,2.6458 10.10235,6.8555 13.71027,12.62817 3.84844,5.77267 6.37416,13.82999 7.5768,24.17268 0.48105,3.36739 0.84157,6.61467 1.0821,9.74153 0.24053,3.12686 0.48088,6.13327 0.72141,9.0196 0.72158,9.38058 1.56383,17.91964 2.52594,25.61653 1.20264,7.69688 3.36732,14.31109 6.49418,19.84323 3.36739,5.53214 8.05778,9.86201 14.07097,12.98887 6.0132,3.12686 14.31139,4.69015 24.89461,4.69015 4.08897,0 8.0578,-0.36052 11.90625,-1.0821 4.08897,-0.72158 8.17798,-2.04453 12.26695,-3.96875 l -2.16524,-5.41207 c -0.24053,0.24052 -0.48088,0.3607 -0.72141,0.3607 l -5.77277,2.16472 c -1.92422,0.48106 -3.96873,0.72192 -6.13348,0.72192 -3.36739,0 -6.01327,-0.96242 -7.9375,-2.88664 -1.92422,-2.16475 -3.36734,-4.93081 -4.32945,-8.2982 -0.96211,-3.60792 -1.68367,-7.69693 -2.16472,-12.26695 -0.24053,-4.81056 -0.48088,-9.86147 -0.72141,-15.15308 -0.24052,-7.45637 -0.72174,-15.27386 -1.44332,-23.4518 -0.72158,-8.41847 -2.52522,-16.35563 -5.41156,-23.81199 -2.88633,-7.45636 -7.2162,-14.07108 -12.98887,-19.84375 -5.53214,-6.01319 -13.34911,-10.34255 -23.45128,-12.98835 v -3.96875 c 6.49425,-1.44317 12.62776,-3.60785 18.40043,-6.49418 5.77266,-2.88633 10.82358,-6.49413 15.15308,-10.82363 4.3295,-4.57002 7.69695,-9.98198 10.10222,-16.2357 2.64581,-6.25372 3.96875,-13.59 3.96875,-22.00847 0,-11.06428 -1.92433,-20.2042 -5.77277,-27.42004 -3.60792,-7.45636 -8.41848,-13.34952 -14.43168,-17.67902 -5.77266,-4.57003 -12.50756,-7.8173 -20.20445,-9.74152 -7.69689,-1.92423 -15.51386,-2.88613 -23.45128,-2.88613 z m 59.53074,6.13347 h 10.46292 c 7.69689,0 14.913,0.84174 21.64778,2.52543 6.73477,1.44317 12.62794,4.20923 17.67902,8.2982 5.05108,3.84845 9.0194,9.2604 11.90573,16.2357 2.88634,6.97531 4.32946,15.87488 4.32946,26.69863 0,9.62111 -1.5633,17.79913 -4.69016,24.5339 -3.12686,6.49425 -7.21587,11.90621 -12.26695,16.23571 -5.05108,4.08897 -10.94373,7.09538 -17.67851,9.0196 -6.49425,1.92422 -13.10897,2.88665 -19.84375,2.88665 h -11.54554 z"
       sodipodi:nodetypes="ccccssccccccccccsccsscsccccccccccccccsccscccccccccsccsccsccccccccscsccsccccccccccccccsccscscsscccccccccccccccccccscccsscccccscccccscccsccsccssccsccsscccscccc" />
  </g>
</svg>
