<?xml version="1.0" encoding="UTF-8" standalone="no"?>
<!-- Created with Inkscape (http://www.inkscape.org/) -->

<svg
   width="1313.0776mm"
   height="601.21704mm"
   viewBox="0 0 1313.0777 601.21704"
   version="1.1"
   id="svg1"
   inkscape:version="1.4 (86a8ad7, 2024-10-11)"
   xml:space="preserve"
   sodipodi:docname="MALIKS rebrand.svg"
   inkscape:export-batch-path="portfolio bg"
   inkscape:export-batch-name="MALIKS bg - "
   xmlns:inkscape="http://www.inkscape.org/namespaces/inkscape"
   xmlns:sodipodi="http://sodipodi.sourceforge.net/DTD/sodipodi-0.dtd"
   xmlns:xlink="http://www.w3.org/1999/xlink"
   xmlns="http://www.w3.org/2000/svg"
   xmlns:svg="http://www.w3.org/2000/svg"><sodipodi:namedview
     id="namedview1"
     pagecolor="#ffffff"
     bordercolor="#000000"
     borderopacity="0.25"
     inkscape:showpageshadow="2"
     inkscape:pageopacity="0.0"
     inkscape:pagecheckerboard="0"
     inkscape:deskcolor="#d1d1d1"
     inkscape:document-units="mm"
     inkscape:zoom="0.061613621"
     inkscape:cx="-5055.7003"
     inkscape:cy="9859.8328"
     inkscape:window-width="1366"
     inkscape:window-height="705"
     inkscape:window-x="-8"
     inkscape:window-y="-8"
     inkscape:window-maximized="1"
     inkscape:current-layer="layer1"
     showguides="false"><inkscape:page
       x="-1.0136562e-12"
       y="0"
       width="1313.0778"
       height="601.21704"
       id="page2"
       margin="0"
       bleed="0" /></sodipodi:namedview><defs
     id="defs1"><linearGradient
       id="swatch73"
       inkscape:swatch="solid"><stop
         style="stop-color:#ffffff;stop-opacity:1;"
         offset="0"
         id="stop73" /></linearGradient><linearGradient
       id="swatch72"
       inkscape:swatch="solid"><stop
         style="stop-color:#ec1c24;stop-opacity:1;"
         offset="0"
         id="stop72" /></linearGradient></defs><g
     inkscape:label="Layer 1"
     inkscape:groupmode="layer"
     id="layer1"
     transform="translate(1959.4173,-2573.5012)"><g
       id="g32"
       transform="matrix(2.0135637,0,0,2.0135637,-13276.198,-2416.7396)"
       style="fill:#000000;fill-opacity:1;stroke-width:0.496632"
       inkscape:export-filename="g32.svg"
       inkscape:export-xdpi="96"
       inkscape:export-ydpi="96"><g
         id="text1"
         style="font-size:138.909px;line-height:1.1;font-family:Outfit;-inkscape-font-specification:Outfit;text-align:justify;letter-spacing:0px;fill:#000000;fill-opacity:1;stroke-width:2.9798;paint-order:stroke fill markers"
         aria-label="Let's Share&#10;Smiles"><path
           style="font-family:'Regular Brush';-inkscape-font-specification:'Regular Brush';fill:#000000;fill-opacity:1;stroke-width:2.97979"
           d="m 5641.2497,2604.0122 -1.9447,0.5556 c -4.3062,1.1113 -10.5571,3.1949 -12.0851,4.1673 -1.8058,1.1112 -3.7505,4.0283 -4.0283,5.973 -0.2778,2.7782 -0.4168,3.195 -0.9724,3.6117 -0.5556,0.2778 -0.5556,0.4167 0,0.8334 0.4167,0.1389 0.2778,0.4168 -0.6945,0.8335 -0.8335,0.4167 -1.2502,0.9724 -1.2502,1.8058 0,0.8335 0.2778,1.3891 0.5556,1.3891 0.2778,0 0.4167,0.1389 0.2778,0.2778 -0.1389,0.1389 -0.1389,0.5557 0.1389,0.8335 0.8335,0.9723 3.7506,0.8334 6.251,-0.1389 9.4458,-3.7506 31.1156,-7.5011 51.3963,-8.7513 9.5847,-0.5556 29.032,-0.5556 34.7272,0 4.0284,0.4167 5.8342,0.2778 6.9455,-0.5556 0.9723,-0.8335 2.7782,-5.0008 2.2225,-5.4175 -0.2778,-0.1389 -0.2778,-0.4167 -0.1389,-0.6945 0.1389,-0.2779 -0.2778,-0.5557 -0.9723,-0.6946 -1.2502,-0.1389 -1.2502,-0.1389 -0.2779,-0.5556 0.5557,-0.1389 0.9724,-0.5557 0.9724,-0.8335 -0.1389,-0.2778 0.2778,-0.9723 0.8334,-1.528 1.9448,-1.9447 1.2502,-5.4174 -1.389,-6.6676 -2.3615,-1.1113 -14.4466,-1.8058 -27.0873,-1.528 -12.5018,0.4167 -32.5047,2.5004 -39.8669,4.3062 l -1.1112,0.2778 0.2778,-4.7229 c 0.2778,-5.8342 1.8058,-11.9462 5.2785,-22.5033 4.8618,-14.5854 9.5847,-24.5869 18.7527,-39.589 6.2509,-10.1404 15.28,-23.1978 19.7251,-28.3375 3.1949,-3.8894 6.8065,-12.0851 5.2785,-12.0851 -0.2778,0 -0.5556,-0.5556 -0.8334,-1.1112 -0.2778,-1.2502 -1.3891,-1.8058 -2.3615,-1.1113 -0.6945,0.5556 -0.6945,0.5556 -0.1389,-0.1389 0.4168,-0.6945 0.4168,-0.9724 0.1389,-1.3891 -0.2778,-0.2778 -0.5556,-0.2778 -0.5556,-0.1389 -0.1389,0.2778 -0.2778,-0.2778 -0.6945,-1.3891 -0.9724,-3.1949 -3.8895,-3.6116 -8.1957,-0.9724 -4.0283,2.6393 -16.808,19.7251 -27.9207,37.7833 -7.5011,12.0851 -12.0851,21.1142 -16.808,33.616 -5.4174,14.0298 -7.64,22.5032 -7.9178,31.3934 -0.4167,6.5287 0.1389,8.7513 2.3615,11.6684 z m 17.2248,7.7789 c -0.6946,0 -0.8335,-0.1389 -0.5557,-0.2779 0.2778,-0.1389 0.8335,-0.1389 1.1113,0 0.2778,0.139 0,0.2779 -0.5556,0.2779 z m 35.1439,-3.056 c -7.3621,0.2778 -21.392,1.528 -27.5039,2.2225 -4.584,0.4167 -6.9455,0.4167 -3.7506,-0.1389 8.0567,-1.3891 25.1425,-2.6393 33.0603,-2.6393 l 5.0008,0.1389 z m 6.9455,-6.3899 c 0.8334,0 2.2225,0 3.1949,0 0.8334,0.139 0.2778,0.2779 -1.528,0.2779 -1.6669,0 -2.5004,-0.1389 -1.6669,-0.2779 z m 16.9469,2.6393 c 0.6945,0.2778 -0.5557,0.2778 -3.1949,0.1389 -2.3615,-0.2778 -9.8626,-0.4167 -16.6691,-0.4167 -6.6676,0 -14.3076,0.1389 -16.9469,0.4167 -6.3898,0.4168 -3.1949,-0.4167 4.1673,-0.9723 10.1403,-0.8335 29.7265,-0.4168 32.6436,0.8334 z m -28.3375,-5.6953 c 0.8335,-0.1389 2.0837,-0.1389 2.7782,0 0.6946,0 0,0.139 -1.528,0.139 -1.528,0 -2.0836,-0.139 -1.2502,-0.139 z m -13.7519,1.2502 c 3.6116,-0.5556 7.3621,-0.9723 8.6123,-0.8334 1.6669,0 0.9724,0.1389 -2.2225,0.5556 -2.5004,0.2778 -6.3898,0.6946 -8.6124,0.8335 -3.6116,0.1389 -3.3338,0.1389 2.2226,-0.5557 z m -7.5011,0.9724 c 0.2778,-0.1389 0.6945,-0.1389 0.8334,0 0.1389,0.1389 -0.1389,0.2778 -0.5556,0.2778 -0.5556,0 -0.6946,-0.1389 -0.2778,-0.2778 z m -12.7797,8.4734 c 1.1113,-0.4167 11.6684,-1.9447 19.5862,-2.7781 7.2233,-0.8335 39.1723,-0.8335 41.1171,0 1.2502,0.4167 1.1112,0.4167 -0.8335,0.2778 -1.2502,-0.2778 -7.9178,-0.2778 -15.0022,-0.4167 -12.6407,0 -23.8923,0.6945 -36.9497,2.2225 -3.195,0.4167 -6.3899,0.8335 -7.3622,0.9724 -1.2502,0.1389 -1.3891,0.1389 -0.5557,-0.2779 z m -0.5556,-27.7818 c -0.4167,1.3891 -1.2502,4.8619 -1.8058,7.64 -0.5556,2.6393 -1.1113,4.4451 -1.1113,3.7506 0,-2.0837 3.056,-14.7244 3.4727,-14.3076 0.1389,0.1389 -0.1389,1.389 -0.5556,2.917 z m 2.5004,-8.4734 c -0.5557,0.8334 -0.5557,0 0,-1.1113 0.2778,-0.6945 0.4167,-0.6945 0.4167,-0.2778 0,0.4167 -0.1389,0.9724 -0.4167,1.3891 z m 2.6392,-16.6691 c 0,0.2778 -0.2778,0.9724 -0.5556,1.6669 -0.4167,0.5557 -0.6945,0.9724 -0.6945,0.6946 0,-0.2779 0.2778,-0.9724 0.6945,-1.6669 0.2778,-0.5557 0.5556,-0.8335 0.5556,-0.6946 z m 3.4728,-7.3622 c -0.8335,1.6669 -1.1113,2.0837 -1.1113,1.528 0,-0.4167 1.3891,-2.9171 1.6669,-2.9171 0,0 -0.1389,0.6946 -0.5556,1.3891 z m 3.8894,-7.3621 c -0.2778,0.5556 -0.5556,0.9723 -0.6945,0.9723 -0.1389,0 0,-0.4167 0.2778,-0.9723 0.2778,-0.4168 0.5556,-0.8335 0.6945,-0.8335 0.1389,0 0,0.4167 -0.2778,0.8335 z m 3.6116,-6.2509 c -0.2778,0.4167 -0.5556,0.8334 -0.6945,0.8334 -0.1389,0 0,-0.4167 0.2778,-0.8334 0.2778,-0.5557 0.5557,-0.9724 0.6946,-0.9724 0.1389,0 0,0.4167 -0.2779,0.9724 z m 1.3891,-2.3615 c -0.2778,0.5556 -0.5556,0.9724 -0.6945,0.9724 -0.1389,0 0,-0.4168 0.2778,-0.9724 0.2778,-0.4167 0.5556,-0.8335 0.6946,-0.8335 0.1389,0 0,0.4168 -0.2779,0.8335 z m 1.3891,-2.2225 c -0.2778,0.4167 -0.6945,0.8334 -0.6945,0.8334 -0.1389,0 -0.1389,-0.4167 0.1389,-0.8334 0.2778,-0.5557 0.6945,-0.9724 0.8334,-0.9724 0,0 0,0.4167 -0.2778,0.9724 z m 5.5564,-8.6124 c -0.4167,0.8335 -1.1113,1.6669 -1.528,1.9447 -0.2778,0.2778 0,-0.2778 0.6945,-1.3891 1.3891,-2.2225 2.0837,-2.6392 0.8335,-0.5556 z m 12.5018,-12.224 c -0.5556,0.6946 -0.9724,1.2502 -1.1113,1.2502 -0.1389,0 0.1389,-0.5556 0.6946,-1.2502 0.5556,-0.8334 1.1112,-1.3891 1.2502,-1.3891 0.1389,0 -0.2779,0.5557 -0.8335,1.3891 z m 0.5556,-6.2509 c -0.5556,0.6945 -0.9723,0.9724 -0.9723,0.5556 0,-0.1389 0.4167,-0.4167 0.8334,-0.8334 0.6946,-0.5556 0.6946,-0.5556 0.1389,0.2778 z m 1.528,-1.9447 c -0.4167,0.4167 -0.9723,0.8334 -1.1112,0.8334 0,0 0.1389,-0.4167 0.6945,-0.8334 0.4167,-0.5557 0.8335,-0.9724 0.9724,-0.9724 0.1389,0 -0.1389,0.4167 -0.5557,0.9724 z m 6.3898,-3.3338 c -0.5556,1.2501 -1.6669,2.7781 -2.2225,3.4727 -0.8335,0.8334 -0.4167,0 0.8335,-2.0836 2.3614,-3.8895 3.056,-4.723 1.389,-1.3891 z m -1.8058,-5.6953 c 0.1389,-0.1389 0.2778,-0.1389 0.4168,0 0.1389,0.2778 -1.2502,2.3614 -3.195,4.7229 -13.0574,16.6691 -25.5592,35.4218 -32.3657,49.0349 -5.4175,10.8349 -10.8349,25.4203 -13.752,36.672 -0.6946,3.0559 -1.3891,5.5563 -1.528,5.6952 -0.1389,0.1389 -0.2779,-0.1389 0,-0.6945 0.1389,-0.4168 0.4167,-2.2226 0.6945,-3.7506 1.2502,-7.0843 6.112,-21.253 10.696,-31.6712 7.2233,-15.9746 20.1418,-36.2553 35.2829,-55.2858 1.9447,-2.5004 3.7505,-4.7229 3.7505,-4.7229 z m -1.528,-0.9724 c 0.4168,-0.2778 -0.8334,1.3891 -2.7781,3.7506 -10.5571,12.6407 -24.0313,32.6436 -32.088,47.9236 -7.5011,14.0298 -14.5855,34.7272 -16.1135,46.9512 -0.2778,2.3615 -0.5556,4.3062 -0.6945,4.3062 -0.1389,0 -0.1389,-1.6669 0,-3.8895 0.5556,-9.7236 5.8342,-26.3927 13.4742,-42.5061 3.4727,-7.5011 10.6959,-19.864 18.3359,-31.1156 6.9455,-10.5571 17.7804,-24.3091 19.864,-25.4204 z m -5.6952,3.6117 c 0.5556,-0.5557 -0.6946,1.3891 -3.056,4.3061 -4.8619,6.2509 -11.3906,15.5579 -15.1411,21.2531 -1.3891,2.2226 -2.6393,3.8895 -2.7782,3.8895 -1.1113,0 17.9193,-26.6706 20.9753,-29.4487 z m -26.1149,37.5054 c 0.9723,-1.9447 4.1672,-6.6676 4.3061,-6.6676 0.139,0 -0.1389,0.5556 -0.5556,1.2501 -0.4167,0.6946 -1.528,2.5004 -2.3614,3.8895 -1.528,2.5004 -2.5004,3.6116 -1.3891,1.528 z m -2.7782,4.7229 c 0.2778,-0.5556 0.5556,-0.9724 0.6945,-0.9724 0.1389,0 0,0.4168 -0.2778,0.9724 -0.2778,0.4167 -0.5556,0.8335 -0.6945,0.8335 -0.1389,0 0,-0.4168 0.2778,-0.8335 z m -3.6116,7.0844 c 0.2778,-0.2779 0.2778,0 0.1389,0.4167 -0.2779,0.6945 -0.5557,0.8334 -0.5557,0.2778 0,-0.2778 0.1389,-0.5556 0.4168,-0.6945 z m -10.0015,23.4756 c 2.3615,-6.8066 7.9178,-20.0029 8.7513,-20.8364 0.1389,-0.2778 -0.1389,0.8335 -0.8335,2.2226 -5.0007,11.2516 -10.1403,26.6705 -11.8072,35.2829 -0.5557,2.5003 -0.9724,4.445 -1.2502,4.445 -0.8335,0 2.2225,-12.3629 5.1396,-21.1141 z m -5.4174,22.2254 c 0,-0.5556 0.1389,-0.5556 0.2778,-0.2778 0.1389,0.4167 0.1389,0.6945 0,0.8335 -0.1389,0.2778 -0.2778,0 -0.2778,-0.5557 z m 145.1599,-27.0872 c -0.4167,0 -0.8335,-0.2779 -0.8335,-0.5557 -0.4167,-1.1112 -3.0559,1.528 -6.3898,5.9731 -7.2232,9.5847 -18.197,21.5309 -24.1701,25.976 -6.2509,4.7229 -12.3629,7.2233 -17.3637,7.2233 -3.3338,0 -4.0283,-0.2779 -5.0007,-2.0837 -1.528,-3.3338 -1.3891,-6.5287 0.5557,-12.6407 0.5556,-1.9447 0.8334,-2.0836 1.6669,-1.8058 2.0836,0.8334 6.8065,0.4167 9.4458,-0.8335 5.8342,-2.6392 13.8909,-10.0014 18.4749,-16.8079 2.5003,-3.7506 4.1672,-8.8902 4.584,-13.3353 0.2778,-4.1673 -0.8335,-6.8066 -3.6117,-8.7513 -0.9723,-0.8334 -2.2225,-1.9447 -2.7781,-2.5003 -2.0837,-2.7782 -7.7789,-3.3339 -13.3353,-1.2502 -6.8065,2.6392 -15.28,10.1403 -20.9753,18.7527 -10.1403,15.4189 -12.3629,27.6429 -6.3898,36.5331 2.2226,3.1949 5.4175,6.3898 7.64,7.501 1.1113,0.5557 2.6393,1.528 3.6116,2.2226 0.8335,0.6945 2.6393,1.6669 3.8895,1.9447 4.584,1.3891 9.168,0.8335 14.4465,-1.6669 9.7237,-4.7229 22.7811,-18.8916 34.7273,-37.5054 2.0836,-3.3338 2.9171,-6.3898 1.8058,-6.3898 z m -23.8923,-4.8619 c 0.1389,-0.5556 0.2778,-0.5556 0.4167,-0.1389 0,0.4168 -0.2778,0.9724 -0.4167,1.3891 -0.5557,0.8335 -0.5557,0 0,-1.2502 z m -1.9448,4.584 c 1.2502,-2.3614 1.3891,-2.3614 0.6946,0.2779 -0.1389,0.4167 0.1389,0.1389 0.4167,-0.5557 1.2502,-1.9447 1.3891,-1.528 0.2778,0.6946 -1.2502,2.5003 -2.7782,4.4451 -3.056,4.1672 -0.1389,-0.1389 -0.6945,0.139 -1.1113,0.5557 -0.6945,0.5556 -0.5556,0.2778 0.2779,-0.8335 0.5556,-0.8334 1.8058,-2.7782 2.5003,-4.3062 z m -23.1978,0 c 0,-0.5556 5.4175,-7.0843 5.8342,-7.0843 0,0 -1.1113,1.6669 -2.6393,3.6116 -3.3338,4.1673 -3.1949,4.0284 -3.1949,3.4727 z m 5.8342,4.723 c 5.8342,-8.6124 11.6684,-15.0022 15.5578,-16.9469 1.9447,-0.9724 2.0836,-0.4168 1.1113,4.0283 -1.9447,10.0015 -9.8626,20.0029 -19.0305,24.448 -2.5004,1.2502 -4.723,1.6669 -4.723,0.9724 0,-0.6946 4.723,-9.0291 7.0844,-12.5018 z m -19.5862,14.4465 c -0.6945,2.2225 -1.3891,4.1673 -1.528,4.3062 -0.6945,0.6945 1.6669,-8.0568 2.6393,-9.5848 0.5556,-0.8334 0.4167,-0.1389 -1.1113,5.2786 z m 0.1389,7.2233 0.2779,-3.195 c 0,-1.6669 0.5556,-4.1672 0.9723,-5.4174 0.8335,-2.6393 1.8058,-3.8895 1.3891,-1.8058 -0.2778,0.6945 -0.8334,3.3338 -1.528,5.8342 z m 2.3615,-1.9448 c -0.1389,-1.1112 1.3891,-6.6676 1.8058,-7.0843 0.2778,-0.2778 0.4167,-0.2778 0.4167,0.1389 0,0.9723 -2.2225,7.64 -2.2225,6.9454 z m 5.1396,-0.8334 c -0.2778,0.8334 -0.5556,2.2225 -0.9723,3.1949 l -0.5557,1.8058 0.2778,-1.8058 c 0.139,-0.9724 0.5557,-2.3615 0.8335,-3.056 l 0.6945,-1.3891 z m 49.8684,-15.0022 c -0.2779,0.4167 -0.6946,0.6945 -0.8335,0.5556 -0.1389,-0.1389 -0.5556,0 -0.9724,0.2779 -0.6945,0.5556 -0.6945,0.5556 -0.1389,-0.2779 0.4168,-0.4167 0.8335,-0.6945 0.9724,-0.5556 0,0.1389 0.5556,0 0.8335,-0.2778 0.6945,-0.5556 0.6945,-0.5556 0.1389,0.2778 z m 0.8334,-3.4727 c 0,-0.1389 0.4167,-0.5557 0.8335,-0.8335 0.6945,-0.5556 0.6945,-0.5556 0.1389,0.1389 -0.5557,0.8335 -0.9724,0.9724 -0.9724,0.6946 z m 1.528,0.2778 c -0.6945,0.6945 -0.9723,0.9724 -0.9723,0.5556 0,-0.1389 0.2778,-0.4167 0.6945,-0.8334 0.6945,-0.5557 0.8334,-0.5557 0.2778,0.2778 z m 2.3615,-3.4727 c -0.4168,0.6945 -0.6946,0.8334 -0.6946,0.1389 0,-0.2778 -0.2778,-0.4167 -0.5556,-0.1389 -0.2778,0.1389 -0.4167,0.1389 -0.1389,-0.1389 0.5556,-0.6946 1.528,-0.5557 1.3891,0.1389 z m -25.6982,0.8334 c 0.5556,-0.9723 0.9724,-1.8058 0.8335,-1.9447 -0.2779,-0.1389 -2.2226,2.7782 -2.2226,3.3338 0,0.5557 0.5556,0 1.3891,-1.3891 z m 110.5714,-49.3127 c -1.528,-0.8334 -12.3629,-0.8334 -28.7541,0 -5.5564,0.2779 -10.1404,0.4168 -10.2793,0.4168 -0.1389,-0.1389 0.1389,-1.528 0.6946,-3.056 0.8334,-2.6393 0.8334,-4.4451 0,-3.8895 -0.2779,0.1389 -0.4168,-0.1389 -0.4168,-0.5556 0,-0.9724 -1.2502,-2.0837 -1.8058,-1.8058 -0.2778,0.1389 -0.5556,0 -0.5556,-0.4168 0,-0.8334 0,-0.8334 -0.6946,-0.1389 -0.8334,0.6946 -0.8334,0.6946 -0.8334,-0.8334 -0.1389,-2.0837 -1.1113,-2.9171 -3.056,-2.3615 -1.8058,0.4167 -6.6677,5.2786 -10.1404,10.2793 -4.4451,6.2509 -3.7505,5.8342 -10.9738,7.3622 -8.6123,1.8058 -10.0014,2.5003 -9.8625,5.1396 0.1389,1.2502 1.6669,3.1949 2.2225,2.6393 0.1389,-0.1389 0,0.1389 -0.2778,0.8334 -0.4167,0.6946 -0.4167,1.1113 0,1.6669 0.6945,0.8335 1.9447,0.8335 4.7229,0 1.1113,-0.4167 2.0836,-0.5556 2.0836,-0.5556 0,0 -2.5003,4.4451 -5.6952,9.8625 -9.5847,16.2524 -18.8917,36.2553 -21.5309,45.5622 -3.1949,11.6683 -1.528,21.392 4.8618,26.3927 1.3891,1.1113 3.3338,2.2225 4.3062,2.6393 0.9723,0.2778 2.3614,0.8334 3.1949,1.389 4.1672,2.5004 9.4458,-0.2778 17.2247,-9.029 5.4174,-6.112 17.0858,-21.9477 25.5592,-34.8662 6.112,-9.168 7.5011,-11.8073 6.251,-10.9738 -0.2779,0.1389 -0.5557,0 -0.5557,-0.2778 0,-0.9724 -0.9723,0.2778 -5.4174,6.112 -17.0858,22.5032 -20.6975,26.8094 -28.6153,34.8661 -4.7229,4.7229 -6.3898,6.112 -9.0291,7.5011 -4.8618,2.3615 -4.8618,2.3615 -4.4451,-2.3614 0.139,-3.056 0.6946,-5.6953 2.7782,-11.9462 1.3891,-4.3062 3.1949,-9.7236 4.1673,-11.9462 3.056,-7.7789 11.3905,-24.1702 18.336,-35.9774 3.7505,-6.5287 8.1956,-14.1687 9.7236,-17.0858 3.3338,-6.112 1.9447,-5.2786 13.752,-7.2233 11.5294,-1.9447 14.1687,-2.2225 25.1425,-3.056 5.4175,-0.4167 9.8626,-0.6945 10.0015,-0.8334 0.4167,-0.5557 -0.8335,-2.9171 -2.0837,-3.4728 z m -91.2632,85.8458 c -0.1389,0.6945 -0.1389,0 -0.1389,-1.528 0,-1.3891 0,-1.9447 0.1389,-1.2502 0.1389,0.8335 0.1389,2.0836 0,2.7782 z m 2.9171,-8.0567 c -0.2778,0.8334 -0.6945,3.8894 -0.8334,6.8065 -0.4168,5.1396 -0.4168,5.1396 -0.6946,2.6393 -0.2778,-1.6669 -0.2778,-3.7506 0.1389,-5.4175 0.5557,-3.1949 1.6669,-7.3621 1.8058,-6.2509 0,0.2778 -0.2778,1.3891 -0.4167,2.2226 z m 4.3062,-7.0844 c -0.1389,0.5556 -0.8335,3.3338 -1.6669,6.3898 -0.6946,3.056 -1.3891,6.8066 -1.6669,8.4735 l -0.5557,2.9171 0.2779,-3.6117 c 0.1389,-3.4727 2.3614,-12.6407 3.4727,-14.3076 0.2778,-0.5556 0.4167,-0.5556 0.1389,0.1389 z m 38.8945,-10.0014 c 0.1389,-0.1389 0.5557,0 0.6946,0.1389 0.1389,0.2778 0,0.5556 -0.2779,0.8334 -0.1389,0.1389 -0.5556,0 -0.6945,-0.2778 -0.1389,-0.1389 0,-0.5556 0.2778,-0.6945 z m -3.7505,6.5287 c 0.2778,-0.4167 0.5556,-0.9724 0.4167,-1.2502 -0.1389,-0.1389 0,-0.2778 0.4167,-0.2778 0.4168,0 0.4168,0.1389 0.1389,0.6945 -0.2778,0.5557 -0.6945,0.9724 -0.9723,1.2502 -0.4168,0.1389 -0.4168,0.1389 0,-0.4167 z m -3.7506,3.6116 c 0.1389,-0.1389 0.4168,-0.2778 0.5557,-0.1389 0.1389,0.1389 0.5556,0 0.9723,-0.2778 0.5557,-0.4167 0.5557,-0.4167 0.1389,0 -0.6945,0.8334 -2.0836,1.1113 -1.6669,0.4167 z m -1.2502,3.1949 c 0.6946,-0.5556 0.6946,-0.5556 0.139,0.2778 -0.2779,0.4168 -0.6946,0.6946 -0.8335,0.6946 -0.2778,0 -0.1389,-0.2778 0.6945,-0.9724 z m -1.8058,2.3615 c 0.6946,-0.5557 0.6946,-0.5557 0.1389,0.1389 -0.5556,0.6945 -0.9723,0.9724 -0.9723,0.5556 0,0 0.4167,-0.4167 0.8334,-0.6945 z m -7.3621,-53.6189 c 0.9723,-1.9447 5.973,-10.1403 6.6676,-10.696 0.5556,-0.6945 0.5556,-0.4167 -3.3338,5.8342 -3.4728,5.6953 -4.7229,7.64 -3.3338,4.8618 z m -1.3891,2.5004 c 0.4167,-0.5557 0.2778,-0.1389 -0.2779,0.8334 -0.5556,0.9724 -1.2501,2.0837 -1.528,2.3615 -0.6945,0.6945 0.9724,-2.2226 1.8059,-3.1949 z m -8.8902,21.253 c -0.4167,0.4168 -0.4167,0.4168 -0.2778,-0.2778 0.2778,-0.4167 0.4167,-0.6945 0.5556,-0.5556 0.1389,0.1389 0,0.5556 -0.2778,0.8334 z m 2.2225,-4.1672 c -0.6945,1.3891 -1.3891,2.6392 -1.528,2.6392 -0.1389,0 0.2779,-1.2501 1.1113,-2.6392 0.6946,-1.528 1.528,-2.7782 1.528,-2.7782 0.1389,0 -0.2778,1.2502 -1.1113,2.7782 z m 2.0837,-3.8895 c -0.4168,0.6946 -0.6946,0.8335 -0.6946,0.2778 0,-0.2778 0.1389,-0.5556 0.4168,-0.8334 0.2778,-0.1389 0.4167,0.1389 0.2778,0.5556 z m 15.9745,-26.9483 c -0.1389,0.4167 -2.2225,3.8894 -4.584,7.7789 -2.3614,3.7505 -5.6953,9.3069 -7.5011,12.3629 -1.8058,3.056 -3.3338,5.6953 -3.4727,5.6953 -0.2778,0 0.4167,-1.3891 2.9171,-5.6953 1.2502,-2.0837 3.7505,-6.2509 5.5563,-9.3069 3.056,-5.1397 5.2786,-8.7513 6.6677,-10.8349 0.5556,-0.8335 0.5556,-0.8335 0.4167,0 z m 3.1949,-9.7237 c -0.5556,0.139 -0.2778,-0.2778 2.7782,-4.7229 1.3891,-1.9447 2.5004,-3.4727 2.6393,-3.3338 0.1389,0.1389 -0.9724,1.9448 -2.3615,4.0284 -1.3891,2.0836 -2.7782,3.8894 -3.056,4.0283 z m 5.2786,-3.4727 c -1.8059,2.7782 -2.3615,3.4727 -2.3615,2.6393 0,-0.1389 0.8335,-1.6669 2.0836,-3.4727 1.1113,-1.6669 1.9448,-3.3338 1.9448,-3.4728 0,-0.2778 0.2778,-0.4167 0.4167,-0.4167 0.6945,0 0.1389,1.2502 -2.0836,4.7229 z m 3.1949,1.9448 c -0.5557,0.8334 -0.5557,0.8334 -0.1389,-0.2779 0.6945,-1.3891 0.9723,-1.6669 0.9723,-1.1112 0,0.2778 -0.4167,0.8334 -0.8334,1.3891 z m 1.2501,-2.5004 c -0.2778,0.2778 -0.4167,0.4167 -0.4167,0.1389 0,-0.2778 0.1389,-0.6945 0.4167,-1.1113 0.2779,-0.4167 0.4168,-0.4167 0.4168,-0.2778 0,0.2778 -0.1389,0.8335 -0.4168,1.2502 z m 21.8087,-34.1716 c 0,0.1389 -0.1389,-0.2778 -0.1389,-0.6946 -0.2778,-3.056 -2.5004,-2.2225 -7.64,2.6393 -4.584,4.584 -7.0844,7.7789 -9.3069,12.9185 -2.9171,6.112 -2.5004,10.2793 1.3891,14.4466 1.528,1.6669 2.7782,2.0836 3.1949,1.1112 0.2778,-0.2778 0,-0.8334 -0.4167,-1.389 -0.9724,-0.9724 -0.6946,-3.195 0.9723,-6.6677 1.3891,-3.1949 3.4727,-6.112 6.9455,-10.0014 5.0007,-5.2786 7.3621,-8.4735 7.3621,-9.3069 0,-0.9724 -1.9447,-3.4728 -2.3614,-3.056 z m -5.1396,7.3622 c -6.2509,6.9454 -5.9731,6.5287 -5.2786,5.4174 0.1389,-0.4167 2.2226,-2.9171 4.584,-5.4174 2.2226,-2.3615 4.1673,-4.584 4.1673,-4.584 0,-1.3891 -7.7789,7.2232 -10.696,11.5294 -1.9447,3.056 -2.6393,3.7505 -1.528,1.528 0.8334,-1.6669 0.9724,-1.9447 0.2778,-1.528 -0.4167,0.1389 -0.4167,0.1389 -0.2778,-0.2778 0.2778,-0.2778 0.5556,-0.4167 0.6945,-0.2778 0.2779,0.1389 1.3891,-1.1113 2.5004,-2.6393 1.2502,-1.528 3.8894,-4.4451 5.9731,-6.5287 2.0836,-1.9448 3.6116,-3.4728 3.3338,-3.1949 -0.5556,0.6945 -0.2778,1.1112 0.5556,0.8334 0.4168,-0.1389 -1.528,2.0837 -4.3061,5.1397 z m 41.256,53.4799 c -2.6393,-3.8894 -8.8902,-5.5563 -13.8909,-3.8894 -6.3898,2.0836 -13.3353,9.5847 -15.5578,16.808 -2.0837,7.0843 0.1389,14.4465 6.3898,20.6974 4.7229,4.8618 5.2785,5.5564 5.0007,8.1956 -0.5556,5.2786 -5.6952,11.6684 -12.0851,14.8633 -3.056,1.528 -3.8894,1.8058 -6.9454,1.8058 -1.8058,0 -3.8895,0.1389 -4.4451,0.4167 -1.528,0.4168 -1.8058,2.2226 -0.4167,4.0284 1.528,2.0836 9.0291,9.3069 10.4181,9.8625 0.5557,0.2778 2.6393,0.4168 4.584,0.2778 3.056,0 3.8895,-0.2778 8.1957,-2.5003 3.8894,-1.8058 5.4174,-2.9171 7.7789,-5.4175 5.5563,-5.5563 8.1956,-12.9185 6.6676,-18.6138 -0.6945,-2.6392 -3.7505,-7.0843 -7.64,-11.2516 -4.0283,-4.0284 -4.8618,-5.9731 -4.4451,-9.168 0.5557,-4.7229 5.4175,-11.2516 10.1404,-13.752 4.4451,-2.3614 4.4451,-2.3614 4.4451,0.8335 0,2.3614 0.1389,2.7782 1.2502,4.0283 0.6945,0.6946 1.2501,1.528 1.2501,1.8058 0,0.8335 1.3891,0.9724 2.5004,0.2779 1.6669,-0.9724 3.4727,-4.3062 3.7505,-6.9455 0.2779,-2.7782 -0.6945,-5.2785 -3.6116,-8.3345 -1.1113,-1.1113 -2.6393,-3.056 -3.3338,-4.0284 z m -7.2233,55.5636 c 0,0 0,0.4167 -0.2778,1.1113 -0.5556,1.2502 -1.8058,3.3338 -1.8058,2.7782 0,-0.5557 1.8058,-3.8895 2.0836,-3.8895 z m -16.6691,-41.5338 c 0,-0.6945 3.7506,-5.9731 4.4451,-6.5287 0.2778,-0.1389 -0.5556,1.3891 -1.8058,3.3338 -2.7782,4.1673 -2.6393,4.0284 -2.6393,3.1949 z m 1.1113,2.0837 c 0.4167,-1.8059 2.0837,-4.584 4.4451,-7.0844 2.3615,-2.7782 2.9171,-2.5004 0.6945,0.1389 -0.8334,1.1113 -2.5003,3.4727 -3.4727,5.1396 -1.3891,2.2226 -1.8058,2.7782 -1.6669,1.8059 z m 11.6684,37.3665 c 0,0.2778 -0.6946,1.3891 -1.3891,2.6393 -0.8335,1.1112 -1.9447,2.3614 -2.5004,2.7781 -0.8334,0.4168 -0.4167,-0.2778 1.2502,-2.3614 2.7782,-3.7506 2.6393,-3.6117 2.6393,-3.056 z m -0.9724,-4.8618 c 0.6946,0 -0.2778,2.6392 -1.8058,5.0007 -1.1113,1.8058 -3.1949,4.0283 -3.1949,3.4727 0,0 0.9723,-1.528 2.0836,-3.1949 1.1113,-1.6669 2.0837,-3.4727 2.2226,-4.1673 0.1389,-0.5556 0.4167,-1.1112 0.6945,-1.1112 z m -1.8058,0.2778 c 0,0.4167 -0.5556,1.6669 -1.1113,2.7782 -1.1113,1.9447 -1.6669,2.3614 -1.528,1.6669 0,-0.8335 2.6393,-5.2786 2.6393,-4.4451 z m -2.0836,-29.7265 c -1.3891,2.3614 -1.528,2.5003 -1.528,1.9447 0,-0.5557 2.2225,-3.8895 2.5003,-3.8895 0.1389,0 -0.2778,0.9724 -0.9723,1.9448 z m -0.4168,-5.9731 c 0.4168,-0.5557 0.9724,-0.9724 1.1113,-0.9724 0.1389,0 -0.1389,0.4167 -0.6945,0.9724 -0.4168,0.5556 -0.8335,0.9723 -0.9724,0.9723 -0.1389,0 0.1389,-0.4167 0.5556,-0.9723 z m 2.0837,-3.7506 c -1.3891,1.3891 -3.3339,3.8895 -4.3062,5.2786 -2.0836,3.1949 -2.5004,3.3338 -0.8335,0.2778 1.3891,-2.7782 4.1673,-5.9731 6.2509,-7.3622 0.9724,-0.6945 0.6946,-0.2778 -1.1112,1.8058 z m 62.3702,65.704 c 4.8618,4.7229 6.2509,5.6953 9.5847,6.3898 2.6393,0.4167 3.3338,0.4167 6.5287,-0.1389 9.7236,-1.528 23.0589,-8.8902 31.3934,-17.0858 6.112,-6.112 8.8902,-11.1127 9.4458,-16.9469 0.2779,-3.8895 -0.8334,-6.3898 -4.7229,-10.1404 -1.528,-1.528 -3.056,-3.3338 -3.4727,-4.1672 -2.2225,-4.1673 -7.5011,-6.2509 -19.5862,-8.0568 -13.3352,-1.9447 -20.4196,-4.0283 -20.9752,-5.9731 -0.6946,-2.917 2.6393,-10.6959 7.2233,-16.5301 5.2785,-6.6677 14.8632,-15.28 23.1978,-20.9753 17.7803,-11.9462 40.5614,-20.8363 51.813,-20.2807 l 2.9171,0.2778 -1.528,2.9171 c -1.9447,3.7506 -7.7789,13.1964 -10.8349,17.5025 -3.3338,4.4451 -7.3622,9.3069 -14.3076,17.2248 -12.224,13.613 -13.4742,15.9745 -10.4182,19.4472 1.9447,1.9447 3.056,2.0837 6.6676,0.5557 7.5011,-3.056 21.2531,-15.1411 30.6989,-26.9484 7.0844,-8.8902 12.224,-19.1694 12.7797,-25.976 0.2778,-3.4727 -0.9724,-7.3621 -3.056,-10.0014 -0.6946,-0.9724 -1.528,-2.5004 -1.8059,-3.4727 -1.9447,-7.3622 -9.4458,-10.0015 -22.5032,-8.0568 -17.2247,2.5004 -41.6727,14.1688 -58.7585,27.6429 -5.0007,4.0284 -15.5578,14.5855 -18.4749,18.6138 -4.4451,5.8342 -7.3622,13.0575 -7.3622,17.9193 0,2.5004 1.528,6.9454 3.3338,10.0014 0.5557,1.1113 2.2226,3.1949 3.4727,4.584 1.3891,1.3891 3.6117,3.7506 4.8619,5.2786 2.7781,3.1949 7.64,6.3898 11.9461,7.7789 1.528,0.4167 6.5288,1.528 11.1127,2.2225 11.2517,1.9448 12.9186,2.3615 12.9186,2.7782 0,1.2502 -4.0284,6.6676 -7.3622,9.8625 -6.6676,6.3899 -16.2523,11.9462 -24.5869,14.4466 -4.584,1.2502 -6.8065,1.3891 -9.7236,0.4167 -6.2509,-1.9447 -7.3622,-1.9447 -7.3622,-0.2778 0,1.6669 1.9447,4.1673 6.9455,9.168 z m 77.2334,-80.1505 c 2.0836,-2.3615 5.6952,-7.0844 8.0567,-10.2793 2.3614,-3.3338 4.7229,-6.3898 5.2785,-7.0843 1.528,-1.8058 -4.3062,6.9454 -7.2232,10.9738 -1.528,1.8058 -4.3062,5.1396 -6.3899,7.2232 l -3.6116,3.7506 z m 0.2778,5.6953 c -3.6117,3.6116 -7.9178,7.7789 -9.5847,9.029 -1.6669,1.3891 0.6945,-0.9723 5.0007,-5.2785 4.3062,-4.1673 9.8625,-10.0014 12.224,-12.7796 2.3614,-2.7782 4.3062,-5.0007 4.4451,-5.0007 0.1389,0 -1.1113,1.6669 -2.6393,3.7505 -1.528,2.0836 -5.8342,6.6676 -9.4458,10.2793 z m 18.1971,-15.1411 -0.8335,1.528 c -0.4167,0.6945 -2.2225,3.056 -3.8894,5.1396 -1.667,2.0836 -3.4728,4.1673 -4.0284,4.584 -0.5556,0.5556 0.6945,-1.2502 2.7782,-3.7505 2.0836,-2.6393 4.3062,-5.4175 4.8618,-6.2509 z m -1.6669,-9.3069 c -2.3615,4.8618 -8.7513,13.3352 -15.5579,20.6974 -2.0836,2.2226 -5.5563,5.6953 -7.7789,7.64 -3.4727,3.1949 -3.1949,2.9171 2.5004,-3.1949 8.1956,-8.6124 11.9462,-13.1963 16.6691,-19.864 4.584,-6.6676 5.0007,-7.3622 4.1673,-5.2785 z m -81.6785,21.2531 c -0.4168,0.5556 -0.9724,0.9723 -1.1113,0.9723 -0.1389,0 0.1389,-0.4167 0.6945,-0.9723 0.4168,-0.4168 0.8335,-0.8335 0.9724,-0.8335 0.1389,0 -0.1389,0.4167 -0.5556,0.8335 z m 7.0843,-13.752 c 0.1389,0 0.5557,-0.4168 1.1113,-0.6946 0.8334,-0.6945 0.8334,-0.6945 0.2778,0.1389 -0.4167,0.4168 -0.8334,0.6946 -1.1113,0.6946 -0.2778,0 -0.4167,0 -0.2778,-0.1389 z m -18.1971,19.3083 c 0,-0.9723 7.2233,-11.3905 7.9179,-11.3905 0.1389,0 -0.9724,1.528 -2.2226,3.3338 -1.3891,1.9447 -3.056,4.584 -3.8894,5.9731 -1.3891,2.3614 -1.8059,2.9171 -1.8059,2.0836 z m 2.2226,-0.2778 c 1.8058,-3.8895 6.112,-9.3069 11.2516,-14.3076 2.3615,-2.3615 3.4727,-3.3338 2.3615,-2.0837 -4.8618,5.2786 -6.2509,6.8066 -8.7513,10.1404 -1.3891,1.9447 -3.3338,5.0007 -4.3062,6.9454 -2.0836,3.8895 -2.5003,3.3339 -0.5556,-0.6945 z m 3.7505,-0.2778 c -2.6392,3.8894 -2.9171,4.0283 -0.8334,0.2778 2.5003,-4.584 5.0007,-7.64 10.4181,-13.1964 4.723,-4.7229 14.4466,-12.9185 15.4189,-12.9185 0.2779,0 -1.528,1.528 -3.8894,3.3338 -7.5011,5.6953 -16.6691,15.4189 -21.1142,22.5033 z m 0.8335,7.0843 c 0,-0.6945 2.6393,-5.1396 3.1949,-5.5563 0.2778,-0.1389 0.1389,0.4167 -0.4167,1.2502 -0.4168,0.8334 -1.2502,2.2225 -1.8059,3.1949 -0.5556,0.8334 -0.9723,1.3891 -0.9723,1.1112 z m 43.4785,45.5622 c 0.6945,-1.2502 1.2502,-2.0836 1.3891,-1.8058 0,0.2778 -0.4167,1.2502 -1.1113,2.3614 -1.528,2.3615 -1.6669,2.2226 -0.2778,-0.5556 z m -8.0567,-4.1673 c 0.5556,-0.9723 1.528,-2.7782 2.3614,-4.1673 1.3891,-2.5003 1.2502,-1.2501 -0.1389,1.528 -0.5556,0.8335 -1.3891,2.2226 -2.0836,2.9171 l -1.1113,1.3891 z m -0.5557,3.3338 c 1.1113,-1.2501 2.9171,-3.8894 4.0284,-5.8341 1.6669,-2.9171 1.9447,-3.195 1.6669,-1.9448 -0.2778,1.6669 -1.6669,4.0284 -4.1673,7.2233 -0.9723,0.9724 -2.0836,2.0836 -2.5003,2.3615 -0.6946,0.4167 -0.2778,-0.4168 0.9723,-1.8059 z m 0.1389,3.6117 c 1.667,-1.6669 3.6117,-4.1673 4.4451,-5.4175 0.8335,-1.2502 1.6669,-2.2225 1.6669,-2.0836 0.5557,0.4167 -2.2225,4.4451 -5.1396,7.3622 -1.9447,1.8058 -3.6116,3.3338 -3.7505,3.3338 -0.1389,0 1.1112,-1.528 2.7781,-3.1949 z m 118.9063,-36.5331 c -0.4167,0.1389 -0.5557,0 -0.4167,-0.2778 0.1389,-0.1389 0.1389,-0.4167 -0.139,-0.4167 -0.2778,0 -1.6669,1.389 -3.056,3.056 -1.5279,1.6669 -3.6116,4.1672 -4.8618,5.5563 -1.2501,1.3891 -3.4727,4.4451 -5.1396,6.8066 -4.4451,6.3898 -9.8625,13.4741 -13.4742,17.5025 -2.9171,3.1949 -10.8349,9.8625 -11.8072,9.8625 -0.5557,0 -0.5557,-0.4167 0.2778,-3.7505 1.1113,-4.584 2.7782,-9.3069 7.3622,-20.8364 6.6676,-16.9469 7.3621,-21.1141 3.8894,-24.4479 -0.9724,-0.8335 -2.6393,-1.9448 -3.8894,-2.5004 -1.1113,-0.4167 -2.0837,-1.1113 -2.0837,-1.3891 0,-0.2778 -0.1389,-0.2778 -0.2778,-0.1389 -0.2778,0.1389 -0.6945,-0.2778 -1.1113,-0.9724 -0.9723,-1.528 -2.2225,-1.9447 -4.4451,-1.3891 -2.2225,0.5557 -7.501,6.6677 -15.2799,17.7804 -4.0284,5.5563 -8.8902,12.5018 -10.9739,15.4189 -2.0836,2.9171 -4.0283,5.8342 -4.3061,6.2509 -1.2502,2.3614 -0.8335,0.2778 0.8334,-4.4451 5.1397,-14.3076 13.752,-33.0603 22.2255,-48.0625 10.696,-19.1694 13.1963,-24.8647 11.2516,-26.6705 -0.4167,-0.4168 -0.6946,-0.9724 -0.6946,-1.2502 0,-0.2778 -0.4167,-0.6946 -0.9723,-0.9724 -0.5557,-0.2778 -1.2502,-0.8334 -1.3891,-1.2502 -0.2778,-0.4167 -0.5556,-0.4167 -0.9724,-0.1389 -0.5556,0.4168 -0.5556,0.4168 -0.4167,-0.2778 0.1389,-0.5556 0,-1.1113 -0.2778,-1.2502 -0.2778,-0.1389 -0.5557,-0.6945 -0.5557,-1.1112 0,-0.8335 -0.8334,-1.3891 -2.2225,-1.3891 -1.8058,0 -5.2785,4.0283 -11.1127,12.9185 -10.1404,15.4189 -16.9469,27.6429 -23.7535,42.9229 -3.056,6.8065 -6.6676,16.6691 -8.3345,22.2254 -3.1949,11.3906 -1.9447,21.1142 3.056,24.1702 1.3891,0.6945 2.3615,0.9724 3.056,0.8334 0.8335,-0.1389 1.528,0 2.2225,0.4168 0.5557,0.4167 1.667,0.6945 2.3615,0.6945 2.0836,0 4.584,-2.9171 11.6684,-13.4742 5.1396,-7.64 10.6959,-15.0021 16.2523,-21.5308 l 1.8058,-2.0837 -2.5003,7.2233 c -3.1949,9.3069 -4.3062,14.7243 -4.3062,20.5585 -0.1389,5.8342 0.9723,9.0291 3.8894,11.2516 2.2226,1.9448 3.6117,2.6393 4.7229,2.6393 0.4168,0 1.1113,0.2778 1.528,0.6946 0.2779,0.4167 0.9724,0.8334 1.528,1.1112 3.056,1.2502 6.2509,-0.2778 10.696,-5.0007 6.2509,-6.5287 21.5309,-27.9207 25.0037,-34.5883 0.6945,-1.528 2.3614,-4.3062 3.6116,-6.2509 2.3614,-3.7506 2.6393,-4.4451 1.528,-4.0284 z m -28.8931,4.0284 c 0.8335,-3.1949 1.528,-4.3062 0.9724,-1.528 -0.2778,0.9723 -0.8335,2.7781 -1.3891,4.0283 -0.9724,2.2226 -0.9724,1.9448 0.4167,-2.5003 z m -53.7578,31.1156 c 0,0.6945 -0.1389,0.1389 -0.1389,-1.2502 0,-1.3891 0.1389,-1.9447 0.1389,-1.2502 0.1389,0.6946 0.1389,1.8058 0,2.5004 z m 2.0837,-3.3338 c 0,1.8058 -0.1389,3.8894 -0.2779,4.8618 l -0.1389,1.528 -0.2778,-1.2502 c -0.5556,-1.528 -0.1389,-7.5011 0.4167,-8.0567 0.2779,-0.2778 0.4168,0.9723 0.2779,2.9171 z m 2.3614,-4.4451 c -0.1389,0.6945 -0.2778,3.1949 -0.4167,5.5563 -0.2778,2.2226 -0.5556,4.1673 -0.8335,4.1673 -0.5556,0 0,-5.9731 0.8335,-8.8902 0.4167,-1.2502 0.5556,-1.6669 0.4167,-0.8334 z m 40.7004,-75.9832 c 0.1389,0.1389 -0.6946,2.0836 -1.9448,4.445 -1.1112,2.5004 -2.2225,4.4451 -2.2225,4.4451 -0.1389,0 0.6945,-2.0836 1.8058,-4.584 1.1113,-2.5003 2.2225,-4.4451 2.3615,-4.3061 z m -10.1404,1.389 c 1.528,-2.7781 5.5564,-8.8901 5.8342,-8.8901 0.1389,0 -1.2502,2.2225 -3.056,5.1396 -3.4727,5.4175 -4.8618,7.3622 -2.7782,3.7505 z m -20.6974,41.1171 c 4.7229,-10.696 7.7789,-16.3913 19.1694,-35.5607 7.0844,-11.9462 8.4734,-14.1687 8.4734,-13.3353 0,0.4168 -2.917,5.6953 -8.1956,14.0298 -6.112,10.1404 -10.8349,18.4749 -15.28,27.3651 -2.2225,4.4451 -4.584,9.3069 -5.2785,10.696 -1.9447,4.1673 -1.3891,2.3615 1.1113,-3.1949 z m -6.3899,23.0589 c -1.389,3.7505 -1.8058,4.7229 -1.8058,4.0284 0,-0.6946 2.7782,-8.4735 3.056,-8.3346 0,0.1389 -0.5556,2.0837 -1.2502,4.3062 z m 1.8059,-5.2785 c -0.2779,0.2778 -0.4168,0.4167 -0.4168,0.1389 0,-0.2779 0.1389,-0.6946 0.4168,-1.1113 0.2778,-0.4167 0.4167,-0.4167 0.4167,-0.2778 0,0.2778 -0.1389,0.8334 -0.4167,1.2502 z m 0.9723,-2.3615 c -0.2778,0.4167 -0.5556,0.5556 -0.5556,0.2778 0,-0.2778 0.2778,-0.8334 0.5556,-1.1112 0.1389,-0.4168 0.4167,-0.5557 0.4167,-0.2779 0,0.2779 -0.2778,0.8335 -0.4167,1.1113 z m 0.8335,-9.3069 c 0.2778,-0.1389 0.2778,0 0.1389,0.4167 -0.2778,0.8335 -0.5557,0.9724 -0.5557,0.2778 0,-0.2778 0.139,-0.5556 0.4168,-0.6945 z m 0,7.0844 c -0.2778,0.4167 -0.4168,0.4167 -0.4168,0.1389 0,-0.1389 0.139,-0.6946 0.4168,-1.1113 0.2778,-0.2778 0.4167,-0.4167 0.4167,-0.1389 0,0.1389 -0.1389,0.6945 -0.4167,1.1113 z m 0.5556,-1.9448 c -0.1389,-0.6945 7.64,-17.7803 10.0015,-22.0865 3.3338,-6.2509 7.64,-13.752 12.3629,-21.9476 2.3614,-3.8895 5.1396,-8.4735 6.112,-10.2793 1.1112,-1.8058 2.0836,-3.3338 2.2225,-3.3338 0.2778,0 -4.7229,9.5847 -5.5564,10.4182 -0.4167,0.4167 -0.6945,0.8334 -0.6945,1.1112 0,0.139 -1.3891,2.5004 -3.056,5.4175 -5.5564,9.0291 -10.696,18.4749 -14.7244,27.2262 -5.8341,12.224 -6.6676,13.8909 -6.6676,13.4741 z m 22.5033,29.8655 c 0.2778,-3.1949 1.9447,-9.8626 3.6116,-14.7244 1.1113,-3.6116 7.9178,-21.5309 8.1956,-21.8087 0.8335,-1.1113 -0.1389,1.8058 -3.4727,10.696 -4.7229,11.9462 -5.9731,15.9745 -7.0843,21.8087 -1.1113,5.8342 -1.528,7.5011 -1.2502,4.0284 z m 1.6669,5.5563 -0.1389,-3.3338 c 0,-5.5563 1.6669,-11.9462 7.0843,-25.8371 1.6669,-4.3061 3.4728,-9.029 4.0284,-10.696 0.5556,-1.6669 1.2502,-3.056 1.528,-3.056 0.2778,-0.1389 0.5556,-0.1389 0.5556,0 0,0.2779 -3.056,8.4735 -7.3622,19.1695 -1.389,3.7505 -3.056,9.0291 -3.7505,11.6683 -0.6945,2.6393 -1.3891,6.3899 -1.6669,8.4735 z m 3.1949,-8.1956 c -1.2502,5.8342 -1.528,6.6676 -1.2502,3.6116 0.5556,-4.8618 2.2225,-10.696 7.2233,-23.4756 5.4174,-14.3076 5.8341,-15.0022 5.4174,-12.7796 -0.1389,0.9723 -1.9447,5.8342 -3.8894,10.9738 -4.584,11.5294 -6.3898,16.9469 -7.5011,21.6698 z m 2.3614,8.0567 c -0.1389,0.2778 -0.1389,0 -0.1389,-0.5556 0,-0.6946 0,-0.9724 0.1389,-0.6946 0.1389,0.4168 0.1389,0.8335 0,1.2502 z m 0.4168,-2.5003 c -0.1389,0.1389 -0.1389,-0.139 -0.1389,-0.6946 0,-0.5556 0.1389,-0.5556 0.2778,-0.2778 0.1389,0.4167 0.1389,0.8334 -0.1389,0.9724 z m 23.0589,-13.8909 c -0.5557,0.6945 -0.9724,0.9723 -0.9724,0.5556 0,0 0.2778,-0.4167 0.8334,-0.6946 0.6946,-0.6945 0.6946,-0.5556 0.139,0.139 z m 9.7236,-12.5019 c -0.1389,0.139 -0.4167,0.2779 -0.6946,0.2779 -0.1389,0 -0.5556,0.2778 -0.9723,0.4167 -0.5557,0.4167 -0.5557,0.2778 0,-0.1389 0.2778,-0.4167 0.8334,-0.6946 1.2502,-0.6946 0.4167,-0.1389 0.5556,0 0.4167,0.1389 z m 1.528,-2.2225 c -0.5556,1.1113 -1.3891,1.6669 -0.9724,0.6945 0.1389,-0.5556 0.1389,-0.6945 -0.4167,-0.4167 -0.5556,0.2778 -0.5556,0.2778 0,-0.2778 0.2778,-0.2778 0.8335,-0.6945 1.2502,-0.6945 0.4167,-0.1389 0.5556,0.1389 0.1389,0.6945 z m 1.3891,-2.3614 c -0.5557,1.1112 -0.6946,1.2501 -1.1113,0.4167 -0.2778,-0.2778 -0.2778,-0.4167 0,-0.1389 0.1389,0.1389 0.6946,-0.1389 0.9724,-0.5557 0.5556,-0.6945 0.5556,-0.6945 0.1389,0.2779 z m 2.7782,-4.723 c -0.4168,0.4168 -0.4168,0.4168 -0.2779,-0.2778 0.2779,-0.4167 0.4168,-0.6945 0.5557,-0.5556 0.1389,0.1389 0,0.4167 -0.2778,0.8334 z m -11.5294,31.2546 c 1.3891,2.9171 4.584,6.2509 5.8342,6.2509 0.5556,0 1.9447,0.9723 3.1949,2.0836 3.4727,3.1949 5.6952,2.6393 10.9738,-2.7782 2.5003,-2.7782 9.7236,-11.9461 12.9185,-16.5301 l 2.2226,-3.3339 0.2778,3.4728 c 0.6945,6.2509 3.3338,11.2516 7.0843,13.0574 1.1113,0.5556 2.0837,1.2502 2.2226,1.6669 0.6945,1.8058 5.4174,2.5004 7.5011,1.1113 5.4174,-3.6116 12.9185,-13.752 26.8094,-36.5331 3.4727,-5.8342 4.1673,-8.1956 0.9724,-3.7505 -0.9724,1.3891 -1.9448,2.5003 -1.9448,2.3614 0,-0.2778 0.8335,-1.3891 1.6669,-2.6392 0.9724,-1.2502 1.528,-2.5004 1.3891,-2.6393 -0.1389,-0.1389 -1.528,1.6669 -3.056,3.7505 -8.6123,11.8073 -12.9185,17.3637 -17.6414,22.2255 -4.584,4.7229 -10.696,9.8625 -11.1127,9.3069 -0.4168,-0.2778 0.6945,-5.1397 2.0836,-9.7236 0.6946,-2.5004 2.9171,-8.3346 4.7229,-13.0575 4.0284,-10.1404 5.5564,-15.5578 5.5564,-18.4749 0,-1.9447 -0.1389,-2.3614 -1.528,-3.6116 -0.9724,-0.8335 -1.8058,-1.3891 -2.0837,-1.2502 -0.1389,0.1389 -0.4167,0 -0.5556,-0.4167 -0.1389,-0.4168 -0.5556,-0.6946 -0.9724,-0.5557 -0.4167,0.1389 -0.6945,0 -0.6945,-0.4167 0,-0.6945 -0.1389,-0.6945 -0.9724,0.1389 -0.9723,0.8335 -0.9723,0.8335 -0.4167,-0.1389 0.6945,-1.528 0.5556,-2.3614 -0.4167,-2.6393 -1.8058,-0.5556 -3.1949,0.1389 -4.584,2.5004 -1.3891,2.0836 -2.2226,2.9171 -2.2226,1.8058 0,-0.2778 -0.4167,-0.5556 -0.9723,-0.6945 -0.5557,-0.1389 -2.3615,-1.528 -3.8895,-2.9171 -2.2225,-2.2226 -3.1949,-2.7782 -4.8618,-3.056 -3.8894,-0.5557 -9.3069,1.2502 -13.8909,4.584 -11.5294,8.4734 -25.976,35.005 -25.0036,45.8399 0.1389,1.3891 0.8334,3.6117 1.3891,5.0008 z m 75.0108,-28.1986 c 0.2779,0.139 0.5557,-0.2778 0.5557,-0.6945 0.1389,-0.4167 0.2778,-0.9724 0.4167,-1.1113 0.2778,-0.1389 0.2778,0.1389 0.1389,0.6946 -0.1389,1.3891 -0.9724,2.2225 -1.3891,1.528 -0.1389,-0.2778 -0.1389,-0.4168 0.2778,-0.4168 z m -1.9447,3.8895 c 0.6946,-0.5556 0.6946,-0.5556 0.1389,0.2778 -0.6945,0.6946 -0.9723,0.9724 -0.9723,0.5556 0,-0.1389 0.2778,-0.4167 0.8334,-0.8334 z m -1.9447,1.3891 c 0.1389,-0.2778 1.1113,-0.1389 1.1113,0.2778 0,0 -0.2779,0.1389 -0.6946,0.1389 -0.4167,0 -0.5556,-0.1389 -0.4167,-0.4167 z m -4.4451,6.2509 c 0.2778,-0.2778 0.8335,-0.4167 1.1113,-0.4167 0.2778,0 0.5556,-0.4168 0.6945,-0.6946 0.1389,-0.4167 0,-0.5556 -0.4167,-0.2778 -0.4167,0.2778 -0.4167,0.1389 -0.2778,0 0.2778,-0.2778 0.5556,-0.4167 0.8334,-0.4167 0.2778,0 0.6946,-0.2778 0.8335,-0.6946 0.1389,-0.4167 0,-0.5556 -0.5557,-0.2778 -0.4167,0.4167 -0.4167,0.2778 0,-0.2778 0.4168,-0.5556 0.8335,-0.6946 1.1113,-0.5556 0.4167,0.2778 -0.8334,2.6392 -1.8058,3.4727 -0.8335,0.6945 -2.2225,0.9723 -1.528,0.1389 z m -0.9724,1.8058 c -0.2778,0.2778 -0.4167,0.1389 -0.1389,0 0.1389,-0.2778 0.5557,-0.4167 0.9724,-0.5556 0.5556,0 0.5556,0.1389 0.1389,0.8334 -0.1389,0.4168 -0.6945,0.9724 -0.9724,1.1113 -0.4167,0.2778 -0.4167,0.1389 0,-0.2778 0.2779,-0.4167 0.5557,-0.8335 0.5557,-0.9724 0,-0.2778 -0.2778,-0.2778 -0.5557,-0.1389 z m -1.9447,2.0836 c 0.4167,-0.5556 0.9724,-0.9723 1.1113,-0.9723 0.1389,0 -0.1389,0.4167 -0.6946,0.9723 -0.4167,0.4168 -0.8334,0.8335 -0.9723,0.8335 -0.1389,0 0.1389,-0.4167 0.5556,-0.8335 z m -2.0836,2.6393 c 0.6945,-0.5556 0.6945,-0.5556 0.1389,0.1389 -0.5557,0.8335 -0.9724,0.9724 -0.9724,0.6946 0,-0.1389 0.2778,-0.5557 0.8335,-0.8335 z m -47.9236,4.584 c -0.2778,0.8335 -0.5557,2.3615 -0.9724,3.3338 l -0.5556,1.9448 0.2778,-2.0837 c 0.1389,-1.1113 0.5556,-2.6393 0.8334,-3.4727 l 0.6946,-1.2502 z m 17.6414,-8.0567 c -0.6945,0.6945 -0.9724,0.9724 -0.9724,0.5556 0,0 0.2779,-0.4167 0.6946,-0.6945 0.6945,-0.5557 0.8334,-0.5557 0.2778,0.1389 z m 1.2502,-1.8058 c -0.5556,0.6945 -0.9724,0.9723 -0.9724,0.5556 0,0 0.4168,-0.4167 0.8335,-0.6945 0.6945,-0.6946 0.6945,-0.5557 0.1389,0.1389 z m 25.976,-23.6146 c 1.3891,-2.7781 -0.4168,2.6393 -2.6393,8.0568 -1.3891,3.3338 -3.6116,9.168 -5.0007,12.9185 -2.5004,7.2233 -3.056,8.1956 -1.528,2.7782 0.8334,-2.7782 7.9178,-21.1142 9.168,-23.7535 z m -3.4728,-1.9447 c 0.2779,0 -0.9723,3.056 -3.4727,8.7513 -1.1112,2.5003 -2.7782,6.3898 -3.6116,8.4734 -2.0836,5.4175 -2.2226,5.6953 -2.2226,5.4175 -0.1389,-1.6669 8.4735,-22.6422 9.3069,-22.6422 z m -6.2509,7.7789 c 0.6946,-0.8334 0.2779,0.5557 -1.528,5.1397 -1.389,3.4727 -3.1949,8.6123 -3.8894,11.3905 -0.9724,3.6116 -1.2502,4.3062 -1.1113,2.6393 0.6946,-5.4175 4.3062,-16.5302 6.5287,-19.1695 z m -4.1672,6.2509 c -0.2778,0.2778 -1.1113,2.6393 -1.9448,5.1397 -0.8334,2.6392 -1.389,3.8894 -1.2501,2.7781 0.4167,-2.7781 1.9447,-7.3621 2.7781,-7.9178 0.6946,-0.5556 0.6946,-0.5556 0.4168,0 z m -5.6953,-12.9185 c 1.6669,-1.1113 3.3338,-2.2226 3.7505,-2.3615 1.3891,-0.5556 1.1113,1.2502 -1.2501,5.9731 -3.8895,7.64 -17.7804,26.1149 -23.6146,31.3935 -1.2501,1.1112 -2.3614,2.0836 -2.6392,2.0836 -0.5557,0 2.2225,-7.5011 4.8618,-13.0575 5.0007,-10.2792 12.3629,-19.725 18.8916,-24.0312 z m -15.0022,3.3338 1.8059,-1.9447 -1.9448,2.6392 c -4.8618,6.6677 -8.1956,12.224 -10.5571,18.0582 -0.9723,2.0837 -2.3614,5.8342 -3.1949,8.3346 -0.8334,2.5003 -1.528,4.1672 -1.528,3.6116 -0.1389,-2.0836 2.7782,-10.0015 5.4175,-15.28 3.1949,-6.112 7.2233,-12.3629 10.0014,-15.4189 z m -5.2785,3.1949 c 0.1389,0 -0.2778,0.9724 -1.1113,2.0836 -1.9447,2.9171 -6.112,10.8349 -7.7789,15.0022 -0.8334,1.9447 -2.0836,5.8342 -2.7782,8.6124 -0.9723,3.8894 -1.2501,4.584 -1.2501,3.1949 0,-5.0007 4.445,-15.9746 10.2792,-25.0036 1.2502,-2.0837 2.5004,-3.8895 2.6393,-3.8895 z m -14.5855,26.3927 c 0.5557,-2.6393 2.0837,-7.3622 3.056,-9.0291 0.5557,-0.9723 0.6946,-1.2501 0.5557,-0.6945 -0.1389,0.4167 -0.9724,3.056 -1.8058,5.8342 -1.6669,5.1396 -2.3615,6.6676 -1.8059,3.8894 z m 84.179,-49.1738 c -1.8058,1.3891 -9.7236,14.8633 -13.3352,22.7811 -8.6124,19.4473 -12.5018,30.9767 -12.5018,38.0611 0,2.5003 1.8058,5.4174 3.3338,5.4174 1.6669,0 2.5003,0.5557 2.5003,1.2502 0,0.4167 0.4168,1.1113 0.8335,1.528 0.5556,0.6946 0.8335,0.6946 1.2502,0.4167 0.5556,-0.4167 0.6945,-0.4167 0.6945,0 0,0.4168 0.2778,0.2779 0.8335,-0.2778 0.5556,-0.4167 0.9723,-0.9723 0.9723,-1.2502 0,-0.6945 4.3062,-9.0291 7.0844,-13.8909 6.3898,-10.8349 13.1964,-20.1418 20.2807,-27.2261 4.4451,-4.584 7.3622,-6.6677 10.1404,-7.3622 2.0836,-0.6946 3.4727,-0.4167 7.5011,1.1113 2.7781,1.1112 3.056,1.2501 5.0007,0.5556 1.1113,-0.2778 2.0836,-0.8335 2.2225,-1.1113 0.5557,-1.9447 -12.224,-9.8625 -16.6691,-10.4181 -3.7505,-0.4168 -7.3621,1.1112 -11.6683,5.0007 -0.8335,0.9723 -1.8058,1.6669 -1.8058,1.6669 -0.1389,0 0.4167,-1.528 1.1112,-3.1949 1.3891,-3.3338 1.8059,-6.3898 0.8335,-6.3898 -0.1389,0 -0.4167,-0.2779 -0.4167,-0.6946 0,-0.2778 -0.4168,-0.8334 -0.9724,-1.1113 -0.5556,-0.2778 -1.2502,-0.8334 -1.528,-1.2501 -0.4167,-0.5557 -0.5556,-0.5557 -1.2502,0.4167 -0.8334,1.2502 -0.9723,0.9724 -0.2778,-0.6945 0.2778,-0.8335 0.2778,-1.1113 -0.2778,-0.9724 -0.4167,0.2778 -0.5556,0 -0.2778,-0.8335 0.2778,-1.6669 -2.0837,-2.6392 -3.6117,-1.528 z m 7.3622,24.5869 1.528,-1.2502 -1.2502,1.3891 c -0.8334,0.8335 -1.528,1.528 -1.528,1.528 -0.4167,0 0,-0.4167 1.2502,-1.6669 z m -26.2538,26.8095 c -0.5556,1.9447 -1.2502,3.6116 -1.528,3.7505 -0.6945,0.4167 2.7782,-9.7236 6.3898,-18.4749 3.8895,-9.4458 15.1411,-31.8102 15.6967,-31.2545 0.139,0.1389 -0.6945,1.9447 -1.8058,3.8894 -6.8065,11.9462 -15.141,30.8378 -18.7527,42.0895 z m 3.3338,-5.0008 c -0.5556,1.2502 -1.1112,2.3615 -1.2501,2.3615 -0.6946,0.4167 3.3338,-9.5847 7.3621,-18.7527 3.4728,-7.9178 11.1127,-22.5033 11.6684,-22.7811 0.2778,0 -1.8058,4.4451 -4.584,10.0015 -2.9171,5.5563 -6.8066,13.8909 -8.7513,18.6138 -1.8058,4.584 -3.8894,9.3069 -4.4451,10.557 z m 12.3629,-7.9178 c -1.2501,2.0837 -1.2501,2.0837 -1.2501,1.6669 0,-0.2778 0.4167,-1.1112 1.1112,-1.8058 l 1.1113,-1.3891 z m 4.584,-6.112 c -1.3891,1.8058 -2.7781,3.4728 -3.056,3.8895 -1.2501,1.2502 2.3615,-3.6117 3.8895,-5.4175 0.8334,-0.8334 0.4167,-0.1389 -0.8335,1.528 z m 3.7506,-4.584 c -0.6946,0.6946 -0.9724,0.9724 -0.9724,0.5557 0,-0.1389 0.2778,-0.4168 0.6946,-0.8335 0.8334,-0.5556 0.8334,-0.5556 0.2778,0.2778 z m -1.2502,-11.3905 c 0.9724,-2.0836 1.8058,-3.7505 1.9447,-3.6116 0.1389,0.1389 -0.6945,2.2225 -1.8058,4.584 -1.2502,2.3614 -2.2225,4.3061 -2.3615,4.3061 -0.1389,0 -0.1389,-0.2778 0.139,-0.6945 0.1389,-0.5556 1.1112,-2.5004 2.0836,-4.584 z m -5.6953,4.1673 c -3.3338,6.8065 -6.5287,13.4741 -7.2232,15.0021 -2.3615,4.7229 -1.528,2.2226 1.1112,-3.7505 2.9171,-6.5287 10.4182,-21.2531 11.3906,-22.6422 0.4167,-0.4167 -2.0837,4.584 -5.2786,11.3906 z m 98.4866,3.056 c -0.4168,0 -0.8335,-0.2779 -0.8335,-0.5557 -0.4167,-1.1112 -3.056,1.528 -6.3898,5.9731 -7.2233,9.5847 -18.1971,21.5309 -24.1702,25.976 -6.2509,4.7229 -12.3629,7.2233 -17.3636,7.2233 -3.3338,0 -4.0284,-0.2779 -5.0007,-2.0837 -1.528,-3.3338 -1.3891,-6.5287 0.5556,-12.6407 0.5556,-1.9447 0.8335,-2.0836 1.6669,-1.8058 2.0836,0.8334 6.8066,0.4167 9.4458,-0.8335 5.8342,-2.6392 13.8909,-10.0014 18.4749,-16.8079 2.5004,-3.7506 4.1673,-8.8902 4.584,-13.3353 0.2778,-4.1673 -0.8334,-6.8066 -3.6116,-8.7513 -0.9724,-0.8334 -2.2226,-1.9447 -2.7782,-2.5003 -2.0836,-2.7782 -7.7789,-3.3339 -13.3353,-1.2502 -6.8065,2.6392 -15.2799,10.1403 -20.9752,18.7527 -10.1404,15.4189 -12.3629,27.6429 -6.3898,36.5331 2.2225,3.1949 5.4174,6.3898 7.64,7.501 1.1112,0.5557 2.6392,1.528 3.6116,2.2226 0.8335,0.6945 2.6393,1.6669 3.8895,1.9447 4.5839,1.3891 9.1679,0.8335 14.4465,-1.6669 9.7236,-4.7229 22.7811,-18.8916 34.7272,-37.5054 2.0837,-3.3338 2.9171,-6.3898 1.8059,-6.3898 z m -23.8924,-4.8619 c 0.1389,-0.5556 0.2778,-0.5556 0.4167,-0.1389 0,0.4168 -0.2778,0.9724 -0.4167,1.3891 -0.5556,0.8335 -0.5556,0 0,-1.2502 z m -1.9447,4.584 c 1.2502,-2.3614 1.3891,-2.3614 0.6945,0.2779 -0.1389,0.4167 0.1389,0.1389 0.4168,-0.5557 1.2501,-1.9447 1.389,-1.528 0.2778,0.6946 -1.2502,2.5003 -2.7782,4.4451 -3.056,4.1672 -0.1389,-0.1389 -0.6946,0.139 -1.1113,0.5557 -0.6945,0.5556 -0.5556,0.2778 0.2778,-0.8335 0.5557,-0.8334 1.8058,-2.7782 2.5004,-4.3062 z m -23.1978,0 c 0,-0.5556 5.4174,-7.0843 5.8342,-7.0843 0,0 -1.1113,1.6669 -2.6393,3.6116 -3.3338,4.1673 -3.1949,4.0284 -3.1949,3.4727 z m 5.8342,4.723 c 5.8341,-8.6124 11.6683,-15.0022 15.5578,-16.9469 1.9447,-0.9724 2.0836,-0.4168 1.1112,4.0283 -1.9447,10.0015 -9.8625,20.0029 -19.0305,24.448 -2.5004,1.2502 -4.7229,1.6669 -4.7229,0.9724 0,-0.6946 4.7229,-9.0291 7.0844,-12.5018 z m -19.5862,14.4465 c -0.6946,2.2225 -1.3891,4.1673 -1.528,4.3062 -0.6946,0.6945 1.6669,-8.0568 2.6393,-9.5848 0.5556,-0.8334 0.4167,-0.1389 -1.1113,5.2786 z m 0.1389,7.2233 0.2778,-3.195 c 0,-1.6669 0.5556,-4.1672 0.9724,-5.4174 0.8334,-2.6393 1.8058,-3.8895 1.3891,-1.8058 -0.2779,0.6945 -0.8335,3.3338 -1.528,5.8342 z m 2.3614,-1.9448 c -0.1389,-1.1112 1.3891,-6.6676 1.8059,-7.0843 0.2778,-0.2778 0.4167,-0.2778 0.4167,0.1389 0,0.9723 -2.2226,7.64 -2.2226,6.9454 z m 5.1397,-0.8334 c -0.2778,0.8334 -0.5557,2.2225 -0.9724,3.1949 l -0.5556,1.8058 0.2778,-1.8058 c 0.1389,-0.9724 0.5556,-2.3615 0.8335,-3.056 l 0.6945,-1.3891 z m 49.8683,-15.0022 c -0.2778,0.4167 -0.6945,0.6945 -0.8334,0.5556 -0.139,-0.1389 -0.5557,0 -0.9724,0.2779 -0.6946,0.5556 -0.6946,0.5556 -0.1389,-0.2779 0.4167,-0.4167 0.8334,-0.6945 0.9723,-0.5556 0,0.1389 0.5557,0 0.8335,-0.2778 0.6945,-0.5556 0.6945,-0.5556 0.1389,0.2778 z m 0.8335,-3.4727 c 0,-0.1389 0.4167,-0.5557 0.8334,-0.8335 0.6946,-0.5556 0.6946,-0.5556 0.1389,0.1389 -0.5556,0.8335 -0.9723,0.9724 -0.9723,0.6946 z m 1.528,0.2778 c -0.6946,0.6945 -0.9724,0.9724 -0.9724,0.5556 0,-0.1389 0.2778,-0.4167 0.6945,-0.8334 0.6946,-0.5557 0.8335,-0.5557 0.2779,0.2778 z m 2.3614,-3.4727 c -0.4167,0.6945 -0.6945,0.8334 -0.6945,0.1389 0,-0.2778 -0.2778,-0.4167 -0.5557,-0.1389 -0.2778,0.1389 -0.4167,0.1389 -0.1389,-0.1389 0.5557,-0.6946 1.528,-0.5557 1.3891,0.1389 z m -25.6981,0.8334 c 0.5556,-0.9723 0.9723,-1.8058 0.8334,-1.9447 -0.2778,-0.1389 -2.2225,2.7782 -2.2225,3.3338 0,0.5557 0.5556,0 1.3891,-1.3891 z"
           id="path31" /><path
           style="font-family:'Regular Brush';-inkscape-font-specification:'Regular Brush';fill:#000000;fill-opacity:1;stroke-width:2.97979"
           d="m 5627.2199,2770.2095 c 4.8618,4.7229 6.2509,5.6953 9.5848,6.3898 2.6392,0.4168 3.3338,0.4168 6.5287,-0.1389 9.7236,-1.528 23.0589,-8.8902 31.3934,-17.0858 6.112,-6.112 8.8902,-11.1127 9.4458,-16.9469 0.2778,-3.8894 -0.8334,-6.3898 -4.7229,-10.1403 -1.528,-1.528 -3.056,-3.3339 -3.4727,-4.1673 -2.2226,-4.1673 -7.5011,-6.2509 -19.5862,-8.0567 -13.3352,-1.9448 -20.4196,-4.0284 -20.9752,-5.9731 -0.6946,-2.9171 2.6392,-10.696 7.2232,-16.5302 5.2786,-6.6676 14.8633,-15.28 23.1978,-20.9753 17.7804,-11.9461 40.5615,-20.8363 51.8131,-20.2807 l 2.9171,0.2779 -1.528,2.917 c -1.9447,3.7506 -7.7789,13.1964 -10.8349,17.5026 -3.3338,4.4451 -7.3622,9.3069 -14.3076,17.2247 -12.224,13.6131 -13.4742,15.9745 -10.4182,19.4472 1.9447,1.9448 3.056,2.0837 6.6676,0.5557 7.5011,-3.056 21.2531,-15.1411 30.6989,-26.9484 7.0844,-8.8901 12.224,-19.1694 12.7796,-25.9759 0.2778,-3.4728 -0.9723,-7.3622 -3.056,-10.0015 -0.6945,-0.9724 -1.528,-2.5004 -1.8058,-3.4727 -1.9447,-7.3622 -9.4458,-10.0015 -22.5032,-8.0567 -17.2248,2.5003 -41.6727,14.1687 -58.7586,27.6429 -5.0007,4.0283 -15.5578,14.5854 -18.4749,18.6138 -4.445,5.8341 -7.3621,13.0574 -7.3621,17.9192 0,2.5004 1.528,6.9455 3.3338,10.0015 0.5556,1.1112 2.2225,3.1949 3.4727,4.584 1.3891,1.3891 3.6116,3.7505 4.8618,5.2785 2.7782,3.1949 7.64,6.3898 11.9462,7.7789 1.528,0.4167 6.5287,1.528 11.1127,2.2226 11.2517,1.9447 12.9186,2.3614 12.9186,2.7781 0,1.2502 -4.0284,6.6677 -7.3622,9.8626 -6.6677,6.3898 -16.2524,11.9461 -24.5869,14.4465 -4.584,1.2502 -6.8066,1.3891 -9.7236,0.4167 -6.2509,-1.9447 -7.3622,-1.9447 -7.3622,-0.2778 0,1.6669 1.9447,4.1673 6.9454,9.168 z m 77.2334,-80.1505 c 2.0837,-2.3614 5.6953,-7.0843 8.0568,-10.2792 2.3614,-3.3339 4.7229,-6.3899 5.2785,-7.0844 1.528,-1.8058 -4.3062,6.9454 -7.2233,10.9738 -1.528,1.8058 -4.3061,5.1396 -6.3898,7.2233 l -3.6116,3.7505 z m 0.2779,5.6953 c -3.6117,3.6116 -7.9179,7.7789 -9.5848,9.0291 -1.6669,1.3891 0.6946,-0.9724 5.0008,-5.2786 4.3061,-4.1672 9.8625,-10.0014 12.2239,-12.7796 2.3615,-2.7782 4.3062,-5.0007 4.4451,-5.0007 0.1389,0 -1.1112,1.6669 -2.6392,3.7505 -1.528,2.0837 -5.8342,6.6677 -9.4458,10.2793 z m 18.197,-15.1411 -0.8334,1.528 c -0.4167,0.6946 -2.2226,3.056 -3.8895,5.1396 -1.6669,2.0837 -3.4727,4.1673 -4.0283,4.584 -0.5557,0.5557 0.6945,-1.2501 2.7781,-3.7505 2.0837,-2.6393 4.3062,-5.4175 4.8619,-6.2509 z m -1.6669,-9.3069 c -2.3614,4.8618 -8.7512,13.3353 -15.5578,20.6974 -2.0836,2.2226 -5.5563,5.6953 -7.7789,7.64 -3.4727,3.1949 -3.1949,2.9171 2.5004,-3.1949 8.1956,-8.6123 11.9461,-13.1963 16.6691,-19.864 4.584,-6.6676 5.0007,-7.3621 4.1672,-5.2785 z m -81.6785,21.2531 c -0.4167,0.5556 -0.9723,0.9723 -1.1112,0.9723 -0.1389,0 0.1389,-0.4167 0.6945,-0.9723 0.4167,-0.4167 0.8335,-0.8335 0.9724,-0.8335 0.1389,0 -0.1389,0.4168 -0.5557,0.8335 z m 7.0844,-13.752 c 0.1389,0 0.5556,-0.4167 1.1113,-0.6946 0.8334,-0.6945 0.8334,-0.6945 0.2778,0.139 -0.4167,0.4167 -0.8335,0.6945 -1.1113,0.6945 -0.2778,0 -0.4167,0 -0.2778,-0.1389 z m -18.1971,19.3083 c 0,-0.9723 7.2233,-11.3905 7.9178,-11.3905 0.1389,0 -0.9723,1.528 -2.2225,3.3338 -1.3891,1.9447 -3.056,4.584 -3.8895,5.9731 -1.3891,2.3615 -1.8058,2.9171 -1.8058,2.0836 z m 2.2226,-0.2778 c 1.8058,-3.8894 6.112,-9.3069 11.2516,-14.3076 2.3614,-2.3615 3.4727,-3.3338 2.3614,-2.0836 -4.8618,5.2785 -6.2509,6.8065 -8.7512,10.1403 -1.3891,1.9447 -3.3338,5.0007 -4.3062,6.9455 -2.0836,3.8894 -2.5004,3.3338 -0.5556,-0.6946 z m 3.7505,-0.2778 c -2.6393,3.8895 -2.9171,4.0284 -0.8335,0.2778 2.5004,-4.584 5.0008,-7.64 10.4182,-13.1963 4.7229,-4.7229 14.4466,-12.9186 15.4189,-12.9186 0.2778,0 -1.528,1.528 -3.8894,3.3338 -7.5011,5.6953 -16.6691,15.4189 -21.1142,22.5033 z m 0.8335,7.0844 c 0,-0.6946 2.6392,-5.1397 3.1949,-5.5564 0.2778,-0.1389 0.1389,0.4167 -0.4168,1.2502 -0.4167,0.8334 -1.2501,2.2225 -1.8058,3.1949 -0.5556,0.8334 -0.9723,1.3891 -0.9723,1.1113 z m 43.4785,45.5621 c 0.6945,-1.2502 1.2502,-2.0836 1.3891,-1.8058 0,0.2778 -0.4168,1.2502 -1.1113,2.3614 -1.528,2.3615 -1.6669,2.2226 -0.2778,-0.5556 z m -8.0568,-4.1673 c 0.5557,-0.9723 1.528,-2.7781 2.3615,-4.1672 1.3891,-2.5004 1.2502,-1.2502 -0.1389,1.528 -0.5556,0.8334 -1.3891,2.2225 -2.0836,2.9171 l -1.1113,1.3891 z m -0.5556,3.3339 c 1.1113,-1.2502 2.9171,-3.8895 4.0284,-5.8342 1.6669,-2.9171 1.9447,-3.1949 1.6669,-1.9447 -0.2778,1.6669 -1.6669,4.0283 -4.1673,7.2232 -0.9724,0.9724 -2.0836,2.0837 -2.5004,2.3615 -0.6945,0.4167 -0.2778,-0.4168 0.9724,-1.8058 z m 0.1389,3.6116 c 1.6669,-1.6669 3.6117,-4.1673 4.4451,-5.4175 0.8335,-1.2501 1.6669,-2.2225 1.6669,-2.0836 0.5557,0.4167 -2.2225,4.4451 -5.1396,7.3622 -1.9447,1.8058 -3.6116,3.3338 -3.7506,3.3338 -0.1389,0 1.1113,-1.528 2.7782,-3.1949 z m 103.7652,-37.2276 c -2.3615,3.4727 -10.2793,15.8356 -10.5571,16.6691 -0.6946,1.528 0.4167,0.2778 2.7782,-3.6117 1.3891,-2.3614 4.3061,-6.6676 6.5287,-9.8625 3.8894,-5.6953 5.0007,-8.3346 1.2502,-3.1949 z m 45.5621,2.9171 -1.9447,1.8058 1.528,-1.8058 c 2.3615,-2.9171 1.1113,-2.5004 -1.6669,0.6945 -1.3891,1.6669 -4.1673,4.7229 -6.2509,6.8066 -1.9447,2.0836 -4.7229,5.4174 -6.112,7.3621 -4.8618,6.3898 -12.6407,15.6968 -16.5302,19.3084 -4.0283,3.8894 -7.64,7.0843 -8.3345,7.0843 -0.5557,0 0.1389,-3.7505 1.6669,-8.0567 0.6945,-2.3614 3.8894,-9.7236 6.9454,-16.6691 6.2509,-13.7519 8.1957,-19.0305 9.0291,-24.0312 0.6946,-5.0007 0.1389,-6.5287 -3.7505,-10.4182 -1.6669,-1.6669 -3.1949,-3.3338 -3.1949,-3.6116 0,-1.1113 -1.9448,-2.3615 -3.8895,-2.3615 -1.6669,0 -2.2225,0.2778 -4.1672,2.0837 -3.195,2.917 -5.5564,6.2509 -11.9462,16.5301 -15.4189,24.8647 -21.6698,34.3106 -20.6975,30.9767 0.5557,-1.528 3.6117,-8.3345 8.3346,-18.336 5.0007,-10.557 6.5287,-14.5854 6.8065,-18.4748 0.2778,-4.0284 -0.8334,-6.3899 -4.584,-8.6124 -0.9723,-0.5556 -2.2225,-1.8058 -2.7782,-2.7782 -1.2501,-1.9447 -2.6392,-2.5003 -4.7229,-2.0836 -3.3338,0.8334 -11.8072,12.224 -22.5032,30.56 -5.8342,9.7236 -11.5295,18.6138 -13.0575,20.0029 -1.1112,0.9723 -1.1112,0.9723 -0.1389,-2.0837 1.6669,-5.8342 7.64,-18.336 11.8073,-24.8647 2.7782,-4.4451 6.112,-11.5294 6.112,-13.4742 0,-0.9723 -0.2778,-1.6669 -0.4167,-1.6669 -0.2779,0 -0.5557,-0.4167 -0.6946,-0.9723 -0.2778,-0.5557 -0.5556,-0.8335 -0.9724,-0.6946 -0.4167,0.1389 -0.6945,0 -0.6945,-0.2778 0,-0.2778 -0.2778,-0.2778 -0.6945,0.1389 -0.6946,0.5556 -0.6946,0.5556 -0.4168,-0.4167 0.2778,-0.8335 0.1389,-0.9724 -0.6945,-0.9724 -0.5557,0 -0.8335,-0.2778 -0.8335,-0.8334 0,-1.3891 -1.8058,-2.7782 -3.3338,-2.7782 -4.8618,0 -10.696,7.3622 -18.6138,23.8923 -5.4174,11.2517 -8.0567,20.0029 -7.5011,25.0037 0.4168,4.7229 4.3062,10.8349 7.0844,11.3905 0.6945,0.1389 1.6669,0.9724 2.3614,1.9447 0.8335,1.1113 1.8059,1.8058 2.5004,2.0837 2.9171,0.5556 4.584,-1.528 14.1687,-16.808 6.3898,-10.1404 15.1411,-22.92 15.6967,-22.92 0.1389,0 -0.4167,1.9447 -1.2501,4.584 -4.3062,12.3629 -5.2786,20.9752 -3.056,26.1149 0.9723,2.0836 3.056,4.7229 3.8894,4.7229 0.4167,0 1.1113,0.6945 1.8058,1.528 2.5004,3.3338 5.0007,2.3614 9.5847,-3.4728 3.3339,-4.3061 8.8902,-12.5018 13.1964,-19.5861 3.056,-5.0007 9.168,-13.8909 9.5847,-13.8909 0.1389,0 -1.1113,2.5003 -2.5003,5.5563 -5.6953,11.8073 -7.9179,24.3091 -5.4175,31.8102 1.1113,3.6116 3.7505,6.9454 5.9731,7.3622 0.8334,0.2778 2.0836,1.1112 2.9171,1.9447 1.9447,2.0836 4.1673,2.0836 7.0843,0 4.7229,-3.3338 11.5295,-11.5294 21.1142,-25.2814 1.8058,-2.3615 3.8895,-5.4175 4.7229,-6.6677 0.9724,-1.2501 2.5004,-3.7505 3.4727,-5.4174 1.1113,-1.8058 3.1949,-5.1397 4.8619,-7.3622 1.6669,-2.3614 3.056,-4.4451 3.056,-4.8618 0,-0.2778 -0.8335,0.2778 -1.9448,1.2502 z m -87.2348,-11.5295 c 0.8334,-1.3891 1.2502,-2.0836 1.1112,-1.528 -0.2778,1.2502 -2.5003,5.1397 -2.5003,4.4451 0,-0.2778 0.6945,-1.528 1.3891,-2.9171 z m -7.9178,8.1957 c -0.4168,0.6945 -0.8335,1.2501 -0.9724,1.2501 -0.1389,0 0.1389,-0.5556 0.4167,-1.2501 0.4168,-0.8335 0.8335,-1.3891 0.9724,-1.3891 0.1389,0 -0.1389,0.5556 -0.4167,1.3891 z m 3.8894,-6.6677 c -0.2778,0.5557 -0.8334,1.3891 -1.2502,1.8058 l -0.6945,0.9724 0.4167,-0.9724 c 0.2778,-0.4167 0.8335,-1.2501 1.2502,-1.8058 l 0.6945,-0.8334 z m 1.2502,-2.0836 c -0.2778,0.5556 -0.5556,0.9724 -0.6945,0.9724 -0.139,0 0,-0.4168 0.2778,-0.9724 0.2778,-0.4167 0.5556,-0.8335 0.6945,-0.8335 0.1389,0 0,0.4168 -0.2778,0.8335 z m -21.8087,28.6152 c 2.2225,-6.3898 9.8625,-21.9476 12.5018,-25.1425 0.4167,-0.5556 0.1389,0.2778 -0.5556,1.528 -2.3615,4.1673 -7.2233,13.752 -8.4735,16.9469 -0.6945,1.528 -2.0836,5.0007 -3.056,7.64 -2.0836,5.8342 -2.3614,5.0007 -0.4167,-0.9724 z m 3.8894,-2.5003 c -0.9723,2.5003 -2.2225,6.2509 -2.7781,8.4734 -0.5557,2.0837 -0.9724,3.3338 -1.1113,2.7782 0,-2.9171 2.7782,-11.5294 6.112,-18.6138 3.6116,-7.9178 11.5294,-20.9753 13.3352,-22.3643 0.6946,-0.5557 0.6946,-0.4168 -0.1389,0.6945 -6.8065,10.5571 -12.224,20.9753 -15.4189,29.032 z m 0.4168,4.0283 c 1.6669,-5.6952 6.9454,-16.3912 12.5018,-25.6981 3.7505,-6.3898 4.8618,-7.9178 5.2785,-7.5011 0,0.1389 -1.1113,2.2225 -2.6393,4.7229 -5.6952,9.168 -11.1127,19.3083 -13.7519,25.976 -1.2502,3.1949 -1.9448,4.4451 -1.3891,2.5003 z m 3.3338,5.5564 c -0.1389,0.6945 -0.2778,0.8335 -0.2778,0.1389 -0.1389,-1.3891 2.2225,-7.2233 5.5563,-13.8909 1.6669,-3.4727 3.1949,-6.3898 3.3338,-6.2509 0.1389,0.1389 -0.9723,2.5004 -2.3614,5.2785 -1.3891,2.7782 -3.3338,6.9455 -4.3062,9.4459 -0.9724,2.5003 -1.8058,4.8618 -1.9447,5.2785 z m 3.3338,8.1956 c -0.5556,0.6946 -0.9724,0.9724 -0.9724,0.5557 0,-0.1389 0.4168,-0.4168 0.8335,-0.8335 0.6945,-0.5556 0.6945,-0.5556 0.1389,0.2778 z m 1.3891,-1.9447 c -0.5557,0.8335 -0.9724,1.1113 -0.9724,0.6946 0,-0.139 0.4167,-0.4168 0.8335,-0.8335 0.6945,-0.5556 0.6945,-0.5556 0.1389,0.1389 z m 2.7782,-5.4174 c -0.6946,0.8334 -0.9724,0.9723 -0.9724,0.6945 0,-0.1389 0.2778,-0.5556 0.6945,-0.8335 0.8335,-0.5556 0.8335,-0.5556 0.2779,0.139 z m 1.2501,-1.9448 c -0.2778,0.5557 -0.5556,0.9724 -0.6945,0.9724 -0.1389,0 0,-0.4167 0.2778,-0.9724 0.2778,-0.4167 0.5557,-0.8334 0.6946,-0.8334 0.1389,0 0,0.4167 -0.2779,0.8334 z m 2.2226,-3.6116 c -0.2778,0.5556 -0.5556,0.9724 -0.6946,0.9724 -0.1389,0 0,-0.4168 0.2779,-0.9724 0.2778,-0.5556 0.5556,-0.8335 0.6945,-0.8335 0.1389,0 0,0.2779 -0.2778,0.8335 z m 3.4727,-3.7505 c -0.1389,0.1389 -0.4167,0.4167 -0.5556,0.4167 -0.2778,0 -0.6946,0.1389 -0.9724,0.2778 -0.5556,0.4167 -0.5556,0.2778 0,-0.5556 0.2778,-0.5557 0.6946,-0.6946 0.6946,-0.4168 0.1389,0.1389 0.4167,0.2779 0.6945,0.1389 0.4167,-0.2778 0.4167,-0.1389 0.1389,0.139 z m 54.7302,5.5563 c -0.139,0.4167 -0.4168,0.5556 -0.4168,0.2778 0,-0.2778 0.2778,-0.8334 0.4168,-1.1112 0.2778,-0.4168 0.5556,-0.5557 0.5556,-0.2779 0,0.2779 -0.2778,0.6946 -0.5556,1.1113 z m 7.64,-17.5025 c 0.1389,0 -0.2779,1.2502 -0.6946,2.5003 -0.9724,2.3615 -6.5287,13.8909 -6.2509,12.9186 0.1389,-0.8335 6.8065,-15.5578 6.9455,-15.4189 z m -34.5884,18.8916 c 0.8335,-0.6945 0.8335,-0.5556 0.2778,0.1389 -0.6945,0.6946 -0.9723,0.9724 -0.9723,0.5556 0,0 0.2778,-0.4167 0.6945,-0.6945 z m -2.0836,2.7782 c 1.2502,-1.6669 1.3891,-1.8058 1.1112,-0.5557 -0.1389,0.139 -0.1389,0.2779 -0.1389,0.2779 l -0.9723,0.9723 -1.1113,0.8335 z m 4.7229,-27.504 c 0.6945,-1.6669 1.3891,-2.9171 1.528,-2.9171 0.2778,0.4167 -2.3615,6.6676 -5.9731,14.0298 -1.8058,3.8895 -4.0284,8.6124 -4.8618,10.5571 -0.8335,1.8058 -1.528,3.3338 -1.6669,3.4727 -0.8335,0.9724 2.2225,-6.2509 6.5287,-15.4189 1.8058,-3.6116 3.7505,-8.0567 4.4451,-9.7236 z m -2.6393,-4.7229 c 0.1389,0.1389 -1.6669,4.4451 -3.8894,9.4458 -2.3615,5.1396 -4.3062,9.4458 -4.3062,9.4458 -0.5557,0.5557 0,-0.9723 2.9171,-7.5011 1.8058,-4.0283 3.7505,-8.1956 4.1672,-9.3069 0.5557,-1.2502 1.1113,-2.0836 1.1113,-2.0836 z m -3.1949,-3.1949 c 0.1389,0.1389 -1.1113,3.3338 -2.7782,7.0843 -1.6669,3.6117 -4.0283,9.3069 -5.2785,12.3629 -1.2502,3.195 -2.3615,5.8342 -2.5004,5.8342 -0.8334,0.9724 2.2226,-7.0843 5.6953,-15.28 3.7505,-8.6123 4.584,-10.2792 4.8618,-10.0014 z m -12.6407,5.6953 c 0.6945,-0.5557 0.6945,-0.5557 0.1389,0.2778 -0.5556,0.6945 -0.9724,0.9723 -0.9724,0.5556 0,-0.1389 0.4168,-0.4167 0.8335,-0.8334 z m -1.8058,2.2225 c 0.4167,-0.2778 0.1389,0.4167 -0.5557,1.3891 -0.6945,1.1113 -1.3891,1.9447 -1.528,1.9447 -0.2778,0 1.3891,-2.7782 2.0837,-3.3338 z m -2.7782,4.1673 c 0.6945,-0.5557 0.6945,-0.5557 0.1389,0.1389 -0.5556,0.8334 -0.9724,1.1113 -0.9724,0.6945 0,-0.1389 0.4168,-0.4167 0.8335,-0.8334 z m -5.9731,9.5847 c -0.1389,0 -0.1389,-0.4167 0.1389,-0.8335 0.2778,-0.5556 0.6946,-0.9723 0.8335,-0.9723 0,0 0,0.4167 -0.2779,0.9723 -0.2778,0.4168 -0.6945,0.8335 -0.6945,0.8335 z m 1.528,-0.4167 c -0.2778,0.5556 -0.5556,0.9723 -0.6945,0.9723 -0.139,0 0,-0.4167 0.2778,-0.9723 0.2778,-0.4168 0.5556,-0.8335 0.6945,-0.8335 0.1389,0 0,0.4167 -0.2778,0.8335 z m 1.3891,-2.2226 c -0.5556,1.1113 -0.9724,1.1113 -0.5556,0.1389 0.2778,-0.6945 0.1389,-0.8334 -0.5557,-0.2778 -0.5556,0.5556 -0.6945,0.5556 -0.4167,0 0.1389,-0.4167 0.5556,-0.6945 1.1113,-0.6945 0.6945,0 0.6945,0.2778 0.4167,0.8334 z m 3.4727,-5.2785 c -1.2502,1.8058 -2.0836,2.6392 -1.9447,2.0836 0.2778,-1.1113 0.2778,-1.1113 -0.4167,-0.2778 -0.4168,0.5556 -0.5557,1.1113 -0.4168,1.528 0.1389,0.2778 0.1389,0.5556 0.1389,0.5556 -1.1112,-0.4167 -1.1112,-0.6945 -0.1389,-2.3614 1.2502,-1.8058 1.6669,-2.2226 1.2502,-1.1113 -0.5556,1.528 0.4167,0.5556 2.2226,-2.0836 2.0836,-3.1949 8.4734,-11.2517 8.8901,-11.2517 0.1389,0 -0.2778,0.6946 -0.9723,1.3891 -2.7782,3.3338 -6.5287,8.6124 -8.6124,11.5295 z m 7.3622,14.7243 c -1.2502,3.6117 -2.0836,5.8342 -1.9447,4.8618 0.8334,-5.1396 5.6952,-17.5025 13.0574,-33.477 0.5556,-1.1113 0.9724,-1.6669 1.1113,-1.2502 0.1389,0.2778 -2.0836,5.6953 -4.8618,11.9462 -2.7782,6.2509 -6.112,14.3076 -7.3622,17.9192 z m 3.4727,-5.0007 c 0.2778,-0.5556 0.4167,-0.8334 0.5557,-0.6945 0.1389,0.2778 0,0.5556 -0.2779,0.8334 -0.4167,0.5557 -0.4167,0.4167 -0.2778,-0.1389 z m 5.6953,16.3913 c -0.2778,0.4167 -1.528,1.8058 -2.7782,3.1949 l -2.2225,2.5003 2.5003,-3.1949 c 2.5004,-3.1949 3.4728,-4.1672 2.5004,-2.5003 z m 0.1389,-2.0837 c -0.6945,0.6946 -0.9724,0.9724 -0.9724,0.5557 0,0 0.2779,-0.4168 0.6946,-0.6946 0.6945,-0.5556 0.8334,-0.5556 0.2778,0.1389 z m 1.2502,0 c -0.2778,0.4168 -0.6946,0.8335 -0.6946,0.8335 -0.4167,0 -0.1389,-0.4167 0.5557,-0.9724 0.6945,-0.5556 0.6945,-0.5556 0.1389,0.1389 z m 3.3338,-4.8618 c -1.1113,2.0837 -3.056,4.3062 -2.6393,3.1949 l 0.2778,-0.8334 c 0.1389,0 0.2779,-0.1389 0.6946,-0.5557 0.4167,-0.5556 1.2502,-1.528 1.6669,-2.0836 0.6945,-1.1113 0.6945,-1.1113 0,0.2778 z m 4.8618,-7.5011 c -2.6393,4.4451 -4.3062,6.6677 -3.7505,5.1397 0.2778,-0.8335 0.1389,-0.8335 -0.5557,-0.1389 -0.8334,0.5556 -0.8334,0.5556 -0.2778,-0.4168 0.5556,-1.1112 1.528,-1.8058 1.1113,-0.8334 -0.5557,1.3891 0.1389,0.6945 1.6669,-1.528 0.8334,-1.2502 1.3891,-2.3615 1.2502,-2.5004 -0.1389,-0.1389 -0.6946,0.4167 -1.2502,1.3891 -0.5556,0.8335 -1.1113,1.528 -1.2502,1.528 -0.1389,0 0,-0.4167 0.4167,-0.9724 0.4168,-0.5556 2.0837,-3.3338 3.7506,-6.112 1.8058,-2.6392 5.0007,-7.6399 7.2232,-10.9738 2.0837,-3.3338 3.7506,-6.2509 3.6117,-6.5287 -0.1389,-0.2778 -0.1389,-0.4167 0.1389,-0.2778 0.2778,0.1389 1.528,-0.9724 2.7782,-2.6393 1.1112,-1.528 2.3614,-3.056 2.7782,-3.056 0.2778,-0.1389 -0.6946,1.2502 -2.2226,3.056 -1.528,1.9447 -2.6393,3.7506 -2.6393,4.0284 0,0.2778 0.5557,-0.2778 1.3891,-1.2502 0.8335,-0.9724 2.3615,-2.6393 3.3338,-3.6116 1.667,-1.8058 1.667,-1.8058 -0.2778,0.6945 -4.3062,5.2786 -11.5294,15.8356 -17.2247,25.0036 z m 8.8902,14.8633 c -0.4167,1.9447 -0.8335,3.6116 -0.9724,3.6116 -0.8334,0.8335 1.1113,-7.64 2.7782,-12.6407 0.8335,-2.5003 3.6116,-8.8902 6.112,-14.3076 2.3615,-5.2786 5.1396,-11.2516 5.9731,-13.1964 1.8058,-4.3061 2.5003,-5.4174 1.3891,-2.0836 -1.2502,3.7505 -4.4451,11.1127 -6.9455,16.1134 -4.1672,8.1957 -6.9454,15.9746 -8.3345,22.5033 z m 1.3891,2.5004 c -0.8335,4.8618 -1.3891,5.8341 -0.9724,1.6669 0.6946,-6.5288 3.3338,-14.7244 8.0567,-24.448 4.1673,-8.7513 7.9178,-17.0858 8.4735,-19.0305 0.4167,-0.8335 0.6945,-1.528 0.8334,-1.3891 0.6946,0.6945 -3.056,9.7236 -8.8901,21.6698 -3.7506,7.7789 -6.5288,15.8356 -7.5011,21.5309 z m 1.3891,2.2225 c -0.1389,0.2778 -0.2779,0.1389 -0.2779,-0.5556 0,-0.5557 0.139,-0.8335 0.2779,-0.5557 0.1389,0.2778 0.1389,0.8335 0,1.1113 z m 1.3891,-5.5564 c -0.6946,2.0837 -1.2502,3.6117 -1.2502,3.1949 0,-1.1112 2.0836,-8.0567 3.6116,-12.085 1.528,-4.0284 8.3345,-18.0582 8.4735,-17.7804 0.2778,0.2778 -1.9448,5.4175 -3.6117,8.8902 -0.8334,1.6669 -2.5003,5.4174 -3.8894,8.4734 -1.2502,3.056 -2.7782,7.2233 -3.3338,9.3069 z m 2.2225,5.8342 c 0.8335,-3.3338 3.3338,-10.4182 3.6116,-10.1403 0.1389,0 -0.1389,0.9723 -0.5556,1.9447 -0.4167,0.9724 -1.3891,4.0284 -2.2225,6.9454 -1.528,5.4175 -2.0837,6.112 -0.8335,1.2502 z m 12.9185,0.6946 c -0.2778,0.4167 -0.6945,0.6945 -0.6945,0.6945 -0.4167,0 -0.1389,-0.2778 0.5556,-0.8334 0.6946,-0.6946 0.6946,-0.5557 0.1389,0.1389 z m 2.9171,-3.3339 c -0.4167,0.5557 -0.9723,0.9724 -0.9723,0.9724 -0.1389,0 0.1389,-0.4167 0.5556,-0.9724 0.4167,-0.5556 0.9724,-0.9723 0.9724,-0.9723 0.1389,0 -0.1389,0.4167 -0.5557,0.9723 z m 1.8058,-2.2225 c -0.4167,0.4167 -0.8334,0.8335 -0.9723,0.8335 -0.1389,0 0.1389,-0.4168 0.5556,-0.8335 0.4167,-0.5556 0.9724,-0.9724 1.1113,-0.9724 0,0 -0.1389,0.4168 -0.6946,0.9724 z m 3.8895,-5.0007 c -0.5556,0.8334 -0.8335,1.1113 -0.8335,0.6945 0,-0.1389 0.2779,-0.4167 0.6946,-0.8334 0.6945,-0.5557 0.8334,-0.5557 0.1389,0.1389 z m 1.3891,-1.8058 c -0.5557,0.8334 -0.9724,1.1112 -0.9724,0.6945 0,-0.1389 0.4167,-0.4167 0.8335,-0.8334 0.6945,-0.5557 0.6945,-0.5557 0.1389,0.1389 z m 0.5556,-0.9724 c -0.1389,0 0.2778,-0.5556 0.8335,-1.3891 0.5556,-0.6945 0.9723,-1.3891 1.1112,-1.3891 0.139,0 -0.1389,0.6946 -0.6945,1.3891 -0.5556,0.8335 -1.1113,1.3891 -1.2502,1.3891 z m 2.6393,-1.6669 -1.1113,0.9724 0.8335,-0.9724 c 0.8334,-0.9724 0.8334,-1.2502 0.2778,-1.528 -0.4167,-0.2778 -0.5556,-0.4167 -0.1389,-0.4167 0.2778,0 0.6945,0.1389 0.8334,0.4167 0.1389,0.2778 -0.1389,0.9724 -0.6945,1.528 z m 4.0284,-5.5564 c -0.4168,0.8335 -1.8059,2.0837 -1.8059,1.528 0,-0.1389 -0.2778,0 -0.6945,0.2779 -0.4167,0.4167 -0.2778,-0.139 0.4167,-0.9724 1.2502,-1.6669 2.9171,-2.3615 2.0837,-0.8335 z m 1.8058,-2.5003 c -0.5557,0.5556 -1.1113,0.9723 -1.528,0.9723 -0.5557,0 -0.5557,-0.1389 -0.1389,-0.6945 0.2778,-0.2778 0.5556,-0.4167 0.6945,-0.4167 0.1389,0.1389 0.5556,0 0.9724,-0.2779 0.5556,-0.4167 0.5556,-0.2778 0,0.4168 z m 1.8058,-2.5004 c -0.4167,0.5556 -0.9724,1.1113 -1.1113,1.1113 -0.2778,0 -0.6945,0.1389 -0.9724,0.4167 -0.4167,0.1389 -0.4167,-0.1389 0.139,-0.8334 0.8334,-1.3891 1.1112,-1.528 0.8334,-0.4168 -0.1389,0.5557 0,0.4168 0.6946,-0.2778 l 1.1112,-1.2502 z m 1.2502,-2.5004 c 0,0.6946 -0.1389,0.8335 -0.4168,0.139 -0.2778,-0.139 -0.1389,-0.4168 0,-0.5557 0.2779,-0.1389 0.4168,0 0.4168,0.4167 z m 1.8058,-2.3614 c 0,0.8334 -0.1389,0.8334 -0.4167,0.2778 -0.139,-0.2778 -0.139,-0.5556 0.1389,-0.6945 0.1389,-0.1389 0.2778,0.1389 0.2778,0.4167 z m 46.6733,-6.112 c -0.6946,-0.6945 -0.9724,-0.5556 -4.584,3.3338 -2.0836,2.2226 -5.8342,6.3898 -8.1956,9.3069 -9.3069,10.8349 -15.1411,16.9469 -18.7528,19.5862 -3.6116,2.3614 -6.9454,4.0283 -9.1679,4.3062 l -1.8059,0.2778 v -2.2226 c 0,-5.8341 2.9171,-13.752 11.6684,-31.5323 5.8342,-11.9462 6.9454,-15.0022 5.4174,-15.0022 -0.4167,0 -0.6945,-0.2778 -0.6945,-0.6945 0,-0.5557 -0.2778,-0.6946 -0.9724,-0.5557 -0.5556,0.139 -0.6945,0.139 -0.5556,-0.2778 0.1389,-0.2778 0,-0.2778 -0.4167,-0.1389 -0.5557,0.2778 -0.8335,0.1389 -0.6946,-0.5556 0.1389,-0.4167 -0.1389,-0.6946 -0.5556,-0.5557 -0.5556,0 -0.9724,-0.4167 -1.3891,-1.2501 -2.5004,-6.112 -10.0014,0.8334 -17.9193,16.808 -5.1396,10.1403 -6.9454,16.9469 -6.5287,24.1701 0.4167,5.9731 3.3338,11.8073 7.0844,14.0298 0.9723,0.5557 2.2225,1.528 2.9171,2.0837 0.6945,0.6945 1.9447,1.3891 2.9171,1.8058 2.2225,0.8334 4.1672,0.5556 7.2232,-0.9724 6.8066,-3.1949 21.2531,-19.5862 32.9215,-36.9498 2.6392,-4.0283 2.7781,-4.3062 2.0836,-5.0007 z m -40.7003,19.4473 c -0.2779,0.4167 -0.4168,0.4167 -0.4168,0.2778 0,-0.2778 0.1389,-0.8335 0.4168,-1.2502 0.2778,-0.2778 0.4167,-0.4167 0.4167,-0.1389 0,0.2778 -0.1389,0.6945 -0.4167,1.1113 z m 1.9447,-4.4451 c -0.8335,1.528 -1.3891,2.7782 -1.3891,2.5003 -0.1389,-0.4167 2.3614,-5.8341 2.5004,-5.6952 0.1389,0.1389 -0.4168,1.528 -1.1113,3.1949 z m 2.3614,-5.4175 c -0.2778,0.8335 -0.6945,0.9724 -0.6945,0.2778 0,-0.1389 0.2778,-0.5556 0.5556,-0.6945 0.1389,-0.1389 0.2778,0.1389 0.1389,0.4167 z m 2.7782,-12.224 c -0.4167,0.8335 -0.6945,0.9724 -0.6945,0.2778 0,-0.2778 0.1389,-0.5556 0.4167,-0.6945 0.2778,-0.1389 0.4167,0 0.2778,0.4167 z m -7.0843,0.6946 c 0.5556,-0.9724 1.1112,-1.8058 1.1112,-1.8058 0.1389,0 -0.1389,0.8334 -0.6945,1.8058 -0.4167,0.9723 -0.9724,1.8058 -1.1113,1.8058 -0.1389,0 0.1389,-0.8335 0.6946,-1.8058 z m -9.4459,22.5032 c -0.1389,-1.8058 2.2226,-8.0567 5.1397,-14.1687 1.6669,-3.3338 3.056,-6.112 3.1949,-6.112 0.2778,0 -0.9724,2.7782 -3.056,7.0844 -0.9724,2.0836 -2.6393,5.9731 -3.6116,8.8902 -0.9724,2.917 -1.667,4.8618 -1.667,4.3061 z m 0.8335,4.8618 c 0,-1.9447 1.3891,-8.0567 2.9171,-11.9461 2.9171,-7.3622 10.1403,-20.8364 13.0574,-24.0313 l 0.9724,-1.1113 -0.8335,1.3891 c -4.8618,7.9178 -10.0014,18.0582 -12.224,23.7535 -0.6945,1.9447 -1.9447,5.5563 -2.6392,8.1956 -0.5557,2.6393 -1.2502,4.3062 -1.2502,3.7505 z m 3.6116,-4.445 c 0,0.2778 -0.1389,0.8334 -0.4167,1.2501 -0.8334,1.1113 0,-2.2225 1.6669,-6.8065 1.9447,-5.4175 8.8902,-19.1694 11.9462,-23.8923 2.3614,-3.4728 3.6116,-4.8619 1.8058,-1.8059 -5.9731,10.0015 -15.0022,28.6153 -15.0022,31.2546 z m 1.8058,7.501 c 0,-0.9723 2.3615,-8.3345 2.5004,-8.0567 0.1389,0.1389 -0.4167,2.0837 -1.1113,4.4451 -0.6945,2.3615 -1.2501,4.0284 -1.3891,3.6116 z m 26.9484,-7.501 c -0.5556,0.6945 -0.9724,0.9723 -0.9724,0.5556 0,-0.1389 0.2778,-0.4167 0.8335,-0.8335 0.6945,-0.5556 0.6945,-0.5556 0.1389,0.2779 z m 1.9447,-1.1113 c -0.4167,0.5556 -0.8334,0.9723 -0.9723,0.9723 -0.139,0 0.1389,-0.4167 0.5556,-0.9723 0.4167,-0.4167 0.9724,-0.8335 0.9724,-0.8335 0.1389,0 -0.139,0.4168 -0.5557,0.8335 z m 0.2778,-1.6669 c -0.5556,0.6945 -0.9723,0.9723 -0.9723,0.5556 0,0 0.4167,-0.4167 0.8334,-0.6945 0.6946,-0.5557 0.6946,-0.5557 0.1389,0.1389 z m 1.8059,-2.2226 c -0.5557,0.6946 -0.9724,0.9724 -0.9724,0.5557 0,-0.1389 0.4167,-0.4168 0.8334,-0.8335 0.6946,-0.5556 0.6946,-0.5556 0.139,0.2778 z m 1.8058,-0.9723 c -0.5557,0.8334 -0.9724,0.9723 -0.9724,0.6945 0,-0.1389 0.4167,-0.5556 0.8335,-0.8334 0.6945,-0.5557 0.6945,-0.5557 0.1389,0.1389 z m 2.0836,-2.9171 c -0.4167,-0.1389 -0.9724,0.1389 -1.1113,0.5556 -0.1389,0.4167 0,0.4167 0.4168,0.1389 0.5556,-0.2778 0.5556,-0.1389 0,0.4168 -0.2779,0.4167 -0.6946,0.6945 -0.8335,0.5556 -0.1389,-0.1389 -0.5556,0 -0.9724,0.4167 -0.4167,0.2778 0,-0.4167 0.8335,-1.3891 1.2502,-1.8058 2.3615,-2.6392 1.6669,-1.528 -0.1389,0.1389 0,0.5557 0.2778,0.6946 0.2778,0.1389 0.2778,0.1389 -0.2778,0.1389 z m 2.6393,-3.056 c -0.4167,0.5556 -0.8335,0.8334 -0.9724,0.6945 -0.1389,-0.1389 -0.5556,0 -0.9723,0.2778 -0.4168,0.2779 -0.2779,0 0.2778,-0.5556 0.5556,-0.6945 1.3891,-1.2502 1.6669,-1.2502 0.6945,0 0.5556,0.1389 0,0.8335 z m 1.3891,-1.9447 c -0.1389,0.1389 -0.5557,0.2778 -0.9724,0.4167 -0.5556,0 -0.5556,-0.1389 -0.1389,-0.5557 0.2778,-0.4167 0.6945,-0.5556 0.9724,-0.4167 0.2778,0.1389 0.2778,0.4167 0.1389,0.5557 z m 1.3891,-2.3615 c 0,0.4167 -0.4168,0.8335 -0.8335,0.8335 -0.8335,0.1389 -0.8335,0.1389 0,-0.6946 0.9724,-1.1113 0.9724,-1.1113 0.8335,-0.1389 z m 2.2225,-2.2225 c -0.1389,0.1389 -0.4167,0.2778 -0.5556,0.4167 -0.1389,0 -0.5557,0.1389 -0.9724,0.2778 -0.5556,0.4167 -0.5556,0.4167 -0.1389,-0.1389 0.2778,-0.2778 0.9724,-0.6945 1.2502,-0.6945 0.4167,-0.139 0.6945,0 0.4167,0.1389 z m 1.2502,-1.528 c 0,0.1389 -0.4167,0.1389 -0.6946,0.1389 -0.4167,0 -0.5556,-0.1389 -0.4167,-0.4168 0.1389,-0.2778 1.1113,-0.1389 1.1113,0.2779 z m -27.0873,-28.3375 c 0.6946,0.2778 1.2502,0.8335 1.528,1.528 0.2778,0.5557 0.8335,1.2502 1.2502,1.2502 0.4167,0.1389 0.9724,0.2778 1.1113,0.2778 0.4167,0.1389 1.9447,-1.8058 3.3338,-4.0283 1.6669,-2.5004 5.0007,-5.6953 8.1956,-7.64 1.3891,-0.9724 2.5004,-1.9448 2.5004,-2.2226 0,-0.4167 -0.6946,-1.3891 -1.6669,-2.2225 -1.6669,-1.528 -1.9447,-1.528 -3.7506,-1.2502 -4.7229,0.6945 -13.4741,5.5564 -14.7243,8.0567 -0.4167,0.8335 -0.8335,1.8058 -0.8335,2.0837 0,1.1112 1.9448,3.7505 3.056,4.1672 z m 4.584,-4.584 c 0.4168,-0.4167 0.1389,0.1389 -0.5556,1.2502 -0.6946,0.9724 -1.528,1.9447 -1.6669,1.9447 -0.5557,0 1.1113,-2.3614 2.2225,-3.1949 z m -2.7782,0.8335 c 0.6946,-0.5557 0.6946,-0.5557 0.2779,0.4167 -0.5557,1.1113 -0.9724,1.2502 -0.9724,0.5556 0,-0.1389 0.2778,-0.5556 0.6945,-0.9723 z m 58.4808,-33.1993 c -1.528,-4.0283 -6.8066,-1.3891 -11.5295,5.6953 -1.1112,1.6669 -4.0283,6.6676 -6.3898,11.2516 -14.7243,27.0873 -24.3091,50.1462 -28.0596,67.232 -2.3615,11.1127 -2.2225,15.8356 0.9724,22.3643 1.528,3.1949 5.5563,7.2233 7.7789,7.64 0.6945,0.2778 1.9447,0.8335 2.5003,1.3891 0.6946,0.5557 1.6669,1.1113 1.9447,1.2502 1.3891,0.5556 4.584,0.4167 5.8342,-0.2778 2.0837,-1.1113 7.2233,-6.6676 9.8626,-10.696 1.3891,-2.2226 5.1396,-8.4735 8.3345,-14.1687 3.1949,-5.5564 7.9178,-13.6131 10.5571,-17.6415 4.584,-7.5011 5.2785,-9.168 3.7505,-9.0291 -0.4167,0 -0.6945,-0.1389 -0.6945,-0.4167 0.1389,-0.4167 -0.1389,-0.6945 -0.5556,-0.6945 -1.2502,0 -4.723,4.1672 -9.8626,11.2516 -17.2247,24.3091 -20.6974,29.1709 -22.6422,31.1156 -1.2501,1.2502 -2.5003,2.2226 -2.7781,2.2226 -0.6946,0 -0.1389,-8.6124 0.6945,-13.8909 1.6669,-8.8902 7.64,-26.8095 14.1687,-41.256 3.4728,-7.9178 11.1127,-23.3367 15.1411,-30.2822 6.8066,-11.8072 8.3345,-16.1134 6.6676,-18.1971 -1.528,-1.6669 -2.5003,-2.0836 -3.4727,-1.1112 -0.9723,0.8334 -0.9723,0.8334 -0.4167,-0.1389 0.6945,-1.528 0.5556,-2.0837 -0.4167,-1.6669 -0.5557,0.1389 -0.8335,0 -0.8335,-0.1389 0,-0.2779 -0.1389,-0.9724 -0.5556,-1.8059 z m 3.8894,65.704 c 0.2778,-0.2778 1.1113,-0.1389 1.1113,0.2778 0,0 -0.2778,0.1389 -0.6945,0.1389 -0.2779,0 -0.5557,-0.1389 -0.4168,-0.4167 z m -1.2502,1.8058 c 0.6946,-0.5556 0.6946,-0.5556 0.139,0.1389 -0.5557,0.8335 -0.9724,1.1113 -0.9724,0.6946 0,-0.1389 0.4167,-0.4168 0.8334,-0.8335 z m -4.7229,6.3898 c 0.2779,-0.5556 0.5557,-0.6945 0.6946,-0.5556 0.1389,0.1389 0,0.4167 -0.4167,0.6945 -0.4168,0.5557 -0.4168,0.4168 -0.2779,-0.1389 z m -39.0334,19.5862 c -0.5556,3.6116 -1.2502,4.584 -0.9724,1.2502 0.9724,-10.0015 8.4735,-31.8102 17.6415,-52.0909 5.0007,-10.8349 16.6691,-32.3658 17.5025,-32.3658 0.1389,0 -0.1389,0.6945 -0.6945,1.528 -1.1113,1.6669 -6.112,11.1127 -10.8349,20.1418 -10.9738,20.8364 -20.9753,48.2014 -22.6422,61.5367 z m 3.1949,-5.9731 c -0.6945,2.9171 -1.3891,7.0844 -1.528,9.4458 -0.2778,2.6393 -0.5556,3.7506 -0.6945,3.056 -0.8335,-2.2225 0.8334,-11.8073 3.3338,-20.5585 2.2225,-7.5011 7.3622,-21.392 11.5294,-30.6989 6.3898,-14.3076 19.3084,-38.4778 22.6422,-42.2283 1.528,-1.8059 1.3891,-1.2502 -1.528,3.3338 -2.9171,4.7229 -12.6407,22.92 -16.1134,30.2821 -8.4735,17.7804 -14.8633,34.7273 -17.6415,47.368 z m 6.5287,2.5004 c -0.2778,1.2501 -0.9723,4.4451 -1.3891,7.2232 -0.8334,5.4175 -1.1112,5.1397 -0.4167,-0.2778 0.5557,-3.7505 1.8058,-9.4458 2.0837,-9.168 0.1389,0.1389 0,1.1113 -0.2779,2.2226 z m 0.6946,-2.9171 c -0.1389,0.1389 -0.2778,-0.1389 -0.1389,-0.6946 0,-0.5556 0.1389,-0.5556 0.2778,-0.2778 0.1389,0.4167 0,0.6946 -0.1389,0.9724 z m 1.8058,-6.3898 c -0.1389,0.1389 -0.1389,-0.1389 -0.1389,-0.6946 0,-0.4167 0.1389,-0.5556 0.2778,-0.2778 0.1389,0.4167 0.1389,0.8335 -0.1389,0.9724 z m -0.2778,-10.4182 c -0.1389,0.4167 -0.4167,0.5556 -0.4167,0.2778 0,-0.2778 0.2778,-0.8334 0.4167,-1.1113 0.2778,-0.4167 0.5556,-0.5556 0.5556,-0.2778 0,0.2778 -0.2778,0.8335 -0.5556,1.1113 z m 1.3891,-3.6116 c -0.1389,0.4167 -0.4168,0.5556 -0.4168,0.2778 0,-0.2778 0.2779,-0.8335 0.4168,-1.1113 0.2778,-0.4167 0.4167,-0.5556 0.4167,-0.2778 0,0.2778 -0.1389,0.6945 -0.4167,1.1113 z m 8.6123,-12.0851 c 0,0.2778 -0.2778,0.9723 -0.5556,1.6669 -0.4167,0.5556 -0.6945,0.9723 -0.6945,0.6945 0,-0.2778 0.2778,-0.9723 0.6945,-1.6669 0.2778,-0.5556 0.5556,-0.8334 0.5556,-0.6945 z m 2.7782,-6.112 c -0.2778,0.4167 -0.4167,0.5556 -0.4167,0.2778 0,-0.2778 0.1389,-0.8335 0.4167,-1.1113 0.2778,-0.4167 0.4167,-0.5556 0.4167,-0.2778 0,0.2778 -0.1389,0.6945 -0.4167,1.1113 z m 8.1956,-16.3913 c -2.5003,4.7229 -4.8618,9.3069 -5.4174,10.2793 -0.4167,0.9723 -0.9724,1.6669 -0.9724,1.3891 0,-0.5557 9.4458,-18.7527 10.4182,-20.0029 0.9724,-1.528 0.5556,-0.5557 -4.0284,8.3345 z m 6.3899,-18.6138 c -0.2779,0.5556 -0.5557,0.9724 -0.6946,0.9724 -0.1389,0 0,-0.4168 0.2778,-0.9724 0.2778,-0.5556 0.5557,-0.9724 0.6946,-0.9724 0.1389,0 0,0.4168 -0.2778,0.9724 z m -0.5557,-1.528 c -12.5018,20.4196 -25.2814,48.6182 -31.1156,68.2043 -0.8334,2.9171 -2.0836,7.3622 -2.7782,10.0015 -0.8334,3.6116 -0.9723,4.0283 -0.8334,1.9447 1.528,-14.7244 16.9469,-51.6741 32.9214,-78.7614 1.8058,-3.1949 3.6116,-5.8342 3.7505,-5.8342 0.6946,0 0.5557,0.2778 -1.9447,4.4451 z m 6.6677,-4.3062 c 0.5556,-0.5556 -0.2779,1.8058 -1.667,4.584 -0.6945,1.3891 -1.389,2.6393 -1.528,2.6393 -0.1389,0 2.7782,-6.8065 3.195,-7.2233 z m 53.7577,56.536 c -0.4167,0 -0.8334,-0.2778 -0.8334,-0.5556 -0.4168,-1.1113 -3.056,1.528 -6.3899,5.973 -7.2232,9.5848 -18.197,21.5309 -24.1701,25.976 -6.2509,4.7229 -12.3629,7.2233 -17.3637,7.2233 -3.3338,0 -4.0283,-0.2778 -5.0007,-2.0836 -1.528,-3.3339 -1.3891,-6.5288 0.5557,-12.6408 0.5556,-1.9447 0.8334,-2.0836 1.6669,-1.8058 2.0836,0.8335 6.8065,0.4167 9.4458,-0.8334 5.8342,-2.6393 13.8909,-10.0015 18.4749,-16.808 2.5003,-3.7506 4.1672,-8.8902 4.584,-13.3353 0.2778,-4.1673 -0.8335,-6.8065 -3.6117,-8.7513 -0.9723,-0.8334 -2.2225,-1.9447 -2.7781,-2.5003 -2.0837,-2.7782 -7.7789,-3.3338 -13.3353,-1.2502 -6.8065,2.6393 -15.28,10.1404 -20.9753,18.7527 -10.1403,15.4189 -12.3629,27.6429 -6.3898,36.5331 2.2226,3.1949 5.4175,6.3898 7.64,7.5011 1.1113,0.5556 2.6393,1.528 3.6117,2.2225 0.8334,0.6946 2.6392,1.6669 3.8894,1.9447 4.584,1.3891 9.168,0.8335 14.4465,-1.6669 9.7237,-4.7229 22.7811,-18.8916 34.7273,-37.5054 2.0836,-3.3338 2.9171,-6.3898 1.8058,-6.3898 z m -23.8923,-4.8618 c 0.1389,-0.5557 0.2778,-0.5557 0.4167,-0.1389 0,0.4167 -0.2778,0.9723 -0.4167,1.3891 -0.5557,0.8334 -0.5557,0 0,-1.2502 z m -1.9448,4.584 c 1.2502,-2.3615 1.3891,-2.3615 0.6946,0.2778 -0.1389,0.4167 0.1389,0.1389 0.4167,-0.5556 1.2502,-1.9448 1.3891,-1.528 0.2778,0.6945 -1.2502,2.5004 -2.7782,4.4451 -3.056,4.1673 -0.1389,-0.1389 -0.6945,0.1389 -1.1112,0.5556 -0.6946,0.5556 -0.5557,0.2778 0.2778,-0.8334 0.5556,-0.8335 1.8058,-2.7782 2.5003,-4.3062 z m -23.1978,0 c 0,-0.5557 5.4175,-7.0844 5.8342,-7.0844 0,0 -1.1113,1.6669 -2.6393,3.6116 -3.3338,4.1673 -3.1949,4.0284 -3.1949,3.4728 z m 5.8342,4.7229 c 5.8342,-8.6124 11.6684,-15.0022 15.5578,-16.9469 1.9447,-0.9724 2.0837,-0.4167 1.1113,4.0283 -1.9447,10.0015 -9.8625,20.0029 -19.0305,24.448 -2.5004,1.2502 -4.7229,1.6669 -4.7229,0.9724 0,-0.6946 4.7229,-9.0291 7.0843,-12.5018 z m -19.5862,14.4465 c -0.6945,2.2226 -1.389,4.1673 -1.528,4.3062 -0.6945,0.6945 1.667,-8.0567 2.6393,-9.5847 0.5556,-0.8335 0.4167,-0.1389 -1.1113,5.2785 z m 0.139,7.2233 0.2778,-3.1949 c 0,-1.6669 0.5556,-4.1673 0.9723,-5.4175 0.8335,-2.6392 1.8058,-3.8894 1.3891,-1.8058 -0.2778,0.6946 -0.8334,3.3338 -1.528,5.8342 z m 2.3614,-1.9447 c -0.1389,-1.1113 1.3891,-6.6677 1.8058,-7.0844 0.2778,-0.2778 0.4167,-0.2778 0.4167,0.1389 0,0.9724 -2.2225,7.64 -2.2225,6.9455 z m 5.1396,-0.8335 c -0.2778,0.8335 -0.5556,2.2225 -0.9723,3.1949 l -0.5557,1.8058 0.2779,-1.8058 c 0.1389,-0.9724 0.5556,-2.3614 0.8334,-3.056 l 0.6946,-1.3891 z m 49.8684,-15.0022 c -0.2779,0.4168 -0.6946,0.6946 -0.8335,0.5557 -0.1389,-0.1389 -0.5556,0 -0.9724,0.2778 -0.6945,0.5556 -0.6945,0.5556 -0.1389,-0.2778 0.4168,-0.4168 0.8335,-0.6946 0.9724,-0.5557 0,0.1389 0.5556,0 0.8335,-0.2778 0.6945,-0.5556 0.6945,-0.5556 0.1389,0.2778 z m 0.8334,-3.4727 c 0,-0.1389 0.4167,-0.5556 0.8335,-0.8334 0.6945,-0.5557 0.6945,-0.5557 0.1389,0.1389 -0.5557,0.8334 -0.9724,0.9723 -0.9724,0.6945 z m 1.528,0.2778 c -0.6945,0.6946 -0.9723,0.9724 -0.9723,0.5557 0,-0.1389 0.2778,-0.4168 0.6945,-0.8335 0.6945,-0.5556 0.8335,-0.5556 0.2778,0.2778 z m 2.3615,-3.4727 c -0.4168,0.6945 -0.6946,0.8335 -0.6946,0.1389 0,-0.2778 -0.2778,-0.4167 -0.5556,-0.1389 -0.2778,0.1389 -0.4167,0.1389 -0.1389,-0.1389 0.5556,-0.6946 1.528,-0.5556 1.3891,0.1389 z m -25.6982,0.8335 c 0.5556,-0.9724 0.9724,-1.8059 0.8335,-1.9448 -0.2779,-0.1389 -2.2226,2.7782 -2.2226,3.3338 0,0.5557 0.5557,0 1.3891,-1.389 z m 51.674,-24.8648 c -2.6392,-3.8894 -8.8901,-5.5563 -13.8909,-3.8894 -6.3898,2.0836 -13.3352,9.5847 -15.5578,16.808 -2.0836,7.0843 0.1389,14.4465 6.3898,20.6974 4.723,4.8618 5.2786,5.5564 5.0008,8.1957 -0.5557,5.2785 -5.6953,11.6683 -12.0851,14.8632 -3.056,1.528 -3.8895,1.8058 -6.9455,1.8058 -1.8058,0 -3.8894,0.1389 -4.4451,0.4168 -1.528,0.4167 -1.8058,2.2225 -0.4167,4.0283 1.528,2.0837 9.0291,9.3069 10.4182,9.8626 0.5556,0.2778 2.6393,0.4167 4.584,0.2778 3.056,0 3.8894,-0.2778 8.1956,-2.5004 3.8895,-1.8058 5.4175,-2.9171 7.7789,-5.4174 5.5564,-5.5564 8.1957,-12.9186 6.6677,-18.6138 -0.6946,-2.6393 -3.7506,-7.0844 -7.64,-11.2517 -4.0284,-4.0283 -4.8618,-5.9731 -4.4451,-9.168 0.5556,-4.7229 5.4174,-11.2516 10.1403,-13.752 4.4451,-2.3614 4.4451,-2.3614 4.4451,0.8335 0,2.3614 0.1389,2.7782 1.2502,4.0284 0.6945,0.6945 1.2502,1.528 1.2502,1.8058 0,0.8334 1.3891,0.9723 2.5003,0.2778 1.667,-0.9724 3.4728,-4.3062 3.7506,-6.9455 0.2778,-2.7781 -0.6946,-5.2785 -3.6116,-8.3345 -1.1113,-1.1113 -2.6393,-3.056 -3.3339,-4.0284 z m -7.2232,55.5636 c 0,0 0,0.4168 -0.2778,1.1113 -0.5557,1.2502 -1.8059,3.3338 -1.8059,2.7782 0,-0.5556 1.8059,-3.8895 2.0837,-3.8895 z m -16.6691,-41.5337 c 0,-0.6946 3.7505,-5.9731 4.4451,-6.5288 0.2778,-0.1389 -0.5557,1.3891 -1.8058,3.3338 -2.7782,4.1673 -2.6393,4.0284 -2.6393,3.195 z m 1.1113,2.0836 c 0.4167,-1.8058 2.0836,-4.584 4.4451,-7.0844 2.3614,-2.7782 2.917,-2.5003 0.6945,0.1389 -0.8335,1.1113 -2.5004,3.4728 -3.4727,5.1397 -1.3891,2.2225 -1.8058,2.7781 -1.6669,1.8058 z m 11.6683,37.3665 c 0,0.2778 -0.6945,1.3891 -1.3891,2.6393 -0.8334,1.1112 -1.9447,2.3614 -2.5003,2.7782 -0.8335,0.4167 -0.4168,-0.2779 1.2501,-2.3615 2.7782,-3.7505 2.6393,-3.6116 2.6393,-3.056 z m -0.9723,-4.8618 c 0.6945,0 -0.2779,2.6393 -1.8059,5.0007 -1.1112,1.8058 -3.1949,4.0284 -3.1949,3.4727 0,0 0.9724,-1.528 2.0837,-3.1949 1.1112,-1.6669 2.0836,-3.4727 2.2225,-4.1672 0.1389,-0.5557 0.4167,-1.1113 0.6946,-1.1113 z m -1.8059,0.2778 c 0,0.4167 -0.5556,1.6669 -1.1112,2.7782 -1.1113,1.9447 -1.6669,2.3614 -1.528,1.6669 0,-0.8335 2.6392,-5.2785 2.6392,-4.4451 z m -2.0836,-29.7265 c -1.3891,2.3614 -1.528,2.5003 -1.528,1.9447 0,-0.5556 2.2225,-3.8894 2.5004,-3.8894 0.1389,0 -0.2779,0.9723 -0.9724,1.9447 z m -0.4167,-5.9731 c 0.4167,-0.5556 0.9723,-0.9724 1.1112,-0.9724 0.139,0 -0.1389,0.4168 -0.6945,0.9724 -0.4167,0.5556 -0.8334,0.9724 -0.9724,0.9724 -0.1389,0 0.139,-0.4168 0.5557,-0.9724 z m 2.0836,-3.7505 c -1.3891,1.389 -3.3338,3.8894 -4.3062,5.2785 -2.0836,3.1949 -2.5003,3.3338 -0.8334,0.2778 1.3891,-2.7782 4.1672,-5.9731 6.2509,-7.3622 0.9723,-0.6945 0.6945,-0.2778 -1.1113,1.8059 z"
           id="path32" /></g><g
         id="g30"
         style="fill:#000000;fill-opacity:1;stroke-width:0.496632"><path
           id="text29"
           style="font-style:normal;font-variant:normal;font-weight:normal;font-stretch:normal;font-size:52.9167px;line-height:1.1;font-family:'Regular Brush';-inkscape-font-specification:'Regular Brush';text-align:justify;text-decoration-color:#000000;letter-spacing:0px;writing-mode:lr-tb;direction:ltr;text-anchor:start;fill:#000000;fill-opacity:1;stroke-width:2.9798;paint-order:stroke fill markers"
           d="m 6069.9361,2691.506 -7.603,3.6361 c 3.3056,4.8482 6.5011,10.7991 9.5863,17.8512 l 7.6028,-3.9676 c -3.0851,-7.0519 -6.2806,-12.8918 -9.5861,-17.5197 z m -15.8602,6.5066 -7.2723,3.9666 c 3.5259,5.9501 6.7214,12.3419 9.5863,19.1734 l 7.6028,-3.9667 c -3.3056,-7.4927 -6.6111,-13.8843 -9.9168,-19.1733 z"
           sodipodi:nodetypes="cccccccccc" /><path
           style="fill:#000000;fill-opacity:1;stroke-width:0.496632;paint-order:stroke fill markers"
           d="m 6095.1504,2697.0059 c 0,21.8923 -5.3745,34.1822 -12.6543,41.3164 -7.2798,7.1341 -17.0251,9.5654 -27.1055,10.1054 l 0.459,8.5879 c 11.175,-0.5986 23.3445,-3.4178 32.666,-12.5527 9.3215,-9.135 15.2344,-24.1334 15.2344,-47.457 z"
           id="path29" /></g></g><g
       id="g35"
       transform="translate(-5221.014,-960.7082)"><circle
         style="fill:none;fill-opacity:1;stroke:#000000;stroke-width:8.60005;stroke-dasharray:none;stroke-opacity:1;paint-order:stroke fill markers"
         id="path4"
         cx="4843.9365"
         cy="4303.8013"
         r="182.18893" /><text
         xml:space="preserve"
         style="font-style:normal;font-variant:normal;font-weight:600;font-stretch:normal;font-size:105.833px;line-height:1.1;font-family:Oswald;-inkscape-font-specification:'Oswald Semi-Bold';text-align:justify;text-decoration-color:#000000;letter-spacing:0px;writing-mode:lr-tb;direction:ltr;text-anchor:start;fill:#000000;fill-opacity:1;stroke:none;stroke-width:8.59999;stroke-dasharray:none;stroke-opacity:1;paint-order:stroke fill markers"
         id="text31"><textPath
           xlink:href="#path4"
           id="textPath32"
           style="font-style:normal;font-variant:normal;font-weight:600;font-stretch:normal;font-size:105.833px;font-family:Oswald;-inkscape-font-specification:'Oswald Semi-Bold';fill:#000000;fill-opacity:1;stroke:none;stroke-width:8.6">SMILE  SHARE  REPEAT </textPath></text></g></g></svg>
